<svg xmlns="http://www.w3.org/2000/svg" width="36" height="37" fill="none" viewBox="0 0 36 37">
    <path stroke="#3C82E7" stroke-miterlimit="10" d="M34 2l-6 7-7-4-6 7-7-4-6 5"/>
    <path fill="#98CCFD" d="M3.5 13a1.5 1.5 0 1 1-3 0 1.5 1.5 0 0 1 3 0z"/>
    <path fill="#3C82E7" d="M2 12c.55 0 1 .45 1 1s-.45 1-1 1-1-.45-1-1 .45-1 1-1zm0-1a1.999 1.999 0 1 0 0 4 1.999 1.999 0 1 0 0-4z"/>
    <path fill="#98CCFD" d="M9.5 8a1.5 1.5 0 1 1-3 0 1.5 1.5 0 0 1 3 0z"/>
    <path fill="#3C82E7" d="M8 7c.55 0 1 .45 1 1s-.45 1-1 1-1-.45-1-1 .45-1 1-1zm0-1a1.999 1.999 0 1 0 0 4 1.999 1.999 0 1 0 0-4z"/>
    <path fill="#98CCFD" d="M16.5 12a1.5 1.5 0 1 1-3 0 1.5 1.5 0 0 1 3 0z"/>
    <path fill="#3C82E7" d="M15 11c.55 0 1 .45 1 1s-.45 1-1 1-1-.45-1-1 .45-1 1-1zm0-1a1.999 1.999 0 1 0 0 4 1.999 1.999 0 1 0 0-4z"/>
    <path fill="#98CCFD" d="M22.5 5a1.5 1.5 0 1 1-3 0 1.5 1.5 0 0 1 3 0z"/>
    <path fill="#3C82E7" d="M21 4c.55 0 1 .45 1 1s-.45 1-1 1-1-.45-1-1 .45-1 1-1zm0-1a1.999 1.999 0 1 0 0 4 1.999 1.999 0 1 0 0-4z"/>
    <path fill="#98CCFD" d="M29.5 9a1.5 1.5 0 1 1-3 0 1.5 1.5 0 0 1 3 0z"/>
    <path fill="#3C82E7" d="M28 8c.55 0 1 .45 1 1s-.45 1-1 1-1-.45-1-1 .45-1 1-1zm0-1a1.999 1.999 0 1 0 0 4 1.999 1.999 0 1 0 0-4z"/>
    <path fill="#98CCFD" d="M35.5 2a1.5 1.5 0 1 1-3 0 1.5 1.5 0 0 1 3 0z"/>
    <path fill="#3C82E7" d="M34 1c.55 0 1 .45 1 1s-.45 1-1 1-1-.45-1-1 .45-1 1-1zm0-1a1.999 1.999 0 1 0 0 4 1.999 1.999 0 1 0 0-4z"/>
    <path fill="#DFF0FE" d="M31.5 13.5h4v23h-4v-23z"/>
    <path fill="#3C82E7" d="M35 14v22h-3V14h3zm1-1h-5v24h5V13z"/>
    <path fill="#DFF0FE" d="M19.5 18.5h4v18h-4v-18z"/>
    <path fill="#3C82E7" d="M23 19v17h-3V19h3zm1-1h-5v19h5V18z"/>
    <path fill="#DFF0FE" d="M13.5 25.5h4v11h-4v-11z"/>
    <path fill="#3C82E7" d="M17 26v10h-3V26h3zm1-1h-5v12h5V25z"/>
    <path fill="#DFF0FE" d="M7.5 22.5h4v14h-4v-14z"/>
    <path fill="#3C82E7" d="M11 23v13H8V23h3zm1-1H7v15h5V22z"/>
    <path fill="#DFF0FE" d="M1.5 27.5h4v9h-4v-9z"/>
    <path fill="#3C82E7" d="M5 28v8H2v-8h3zm1-1H1v10h5V27z"/>
    <path fill="#DFF0FE" d="M25.5 21.5h4v15h-4v-15z"/>
    <path fill="#3C82E7" d="M29 22v14h-3V22h3zm1-1h-5v16h5V21z"/>
</svg>
