<svg xmlns="http://www.w3.org/2000/svg" width="775" height="716" fill="none" viewBox="0 0 775 716">
    <path fill="#F1F8FF" d="M403 489.079c-144.146 0-261-109.484-261-244.54C142 109.484 258.854 0 403 0c144.146 0 261 109.484 261 244.539 0 135.056-116.854 244.54-261 244.54z"/>
    <g clip-path="url(#a)" opacity=".9">
        <path fill="#fff" d="M601.62 203.255H241.043v229.707H601.62V203.255z"/>
        <path fill="#5C8CD7" d="M601.62 203.255H241.043v58.254H601.62v-58.254z"/>
        <path fill="#DFDFDF" d="M684.919 203.133H367.725v183.12h317.194v-183.12z"/>
        <path fill="#fff" fill-opacity=".25" d="M272.768 238.498a6.137 6.137 0 1 0-.001-12.273 6.137 6.137 0 0 0 .001 12.273zM293.112 238.498a6.136 6.136 0 1 0 0-12.273 6.136 6.136 0 0 0-6.135 6.137 6.135 6.135 0 0 0 6.135 6.136zM313.456 238.498a6.136 6.136 0 1 0-.003-12.273 6.136 6.136 0 0 0 .003 12.273z"/>
        <path fill="#EAF2FF" d="M687.677 145H379.211v229.707h308.466V145z"/>
        <path fill="#7FD6C2" stroke="#7FD6C2" stroke-linejoin="round" stroke-miterlimit="10" stroke-width="2" d="M610.491 285H456.509c-12.42 0-22.509-9.637-22.509-21.5s10.089-21.5 22.509-21.5h153.982c12.42 0 22.509 9.637 22.509 21.5S622.911 285 610.491 285z"/>
        <path fill="#7FD6C2" d="M687.677 145H379.211v58.254h308.466V145z"/>
        <path fill="#fff" fill-opacity=".5" d="M406.698 180.243a6.136 6.136 0 1 0-.001-12.271 6.136 6.136 0 0 0 .001 12.271zM427.042 180.243a6.136 6.136 0 1 0-.001-12.271 6.136 6.136 0 0 0 .001 12.271zM447.385 180.243a6.136 6.136 0 1 0 0-12.272 6.136 6.136 0 0 0 0 12.272z"/>
    </g>
    <path fill="#373556" d="M677.893 335.259l-129.894-41.575 64.18 115.799 14.773-33.268 43.312 35.702 17.558-19.821-43.149-35.586 33.22-21.251z"/>
    <path fill="#5C8CD7" d="M537.089 285.275h-31.485c-12.472 0-22.604-9.698-22.604-21.637 0-11.94 10.132-21.638 22.604-21.638h31.485c12.472 0 22.604 9.698 22.604 21.638 0 11.939-10.132 21.637-22.604 21.637z"/>
    <ellipse cx="262.6" cy="712.169" fill="#A8BFE3" rx="100.6" ry="3.831"/>
    <path fill="url(#b)" d="M277.391 228.413c2.861-3.392 4.799-6.143 3.784-10.268-1.754-7.059-9.599-8.251-17.905-7.242-5.907.733-11.445-2.842-22.059-.459-13.475 3.117-16.428 16.685-14.859 23.744 1.569 7.059 7.107 16.685 7.66 21.819.739 6.875 1.477 12.926 2.954 14.392 1.477 1.467 5.261 3.484 9.414-.55 4.153-4.125 7.845-1.375 11.813-5.408 3.877-4.126 6.369-7.701 5.815-16.135-.554-8.434.092-7.701 3.507-11.093 3.415-3.392 9.876-8.8 9.876-8.8z"/>
    <path fill="#7854C6" d="M278.59 227.129s4.983 38.228-.831 40.704c-7.014 2.933-13.106 3.117-14.121 8.342-1.015 5.225-.277 11.551-.277 11.551l-28.611-1.284 1.477-17.326s3.045 4.125 5.168 1.65 3.507-6.234 5.999-5.775c2.492.458 7.384.641 9.322-3.759 1.938-4.4 1.477-9.259 1.477-9.259s-2.492 2.2-4.338.367c-1.754-1.651-3.784-7.976-1.292-12.285 2.03-3.483 5.26-3.025 6.46-2.108 1.2.916 1.477 3.3 2.123 3.392.646.091 1.938-6.509 4.153-8.068 2.123-1.466 7.661-1.65 13.291-6.142z"/>
    <path stroke="#68B1A3" stroke-miterlimit="10" stroke-width=".864" d="M261.053 241.431c1.846-8.71 4.891-7.884 9.691-9.993 7.937-3.667 12.182-6.692 13.659-10.176 2.492-6.05-3.138-17.601-12.737-16.135-18.551 2.842-29.903 20.352-22.335 17.144 4.707-2.017 8.307-6.326-4.153-7.793-8.399-1.1-30.088 16.043-20.028 26.953 11.352 12.284-3.507 13.201 9.968 26.218"/>
    <path fill="#545293" d="M291.788 432.663c3.876 21.727 11.906 93.233 8.583 132.195-1.199 14.393-8.029 118.352-8.767 124.677l-20.305-.458s-4.246-120.369-9.137-140.996c-4.8-20.626-15.321-48.312-15.321-48.312s-10.429 118.168-11.444 134.395c-1.016 16.226-3.785 54.454-3.785 54.454l-20.396-.366s-5.169-181.882-6.184-209.751c-1.015-27.869 3.23-57.114 3.23-57.114l83.526 11.276z"/>
    <path fill="#7854C6" d="M206.508 343.281c-7.291 9.167-10.614 13.934-10.614 13.934s49.562 12.376 56.669 13.201c7.106.825 23.442 3.301 23.812 5.226.646 3.758-11.537 2.292-14.952 2.292-3.507.091-4.43 4.858-5.999 6.967-2.4 3.392-6.83 6.875-13.567 3.208-5.353-2.933-11.722-6.142-11.722-6.142s-51.223-2.567-57.96-6.509c-6.738-3.942-8.122-8.25-7.107-15.859.831-5.776 16.705-30.803 16.705-30.803l24.735 14.485z"/>
    <path fill="url(#c)" d="M202.448 434.497s2.123-51.613 2.307-82.874l-24.919-21.36s14.213-24.661 16.613-29.153c6.922-12.834 11.998-17.876 26.673-17.601 10.983.183 44.209 1.742 51.038 2.017 17.628.825 24.55 12.559 30.365 23.377 8.86 16.593 15.69 28.144 15.69 28.144l-26.212 20.902-7.198-9.26s1.753 17.602 1.845 26.403c.093 14.393 1.754 32.452 1.754 32.452l2.4 27.044-90.356-.091z"/>
    <path fill="#1E1B4E" d="M211.4 696.044s-2.031 15.218.277 15.676c2.307.458 52.792 1.467 54.269-.092 1.753-1.925.923-3.758-1.569-4.583-1.939-.55-18.736-4.951-25.381-7.976-6.645-3.025-7.384-3.117-7.661-3.117-.277 0-19.935.092-19.935.092zM271.298 696.503s-2.03 15.217.277 15.676c2.308.458 52.792 1.467 54.269-.092 1.754-1.925.923-3.759-1.569-4.584-1.938-.55-18.736-4.95-25.381-7.975-6.645-3.025-7.383-3.117-7.66-3.117-.277.092-19.936.092-19.936.092z"/>
    <path fill="#7854C6" d="M320.306 337.139c5.999 9.992 9.322 14.851 9.322 14.851s29.257-41.62 32.58-47.854c3.23-6.234 11.536-20.627 13.382-20.26 3.784.733-1.938 11.459-3.138 14.759-1.199 3.209 2.954 5.867 4.43 8.068 2.308 3.483 4.061 8.8-1.845 13.751a758.926 758.926 0 0 0-9.968 8.709s-20.674 46.57-26.765 51.521c-6.092 4.859-10.614 4.675-17.444.917-5.168-2.842-22.981-26.494-22.981-26.494l22.427-17.968z"/>
    <path fill="#7365AA" d="M286.897 348.781c-3.508-4.492-10.522-14.118-10.522-14.118l12.275 54.547-1.753-40.429zM204.753 351.623c.185-9.259.093-18.518-.369-25.21l-8.583 17.234 8.952 7.976z"/>
    <path fill="#7854C6" d="M211.215 688.252l.184 7.792s19.751.092 19.936 0l.369-7.517-20.489-.275zM271.299 689.077v7.425h19.935l.369-6.967-20.304-.458z"/>
    <path fill="#373556" d="M246.841 499.861c-4.984-7.793-11.721-21.269-12.46-21.544-.738-.275-.923 21.635-.923 37.77s-.184 84.891.831 91.858c1.015 6.967 12.552-108.084 12.552-108.084z"/>
    <defs>
        <radialGradient id="b" cx="0" cy="0" r="1" gradientTransform="matrix(43.2928 0 0 43.0021 269.647 259.413)" gradientUnits="userSpaceOnUse">
            <stop offset="0" stop-color="#7FBEB6"/>
            <stop offset=".948" stop-color="#ACDCB2"/>
        </radialGradient>
        <linearGradient id="c" x1="254.952" x2="242.446" y1="265.007" y2="443.295" gradientUnits="userSpaceOnUse">
            <stop offset=".002" stop-color="#D4A2F3"/>
            <stop offset="1" stop-color="#8B95D7"/>
        </linearGradient>
        <clipPath id="a">
            <path fill="#fff" d="M0 0h775v436H0z" transform="translate(0 67)"/>
        </clipPath>
    </defs>
</svg>
