<svg xmlns="http://www.w3.org/2000/svg" width="302" height="263" fill="none" viewBox="0 0 302 263">
    <path fill="#F0F4F6" d="M29.714 0H242.66v218.605H29.714z"/>
    <path fill="#1E1B4E" d="M121.638 213.591c-1.505.991-14.791 8.167-16.545 8.908-1.559.658-11.184 2.478-14.014 3.173-1.82-2.437-4.807-7.675-5.204-8.277-.496-.752.765-2.745 3.271-3.981 2.506-1.236 6.769-3.712 9.529-5.697 2.76-1.984 6.546-8.712 8.306-10.702 1.76-1.99 9.276-5.199 10.028-5.445.751-.245 18.294-8.898 21.803-10.629 3.508-1.73 7.506-1.458 9.011-2.45 1.505-.992 5.752-.719 7.252-.71 1.5.008 3.992 1.271 5.239 1.778 1.248.506 1.988 2.26 1.982 3.26-.005.999.218 6-.04 7.498-.259 1.498-1.514 2.491-2.019 3.488-.505.997-8.028 5.455-10.285 6.943-2.258 1.487-13.027 5.428-17.286 7.154-4.258 1.726-9.523 4.697-11.028 5.689z"/>
    <path fill="#3A1656" d="M90.318 227.667l-5.698-9.279-10.532 6.192c5.615 9.361 16.894 28.135 17.093 28.336.248.252-.928-13.252-.925-13.752.002-.4-.64-4.835-.962-7.003l1.024-4.494zM126.94 233.636l-10.591-2.532-3.069 11.825c10.59 2.65 31.84 7.95 32.123 7.951.354.002-10.026-8.715-10.378-9.07-.281-.284-3.872-2.967-5.632-4.272l-2.453-3.902z"/>
    <path fill="#312D61" d="M283.734 175.159c-1.749-.009-12.018 3.934-13.521 4.426-27.163.519-81.69 1.555-82.49 1.551-.999-.006 12.258 44.057 12.25 45.556-.007 1.2 25.196-6.528 37.799-10.542 10.766-3.524 32.751-10.819 34.556-11.809 2.257-1.238 27.291-8.6 28.296-9.594 1.005-.994 1.561-11.239 1.32-12.99-.24-1.751-6.472-4.784-7.469-5.289-.997-.506-8.991-1.299-10.741-1.309z"/>
    <path fill="#46417B" d="M180.778 171.35c20.075 15.939 60.624 48.219 62.215 49.828l-13.326 14.424-26.142-18.638-30.884-20.164-20.653-16.858-5.202-8.777c-.156-1.833-.368-5.8.039-6.998.508-1.497 3.027-5.232 4.027-5.227 1 .006 3.261-2.232 4.264-2.726.802-.396 5.823 1.698 8.233 2.794l9.469 5.301 7.96 7.041z"/>
    <path fill="#6043B9" d="M53.498 195.974c-.262 2.248 1.957 7.759 2.699 9.262 1.654 2.176 5.113 6.527 5.713 6.53.75.004 4.479 3.774 5.973 4.781 1.494 1.008 4.499.025 6.748.037 2.25.012 5.75-.218 8.753-.952 3.004-.733 4.761-2.224 7.769-3.707 3.007-1.483 5.02-3.972 7.278-5.459 2.257-1.487 7.027-5.211 8.532-6.202 1.204-.794 9.554-10.446 13.579-15.173-1.244 14.323-3.885 43.319-4.492 44.716-.759 1.745 11.004-1.19 11.257-1.689.202-.399 6.076-29.627 8.988-44.191 1.458-7.74 4.478-23.72 4.889-25.718.513-2.496 2.03-5.737 1.794-8.238-.236-2.501-1.231-3.506-2.222-5.011-.992-1.505-5.239-1.778-5.738-2.031-.399-.202-3.678 2.23-5.268 3.471-22.897 12.706-68.893 38.316-69.697 39.112-1.005.994-3.764 2.729-4.516 3.225-.753.495-1.777 4.989-2.04 7.237z"/>
    <path fill="#BFADFA" d="M67 94.57c-1.497-.008-4.25 1.52-5.5 2.027-3.008 2.47-9.124 7.563-9.527 8.178-.503.768-2.269 4.359-2.521 4.872-.202.41-4.304 11.292-6.33 16.681l-3.58 15.925 14.197 4.963 2.503-1.53c2.473 4.128 7.716 12.849 8.903 14.707 1.188 1.858.474 4.717-.032 5.915l-4.03 6.921c-1.436 4.021-4.459 12.319-5.063 13.345-.605 1.025-.273 4.37-.032 5.914 3.746-.579 12.088-1.991 15.487-3.001 4.248-1.263 12.247-3.791 18.502-6.843 6.254-3.052 9.275-7.922 9.781-9.205.405-1.026 1.38-8.993 1.817-12.848l1.788-7.705 1.63-24.421c.12-6.686.312-20.726.127-23.401-.231-3.345-.719-5.404-1.46-6.694-.742-1.29-3.489-.79-5.481-1.573-1.992-.782-4.231-2.08-4.73-2.083l-11.727-.064L67 94.57z"/>
    <path fill="#446AB1" d="M249.278 76.744c-.003.5.19 10.999-.066 12.247-.086.333-.307 1.098-.509 1.497s-1.755.99-2.506 1.236c-.999-.172-3.096-.517-3.496-.519-.5-.003-.995-1.005-1.242-1.506-.198-.401-.397-3.502-.472-5.002-.911-1.171-3.03-3.566-4.229-3.772-1.498-.258-4.492-1.274-4.741-1.525-.198-.202-.734-2.92-.976-4.255l.14-25.743c.838-.995 2.616-3.135 3.019-3.733.504-.747 3.753-.73 4.253-.727.5.003 10.734 2.558 10.984 2.56.2 0 1.564 3.507 2.221 5.26l.441 10.75c.161 1.001.483 3.102.481 3.502-.003.5-.759 1.746-1.26 1.993-.401.198-1.174 1.243-1.51 1.741-.176 1.832-.53 5.596-.532 5.996z"/>
    <path fill="#60B3A3" d="M248.577 67.742c-.001.2 2.182-2.904 3.274-4.481l.05-9.248c.004-.75.511-1.996.768-3.245.256-1.248.762-2.245.52-3.746s-.733-3.003-1.229-3.756c-.397-.602-1.827-1.093-2.493-1.263-4.497-.358-13.691-1.075-14.491-1.079-.8-.004-4.835.64-6.753.963-.256.998-.717 3.145-.521 3.746.246.752 1.489 2.008 1.738 2.26.248.25 4.742 1.275 5.241 1.278.4.002 5.494 1.03 7.99 1.543l3.24 1.767 1.732 3.259c.321 2.168.963 6.703.959 7.503l-.025 4.5z"/>
    <path fill="#BEB2E3" d="M279.577 91.906l-29.449-8.159-14.241-1.077c-7.091 1.544-22.024 5.229-25.036 7.612-3.766 2.979-10.086 16.191-11.105 19.685-1.019 3.494-4.398 27.47-4.658 29.218-.259 1.748 4.017 42.763 4.261 43.764.245 1.001 51.751-2.218 53.502-2.459 1.4-.192 13.584-.676 19.5-.893l.022-3.999.965-39.486 5.998.032c1.293-7.991 3.884-24.773 3.902-27.972.021-3.999.309-10.996.063-11.747-.196-.601-2.565-3.263-3.724-4.52z"/>
    <path fill="#1B194C" d="M253.193 229.981c-3.488-2.102-10.613-6.356-11.212-6.559l-9.298 9.197-.034 6.248-3.375 23.227 23.919-32.113zM184.531 216.611l11.264-2.938 2.925 13.513-1.249-.007c-.596 2.246-1.788 6.938-1.792 7.738-.005 1-2.096 17.735-2.1 18.485-.003.6-6.033-24.278-9.048-36.791z"/>
    <path fill="#F9F9F9" stroke="#B4B4B4" stroke-width="10.002500000000001" d="M242.011 79.706l-54.48-.296-.555 101.97 54.48.296z"/>
    <path fill="#446AB1" d="M275.066 160.615l2.627-23.48-15.484-2.334c.075 1.584.173 4.9-.03 5.499-.254.748.712 7.002.706 8.002-.005 1-1.496-.508-2.244-1.012-.747-.504-3.484-2.768-4.728-3.775-1.244-1.006-3.977-4.021-4.722-5.025-.744-1.003-3.728-3.769-3.974-4.52-.246-.751-2.987-2.266-3.484-2.768-.497-.503-4.994-1.027-5.493-1.03-.4-.002-8.169.622-12.003.934l-.508 1.497 4.741 1.526 2.746.515c-.091 1.415-.223 4.347-.025 4.748.247.502 2.488 2.013 3.235 2.517.747.504 2.493 1.264 3.491 1.519.799.204 2.827 1.099 3.741 1.52l3.729 3.77c.745.753 4.955 8.025 5.699 9.028.745 1.004 4.72 5.275 5.216 6.028.496.752 4.727 4.024 5.222 5.027.395.802 2.989 1.849 4.236 2.272 1.587-.658 4.81-2.023 5.011-2.222.201-.199 1.614-5.573 2.295-8.236zM177.153 102.596l6.011-2.217 4.719 5.524-.014 2.5c-.667.163-2.302.587-3.504.981-1.503.491.221 5.25-.033 5.998-.203.599-.932 2.911-1.271 3.992-1.497-.591-4.589-1.924-4.985-2.526-.496-.753-2.72-5.514-2.964-6.515-.196-.801 1.279-5.492 2.041-7.737z"/>
    <path fill="#D8A4F7" d="M88.563 90.55l-.026 4.748c-.669.496-2.207 1.488-3.007 1.483l-6.248-.034-5.74-1.53c.004-.917-.133-3.15-.725-4.753-.739-2.004-2.962-6.765-3.704-8.269-.742-1.503-.94-11.002-.934-12.002.005-1 4.063-11.725 5.573-13.717 1.51-1.991 7.513-2.708 9.263-2.699 1.75.01 5.75-.218 6.498.036.599.203 3.91.937 5.492 1.28l2.73 3.513 2.719 5.514-.107 19.745c-.008 1.5-.773 4.245-1.528 5.24-.755.996-3.25.233-4-.021-.598-.204-2.907-1.433-3.987-2.022l-2.269 3.487z"/>
    <path fill="#68B1A3" d="M91.924 70.211c.003-.5 5.538-7.218 6.045-8.465.416.002 1.251-.243 1.257-1.243.006-1.25-1.238-2.256-1.73-3.759-.491-1.502-2.238-2.011-2.486-2.513-.247-.5-4.742-1.275-6.741-1.286-2-.01-5.5.22-6.498-.035-.999-.256-6.508 1.714-7.766 3.207-1.258 1.493-4.542 7.973-5.554 10.217-1.012 2.244-1.776 4.74-1.783 5.99l-.07 12.996c-.015 2.75-1.052 9.492-1.065 11.991l-.061 11.248c-.015 2.749-.326 13.995-.086 15.746.24 1.751 2.463 6.761 3.202 8.765.739 2.004 2.231 3.261 4.23 3.272 2 .011 2.495 1.014 4 .022s1.012-2.244 1.032-5.993l.033-5.998c.008-1.5-.967-6.004-.952-8.754.015-2.749-.735-2.753.03-5.498.764-2.745 1.011-2.244 2.022-4.238 1.01-1.994-.983-3.005-.978-4.005.006-.999-.966-6.254-.955-8.253.011-2-.232-3.25.029-5.249.26-1.998 1.271-3.992 2.03-5.737.76-1.746 1.258-1.493 2.514-2.486 1.255-.993 3.51-2.23 4.013-2.728.503-.497 6.286-6.714 6.288-7.214z"/>
    <path fill="#D8A4F7" d="M39.99 152.16c.002-.5.538-7.245.791-7.744l12.225 4.066-.007 1.25c-.002.416-.26 1.998-1.276 4.991-1.27 3.743-3.555 10.229-3.806 10.477-.252.249-4.57 12.973-5.074 13.72-.504.747-1.77 3.739-2.277 4.986-.506 1.247-4.292 7.975-4.796 8.722-.504.747-6.077 14.464-6.334 15.712-.257 1.249-2.027 4.988-2.03 5.488-.002.4 2.148 3.511 3.223 5.016-.5-.002-1.75-.109-2.747-.514-1.247-.507-3.746-.521-4.245-.773-.498-.253-23 1.124-23.5 1.122-.5-.003.503-.748 1.006-1.245.502-.497 2.257-1.487 3.011-2.233s6.51-1.964 7.512-2.458c1.002-.495 3.005-.984 4.257-1.477 1.252-.493 2.006-1.239 2.758-1.485.75-.245 2.783-6.233 3.035-6.732.203-.398 7.182-18.29 10.646-27.186 2.115-5.987 6.397-18.061 6.599-18.46.253-.498 1.026-4.743 1.028-5.243z"/>
</svg>
