<svg xmlns="http://www.w3.org/2000/svg" width="39" height="36" fill="none" viewBox="0 0 39 36">
    <path fill="#98CCFD" d="M35.5 5a4.501 4.501 0 0 1-9 0 4.501 4.501 0 0 1 9 0z"/>
    <path fill="#3C82E7" d="M31 1c2.207 0 4 1.793 4 4s-1.793 4-4 4-4-1.793-4-4 1.793-4 4-4zm0-1a5 5 0 1 0 0 10 5 5 0 0 0 0-10z"/>
    <path fill="#3C82E7" d="M31.977 7h-.891V3.766l-1.063.328v-.719l1.86-.664h.094V7z"/>
    <path fill="#B6DCFE" d="M31.5 13.5c0 3.867-3.133 7-7 7s-7-3.133-7-7 3.133-7 7-7 7 3.133 7 7z"/>
    <path fill="#3C82E7" d="M24.5 7c3.586 0 6.5 2.914 6.5 6.5S28.086 20 24.5 20a6.505 6.505 0 0 1-6.5-6.5C18 9.914 20.914 7 24.5 7zm0-1C20.363 6 17 9.363 17 13.5c0 4.137 3.363 7.5 7.5 7.5 4.137 0 7.5-3.363 7.5-7.5C32 9.363 28.637 6 24.5 6z"/>
    <path fill="#3C82E7" d="M26 17h-1.563v-5.66l-1.867.586v-1.278l3.262-1.187H26V17z"/>
    <path fill="#B6DCFE" d="M18.477 26.406l9.578-3.933a2.831 2.831 0 0 1 1.093-.22c1.153 0 2.247.696 2.692 1.852.52 1.368-.27 3.047-1.586 3.68l-11.688 5.867"/>
    <path stroke="#3C82E7" stroke-miterlimit="10" d="M18.477 26.406l9.578-3.933a2.831 2.831 0 0 1 1.093-.22c1.153 0 2.247.696 2.692 1.852.52 1.368-.27 3.047-1.586 3.68l-11.688 5.867"/>
    <path fill="#B6DCFE" d="M21.477 27.406l9.578-3.933a2.831 2.831 0 0 1 1.093-.22c1.153 0 2.246.696 2.692 1.852.52 1.368-.27 3.047-1.586 3.68l-11.688 5.867"/>
    <path stroke="#3C82E7" stroke-miterlimit="10" d="M21.477 27.406l9.578-3.933a2.831 2.831 0 0 1 1.093-.22c1.153 0 2.246.696 2.692 1.852.52 1.368-.27 3.047-1.586 3.68l-11.688 5.867"/>
    <path fill="#DFF0FE" d="M5.727 18.566a9.062 9.062 0 0 1 7.378.477l9.543 5.016a2.95 2.95 0 0 1 1.254 3.945l.575.402 9.578-3.933a2.831 2.831 0 0 1 1.093-.22c1.153 0 2.246.696 2.692 1.852.52 1.368-.27 3.047-1.586 3.68l-11.688 5.867a3.27 3.27 0 0 1-2.828.051L6.793 28.84 0 31.555V20.69l5.727-2.125z"/>
    <path stroke="#3C82E7" stroke-linecap="round" stroke-miterlimit="10" d="M.5 30.816l6.309-2.52 15.14 6.95a2.71 2.71 0 0 0 1.153.254c.43 0 .859-.102 1.242-.293l11.683-5.867c1.133-.547 1.754-1.973 1.344-3.055a2.366 2.366 0 0 0-2.223-1.531 2.33 2.33 0 0 0-.906.18l-9.828 4.039-1.156-.809.199-.387a2.46 2.46 0 0 0-1.043-3.277l-9.539-5.016a8.61 8.61 0 0 0-3.992-.984c-1.02 0-2.024.18-2.985.535L.5 21.04"/>
    <path stroke="#3C82E7" stroke-linecap="round" stroke-miterlimit="10" d="M23.348 27.969a1.991 1.991 0 0 1-2.625.777l-6.125-3.094"/>
</svg>
