<svg xmlns="http://www.w3.org/2000/svg" width="468" height="614" fill="none" viewBox="0 0 468 614">
    <ellipse fill="#D3D7DE" rx="234" ry="7" transform="matrix(-1 0 0 1 234 607)"/>
    <path fill="#fff" fill-opacity=".45" d="M69 1h377v283H69z"/>
    <path stroke="#636370" stroke-linecap="round" stroke-linejoin="round" stroke-miterlimit="10" stroke-opacity=".25" stroke-width="2" d="M116.378 1H69.252v47.18h47.126V1z"/>
    <path stroke="#636370" stroke-linecap="round" stroke-linejoin="round" stroke-miterlimit="10" stroke-opacity=".25" stroke-width="2" d="M163.503 1h-47.126v47.18h47.126V1z"/>
    <path stroke="#636370" stroke-linecap="round" stroke-linejoin="round" stroke-miterlimit="10" stroke-opacity=".25" stroke-width="2" d="M210.589 1h-47.126v47.18h47.126V1zM257.716 1H210.59v47.18h47.126V1z"/>
    <path stroke="#636370" stroke-linecap="round" stroke-linejoin="round" stroke-miterlimit="10" stroke-opacity=".25" stroke-width="2" d="M304.841 1h-47.126v47.18h47.126V1z"/>
    <path stroke="#636370" stroke-linecap="round" stroke-linejoin="round" stroke-miterlimit="10" stroke-opacity=".25" stroke-width="2" d="M351.966 1H304.84v47.18h47.126V1zM116.378 48.18H69.252v47.18h47.126V48.18z"/>
    <path stroke="#636370" stroke-linecap="round" stroke-linejoin="round" stroke-miterlimit="10" stroke-opacity=".25" stroke-width="2" d="M163.503 48.18h-47.126v47.18h47.126V48.18z"/>
    <path stroke="#636370" stroke-linecap="round" stroke-linejoin="round" stroke-miterlimit="10" stroke-opacity=".25" stroke-width="2" d="M210.589 48.18h-47.126v47.18h47.126V48.18zM257.716 48.18H210.59v47.18h47.126V48.18z"/>
    <path stroke="#636370" stroke-linecap="round" stroke-linejoin="round" stroke-miterlimit="10" stroke-opacity=".25" stroke-width="2" d="M304.841 48.18h-47.126v47.18h47.126V48.18z"/>
    <path stroke="#636370" stroke-linecap="round" stroke-linejoin="round" stroke-miterlimit="10" stroke-opacity=".25" stroke-width="2" d="M351.966 48.18H304.84v47.18h47.126V48.18zM116.378 95.36H69.252v47.179h47.126v-47.18z"/>
    <path stroke="#636370" stroke-linecap="round" stroke-linejoin="round" stroke-miterlimit="10" stroke-opacity=".25" stroke-width="2" d="M163.503 95.36h-47.126v47.179h47.126v-47.18z"/>
    <path stroke="#636370" stroke-linecap="round" stroke-linejoin="round" stroke-miterlimit="10" stroke-opacity=".25" stroke-width="2" d="M210.589 95.36h-47.126v47.179h47.126v-47.18zM257.716 95.36H210.59v47.179h47.126v-47.18z"/>
    <path stroke="#636370" stroke-linecap="round" stroke-linejoin="round" stroke-miterlimit="10" stroke-opacity=".25" stroke-width="2" d="M304.841 95.36h-47.126v47.179h47.126v-47.18z"/>
    <path stroke="#636370" stroke-linecap="round" stroke-linejoin="round" stroke-miterlimit="10" stroke-opacity=".25" stroke-width="2" d="M351.966 95.36H304.84v47.179h47.126v-47.18zM116.378 142.54H69.252v47.179h47.126V142.54z"/>
    <path stroke="#636370" stroke-linecap="round" stroke-linejoin="round" stroke-miterlimit="10" stroke-opacity=".25" stroke-width="2" d="M163.503 142.54h-47.126v47.179h47.126V142.54z"/>
    <path stroke="#636370" stroke-linecap="round" stroke-linejoin="round" stroke-miterlimit="10" stroke-opacity=".25" stroke-width="2" d="M210.589 142.54h-47.126v47.179h47.126V142.54zM257.716 142.54H210.59v47.179h47.126V142.54z"/>
    <path stroke="#636370" stroke-linecap="round" stroke-linejoin="round" stroke-miterlimit="10" stroke-opacity=".25" stroke-width="2" d="M304.841 142.54h-47.126v47.179h47.126V142.54z"/>
    <path stroke="#636370" stroke-linecap="round" stroke-linejoin="round" stroke-miterlimit="10" stroke-opacity=".25" stroke-width="2" d="M351.966 142.54H304.84v47.179h47.126V142.54zM116.378 189.719H69.252v47.18h47.126v-47.18z"/>
    <path stroke="#636370" stroke-linecap="round" stroke-linejoin="round" stroke-miterlimit="10" stroke-opacity=".25" stroke-width="2" d="M163.503 189.719h-47.126v47.18h47.126v-47.18z"/>
    <path stroke="#636370" stroke-linecap="round" stroke-linejoin="round" stroke-miterlimit="10" stroke-opacity=".25" stroke-width="2" d="M210.589 189.719h-47.126v47.18h47.126v-47.18zM257.716 189.719H210.59v47.18h47.126v-47.18z"/>
    <path stroke="#636370" stroke-linecap="round" stroke-linejoin="round" stroke-miterlimit="10" stroke-opacity=".25" stroke-width="2" d="M304.841 189.719h-47.126v47.18h47.126v-47.18z"/>
    <path stroke="#636370" stroke-linecap="round" stroke-linejoin="round" stroke-miterlimit="10" stroke-opacity=".25" stroke-width="2" d="M351.966 189.719H304.84v47.18h47.126v-47.18zM116.378 236.858H69.252v47.18h47.126v-47.18z"/>
    <path stroke="#636370" stroke-linecap="round" stroke-linejoin="round" stroke-miterlimit="10" stroke-opacity=".25" stroke-width="2" d="M163.503 236.858h-47.126v47.18h47.126v-47.18z"/>
    <path stroke="#636370" stroke-linecap="round" stroke-linejoin="round" stroke-miterlimit="10" stroke-opacity=".25" stroke-width="2" d="M210.589 236.858h-47.126v47.18h47.126v-47.18zM257.716 236.858H210.59v47.18h47.126v-47.18z"/>
    <path stroke="#636370" stroke-linecap="round" stroke-linejoin="round" stroke-miterlimit="10" stroke-opacity=".25" stroke-width="2" d="M304.841 236.858h-47.126v47.18h47.126v-47.18z"/>
    <path stroke="#636370" stroke-linecap="round" stroke-linejoin="round" stroke-miterlimit="10" stroke-opacity=".25" stroke-width="2" d="M351.966 236.858H304.84v47.18h47.126v-47.18zM399.093 1h-47.126v47.18h47.126V1z"/>
    <path stroke="#636370" stroke-linecap="round" stroke-linejoin="round" stroke-miterlimit="10" stroke-opacity=".25" stroke-width="2" d="M446.179 1h-47.126v47.18h47.126V1zM399.093 48.18h-47.126v47.18h47.126V48.18z"/>
    <path stroke="#636370" stroke-linecap="round" stroke-linejoin="round" stroke-miterlimit="10" stroke-opacity=".25" stroke-width="2" d="M446.179 48.18h-47.126v47.18h47.126V48.18z"/>
    <path stroke="#636370" stroke-linecap="round" stroke-linejoin="round" stroke-miterlimit="10" stroke-opacity=".25" stroke-width="2" d="M399.093 95.36h-47.126v47.179h47.126v-47.18z"/>
    <path stroke="#636370" stroke-linecap="round" stroke-linejoin="round" stroke-miterlimit="10" stroke-opacity=".25" stroke-width="2" d="M446.179 95.36h-47.126v47.179h47.126v-47.18zM399.093 142.54h-47.126v47.179h47.126V142.54z"/>
    <path stroke="#636370" stroke-linecap="round" stroke-linejoin="round" stroke-miterlimit="10" stroke-opacity=".25" stroke-width="2" d="M446.179 142.54h-47.126v47.179h47.126V142.54zM399.093 189.719h-47.126v47.18h47.126v-47.18z"/>
    <path stroke="#636370" stroke-linecap="round" stroke-linejoin="round" stroke-miterlimit="10" stroke-opacity=".25" stroke-width="2" d="M446.179 189.719h-47.126v47.18h47.126v-47.18z"/>
    <path stroke="#636370" stroke-linecap="round" stroke-linejoin="round" stroke-miterlimit="10" stroke-opacity=".25" stroke-width="2" d="M399.093 236.858h-47.126v47.18h47.126v-47.18z"/>
    <path stroke="#636370" stroke-linecap="round" stroke-linejoin="round" stroke-miterlimit="10" stroke-opacity=".25" stroke-width="2" d="M446.179 236.858h-47.126v47.18h47.126v-47.18z"/>
    <path fill="#64B5A6" stroke="#64B5A6" stroke-linejoin="round" stroke-miterlimit="10" stroke-width="2" d="M163.464 220.835a4.57 4.57 0 0 0 4.567-4.572 4.57 4.57 0 0 0-4.567-4.572 4.57 4.57 0 0 0-4.568 4.572 4.57 4.57 0 0 0 4.568 4.572z"/>
    <path stroke="#3C82E7" stroke-width="5" d="M69 218.708c57.254 9.635 148.84 18.728 199.025-58.567C295.058 118.504 290.748 1 290.748 1"/>
    <path stroke="#fff" stroke-width="5" d="M89 278.472c81.545 5.232 234.711-28.357 278.5-54.726C417.929 193.379 442 99.081 442 84.503"/>
    <path fill="url(#a)" d="M119.095 116.394c3.976-2.507 7.568-7.661 3.206-13.79-3.848-5.153-9.235-6.686-17.83-7.103-8.338-.558-22.448-.14-29.503 11.7-4.105 6.964-6.927 18.525-4.49 28.693 2.438 10.169 8.21 16.158 11.16 21.451 1.283 2.229 1.412 2.368 4.49 3.343 3.079.975 9.749 8.218 15.65-2.368 5.9-10.586 4.233-12.536 7.439-19.361 3.207-6.825 9.878-22.565 9.878-22.565z"/>
    <path fill="#D4A2F3" d="M119.225 115.836c2.18-3.343 4.618 39.141 0 44.573-3.335 3.761-7.568 1.254-8.466 3.9-.898 2.647-1.026 13.094-1.026 13.094l-27.323-1.254.898-16.993s1.026.696 3.977.835c2.822.14 3.848-.418 5.387-.139 1.54.279 4.361-.279 5.131-1.114.898-.975 3.592-5.293 4.105-10.865.385-4.457-.257-6.129-.257-6.129s-2.052 1.532-3.848-.557c-1.796-2.089-2.95-10.029-1.154-13.093 3.335-5.711 6.542-.14 6.542-.14s3.72 9.333 3.463-6.129c0-2.089 10.005-1.95 12.571-5.989z"/>
    <path fill="#4F3D9B" d="M133.205 320.175c9.621 57.945 14.238 129.68 11.16 156.841-3.079 27.023-12.828 110.875-12.828 110.875h-16.162s-1.411-104.328-4.49-122.018c-3.078-17.69-12.442-50.98-12.442-50.98s-7.825 63.795-10.904 85.942c-3.078 22.008-16.29 86.917-16.29 86.917H54.445s3.078-106 3.591-129.679c.514-23.68-3.206-76.61-4.746-92.071-1.54-15.461.385-49.448.385-49.448l79.53 3.621z"/>
    <path fill="#D4A2F3" d="M78.176 291.203c-2.052-1.393-31.555-26.187-31.555-26.187l12.955-35.38-25.27-19.361s-13.982 45.27-15.777 53.766c-2.181 9.751 2.822 13.372 7.055 16.158 1.667.975 44.254 26.744 47.076 28.416 6.799 3.76 9.108-15.044 5.516-17.412z"/>
    <path fill="#2E2E3F" d="M52.648 343.019l.129 12.257 85.43-11.282s-7.44-8.079-7.824-7.939c-.385.278-77.735 6.964-77.735 6.964z" opacity=".58"/>
    <path fill="url(#b)" d="M40.08 192.864c5.643-13.372 12.698-17.829 19.112-18.526 6.414-.696 51.951-1.811 63.88.557 12.315 2.368 16.163 32.176 15.65 37.748-.513 5.572-2.309 130.515-2.309 130.515l-86.457 2.925s2.95-49.448 3.335-68.948c.129-9.054.77-22.983.514-34.962L28.79 227.268c4.105-14.346 9.236-29.39 11.288-34.404z"/>
    <path fill="#636370" d="M54.317 594.717s-1.283 13.094.385 13.512c1.667.417 40.663 1.253 41.817-.14 1.283-1.532.641-3.204-1.283-3.761-1.539-.557-14.238-4.736-19.497-6.686-5.131-1.811-6.542-2.368-8.082-2.786-.128-.139-13.34-.139-13.34-.139zM115.249 594.577s-1.283 13.094.384 13.512c1.796.418 40.663 1.254 41.818-.139 1.282-1.532.641-3.204-1.283-3.761-1.539-.557-14.238-4.736-19.498-6.686-5.131-1.811-6.542-2.369-8.081-2.786-.128 0-13.34-.14-13.34-.14z"/>
    <path fill="#1E1B4E" d="M228.768 592.349s-1.411 13.511.257 13.929c1.796.418 40.663 1.254 41.817-.139 1.283-1.532.642-3.204-1.282-3.761-1.54-.557-13.341-3.9-18.472-6.547-5.131-2.646-8.209-3.482-8.851-3.482h-13.469zM147.059 594.856s-1.283 13.094.385 13.512c1.667.417 40.663 1.253 41.817-.14 1.283-1.532.642-3.203-1.283-3.761-1.539-.557-14.238-4.735-19.497-6.685-5.131-1.811-6.542-2.368-8.081-2.786-.129-.14-13.341-.14-13.341-.14zM337.804 592.07s1.411 13.512-.257 13.93c-1.796.418-40.663 1.253-41.817-.14-1.283-1.532-.642-3.203 1.283-3.761 1.539-.557 13.34-3.9 18.471-6.546 5.131-2.508 8.21-3.483 8.851-3.483h13.469zM396.04 592.767s1.411 13.511-.256 13.929c-1.668.418-40.663 1.254-41.818-.139-1.283-1.533-.641-3.204 1.283-3.761 1.539-.557 13.34-3.9 18.471-6.547s8.21-3.482 8.851-3.482h13.469z"/>
    <path fill="url(#c)" d="M343.574 115.697c-2.823-3.204-8.723-6.547-5.131-13.65 8.081-16.158 16.29-1.532 20.78-.557 4.49.975 8.851-5.85 14.367-3.761 5.515 2.09 4.489 6.825 9.492 11.422 2.565 2.367 9.492.696 9.877 11.561.385 9.053-4.49 21.172-6.414 26.325-1.924 5.154-5.387 12.954-7.183 14.208-1.796 1.393-15.906 10.586-20.396-8.497-4.489-19.083-2.822-21.033-6.413-26.883-3.592-5.85-8.979-10.168-8.979-10.168z"/>
    <path fill="#7E51DE" d="M343.575 115.418s-4.105 41.787 1.796 43.319c5.901 1.532 7.568.418 8.723 4.318 1.154 3.9 1.924 17.411 1.924 17.411l27.065.975s-2.18-13.79-2.437-21.45c0 0-2.18 1.81-5.9.975-3.849-.836-6.157-3.065-7.697-5.154-1.411-1.95-4.874-6.686-5.131-12.118-.128-3.761 1.796.278 4.618-2.508 2.694-2.646 3.335-13.232-.385-14.486-2.309-.836-4.361 1.672-4.361 1.672s-3.207 4.178-3.335-4.318c-.513-8.776-14.495-7.661-14.88-8.636zM235.568 224.623c9.236 11.7 30.273 40.951 30.53 45.408.256 4.458-2.438 10.029-4.105 10.865-1.668.836-35.532 29.808-37.969 34.126-3.72 6.686-3.977 9.193-9.877 11.004-2.822.975-6.029-11.143-6.799-17.133-.77-5.85 5.131-8.775 7.44-9.332 3.335-.836 26.809-30.923 26.809-30.923l-23.089-24.793 17.06-19.222zM115.375 235.348s-15.136 31.619-17.574 37.608c-2.437 5.85 2.438 11.84 3.464 12.815 1.026 1.114 28.348 21.172 29.375 23.679 1.026 2.368 1.667 9.472 1.026 14.347-1.155 8.218 2.694 8.358 3.72 6.686.898-1.393 4.361-18.526 5.131-22.286.769-3.761-.642-5.711-1.54-7.383-.898-1.671-22.448-25.49-22.448-25.49l15.522-22.286-16.676-17.69z"/>
    <path fill="#312D61" d="M215.171 341.208c11.289 38.584 23.988 90.121 26.681 118.118 2.694 27.998 1.027 119.094 1.027 119.094h-15.778s-7.953-68.113-11.416-86.778c-3.464-18.526-38.739-89.564-38.739-89.564s1.796 72.57 0 85.385c-1.796 12.815-15.906 97.085-15.906 97.085h-14.495s-5.388-124.247-5.388-141.519c0-17.272-12.186-56.273-12.827-71.734-.641-15.461 3.848-31.619 5.131-31.48 1.283.14 81.71 1.393 81.71 1.393z"/>
    <path fill="#242435" d="M130.641 346.5l-1.155 8.776s18.6 5.572 40.663 2.368c34.378-5.014 47.718-9.054 47.718-9.054l-87.226-2.09z"/>
    <path fill="url(#d)" d="M168.351 184.646c22.961.279 37.456 1.811 43.742 6.825 6.285 5.015 27.964 36.634 27.964 36.634l-20.011 21.868-5.388-3.76s-7.311 55.576-4.361 67.834c2.95 12.397 7.312 34.405 7.312 34.405s-36.815 4.736-59.904 3.203c-23.218-1.532-27.194-5.153-27.194-5.153s10.646-34.684 10.646-48.752c0-14.068-6.413-45.269-6.413-45.269l-3.977 3.621-19.113-17.133s20.524-48.055 29.76-50.423c9.236-2.368 26.937-3.9 26.937-3.9z"/>
    <path fill="url(#e)" d="M196.959 128.929c4.49-9.332 2.053-16.854-11.159-16.158-10.006.418-16.933 2.229-21.935 3.761-4.875 1.532-13.084 5.433-14.11 15.461 0 0-13.213-2.785-20.011 10.308-7.44 14.486-8.338 23.958-3.848 41.091 6.67 25.49-11.673 31.062 4.104 45.688 11.16 10.307 20.781 9.611 27.708 6.268 17.958-8.497 4.361-22.705 7.568-28.973 3.207-6.129 14.88-7.243 15.393-21.033.513-14.626-6.542-20.476-2.951-25.212 3.592-4.596 13.084-9.193 17.061-15.461 3.848-6.129 2.18-15.74 2.18-15.74z"/>
    <path fill="#7E51DE" d="M196.188 127.119c3.592 0 7.055 28.415 7.055 35.24 0 6.826-3.079 10.586-5.003 11.144-1.924.557-8.338-1.115-8.979 2.089-.641 3.204-.385 9.611-.385 9.611h-8.209s1.539-8.079-4.362-11.561c-3.335-1.95-2.308-10.308-2.437-11.004-.128-.696-4.233.975-5.772-5.989-1.796-8.219 3.976-14.487 7.568-9.054 2.822 4.178 3.977 0 3.463-8.915-.256-6.129 10.519-11.422 17.061-11.561zM146.676 584.549h14.495l-.642 10.447-13.468-.14-.385-10.307zM227.23 578.42h15.65l-.641 13.929H228.77l-1.54-13.929z"/>
    <path fill="#242435" d="M177.076 402.078l-10.39-6.547 11.031 86.5-.641-79.953z"/>
    <path fill="#7E51DE" d="M376.799 225.736c-13.854-10.168-17.317-17.411-30.786-30.504-13.469-13.093-27.964-26.605-35.66-36.494-7.312-9.472-17.445-23.679-20.267-25.072-2.951-1.393-4.234.975-3.079 3.343 1.154 2.368 6.798 11.839 6.542 13.093-.257 1.254-1.411 3.064-2.95 6.129-1.54 3.064-2.309 8.775-1.925 11.979.257 1.95 10.391 9.611 13.341 11.421 3.463 2.09 12.956 12.815 18.985 20.894 6.028 8.079 21.293 29.808 29.631 34.544 8.338 4.735 29.118 7.382 27.579 0-1.539-7.383-1.411-9.333-1.411-9.333z"/>
    <path fill="#6666A3" d="M320.355 578.699c-1.539-36.494-4.361-107.393-5.259-126.058-1.796-40.952 14.88-125.78 14.88-125.78l75.682 8.915c2.565 13.929 1.411 25.072.898 38.305-2.694 38.444-7.44 137.898-10.647 204.479h-16.547s-11.032-83.714-12.571-102.518c-1.54-18.805-4.105-72.849-4.105-72.849s-14.367 51.119-15.393 58.92c-1.026 7.8-8.466 116.586-8.466 116.586h-18.472z"/>
    <path fill="#242435" d="M328.438 336.054c2.18.418 78.888 17.273 78.888 17.273l-.898-13.79-77.99-3.483z" opacity=".48"/>
    <path fill="url(#f)" d="M299.705 225.876c18.343-28.137 26.168-44.573 37.969-46.384 5.772-.975 49.001-.417 59.519.558 16.035 1.392 17.83 16.993 16.419 45.826-1.026 21.033-2.052 59.059-2.052 68.252 0 9.194.513 48.334.513 48.334s-52.592-.557-84.148-6.546c0 0 2.053-85.107 2.053-95.554l-4.618 4.736-25.655-19.222z"/>
    <path fill="#7E51DE" d="M299.705 225.876c-10.903 15.044-20.909 29.251-22.32 34.405-1.283 4.596 2.95 10.586 4.49 11.979 3.207 2.925 38.354 30.643 41.047 35.379 4.105 7.243-.769 13.929 4.234 14.486 3.335.279 8.209-11.7 9.107-18.247.898-6.546-.385-13.093-4.49-13.789-3.72-.557-24.115-28.554-24.115-28.554l15.521-17.969-23.474-17.69zM338.957 578.699l-1.154 13.371h-13.469l-.77-13.371h15.393zM396.039 578.699v14.068h-13.597l-.256-14.068h13.853z"/>
    <path fill="#8C88BF" d="M214.916 246.212l-7.953-6.129 4.105 38.305 3.848-32.176z"/>
    <path stroke="#68B1A3" stroke-linecap="round" stroke-linejoin="round" stroke-miterlimit="10" stroke-width=".864" d="M346.271 116.393c-14.367-4.318-14.495-11.839-11.417-18.108 3.079-6.407 18.215-14.207 20.909-1.392 2.822 12.675-3.335 8.636-2.437 4.735.898-3.76 5.002-5.85 9.492-4.875 4.489.975 15.264 11.561 13.469 13.929-1.796 2.368-7.312-.696-5.388-3.76 1.924-3.204 19.754-3.343 25.142 8.775 3.463 7.8 4.618 29.53-16.163 34.126M191.826 126.283c1.282-16.854-42.587-25.211-42.202 5.572.256 19.779 12.314 5.014 7.311.418-4.874-4.597-29.759-3.482-27.322 9.889 2.437 13.372 16.291 27.441 11.031 39.002-5.259 11.7-16.547 20.197-5.002 32.176 8.466 8.775 27.322 23.261 36.43-.697M83.436 159.295s-11.16-10.446-16.291-23.958c-4.49-11.561-2.309-27.997 7.953-32.594 7.825-3.621 22.32-5.153 34.891-1.253 12.57 3.9 14.623 9.75 9.235 14.486-3.976 3.621-12.186 3.064-12.314 4.457-.128 1.532.77 17.69-3.592 7.661-2.052-4.875-8.081-2.228-7.568 3.9.513 7.104 2.95 12.119 6.029 9.89"/>
    <path fill="#559387" d="M330.363 239.805c1.411-1.532 10.518-12.536 10.518-12.536l-11.801 56.134 1.283-43.598z"/>
    <path fill="#D4A2F3" d="M54.447 587.892h14.11l-.642 6.825H54.318l.129-6.825zM115.376 587.892h14.11l-.641 6.825-13.597-.14.128-6.685z"/>
    <path fill="#2E2E3F" d="M98.443 415.032l-12.699-37.887 3.72 109.343 8.98-71.456z" opacity=".58"/>
    <path fill="#242435" d="M362.816 403.193l8.851-16.715s-4.361 86.22-4.361 84.549c0-1.671-4.49-67.834-4.49-67.834z" opacity=".48"/>
    <path fill="#567AAF" d="M53.933 242.033l1.026-22.425-8.338 18.107 7.312 4.318z"/>
    <path fill="#242435" d="M323.564 578.699c1.411-.14 15.393 0 15.393 0l-15.008 5.71-.385-5.71zM396.039 578.699h-13.853l.128 5.014 13.725-5.014z" opacity=".48"/>
    <path fill="#242435" d="M54.445 587.892h14.11l-.384 2.925-13.726-2.925zM115.375 587.892h14.11l-.256 2.507-13.854-2.507z" opacity=".26"/>
    <defs>
        <radialGradient id="a" cx="0" cy="0" r="1" gradientTransform="matrix(50.017 0 0 54.3122 118.405 152.397)" gradientUnits="userSpaceOnUse">
            <stop offset="0" stop-color="#7FBEB6"/>
            <stop offset=".948" stop-color="#ACDCB2"/>
        </radialGradient>
        <linearGradient id="b" x1="117.385" x2="58.824" y1="115.993" y2="358.283" gradientUnits="userSpaceOnUse">
            <stop offset=".188" stop-color="#5C8CD7"/>
            <stop offset="1" stop-color="#84BAFF"/>
        </linearGradient>
        <radialGradient id="c" cx="0" cy="0" r="1" gradientTransform="matrix(73.3033 0 0 79.5982 401.925 171.624)" gradientUnits="userSpaceOnUse">
            <stop offset="0" stop-color="#7FBEB6"/>
            <stop offset=".948" stop-color="#ACDCB2"/>
        </radialGradient>
        <linearGradient id="d" x1="178.486" x2="168.706" y1="182.35" y2="351.466" gradientUnits="userSpaceOnUse">
            <stop offset=".002" stop-color="#D4A2F3"/>
            <stop offset="1" stop-color="#8B95D7"/>
        </linearGradient>
        <radialGradient id="e" cx="0" cy="0" r="1" gradientTransform="matrix(70.3678 0 0 76.4116 207.07 184.08)" gradientUnits="userSpaceOnUse">
            <stop offset="0" stop-color="#7FBEB6"/>
            <stop offset=".948" stop-color="#ACDCB2"/>
        </radialGradient>
        <linearGradient id="f" x1="384.173" x2="335.871" y1="176.95" y2="332.096" gradientUnits="userSpaceOnUse">
            <stop offset=".002" stop-color="#64B5A6"/>
            <stop offset="1" stop-color="#569396"/>
        </linearGradient>
    </defs>
</svg>
