<svg xmlns="http://www.w3.org/2000/svg" width="40" height="40" fill="none" viewBox="0 0 40 40">
    <path fill="#98CCFD" d="M20.5 6.5a3 3 0 1 0 0-6 3 3 0 0 0 0 6z"/>
    <path fill="#3C82E7" d="M20.5 7C18.6 7 17 5.4 17 3.5S18.6 0 20.5 0 24 1.6 24 3.5 22.4 7 20.5 7zm0-6C19.1 1 18 2.1 18 3.5S19.1 6 20.5 6 23 4.9 23 3.5 21.9 1 20.5 1z"/>
    <path fill="#98CCFD" d="M5.7 9.4a3 3 0 1 0 0-6 3 3 0 0 0 0 6z"/>
    <path fill="#3C82E7" d="M5.5 10C3.6 10 2 8.4 2 6.5S3.6 3 5.5 3 9 4.6 9 6.5 7.4 10 5.5 10zm0-6C4.1 4 3 5.1 3 6.5S4.1 9 5.5 9 8 7.9 8 6.5 6.9 4 5.5 4zM21 6.5h-1V12h1V6.5z"/>
    <path fill="#3C82E7" d="M7.861 8.164l-.707.708 2.97 2.97.707-.708-2.97-2.97z"/>
    <path fill="#98CCFD" d="M35.3 9.4a3 3 0 1 0 0-6 3 3 0 0 0 0 6z"/>
    <path fill="#3C82E7" d="M35.5 10C33.6 10 32 8.4 32 6.5S33.6 3 35.5 3 39 4.6 39 6.5 37.4 10 35.5 10zm0-6C34.1 4 33 5.1 33 6.5S34.1 9 35.5 9 38 7.9 38 6.5 36.9 4 35.5 4z"/>
    <path fill="#3C82E7" d="M33.123 8.165l-2.97 2.97.707.707 2.97-2.97-.707-.707z"/>
    <path fill="#98CCFD" d="M20.5 39.5a3 3 0 1 0 0-6 3 3 0 0 0 0 6z"/>
    <path fill="#3C82E7" d="M20.5 40c-1.9 0-3.5-1.6-3.5-3.5s1.6-3.5 3.5-3.5 3.5 1.6 3.5 3.5-1.6 3.5-3.5 3.5zm0-6c-1.4 0-2.5 1.1-2.5 2.5s1.1 2.5 2.5 2.5 2.5-1.1 2.5-2.5-1.1-2.5-2.5-2.5z"/>
    <path fill="#98CCFD" d="M35.3 36a3 3 0 1 0 0-6 3 3 0 0 0 0 6z"/>
    <path fill="#3C82E7" d="M35.5 37c-1.9 0-3.5-1.6-3.5-3.5s1.6-3.5 3.5-3.5 3.5 1.6 3.5 3.5-1.6 3.5-3.5 3.5zm0-6c-1.4 0-2.5 1.1-2.5 2.5s1.1 2.5 2.5 2.5 2.5-1.1 2.5-2.5-1.1-2.5-2.5-2.5zM21 28h-1v5.5h1V28z"/>
    <path fill="#3C82E7" d="M30.868 28.162l-.707.707 2.97 2.97.707-.707-2.97-2.97z"/>
    <path fill="#98CCFD" d="M5.5 36.5a3 3 0 1 0 0-6 3 3 0 0 0 0 6z"/>
    <path fill="#3C82E7" d="M5.5 37C3.6 37 2 35.4 2 33.5S3.6 30 5.5 30 9 31.6 9 33.5 7.4 37 5.5 37zm0-6C4.1 31 3 32.1 3 33.5S4.1 36 5.5 36 8 34.9 8 33.5 6.9 31 5.5 31z"/>
    <path fill="#3C82E7" d="M10.132 28.161l-2.97 2.97.707.707 2.97-2.97-.707-.707z"/>
    <path fill="#DFF0FE" d="M30.5 11.5h-20v17h20v-17z"/>
    <path fill="#3C82E7" d="M31 29H10V11h21v18zm-20-1h19V12H11v16z"/>
    <path fill="#3C82E7" d="M22.5 15h-4c-.3 0-.5-.2-.5-.5s.2-.5.5-.5h4c.3 0 .5.2.5.5s-.2.5-.5.5z"/>
</svg>
