<svg xmlns="http://www.w3.org/2000/svg" width="38" height="38" fill="none" viewBox="0 0 38 38">
    <path fill="#DFF0FE" d="M7.762 36.035l.738-.738V32.5h2.797l.203-.203V29.5h2.797l.203-.203V26.5h2.797l6.285-6.285-5.8-5.797L1.976 30.231l-1.41 4.562 2.644 2.64 4.55-1.398z"/>
    <path fill="#3C82E7" d="M17.785 15.125L2.415 30.492l-1.282 4.16 2.219 2.215 4.144-1.273L8 35.09V32h3v-3h3v-3h3.09l5.785-5.785-5.09-5.09zm0-1.414l6.504 6.504L17.504 27H15v2.504l-.496.496H12v2.504l-.496.496H9v2.504l-.973.973L3.067 38 0 34.934l1.531-4.973 16.254-16.25z"/>
    <path stroke="#98CCFD" stroke-linecap="round" stroke-miterlimit="10" d="M18.5 17.5l-13 13"/>
    <path fill="#DFF0FE" d="M26.5 22.5c6.066 0 11-4.934 11-11s-4.934-11-11-11-11 4.934-11 11 4.934 11 11 11zm2.5-16c1.379 0 2.5 1.121 2.5 2.5s-1.121 2.5-2.5 2.5A2.502 2.502 0 0 1 26.5 9c0-1.379 1.121-2.5 2.5-2.5z"/>
    <path fill="#3C82E7" d="M26.5 1C20.71 1 16 5.71 16 11.5S20.71 22 26.5 22 37 17.29 37 11.5 32.29 1 26.5 1zM29 12c-1.652 0-3-1.348-3-3s1.348-3 3-3 3 1.348 3 3-1.348 3-3 3zM26.5 0C32.852 0 38 5.148 38 11.5S32.852 23 26.5 23 15 17.852 15 11.5 20.148 0 26.5 0zM29 11a1.999 1.999 0 1 0 0-4 1.999 1.999 0 1 0 0 4z"/>
</svg>
