<svg xmlns="http://www.w3.org/2000/svg" width="38" height="36" fill="none" viewBox="0 0 38 36">
    <path fill="#B6DCFE" d="M20 35.5c-9.648 0-17.5-7.852-17.5-17.5S10.352.5 20 .5 37.5 8.352 37.5 18 29.648 35.5 20 35.5zm0-30C13.105 5.5 7.5 11.105 7.5 18S13.105 30.5 20 30.5 32.5 24.895 32.5 18 26.895 5.5 20 5.5z"/>
    <path fill="#3C82E7" d="M20 1c9.375 0 17 7.625 17 17s-7.625 17-17 17S3 27.375 3 18 10.625 1 20 1zm0 30c7.168 0 13-5.832 13-13S27.168 5 20 5 7 10.832 7 18s5.832 13 13 13zm0-31C10.059 0 2 8.059 2 18s8.059 18 18 18 18-8.059 18-18S29.941 0 20 0zm0 30c-6.629 0-12-5.371-12-12S13.371 6 20 6s12 5.371 12 12-5.371 12-12 12z"/>
    <path fill="#DFF0FE" d="M33.5 6c0 3.04-2.46 5.5-5.5 5.5S22.5 9.04 22.5 6 24.96.5 28 .5s5.5 2.46 5.5 5.5z"/>
    <path fill="#3C82E7" d="M28 1c2.758 0 5 2.242 5 5s-2.242 5-5 5-5-2.242-5-5 2.242-5 5-5zm0-1c-3.313 0-6 2.688-6 6 0 3.313 2.688 6 6 6 3.313 0 6-2.688 6-6 0-3.313-2.688-6-6-6z"/>
    <path fill="#DFF0FE" d="M34.5 30c0 3.04-2.46 5.5-5.5 5.5s-5.5-2.46-5.5-5.5 2.46-5.5 5.5-5.5 5.5 2.46 5.5 5.5z"/>
    <path fill="#3C82E7" d="M29 25c2.758 0 5 2.242 5 5s-2.242 5-5 5-5-2.242-5-5 2.242-5 5-5zm0-1c-3.313 0-6 2.688-6 6 0 3.313 2.688 6 6 6 3.313 0 6-2.688 6-6 0-3.313-2.688-6-6-6z"/>
    <path fill="#DFF0FE" d="M11.5 18c0 3.04-2.46 5.5-5.5 5.5S.5 21.04.5 18s2.46-5.5 5.5-5.5 5.5 2.46 5.5 5.5z"/>
    <path fill="#3C82E7" d="M6 13c2.758 0 5 2.242 5 5s-2.242 5-5 5-5-2.242-5-5 2.242-5 5-5zm0-1c-3.313 0-6 2.688-6 6 0 3.313 2.688 6 6 6 3.313 0 6-2.688 6-6 0-3.313-2.688-6-6-6z"/>
</svg>
