<svg xmlns="http://www.w3.org/2000/svg" width="736" height="592" fill="none" viewBox="0 0 736 592">
    <path fill="#EBF3FF" d="M260.934 28.047C108.916 117.56-80.608 335.587 91.413 421.598c110.014 79.01 240.53 104.514 494.563 0 92.437-38.03 82.511-233.03 13.002-302.539-69.509-69.509-207.34-167.974-338.044-91.012z"/>
    <path fill="#fff" stroke="#664ABB" stroke-linejoin="round" stroke-miterlimit="10" stroke-width="20" d="M118.073 137.987h426.566v274.995H118.073V137.987z"/>
    <path fill="#D4A2F3" d="M579.637 501.455s-46.925-45.631-111.983-20.823-127.626 39.055-127.626 39.055-29.889-51.309-40.35-69.043c-13.051-22.118-39.055-19.528-39.055-19.528l46.926 121.15 238.214 6.476"/>
    <path fill="#D4A2F3" d="M308.745 523.572s-46.926-66.453-61.173-76.814c-14.247-10.362-28.693-16.937-46.925-9.166l87.176 121.149 205.834-1.494"/>
    <path fill="#D4A2F3" d="M291.811 517.097s-76.814-54.697-84.685-58.583c-7.871-3.885-32.579-11.756-44.236 3.886l124.936 96.342M463.671 464.99L326.98 505.34l27.298 40.35 160.204-24.708-50.811-55.992z"/>
    <path fill="#D4A2F3" d="M561.405 471.466c39.653 25.406 79.305 92.058 94.748 120.153h-112.98l-43.04-54.995-42.94-31.284s-31.284-28.693-85.98-33.874c-54.697-5.181-61.173-32.579-61.173-32.579 162.795-3.885 200.554 0 251.365 32.579z"/>
    <path fill="#392D40" d="M302.17 452.536c7.173 11.458 13.35 23.513 19.926 35.369 1.693 3.088 3.487 6.177 5.28 9.265.299.598 4.085 7.771 4.284 7.771.498.1 2.889-1.693 3.487-1.893 11.557-5.38 24.31-8.767 36.564-12.354 17.734-5.18 35.668-9.763 53.8-13.45 14.048-2.889 29.59-6.575 44.036-4.682 19.328 2.491 43.339 12.852 53.103 30.686.299.597-.598 1.096-.897.498-8.169-14.945-26.501-23.812-42.342-28.096-13.151-3.586-25.705-2.391-38.955-.199-27.897 4.683-55.494 11.956-82.394 20.424-5.579 1.793-11.159 3.587-16.638 5.679-2.989 1.096-6.675 2.192-9.266 4.284a.482.482 0 0 1-.697 0s0-.1-.1-.1c-10.76-17.136-19.328-35.468-30.088-52.604-.299-.598.498-1.096.897-.598zM210.612 448.153l65.058 85.183c.399.498-.498.996-.897.498l-65.058-85.183c-.299-.498.499-.996.897-.498z"/>
    <path stroke="#392D40" stroke-miterlimit="10" d="M266.203 443.968l43.837 113.977"/>
    <path fill="#392D40" d="M218.182 444.566c4.783 4.882 10.163 11.258 6.476 18.332-.299.598-1.195.1-.896-.498 3.387-6.675-1.893-12.653-6.377-17.136a.483.483 0 0 1 0-.698c.299-.099.598-.099.797 0zM174.343 457.319c9.266 2.192 23.313 12.852 18.033 23.712-.299.598-1.096.099-.897-.498 4.982-10.163-8.867-20.225-17.435-22.218-.598-.099-.299-1.096.299-.996z"/>
    <path fill="#4927B0" d="M65.731 440.182h523.055l15.543-20.722c.697-.897.498-2.093-.399-2.79-.299-.299-.797-.399-1.195-.399H52.48a1.999 1.999 0 0 0-1.992 1.993c0 .399.1.797.398 1.096l14.845 20.822z"/>
    <path fill="#5C8CD7" d="M255.433 280.356c0 45.138 36.614 81.741 81.765 81.741 20.922 0 40.019-7.844 54.477-20.768 7.55-6.759 13.866-14.898 18.455-24.024 5.625-11.1 8.783-23.63 8.783-36.949 0-45.137-36.614-81.74-81.765-81.74-45.101.049-81.715 36.603-81.715 81.74z"/>
    <path fill="#fff" d="M368.208 279.579l-49.507 28.583v-57.165l49.507 28.582z"/>
    <path fill="#AAC6FC" d="M0 182.6c0 15.547 7.868 29.268 19.873 37.358.224.149.41.299.634.41a45.301 45.301 0 0 0 9.433 4.661 48.563 48.563 0 0 0 6.561 1.789c2.76.522 5.593.821 8.538.821h.448a51.219 51.219 0 0 0 7.233-.634 39.015 39.015 0 0 0 4.026-.895 44.103 44.103 0 0 0 13.572-6.226 45.235 45.235 0 0 0 12.34-12.49c.709-1.081 1.38-2.163 1.977-3.318a44.795 44.795 0 0 0 5.443-21.476c0-14.205-6.6-26.919-16.89-35.158-.67-.522-1.342-1.044-2.013-1.529-2.759-1.976-5.741-3.616-8.91-4.959a44.918 44.918 0 0 0-4.437-1.566 45.312 45.312 0 0 0-12.789-1.826h-.745c-.373 0-.746 0-1.119.037a44.304 44.304 0 0 0-10.737 1.752c-7.383 2.125-13.982 6.115-19.276 11.446l-.336.336a44.406 44.406 0 0 0-8.5 12.229C1.53 169.178 0 175.703 0 182.6z"/>
    <path fill="#97D5CA" d="M612.479 68.324c0 34.114 27.664 61.778 61.779 61.778 15.808 0 30.237-5.928 41.161-15.696 5.704-5.108 10.476-11.26 13.944-18.157 4.25-8.389 6.636-17.859 6.636-27.925 0-34.115-27.664-61.78-61.779-61.78-34.077.038-61.741 27.665-61.741 61.78z"/>
    <path fill="#4FA696" d="M487.728 319.248c0 .746.037 1.492.074 2.237 1.156 15.771 14.28 28.224 30.349 28.224 1.529 0 3.058-.112 4.512-.335 8.836-1.305 16.442-6.45 21.102-13.684 3.057-4.735 4.81-10.364 4.81-16.442 0-16.814-13.609-30.423-30.424-30.423a30.376 30.376 0 0 0-21.363 8.762c-5.593 5.518-9.06 13.161-9.06 21.661z"/>
    <path fill="#5C8CD7" d="M592.928 331.918a8.12 8.12 0 1 1 0-16.24 8.12 8.12 0 0 1 0 16.24zM263.554 106.795a8.12 8.12 0 1 1 0-16.24 8.12 8.12 0 0 1 0 16.24zM155.395 266.525a6.975 6.975 0 1 1 0-13.95 6.975 6.975 0 0 1 0 13.95z"/>
    <path fill="#7FD6C2" stroke="#7FD6C2" stroke-linejoin="round" stroke-miterlimit="10" stroke-width="2" d="M499.711 227.524c-17.811 0-32.25-14.439-32.25-32.25s14.439-32.25 32.25-32.25 32.25 14.439 32.25 32.25-14.439 32.25-32.25 32.25z"/>
    <path fill="#7FD6C2" d="M189.111 368.965c-15.845 0-28.69-12.845-28.69-28.691 0-15.845 12.845-28.69 28.69-28.69s28.691 12.845 28.691 28.69c0 15.846-12.846 28.691-28.691 28.691z"/>
</svg>
