<svg xmlns="http://www.w3.org/2000/svg" width="34" height="34" fill="none" viewBox="0 0 34 34">
    <path fill="#98CCFD" d="M3 33.5A2.502 2.502 0 0 1 .5 31V3C.5 1.621 1.621.5 3 .5h28c1.379 0 2.5 1.121 2.5 2.5v28c0 1.379-1.121 2.5-2.5 2.5H3z"/>
    <path fill="#3C82E7" d="M31 1c1.102 0 2 .898 2 2v28c0 1.102-.898 2-2 2H3c-1.102 0-2-.898-2-2V3c0-1.102.898-2 2-2h28zm0-1H3a3 3 0 0 0-3 3v28a3 3 0 0 0 3 3h28a3 3 0 0 0 3-3V3a3 3 0 0 0-3-3z"/>
    <path fill="#fff" d="M11 26.5a3.5 3.5 0 1 1-7 0 3.5 3.5 0 1 1 7 0z"/>
    <path stroke="#fff" stroke-miterlimit="10" stroke-width="4" d="M4 15c8.285 0 15 6.715 15 15M4 6c13.254 0 24 10.746 24 24"/>
</svg>
