<svg xmlns="http://www.w3.org/2000/svg" width="595" height="469" fill="none" viewBox="0 0 595 469">
    <path fill="#EBF3FF" d="M169.596 320.766c358.513 81.595 378.521 78.378 416.496-8.664 14.597-33.591 17.007-212.402-38.177-265.285-55.183-52.883-224.388-69.195-343.299 2.98C85.705 121.974 72.588 167.589 55.03 226.962c-15.009 50.755 75.285 84.839 114.566 93.804z"/>
    <path fill="#9B9B9B" d="M316.18 282.128c.119 3.489.119 6.746 7.951 11.631 6.408 4.07 68.119 41.522 77.019 44.778 8.307 3.024 10.562.233 12.461-3.14 2.017-3.373 16.852-48.733 17.089-53.502.356-4.768-.475-7.211-1.661-7.56-1.187-.349-82.241-43.616-82.241-43.616l-30.618 51.409z"/>
    <path fill="#B4B4B4" d="M400.913 334.816c-1.305-.582-76.545-41.988-81.41-47.105-4.866-5.118-2.73-7.444-1.424-10.119 1.305-2.675 21.005-47.454 23.141-49.199 2.255-1.744 4.391-.698 7.358.698 2.017.931 73.103 39.894 76.07 41.871 3.085 1.977 5.459 3.257 5.34 5.583 0 1.628-16.258 53.386-18.869 56.526-2.374 2.908-6.171 3.722-10.206 1.745z"/>
    <path fill="#fff" d="M325.199 282.244c.593-.814 21.717-47.686 21.717-47.686l72.984 40.01-19.462 51.408-75.239-43.732z"/>
    <path fill="#5C8CD7" d="M356.41 275.847c-.713 7.444 7.595 18.261 17.563 21.168 9.969 2.908 18.395-7.211 18.395-14.189 0-7.211-8.545-18.61-16.852-20.238-8.663-1.861-18.157 3.954-19.106 13.259z"/>
    <path fill="#fff" d="M367.209 278.406l12.105 6.746-2.611-11.282-9.494 4.536z"/>
    <path fill="#7854C6" d="M471.226 277.319c-46.52-30.527-63.016-35.18-68.356-31.662-5.34 3.518-22.904 20.427-20.412 22.356 2.492 1.93 13.173-11.348 16.733-9.078 3.56 2.269 4.628 9.986 13.766 12.256 9.138 2.27 12.342 1.135 15.428 3.404 7.714 5.561 31.804 22.357 35.721 20.201 3.916-2.157 7.12-17.477 7.12-17.477z"/>
    <g clip-path="url(#a)">
        <path fill="#D4A2F3" d="M102.178 272.905c-1.068 34.622.712 44.345-3.204 52.171-3.917 7.825-14.479 28.575-14.479 28.575l16.733 9.486s19.463-19.327 22.311-29.999c2.848-10.789 7.595-52.645 6.171-52.17-1.543.474-27.532-8.063-27.532-8.063zM221.09 272.905c1.542 16.362 7.713 38.535 9.138 41.025 1.424 2.609 25.396-18.615 33.228-37.587 2.492-6.047.356-26.678 2.255-28.338 4.866-4.506 5.459 11.857 7.358 9.13 6.289-8.893 9.375-20.276 10.799-20.513 4.747-.83 3.442 3.32 2.255 7.945-.95 3.794 5.577-4.98 7.239-3.083 1.543 1.66 6.883 6.284 6.29 12.212-.594 5.573-8.664 21.106-16.259 28.813-3.916 3.913-6.052 8.893-10.206 14.94-4.153 5.928-30.736 41.618-36.314 45.294-4.865 3.201-8.782 8.181-18.394.474-9.494-7.707-25.278-55.61-21.955-59.759 3.323-4.032 24.566-10.553 24.566-10.553zM78.68 356.852c-8.188 16.363-11.63 31.066-28.362 33.319-14.004 1.897-30.737 6.047-18.039 10.315 27.414 9.011 31.33.237 38.57 2.134 11.036 2.965 15.664 5.455 18.038 3.676 4.747-3.557-5.697-5.573-8.9-8.656-3.205-3.082 16.495-28.931 16.495-28.931L78.68 356.852z"/>
        <path fill="#6043B9" d="M99.45 360.765c17.444-2.608 26.582-10.671 26.582-10.671s82.241-8.3 83.546-7.352c6.409 4.743 28.482-6.165 28.482-6.165l-57.913 62.605-80.698-38.417z"/>
        <path fill="#1E1B4E" d="M156.412 412.936l10.562 15.651s-19.581 16.244-29.312 22.41c-7.951 5.098-25.99 8.063-29.431.83-4.629-9.367 3.797-19.446 13.647-25.018 12.698-7.233 34.534-13.873 34.534-13.873z"/>
        <path fill="#6043B9" d="M179.91 386.969c28.363-27.39 50.199-48.258 63.253-55.965 15.072-8.893 38.332-8.063 42.723-1.304 8.07 12.45-5.103 33.792-17.327 43.634-18.869 15.177-64.202 38.535-80.698 46.123-16.495 7.589-20.886 9.249-20.886 9.249l-12.936-18.853c-.118.119 19.344-16.6 25.871-22.884z"/>
        <path fill="#6043B9" d="M213.85 412.58c-62.897-35.452-129.948-75.055-149.054-69.719-16.615 4.624-21.361 15.296-18.87 24.9 3.798 15.058 23.854 29.998 51.505 35.926 27.295 5.81 94.939 23.952 106.688 28.339l9.731-19.446z"/>
        <path fill="url(#b)" d="M101.229 276.699c-.356-22.054-.356-31.184.119-40.195.593-12.569 15.19-21.699 26.464-20.75 3.916.356 36.314 5.217 36.314 5.217s27.651 2.846 34.297 3.083c12.105.474 18.869 9.96 19.937 19.09 1.187 9.604 4.154 35.808 4.154 35.808l-18.276 8.3s-2.374 12.568.593 29.642c2.967 17.074 7.833 27.271 7.833 27.271s-15.309 16.837-46.876 15.77c-19.463-.711-40.943-6.758-40.943-6.758l-1.78-71.379-21.836-5.099z"/>
        <path fill="url(#c)" d="M198.541 146.035c5.696 19.801 19.344 36.638 15.902 49.799-3.441 13.162-25.277 19.801-41.417 23.477-14.003 3.201-59.455-8.774-62.066-21.58-2.611-12.805 11.986-27.508 22.667-51.34 11.274-25.019 58.268-23.714 64.914-.356z"/>
        <path fill="#D4A2F3" d="M155.463 170.935c-3.323-8.419-15.072-2.609-14.36 5.81.713 8.418 7.952 12.449 11.274 9.722l.95 41.144 25.515 8.893s-.475-20.631 1.068-24.426c1.424-3.794 13.291-2.608 17.326-10.908 3.086-6.521-2.017-34.86-4.153-48.851 0 0-8.664 14.466-18.988 17.786-10.325 3.32-18.632.83-18.632.83z"/>
        <path fill="#1E1B4E" d="M213.851 412.58c13.41 4.862 32.872 9.486 37.382 12.569 6.171 4.15 14.122 15.888 11.037 19.801-3.086 4.031-12.461 7.233-25.871 3.794-13.41-3.438-33.466-16.6-32.279-16.837 1.186-.237 9.731-19.327 9.731-19.327z"/>
        <path stroke="#4927B0" stroke-miterlimit="10" stroke-width=".864" d="M113.809 359.105c30.143 15.177 53.166 28.813 60.523 33.437 7.477 4.624 34.772 17.074 34.772 17.074M224.887 348.078c-11.63 9.604-42.367 40.077-47.945 43.99"/>
        <path stroke="#68B1A3" stroke-miterlimit="10" stroke-width=".864" d="M194.862 144.019c-2.017 7.589-4.746 23.359-20.649 28.813-12.223 4.15-19.7-2.609-19.7-2.609s-2.254-4.505-5.815-3.557c-3.56.949-7.357 5.81-6.289 12.924 1.068 6.403 7.001 8.537 10.206 6.996l.356 31.539"/>
        <path stroke="#68B1A3" stroke-miterlimit="10" stroke-width=".864" d="M192.845 152.082c1.543 10.316 17.682 39.839 11.986 50.866-4.391 8.419-23.735 5.455-24.447 8.3-.712 2.846-.831 6.877-.831 6.877"/>
        <path stroke="#4927B0" stroke-miterlimit="10" stroke-width=".864" d="M160.802 419.576c8.664 2.846 16.377 4.15 16.377 4.15"/>
        <path stroke="#3962B5" stroke-miterlimit="10" stroke-width=".864" d="M199.846 252.274c4.866 4.98 14.834 18.141 4.391 35.096 0 0-1.543 13.754 0 24.9 1.662 11.62 4.035 19.683 4.035 19.683M149.054 230.575l32.635 12.569-1.187-19.683"/>
        <path stroke="#68B1A3" stroke-miterlimit="10" stroke-width=".864" d="M194.862 143.189c-9.613 18.141-30.5 16.481-49.25 19.92-55.064 10.078-35.246 27.034-11.867 39.958"/>
        <path fill="#545293" d="M476.356 405.603c-61.948-20.276-117.962-35.453-129.592-33.2-14.597 2.846-29.075 22.173-18.988 38.061 13.648 21.698 152.971 61.894 181.571 58.811 28.482-3.083 49.012-18.616 57.082-28.338 8.07-9.723 8.663-46.954 5.459-54.898-3.204-8.182-95.532 19.564-95.532 19.564z"/>
        <path fill="#545293" d="M448.824 403.35c31.092-40.077 53.522-54.187 65.745-56.439 12.223-2.253 54.115 59.759 39.044 71.379-14.953 11.62-104.789-14.94-104.789-14.94z"/>
        <path stroke="#3B3A4F" stroke-miterlimit="10" stroke-width=".864" d="M454.518 399.319c16.14 4.624 22.667 7.232 50.555 12.094 37.264 6.521 52.81 5.572 65.627-1.779"/>
        <path fill="#1E1B4E" d="M422.596 447.695c-24.684-3.794-38.806-5.336-50.555-1.186-11.748 4.15-7.951 12.569 0 17.786 7.951 5.217 21.599 4.98 34.89 7.233 13.292 2.252 29.787 5.572 33.585 2.371 4.391-3.676 9.019-14.466 4.391-17.904-4.51-3.439-22.311-8.3-22.311-8.3z"/>
        <path stroke="#3962B5" stroke-miterlimit="10" stroke-width=".864" d="M123.065 281.797c-.593-8.299-1.068-27.152-1.068-27.152"/>
        <path fill="url(#d)" d="M458.555 169.411c-5.934-5.572-10.443-7.232-9.969-15.414.475-8.181 3.679-17.548 14.597-16.955 11.274.711 25.871 11.738 25.634 11.382-6.29-16.599 36.433.475 38.925 8.893 2.492 8.419.474 27.153-3.442 36.283-3.916 9.248-9.968 13.754-8.426 27.745.475 3.913-20.411 3.201-25.752-3.676-5.34-6.995-11.155-26.559-11.155-26.559l-20.412-21.699z"/>
        <path fill="#7854C6" d="M458.436 166.684c-1.186 22.884-7.358 54.305 3.086 57.388 9.968 2.846 13.647.356 17.919 4.743 1.781 1.778 7.002 18.378 7.002 18.378l34.06-16.362-4.51-9.367s-1.661-.356-5.696-1.423c-4.035-1.186-3.917-6.047-8.426-4.98-4.51 1.067-12.342 1.067-15.784-11.976 0 0 2.611.475 4.272-2.134 1.781-2.609 4.747-16.126.594-18.378-5.459-2.846-8.189 6.64-9.375 6.758-1.187.119 1.068-10.79 0-14.703-1.068-3.912-5.459.356-14.004-2.845-6.883-2.609-9.138-5.099-9.138-5.099zM436.957 318.335l-1.187 33.2s-56.726-13.043-63.728-16.6c-7.12-3.676-17.207-19.801-20.056-19.208-2.729.593.831 5.454 2.611 9.248 1.78 3.794 4.272 10.79 1.424 10.434-2.255-.237-24.209-8.892-24.209-8.892s2.136 9.722 12.579 17.192c11.749 8.537 20.056 11.976 36.789 18.142 32.517 11.975 60.168 29.642 74.883 29.286 11.037-.237 16.97-8.062 18.038-13.991 1.069-5.928 2.137-54.898 2.137-54.898l-15.665-6.64-23.616 2.727z"/>
        <path fill="url(#e)" d="M434.583 328.414c1.543-45.413-3.085-71.498 14.36-81.458 19.106-10.908 63.728-20.631 77.731-21.461 31.686-1.66 36.789 50.511 38.332 72.565 2.017 27.864 8.781 96.16 8.781 96.16s-3.204 9.13-33.466 15.296c-30.261 6.165-67.169-8.656-67.169-8.656l-2.017-69.363-36.552-3.083z"/>
        <path stroke="#68B1A3" stroke-miterlimit="10" stroke-width=".864" d="M518.96 200.832c18.869-14.347 14.715-35.689 7.002-46.242-3.679-4.98-28.245-12.45-32.161-12.331-3.916.237-5.578 2.134-5.222 6.284 0 0 0 3.676 2.255 9.13 2.611 6.284 7.121 8.063 9.969 3.676 2.729-4.15-5.578-9.368-17.445-16.363-10.444-6.166-14.834-21.817-30.143-15.296-9.969 4.269-9.02 28.576 0 34.504 8.663 5.573 23.972 3.32 27.532 7.233 3.56 3.913 1.068 13.636 1.068 13.636"/>
        <path stroke="#9D82E8" stroke-miterlimit="10" stroke-width=".864" d="M471.135 294.74c-.237 11.501 0 36.756 0 36.756M476.951 298.178l-5.341 10.079"/>
    </g>
    <path fill="#AAC6FC" d="M162.206 62.19c7.8 0 14.123-6.047 14.123-13.505 0-7.459-6.323-13.505-14.123-13.505-7.799 0-14.122 6.046-14.122 13.505 0 7.458 6.323 13.504 14.122 13.504zM300.579 44.94c12.977 0 23.497-10.06 23.497-22.47 0-12.41-10.52-22.47-23.497-22.47s-23.497 10.06-23.497 22.47c0 12.41 10.52 22.47 23.497 22.47zM258.689 101.227c5.178 0 9.375-4.014 9.375-8.965s-4.197-8.965-9.375-8.965-9.375 4.014-9.375 8.965 4.197 8.965 9.375 8.965z"/>
    <defs>
        <linearGradient id="b" x1="164.849" x2="159.38" y1="370.763" y2="198.744" gradientUnits="userSpaceOnUse">
            <stop offset=".002" stop-color="#5C8CD7"/>
            <stop offset="1" stop-color="#416FC0"/>
        </linearGradient>
        <radialGradient id="c" cx="0" cy="0" r="1" gradientTransform="matrix(113.632 0 0 113.533 141.97 111.74)" gradientUnits="userSpaceOnUse">
            <stop offset="0" stop-color="#7FBEB6"/>
            <stop offset=".948" stop-color="#ACDCB2"/>
        </radialGradient>
        <radialGradient id="d" cx="0" cy="0" r="1" gradientTransform="matrix(185.356 0 0 185.195 577.365 232.767)" gradientUnits="userSpaceOnUse">
            <stop offset="0" stop-color="#B1BE8B"/>
            <stop offset=".948" stop-color="#7FD6C2"/>
        </radialGradient>
        <linearGradient id="e" x1="508.949" x2="498.057" y1="498.432" y2="180.605" gradientUnits="userSpaceOnUse">
            <stop offset=".002" stop-color="#86BCFA"/>
            <stop offset=".948" stop-color="#BFACFA"/>
        </linearGradient>
        <clipPath id="a">
            <path fill="#fff" d="M0 0h582v440H0z" transform="translate(0 28.532) scale(1.00057)"/>
        </clipPath>
    </defs>
</svg>
