<svg width="16" height="19" viewBox="0 0 16 19" fill="none" xmlns="http://www.w3.org/2000/svg">
<path fill-rule="evenodd" clip-rule="evenodd" d="M14.6286 6.70588H12.5714V5.14118C12.5714 1.90313 11.0462 0 8 0C4.95383 0 3.42857 1.90313 3.42857 5.14118V6.70588H1.14286C0.511543 6.70588 0 7.42967 0 8.04706V16.7647C0 17.3794 0.4896 18.0368 1.08777 18.2255L2.45509 18.6569C3.05326 18.8458 4.05714 19 4.68571 19H11.3143C11.9429 19 12.9467 18.8458 13.5449 18.6569L14.9122 18.2255C15.5104 18.0368 16 17.3794 16 16.7647V8.04706C16 7.42967 15.2599 6.70588 14.6286 6.70588Z" fill="#757575"/>
</svg>
