<svg xmlns="http://www.w3.org/2000/svg" width="711" height="169" fill="none" viewBox="0 0 711 169">
    <path fill="#6AA4FC" fill-rule="evenodd" d="M296.595 0a2.07 2.07 0 0 0-2.071 2.07v164.107a2.07 2.07 0 1 0 4.142 0V2.071A2.07 2.07 0 0 0 296.595 0zm-11.781 17.9a2.071 2.071 0 0 0-2.071 2.07v128.309a2.071 2.071 0 0 0 4.142 0V19.969a2.07 2.07 0 0 0-2.071-2.07zm151.081 25.339a2.071 2.071 0 0 1 4.142 0v81.772a2.07 2.07 0 1 1-4.142 0V43.239zm-233.548-2.071a2.07 2.07 0 0 0-2.07 2.07v81.773a2.07 2.07 0 1 0 4.141 0V43.239a2.07 2.07 0 0 0-2.071-2.071zm-13.851 14.598a2.07 2.07 0 1 1 4.142 0v56.714a2.07 2.07 0 0 1-4.142 0V55.766zM0 82.615a2.07 2.07 0 1 1 4.142 0v3.018a2.07 2.07 0 1 1-4.142 0v-3.018zm379.063-5.652a2.07 2.07 0 0 0-2.071 2.07v11.968a2.07 2.07 0 1 0 4.142 0V79.033c0-1.143-.928-2.07-2.071-2.07zM11.781 82.615a2.07 2.07 0 1 1 4.141 0v3.018a2.07 2.07 0 0 1-4.141 0v-3.018zm376.991-12.531a2.071 2.071 0 0 1 4.142 0V99.95a2.07 2.07 0 1 1-4.142 0V70.084zM25.633 80.544a2.07 2.07 0 0 0-2.07 2.07v3.019a2.07 2.07 0 0 0 4.141 0v-3.018a2.07 2.07 0 0 0-2.07-2.07zm186.425-24.778a2.07 2.07 0 1 1 4.142 0v56.714a2.07 2.07 0 0 1-4.142 0V55.766zm190.568-2.071a2.07 2.07 0 0 0-2.071 2.07v56.715a2.07 2.07 0 0 0 4.141 0V55.766a2.07 2.07 0 0 0-2.07-2.071zM35.344 82.615a2.07 2.07 0 1 1 4.141 0v3.018a2.07 2.07 0 0 1-4.142 0v-3.018zm190.567-5.652a2.07 2.07 0 0 0-2.071 2.07v11.968a2.07 2.07 0 1 0 4.142 0V79.033a2.07 2.07 0 0 0-2.071-2.07zm186.424-6.879a2.07 2.07 0 1 1 4.142 0V99.95a2.07 2.07 0 1 1-4.142 0V70.084zm-363.14 10.46a2.07 2.07 0 0 0-2.07 2.07v3.019a2.07 2.07 0 0 0 4.142 0v-3.018a2.07 2.07 0 0 0-2.071-2.07zm186.426-12.248a2.07 2.07 0 1 1 4.141 0v31.656a2.071 2.071 0 0 1-4.141 0V68.296zm190.566-14.601a2.07 2.07 0 0 0-2.07 2.07v56.715a2.07 2.07 0 0 0 4.141 0V55.766a2.07 2.07 0 0 0-2.071-2.071zM58.904 79.034a2.07 2.07 0 0 1 4.142 0V91a2.07 2.07 0 1 1-4.142 0V79.033zm190.568-25.34a2.07 2.07 0 0 0-2.071 2.071v56.714a2.07 2.07 0 1 0 4.141 0V55.765a2.07 2.07 0 0 0-2.07-2.07zM72.756 68.014a2.07 2.07 0 0 0-2.07 2.07V99.95a2.07 2.07 0 1 0 4.14 0V70.084a2.07 2.07 0 0 0-2.07-2.07zm186.426-12.248a2.07 2.07 0 1 1 4.142 0v56.714a2.071 2.071 0 0 1-4.142 0V55.766zm190.567-2.071a2.07 2.07 0 0 0-2.071 2.07v56.715a2.07 2.07 0 0 0 4.142 0V55.766c0-1.144-.928-2.071-2.071-2.071zM82.466 79.034a2.07 2.07 0 0 1 4.142 0V91a2.07 2.07 0 1 1-4.142 0V79.033zm190.568-25.34a2.07 2.07 0 0 0-2.071 2.071v56.714a2.07 2.07 0 1 0 4.142 0V55.765a2.07 2.07 0 0 0-2.071-2.07zm186.424 14.602a2.07 2.07 0 1 1 4.142 0v31.656a2.071 2.071 0 0 1-4.142 0V68.296zm108.101-27.128a2.071 2.071 0 0 0-2.071 2.07v81.773a2.071 2.071 0 0 0 4.142 0V43.239a2.07 2.07 0 0 0-2.071-2.071zM94.248 79.034a2.07 2.07 0 1 1 4.142 0V91a2.07 2.07 0 0 1-4.142 0V79.033zm376.992-8.95a2.07 2.07 0 1 1 4.141 0V99.95a2.07 2.07 0 1 1-4.141 0V70.084zm108.1-16.39a2.07 2.07 0 0 0-2.071 2.072v56.714a2.07 2.07 0 0 0 4.142 0V55.766c0-1.144-.928-2.071-2.071-2.071zm-473.31 16.39a2.07 2.07 0 1 1 4.141 0V99.95a2.07 2.07 0 1 1-4.141 0V70.084zm376.991-14.318a2.07 2.07 0 1 1 4.142 0v56.714a2.07 2.07 0 0 1-4.142 0V55.766zm108.099-2.071a2.07 2.07 0 0 0-2.071 2.07v56.715a2.07 2.07 0 0 0 4.142 0V55.766a2.07 2.07 0 0 0-2.071-2.071zm-473.31 2.07a2.07 2.07 0 1 1 4.142 0v56.714a2.07 2.07 0 1 1-4.142 0V55.765zm190.567-2.07a2.07 2.07 0 0 0-2.07 2.07v56.715a2.07 2.07 0 0 0 4.141 0V55.766a2.07 2.07 0 0 0-2.071-2.071zm186.425 2.07a2.071 2.071 0 0 1 4.142 0v56.715a2.07 2.07 0 0 1-4.142 0V55.766zm108.1-2.07a2.07 2.07 0 0 0-2.071 2.07v56.715a2.07 2.07 0 0 0 4.142 0V55.766a2.07 2.07 0 0 0-2.071-2.071zm-473.311 2.07a2.07 2.07 0 1 1 4.142 0v56.715a2.071 2.071 0 0 1-4.142 0V55.766zM320.158 26.85a2.071 2.071 0 0 0-2.071 2.071v110.411a2.072 2.072 0 0 0 4.142 0V28.921a2.07 2.07 0 0 0-2.071-2.072zm186.426 16.39a2.07 2.07 0 1 1 4.142 0v81.772a2.071 2.071 0 0 1-4.142 0V43.239zm108.099 22.986a2.07 2.07 0 0 0-2.071 2.071v31.656a2.071 2.071 0 0 0 4.142 0V68.296a2.07 2.07 0 0 0-2.071-2.07zm-473.311-10.46a2.07 2.07 0 1 1 4.141 0v56.714a2.07 2.07 0 1 1-4.141 0V55.765zm190.565-2.07a2.071 2.071 0 0 0-2.071 2.07v56.715a2.071 2.071 0 0 0 4.142 0V55.766a2.07 2.07 0 0 0-2.071-2.071zm186.426 16.389a2.07 2.07 0 1 1 4.142 0V99.95a2.07 2.07 0 1 1-4.142 0V70.084zm108.1-3.859a2.07 2.07 0 0 0-2.071 2.071v31.656a2.071 2.071 0 0 0 4.142 0V68.296c0-1.144-.928-2.07-2.071-2.07zm45.054 16.39a2.07 2.07 0 1 1 4.141 0v3.018a2.07 2.07 0 1 1-4.141 0v-3.018zm-516.294-28.92a2.07 2.07 0 0 0-2.071 2.07v56.714a2.07 2.07 0 1 0 4.142 0V55.765a2.07 2.07 0 0 0-2.071-2.07zm186.425 2.07a2.07 2.07 0 1 1 4.141 0v56.715a2.07 2.07 0 0 1-4.141 0V55.766zm190.566-2.07a2.07 2.07 0 0 0-2.071 2.07v56.715a2.07 2.07 0 0 0 4.142 0V55.766a2.07 2.07 0 0 0-2.071-2.071zm103.96 14.601a2.07 2.07 0 1 1 4.142 0v31.656a2.072 2.072 0 0 1-4.142 0V68.296zm49.195 12.248a2.071 2.071 0 0 0-2.071 2.07v3.019a2.071 2.071 0 0 0 4.142 0v-3.018a2.07 2.07 0 0 0-2.071-2.071zm-520.436-1.51a2.07 2.07 0 1 1 4.142 0V91a2.07 2.07 0 1 1-4.142 0V79.033zM355.5 17.899a2.07 2.07 0 0 0-2.071 2.07v128.31a2.07 2.07 0 1 0 4.142 0V19.969a2.07 2.07 0 0 0-2.071-2.07zm186.425 50.397a2.07 2.07 0 1 1 4.142 0v31.656a2.071 2.071 0 0 1-4.142 0V68.296zm108.1 12.248a2.07 2.07 0 0 0-2.071 2.07v3.019a2.07 2.07 0 1 0 4.141 0v-3.018a2.07 2.07 0 0 0-2.07-2.071zm45.054 2.07a2.071 2.071 0 0 1 4.142 0v3.019a2.07 2.07 0 1 1-4.142 0v-3.018zm-516.294-5.651a2.07 2.07 0 0 0-2.071 2.07v11.968a2.07 2.07 0 1 0 4.142 0V79.033a2.07 2.07 0 0 0-2.071-2.07zm186.426-6.88a2.07 2.07 0 1 1 4.142 0V99.95a2.07 2.07 0 1 1-4.142 0V70.084zm190.566-16.388a2.07 2.07 0 0 0-2.07 2.07v56.715a2.07 2.07 0 0 0 4.141 0V55.766a2.07 2.07 0 0 0-2.071-2.071zm103.959 28.92a2.07 2.07 0 1 1 4.141 0v3.018a2.07 2.07 0 1 1-4.141 0v-3.018zm49.193-2.071a2.07 2.07 0 0 0-2.071 2.07v3.019a2.07 2.07 0 1 0 4.142 0v-3.018a2.07 2.07 0 0 0-2.071-2.071z" clip-rule="evenodd"/>
</svg>
