<svg width="26" height="26" viewBox="0 0 26 26" fill="none" xmlns="http://www.w3.org/2000/svg">
<path d="M12.9251 1.87788L16.0213 5.09395L12.8052 8.19019L12.9251 1.87788Z" fill="#E5E5E5"/>
<path d="M13.8044 20.0102L14.0222 21.7761C14.8146 21.6807 15.5937 21.4735 16.3434 21.167L15.6617 19.523C15.0627 19.7711 14.4383 19.9323 13.8044 20.0102Z" fill="#E5E5E5"/>
<path d="M9.94443 19.4123L9.19886 21.0323C9.96479 21.3831 10.7714 21.6179 11.5935 21.7412L11.8592 19.9832C11.2022 19.8839 10.5579 19.6942 9.94443 19.4123Z" fill="#E5E5E5"/>
<path d="M17.8839 18.0741C17.6761 18.2741 17.4574 18.4543 17.2332 18.6237L18.3084 20.0469C18.5877 19.8344 18.8619 19.6113 19.1224 19.3605C19.2588 19.2292 19.3821 19.0876 19.5065 18.9498L18.1923 17.7456C18.091 17.8561 17.9932 17.9688 17.8839 18.0741Z" fill="#E5E5E5"/>
<path d="M7.7836 17.8825C5.04745 15.0404 5.13329 10.5189 7.97533 7.78278C9.7075 6.11515 12.0631 5.50188 14.2591 5.91613L14.595 4.16737C11.8489 3.6489 8.90028 4.41351 6.73683 6.49636C3.19015 9.91089 3.08264 15.5743 6.49718 19.121C6.67026 19.3008 6.854 19.4678 7.0366 19.6285L8.21664 18.2892C8.06914 18.1591 7.92263 18.0269 7.7836 17.8825Z" fill="#E5E5E5"/>
<path d="M19.2067 16.3379L20.7742 17.1898C21.0016 16.772 21.1913 16.3395 21.3481 15.8986L19.6598 15.3042C19.5353 15.6571 19.3879 16.0041 19.2067 16.3379Z" fill="#E5E5E5"/>
<path d="M19.7672 10.8788L21.4737 10.3618C21.3369 9.90239 21.1614 9.44978 20.9477 9.01349L19.3467 9.79515C19.5184 10.1467 19.6567 10.5092 19.7672 10.8788Z" fill="#E5E5E5"/>
<path d="M18.9323 6.33573L17.7312 7.65194C17.847 7.75738 17.9644 7.86001 18.0746 7.9745C18.2152 8.12051 18.3436 8.27387 18.4695 8.42844L19.8592 7.30367C19.7006 7.10996 19.5366 6.91836 19.361 6.73601C19.2235 6.59321 19.0779 6.46573 18.9323 6.33573Z" fill="#E5E5E5"/>
<path d="M20.0355 13.6068L21.8083 13.7759C21.8549 13.3028 21.8629 12.8266 21.8328 12.3537L20.0548 12.4734C20.0789 12.8511 20.0714 13.2302 20.0355 13.6068Z" fill="#E5E5E5"/>
<path d="M11.3555 16.0002H10.6289V11.1838L9.17188 11.719V11.0627L11.2422 10.2854H11.3555V16.0002ZM13.8047 13.1487L14.0938 10.3127H17.0078V10.9807H14.707L14.5352 12.5315C14.8138 12.3674 15.1302 12.2854 15.4844 12.2854C16.0026 12.2854 16.4141 12.4573 16.7188 12.801C17.0234 13.1422 17.1758 13.6044 17.1758 14.1877C17.1758 14.7737 17.0169 15.2359 16.6992 15.5745C16.3841 15.9104 15.9427 16.0784 15.375 16.0784C14.8724 16.0784 14.4622 15.939 14.1445 15.6604C13.8268 15.3818 13.6458 14.9963 13.6016 14.5042H14.2852C14.3294 14.8297 14.4453 15.0758 14.6328 15.2424C14.8203 15.4065 15.0677 15.4885 15.375 15.4885C15.7109 15.4885 15.974 15.3739 16.1641 15.1448C16.3568 14.9156 16.4531 14.5992 16.4531 14.1956C16.4531 13.8153 16.349 13.5107 16.1406 13.2815C15.9349 13.0497 15.6602 12.9338 15.3164 12.9338C15.0013 12.9338 14.7539 13.0028 14.5742 13.1409L14.3828 13.2971L13.8047 13.1487Z" fill="#C7C7CC"/>
</svg>
