<svg width="26" height="26" viewBox="0 0 26 26" fill="none" xmlns="http://www.w3.org/2000/svg">
<path d="M12.6296 1.87788L9.53339 5.09395L12.7495 8.19019L12.6296 1.87788Z" fill="#E5E5E5"/>
<path d="M11.7502 20.0102L11.5324 21.7761C10.7401 21.6807 9.961 21.4735 9.21132 21.167L9.89303 19.523C10.4919 19.7711 11.1164 19.9323 11.7502 20.0102Z" fill="#E5E5E5"/>
<path d="M15.6103 19.4123L16.3558 21.0323C15.5899 21.3831 14.7832 21.6179 13.9612 21.7412L13.6955 19.9832C14.3525 19.8839 14.9968 19.6942 15.6103 19.4123Z" fill="#E5E5E5"/>
<path d="M7.67079 18.0741C7.87855 18.2741 8.0973 18.4543 8.32152 18.6237L7.24633 20.0469C6.96698 19.8344 6.6928 19.6113 6.43229 19.3605C6.29593 19.2292 6.17264 19.0876 6.04815 18.9498L7.3624 17.7456C7.46364 17.8561 7.56144 17.9688 7.67079 18.0741Z" fill="#E5E5E5"/>
<path d="M17.7711 17.8825C20.5072 15.0404 20.4214 10.5189 17.5794 7.78278C15.8472 6.11515 13.4916 5.50188 11.2956 5.91613L10.9597 4.16737C13.7058 3.6489 16.6544 4.41351 18.8179 6.49636C22.3645 9.91089 22.472 15.5743 19.0575 19.121C18.8844 19.3008 18.7007 19.4678 18.5181 19.6285L17.338 18.2892C17.4855 18.1591 17.6321 18.0269 17.7711 17.8825Z" fill="#E5E5E5"/>
<path d="M6.34801 16.3379L4.78048 17.1898C4.55311 16.772 4.36336 16.3395 4.2066 15.8986L5.89489 15.3042C6.01935 15.6571 6.16676 16.0041 6.34801 16.3379Z" fill="#E5E5E5"/>
<path d="M5.78753 10.8788L4.08099 10.3618C4.21782 9.90239 4.3933 9.44978 4.60697 9.01349L6.20804 9.79515C6.03632 10.1467 5.89797 10.5092 5.78753 10.8788Z" fill="#E5E5E5"/>
<path d="M6.62242 6.33573L7.8235 7.65194C7.70773 7.75738 7.59033 7.86001 7.48011 7.9745C7.33954 8.12051 7.2111 8.27387 7.08522 8.42844L5.6955 7.30367C5.85411 7.10996 6.01812 6.91836 6.19368 6.73601C6.33115 6.59321 6.47681 6.46573 6.62242 6.33573Z" fill="#E5E5E5"/>
<path d="M5.51916 13.6068L3.74639 13.7759C3.69984 13.3028 3.69174 12.8266 3.72192 12.3537L5.49985 12.4734C5.47577 12.8511 5.48328 13.2302 5.51916 13.6068Z" fill="#E5E5E5"/>
<path d="M10.9102 16.0002H10.1836V11.1838L8.72656 11.719V11.0627L10.7969 10.2854H10.9102V16.0002ZM13.3594 13.1487L13.6484 10.3127H16.5625V10.9807H14.2617L14.0898 12.5315C14.3685 12.3674 14.6849 12.2854 15.0391 12.2854C15.5573 12.2854 15.9688 12.4573 16.2734 12.801C16.5781 13.1422 16.7305 13.6044 16.7305 14.1877C16.7305 14.7737 16.5716 15.2359 16.2539 15.5745C15.9388 15.9104 15.4974 16.0784 14.9297 16.0784C14.4271 16.0784 14.0169 15.939 13.6992 15.6604C13.3815 15.3818 13.2005 14.9963 13.1562 14.5042H13.8398C13.8841 14.8297 14 15.0758 14.1875 15.2424C14.375 15.4065 14.6224 15.4885 14.9297 15.4885C15.2656 15.4885 15.5286 15.3739 15.7188 15.1448C15.9115 14.9156 16.0078 14.5992 16.0078 14.1956C16.0078 13.8153 15.9036 13.5107 15.6953 13.2815C15.4896 13.0497 15.2148 12.9338 14.8711 12.9338C14.556 12.9338 14.3086 13.0028 14.1289 13.1409L13.9375 13.2971L13.3594 13.1487Z" fill="#C7C7CC"/>
</svg>
