<svg width="26" height="22" viewBox="0 0 26 22" fill="none" xmlns="http://www.w3.org/2000/svg">
<path fill-rule="evenodd" clip-rule="evenodd" d="M21.809 0.301374C21.591 0.0223783 21.107 -0.11012 20.8325 0.111377C20.5585 0.332374 20.4105 0.823366 20.628 1.10236C22.8544 3.94982 24.0314 7.38077 24.0314 11.0242C24.0314 14.6682 22.8544 18.0991 20.628 20.9466C20.4105 21.2256 20.5585 21.7165 20.8325 21.9375C20.9495 22.0315 21.173 21.9915 21.311 21.9915C21.498 21.9915 21.684 21.908 21.809 21.7475C24.2149 18.6696 25.4869 14.9617 25.4869 11.0242C25.4869 7.08727 24.2149 3.37933 21.809 0.301374ZM18.3199 3.2738C18.1024 2.99931 17.6434 2.90531 17.3739 3.1288C17.1059 3.3518 16.8984 3.80629 17.1159 4.08029C18.6629 6.03126 19.5144 8.49222 19.5144 11.0087C19.5144 13.5256 18.6629 15.9861 17.1159 17.9371C16.8984 18.2111 17.0894 18.6656 17.3574 18.8886C17.4734 18.9851 17.6959 18.9801 17.8339 18.9801C18.0164 18.9801 18.1964 18.8996 18.3199 18.7436C20.0464 16.5651 20.9973 13.8186 20.9973 11.0087C20.9973 8.19923 20.0464 5.45227 18.3199 3.2738M13.7543 6.12724C13.4813 6.35124 13.2763 6.74573 13.5088 7.00823C14.4953 8.12321 15.0383 9.54369 15.0383 11.0082C15.0383 12.4731 14.4953 13.8936 13.5088 15.0081C13.2763 15.2706 13.4813 15.6656 13.7543 15.8891C13.8763 15.9896 14.0263 16.0391 14.1743 16.0391C14.3578 16.0391 14.5398 15.9641 14.6683 15.8196C15.8543 14.4791 16.5078 12.7701 16.5078 11.0082C16.5078 9.2462 15.8543 7.53772 14.6683 6.19724C14.4363 5.93475 14.0268 5.90225 13.7543 6.12724M10.0843 3.68381L4.31243 8.01225H0V14.5121H4.10994L10.0843 18.9931C10.3043 19.1581 10.4843 19.0681 10.4843 18.7931V3.88381C10.4843 3.60881 10.3043 3.51882 10.0843 3.68381" fill="#E5E5E5"/>
</svg>
