<?xml version="1.0" encoding="UTF-8"?>
<svg width="35px" height="25px" viewBox="0 0 35 25" version="1.1" xmlns="http://www.w3.org/2000/svg" xmlns:xlink="http://www.w3.org/1999/xlink">
    <!-- Generator: sketchtool 42 (36781) - http://www.bohemiancoding.com/sketch -->
    <title>A54B2423-09E6-4A41-8EBC-625A58D9BA47</title>
    <desc>Created with sketchtool.</desc>
    <defs></defs>
    <g id="M3" stroke="none" stroke-width="1" fill="none" fill-rule="evenodd">
        <g id="My-Podcasts-Empty-V2---3-CC-Full" transform="translate(-939.000000, -434.000000)">
            <g id="Card-Info" transform="translate(549.000000, 328.000000)">
                <g id="Card-Number" transform="translate(0.000000, 77.000000)">
                    <g id="amex" transform="translate(390.000000, 29.000000)">
                        <rect id="amex-bg" fill="#007ECD" x="0" y="0" width="35" height="25" rx="3.31578947"></rect>
                        <path d="M30.7453138,16.988775 L29.2087961,16.988775 L29.2087961,16.2149763 L30.5498044,16.2149763 C30.5498044,16.2149763 31.0387641,16.2718253 31.0387641,15.9488359 C31.0387641,15.6461238 30.3077451,15.66966 30.3077451,15.66966 C30.3077451,15.66966 29.1164411,15.7721331 29.1164411,14.6688272 C29.1164411,13.5713148 30.1926739,13.6339573 30.1926739,13.6339573 L31.84538,13.6339573 L31.84538,14.418619 L30.5151713,14.418619 C30.5151713,14.418619 30.0545139,14.3270087 30.0545139,14.6579643 C30.0545139,14.9353297 30.682006,14.8958612 30.682006,14.8958612 C30.682006,14.8958612 31.9999255,14.7995438 31.9999255,15.8116015 C31.9999255,16.8964406 31.1508561,16.9931202 30.8495854,16.9931202 C30.784788,16.9931202 30.7453138,16.988775 30.7453138,16.988775 L30.7453138,16.988775 Z M23.0794832,16.9942065 L23.0794832,13.6397509 L25.7722994,13.6397509 L25.7722994,14.418619 L23.9479174,14.418619 L23.9479174,14.9353297 L25.7268667,14.9353297 L25.7268667,15.6979035 L23.9479174,15.6979035 L23.9479174,16.2671181 L25.7722994,16.2671181 L25.7722994,16.9942065 L23.0794832,16.9942065 Z M27.7009531,16.988775 L26.164063,16.988775 L26.164063,16.2149763 L27.5110297,16.2149763 C27.5110297,16.2149763 27.9944034,16.2718253 27.9944034,15.9488359 C27.9944034,15.6461238 27.2633844,15.66966 27.2633844,15.66966 C27.2633844,15.66966 26.0720805,15.7721331 26.0720805,14.6688272 C26.0720805,13.5713148 27.1483132,13.6339573 27.1483132,13.6339573 L28.8066053,13.6339573 L28.8066053,14.418619 L27.471183,14.418619 C27.471183,14.418619 27.0101532,14.3270087 27.0101532,14.6579643 C27.0101532,14.9353297 27.6369005,14.8958612 27.6369005,14.8958612 C27.6369005,14.8958612 28.9555648,14.7995438 28.9555648,15.8116015 C28.9555648,16.8964406 28.1064954,16.9931202 27.8052248,16.9931202 C27.740055,16.9931202 27.7009531,16.988775 27.7009531,16.988775 L27.7009531,16.988775 Z M16.0575303,16.9945686 L15.303795,16.9945686 L14.3884386,15.9988051 L13.4678686,16.9945686 L12.9439034,16.9945686 L10.2563009,16.9945686 L10.2563009,13.6285259 L12.9439034,13.6285259 L13.3986024,13.6285259 L14.3884386,14.6974327 L15.3842332,13.6343194 L16.0463583,13.6343194 L16.0463583,13.6285259 L18.1411019,13.6285259 C18.1411019,13.6285259 19.2348374,13.5090343 19.2348374,14.6170475 C19.2348374,15.6066553 18.8713761,15.9140747 17.7556691,15.9140747 L16.9095789,15.9140747 L16.9095789,16.9945686 L16.0575303,16.9945686 L16.0575303,16.9945686 Z M14.9757116,15.3405149 L16.0463583,16.5111707 L16.0463583,14.1742043 L14.9757116,15.3405149 L14.9757116,15.3405149 Z M11.1254798,16.266756 L12.9439034,16.266756 L13.795952,15.3405149 L12.9439034,14.4189811 L11.1254798,14.4189811 L11.1254798,14.9356918 L12.8980984,14.9356918 L12.8980984,15.6982656 L11.1254798,15.6982656 L11.1254798,16.266756 L11.1254798,16.266756 Z M16.9095789,15.0378028 L17.8014742,15.0378028 C18.0606638,15.0378028 18.2736759,14.8958612 18.2736759,14.7195206 C18.2736759,14.5439041 18.0606638,14.4012384 17.8014742,14.4012384 L16.9095789,14.4012384 L16.9095789,15.0378028 L16.9095789,15.0378028 Z M21.8133271,17 L21.8133271,16.346055 C21.8133271,16.346055 21.7779492,15.8344136 21.2368537,15.8344136 L20.3974666,15.8344136 L20.3974666,17 L19.5335013,17 L19.5335013,13.6397509 L21.6289897,13.6397509 C21.6289897,13.6397509 22.7223527,13.5090343 22.7223527,14.6232031 C22.7223527,15.2032806 22.238979,15.4078647 22.238979,15.4078647 C22.238979,15.4078647 22.6534589,15.6012239 22.6534589,16.1693522 L22.6534589,17 L21.8133271,17 L21.8133271,17 Z M20.3974666,15.0439584 L21.2893619,15.0439584 C21.5485515,15.0439584 21.7611913,14.9020169 21.7611913,14.7256762 C21.7611913,14.5493356 21.5485515,14.407394 21.2893619,14.407394 L20.3974666,14.407394 L20.3974666,15.0439584 L20.3974666,15.0439584 Z M19.7468858,12.4002969 L20.61532,12.4002969 L20.61532,9.02918492 L19.7468858,9.02918492 L19.7468858,12.4002969 Z M13.0589747,12.3887099 L13.0589747,9.02882283 L15.7525356,9.02882283 L15.7525356,9.81312235 L13.9281536,9.81312235 L13.9281536,10.3305573 L15.7067306,10.3305573 L15.7067306,11.0924069 L13.9281536,11.0924069 L13.9281536,11.6616215 L15.7525356,11.6616215 L15.7525356,12.3887099 L13.0589747,12.3887099 Z M11.706422,12.3890719 L11.706422,10.0691241 L10.6246033,12.3890719 L9.91667309,12.3890719 L8.82889602,10.0803491 L8.82889602,12.3890719 L8.07478833,12.3890719 L7.95971708,12.3890719 L7.12517124,12.3890719 L6.82576255,11.6840714 L5.24902578,11.6840714 L4.94403111,12.3890719 L4,12.3890719 L5.43299082,9.02846073 L6.6473835,9.02846073 L7.95971708,12.1160517 L7.95971708,9.02846073 L9.32381411,9.02846073 L10.2734312,11.1152189 L11.2170899,9.02846073 L12.5811869,9.02846073 L12.5811869,12.3890719 L11.706422,12.3890719 Z M5.61732825,10.8251801 L6.45746008,10.8251801 L6.03739417,9.82470942 L5.61732825,10.8251801 Z M28.6673281,12.3890719 L27.2983899,10.1429916 L27.2983899,12.3890719 L26.5558266,12.3890719 L26.4169218,12.3890719 L25.6062095,12.3890719 L25.3012148,11.6840714 L23.7241056,11.6840714 L23.4243246,12.3890719 L22.6299978,12.3890719 L22.4862518,12.3890719 L22.0717719,12.3890719 C22.0717719,12.3890719 20.9098875,12.2239563 20.9098875,10.8027302 C20.9098875,8.93757468 22.227807,9.01144223 22.2732397,9.00021726 L23.337928,9.02846073 L23.337928,9.78487888 L22.4639079,9.79610385 C22.4639079,9.79610385 21.8937652,9.79610385 21.8241267,10.52971 C21.8166787,10.6144404 21.8125823,10.6912047 21.8133271,10.7632618 C21.8166787,11.8991563 22.8109836,11.5468371 22.8437547,11.5359742 L23.9140291,9.02846073 L25.122091,9.02846073 L26.4169218,12.0762212 L26.4169218,9.02846073 L27.6372729,9.02846073 L28.9898255,11.240504 L28.9898255,9.02846073 L29.8593769,9.02846073 L29.8593769,12.3890719 L28.6673281,12.3890719 L28.6673281,12.3890719 Z M24.0924081,10.8251801 L24.9329123,10.8251801 L24.5184324,9.82470942 L24.0924081,10.8251801 L24.0924081,10.8251801 Z M18.4803573,12.3890719 L18.4803573,11.7351269 C18.4803573,11.7351269 18.4460966,11.2234855 17.9050011,11.2234855 L17.0648692,11.2234855 L17.0648692,12.3890719 L16.2012763,12.3890719 L16.2012763,9.02846073 L18.2963923,9.02846073 C18.2963923,9.02846073 19.3897553,8.89774414 19.3897553,10.012275 C19.3897553,10.5923525 18.9063816,10.7969367 18.9063816,10.7969367 C18.9063816,10.7969367 19.3264475,10.9902958 19.3264475,11.5587863 L19.3264475,12.3890719 L18.4803573,12.3890719 Z M17.0648692,10.4330304 L17.9567645,10.4330304 C18.2159541,10.4330304 18.4285938,10.2907267 18.4285938,10.1143861 C18.4285938,9.9384075 18.2159541,9.79610385 17.9567645,9.79610385 L17.0648692,9.79610385 L17.0648692,10.4330304 Z" id="amex-logo" fill="#FFFFFF"></path>
                    </g>
                </g>
            </g>
        </g>
    </g>
</svg>