<?xml version="1.0" encoding="UTF-8"?>
<svg xmlns="http://www.w3.org/2000/svg" width="57" height="54" viewBox="0 0 57 54" fill="none">
    <path opacity="0.5" fill-rule="evenodd" clip-rule="evenodd"
          d="M48.6432 17.5078L42.8327 1.52163C42.4032 0.341499 41.1443 -0.283743 40.0234 0.125331L1.39996 14.2023C0.277392 14.6114 -0.285027 15.8999 0.143889 17.08L6.27029 33.936V24.9001C6.27029 20.8241 9.53345 17.5078 13.5442 17.5078H23.7496L35.9217 8.97517L42.965 17.5078H48.6432ZM54.6478 22.625H13.5452C12.3505 22.625 11.3819 23.6445 11.3819 24.9001V51.6261C11.3819 52.8817 12.3505 53.9001 13.5452 53.9001H54.6478C55.8431 53.9001 56.8117 52.8817 56.8117 51.6261V24.9001C56.8112 23.644 55.8426 22.625 54.6478 22.625ZM51.5101 48.2147H17.4389V43.3399L22.6807 31.1556L30.5438 40.9042L37.92 33.3519L47.4039 29.9346L51.5101 39.0744V48.2147Z"
          fill="#A9A9A9"/>
</svg>
