<svg width="11px" height="10px" viewBox="2 3 11 10" version="1.1" xmlns="http://www.w3.org/2000/svg" xmlns:xlink="http://www.w3.org/1999/xlink">
    <!-- Generator: Sketch 42 (36781) - http://www.bohemiancoding.com/sketch -->
    <desc>Created with Sketch.</desc>
    <defs></defs>
    <path d="M12.5,4.20512821 C12.5,3.71331909 12.1003571,3.31481481 11.6071429,3.31481481 C11.3466071,3.31481481 11.1182143,3.43144587 10.9553571,3.60933048 L10.9489286,3.60345442 L5.77160714,9.23539886 L4.02410714,7.49305556 L4.02214286,7.49501425 C3.86089286,7.3335114 3.63946429,7.23219373 3.39285714,7.23219373 C2.89964286,7.23219373 2.5,7.63069801 2.5,8.12250712 C2.5,8.3125 2.56071429,8.48789174 2.6625,8.63230057 L2.66125,8.63301282 L5.16125,12.1942664 L5.1625,12.1935541 C5.32392857,12.4230769 5.59035714,12.5740741 5.89285714,12.5740741 C6.1825,12.5740741 6.43732143,12.4344729 6.60035714,12.2213319 L6.60321429,12.2232906 L12.3175,4.74465812 L12.3146429,4.74269943 C12.4292857,4.59294872 12.5,4.40811966 12.5,4.20512821" id="Checkmark" stroke="none" fill="#059BFF" fill-rule="evenodd"></path>
</svg>
