<?xml version="1.0" encoding="UTF-8"?>
<svg width="35px" height="25px" viewBox="0 0 35 25" version="1.1" xmlns="http://www.w3.org/2000/svg" xmlns:xlink="http://www.w3.org/1999/xlink">
    <!-- Generator: sketchtool 42 (36781) - http://www.bohemiancoding.com/sketch -->
    <title>5E566D4E-D833-4915-B6A0-1CB0CCD64893</title>
    <desc>Created with sketchtool.</desc>
    <defs></defs>
    <g id="M3" stroke="none" stroke-width="1" fill="none" fill-rule="evenodd">
        <g id="My-Podcasts-Empty-V2---3-CC-Full" transform="translate(-1096.000000, -913.000000)">
            <g id="Credit-Card-Symbols" transform="translate(1054.000000, 883.000000)">
                <g id="diners-club" transform="translate(42.000000, 30.000000)">
                    <rect id="dc-bg" fill="#2183CB" x="0" y="0" width="35" height="25" rx="3.31578947"></rect>
                    <path d="M18.7721749,19.7766487 L16.2109125,19.7766487 C12.337784,19.7133797 9.2142932,16.4866606 9.2142932,12.5639824 C9.08935357,8.64130425 12.0879047,5.35131611 15.8985634,5.2247781 L18.7721749,5.2247781 C22.7702431,5.1615091 26.0186735,8.45149724 26.0811433,12.5007134 L26.0811433,12.5639824 C25.9562037,16.5499296 22.7702431,19.7766487 18.7721749,19.7766487 Z M16.398322,6.49015816 C13.1498916,6.49015816 10.4636895,9.21072527 10.4636895,12.5007134 C10.4636895,15.7907015 13.1498916,18.5112687 16.398322,18.5112687 C19.6467524,18.5112687 22.3329544,15.7907015 22.3329544,12.5007134 C22.3329544,9.21072527 19.6467524,6.49015816 16.398322,6.49015816 Z M17.3353692,16.5499296 L17.3353692,8.51476624 C19.5218127,9.08418727 20.8961487,11.2986024 20.3339203,13.5130175 C19.9591014,15.0314735 18.8346448,16.1703156 17.3353692,16.5499296 L17.3353692,16.5499296 Z M15.4612747,16.5499296 C13.2748312,15.9805086 11.9629651,13.7028245 12.5251934,11.4884094 C12.9000123,10.0332223 14.024469,8.89438026 15.4612747,8.51476624 L15.4612747,16.5499296 Z" id="dc-logo" fill="#FFFFFF"></path>
                </g>
            </g>
        </g>
    </g>
</svg>