<?xml version="1.0" encoding="UTF-8"?>
<svg width="35px" height="25px" viewBox="0 0 35 25" version="1.1" xmlns="http://www.w3.org/2000/svg" xmlns:xlink="http://www.w3.org/1999/xlink">
    <!-- Generator: sketchtool 42 (36781) - http://www.bohemiancoding.com/sketch -->
    <title>EED3FC28-366F-43D7-8C1C-6C94FE16AEB2</title>
    <desc>Created with sketchtool.</desc>
    <defs></defs>
    <g id="M3" stroke="none" stroke-width="1" fill="none" fill-rule="evenodd">
        <g id="My-Podcasts-Empty-V2---3-CC-Full" transform="translate(-1180.000000, -913.000000)">
            <g id="Credit-Card-Symbols" transform="translate(1054.000000, 883.000000)">
                <g id="discover" transform="translate(126.000000, 30.000000)">
                    <rect id="discover-bg" fill="#FFA200" x="0" y="0" width="35" height="25" rx="3.35820896"></rect>
                    <path d="M29.8828148,12.3192152 L29.618203,12.3192152 L29.618203,10.9118899 L29.8828148,10.9118899 C30.4649607,10.9118899 30.7295726,11.1725057 30.7295726,11.5894909 C30.7295726,12.0585994 30.4649607,12.3192152 29.8828148,12.3192152 L29.8828148,12.3192152 Z M31.6821751,11.5373678 C31.6821751,10.6512741 31.1000291,10.1821656 30.0415819,10.1821656 L28.7185228,10.1821656 L28.7185228,14.8211268 L29.618203,14.8211268 L29.618203,12.9446931 L29.7240477,12.9446931 L30.941262,14.8211268 L32.0526316,14.8211268 L30.6237278,12.8925699 C31.2587962,12.7883236 31.7350974,12.2149689 31.6821751,11.5373678 L31.6821751,11.5373678 Z M25.5961035,14.8211268 L28.1363769,14.8211268 L28.1363769,14.0392794 L26.4957837,14.0392794 L26.4957837,12.7883236 L28.0834545,12.7883236 L28.0834545,12.0064762 L26.4957837,12.0064762 L26.4957837,10.964013 L28.1363769,10.964013 L28.1363769,10.1821656 L25.5961035,10.1821656 L25.5961035,14.8211268 L25.5961035,14.8211268 Z M22.9499855,13.3095552 L21.7327712,10.1821656 L20.7801687,10.1821656 L22.738296,14.9253731 L23.2145973,14.9253731 L25.1727246,10.1821656 L24.2201221,10.1821656 L22.9499855,13.3095552 L22.9499855,13.3095552 Z M12.2067461,12.5277078 C12.2067461,13.8307868 13.2651934,14.9253731 14.5882524,14.9253731 C15.0116313,14.9253731 15.3820878,14.8211268 15.7525443,14.6647573 L15.7525443,13.6222942 C15.4879325,13.9350331 15.117476,14.1435257 14.6940971,14.1435257 C13.8473393,14.1435257 13.1593486,13.5180478 13.1593486,12.6840773 L13.1593486,12.579831 C13.1064263,11.7458604 13.794417,11.0161362 14.6411748,10.964013 C15.0645536,10.964013 15.4879325,11.1725057 15.7525443,11.4852446 L15.7525443,10.4427814 C15.4350102,10.2342888 15.0116313,10.1821656 14.6411748,10.1821656 C13.2651934,10.0779193 12.2067461,11.1725057 12.2067461,12.5277078 L12.2067461,12.5277078 Z M10.566153,11.9543531 C10.0369293,11.7458604 9.87816226,11.6416141 9.87816226,11.3809983 C9.93108462,11.0682593 10.1956964,10.8076435 10.5132306,10.8597667 C10.7778424,10.8597667 11.0424542,11.0161362 11.2541436,11.2246288 L11.7304449,10.5991509 C11.3599884,10.286412 10.8836871,10.0779193 10.4073859,10.0779193 C9.66647281,10.0257962 9.03140448,10.5991509 8.97848212,11.3288751 L8.97848212,11.3809983 C8.97848212,12.0064762 9.24309392,12.3713383 10.0898517,12.6319541 C10.3015411,12.6840773 10.5132306,12.7883236 10.72492,12.8925699 C10.8836871,12.9968162 10.9895318,13.1531857 10.9895318,13.3616784 C10.9895318,13.7265405 10.6719977,14.0392794 10.3544635,14.0392794 L10.3015411,14.0392794 C9.87816226,14.0392794 9.50770573,13.7786636 9.34893864,13.4138015 L8.76679267,13.9871563 C9.08432684,14.560511 9.71939517,14.87325 10.3544635,14.87325 C11.2012213,14.9253731 11.889212,14.2998952 11.9421343,13.4659247 L11.9421343,13.3095552 C11.889212,12.6840773 11.6246002,12.3713383 10.566153,11.9543531 L10.566153,11.9543531 Z M7.496656,14.8211268 L8.39633614,14.8211268 L8.39633614,10.1821656 L7.496656,10.1821656 L7.496656,14.8211268 L7.496656,14.8211268 Z M5.69729573,13.6744173 C5.37976156,13.9350331 4.90346031,14.0914026 4.48008142,14.0392794 L4.21546961,14.0392794 L4.21546961,10.964013 L4.48008142,10.964013 C4.90346031,10.9118899 5.37976156,11.0682593 5.69729573,11.3288751 C6.01482989,11.6416141 6.17359698,12.0585994 6.17359698,12.4755846 C6.17359698,12.9446931 6.01482989,13.3616784 5.69729573,13.6744173 L5.69729573,13.6744173 Z M4.6388485,10.1821656 L3.31578947,10.1821656 L3.31578947,14.8211268 L4.6388485,14.8211268 C5.22099448,14.87325 5.80314045,14.6647573 6.2794417,14.2998952 C6.80866531,13.8307868 7.12619948,13.2053089 7.12619948,12.5277078 C7.17912184,11.276752 6.17359698,10.2342888 4.90346031,10.1821656 L4.6388485,10.1821656 L4.6388485,10.1821656 Z M18.4515848,10.0746269 C17.1285257,10.0746269 16.0171562,11.1170901 16.0171562,12.4722922 C16.0171562,13.7753712 17.0756034,14.8699575 18.4515848,14.9220807 C19.8275662,14.9742038 20.8860134,13.8796175 20.9389357,12.5244154 C20.8860134,11.1692132 19.8275662,10.0746269 18.4515848,10.0746269 L18.4515848,10.0746269 Z" id="discover-logo" fill="#FFFFFF"></path>
                </g>
            </g>
        </g>
    </g>
</svg>