<?xml version="1.0" encoding="UTF-8"?>
<svg width="35px" height="25px" viewBox="0 0 35 25" version="1.1" xmlns="http://www.w3.org/2000/svg" xmlns:xlink="http://www.w3.org/1999/xlink">
    <!-- Generator: sketchtool 42 (36781) - http://www.bohemiancoding.com/sketch -->
    <title>28355CDD-E60C-410F-B3DB-AAAD8C822933</title>
    <desc>Created with sketchtool.</desc>
    <defs></defs>
    <g id="M4" stroke="none" stroke-width="1" fill="none" fill-rule="evenodd">
        <g id="My-Account---Billing-2---Creator" transform="translate(-998.000000, -800.000000)">
            <g id="Credit-Card-Symbols" transform="translate(998.000000, 770.000000)">
                <g id="jcb" transform="translate(0.000000, 30.000000)">
                    <rect id="visa-bg" fill="#E5E5E5" x="0" y="0" width="35" height="25" rx="3.31578947"></rect>
                    <g id="Page-1-Copy" transform="translate(3.000000, 3.000000)">
                        <path d="M24.7712229,18.3542708 L0.90888,18.3542708 L0.90888,5.85427083 C0.90888,2.97770833 3.21082286,0.6459375 6.05173714,0.6459375 L28.8855086,0.6459375 L28.8855086,14.1876042 C28.8855086,16.4886458 27.0438514,18.3542708 24.7712229,18.3542708" id="Fill-4" fill="#FFFFFF"></path>
                        <path d="M7.59438857,16.7917708 L2.65673143,16.7917708 L2.65673143,5.3334375 C2.65673143,3.60739583 4.65524571,2.2084375 6.36010286,2.2084375 L10.06296,2.2084375 L10.06296,13.6667708 C10.06296,15.3928125 9.29873143,16.7917708 7.59438857,16.7917708" id="Fill-6" fill="#0F6CAF"></path>
                        <path d="M16.2342857,16.7917708 L11.2971429,16.7917708 L11.2971429,5.3334375 C11.2971429,3.60739583 13.2951429,2.2084375 15,2.2084375 L18.7028571,2.2084375 L18.7028571,13.6667708 C18.7028571,15.3928125 17.9386286,16.7917708 16.2342857,16.7917708" id="Fill-8" fill="#DE0925"></path>
                        <path d="M24.8741829,16.7917708 L19.93704,16.7917708 L19.93704,5.3334375 C19.93704,3.60739583 21.9355543,2.2084375 23.6404114,2.2084375 L27.3427543,2.2084375 L27.3427543,13.6667708 C27.3427543,15.3928125 26.5785257,16.7917708 24.8741829,16.7917708" id="Fill-10" fill="#138E3B"></path>
                    </g>
                </g>
            </g>
        </g>
    </g>
</svg>