<?xml version="1.0" encoding="UTF-8"?>
<svg width="35px" height="25px" viewBox="0 0 35 25" version="1.1" xmlns="http://www.w3.org/2000/svg" xmlns:xlink="http://www.w3.org/1999/xlink">
    <!-- Generator: sketchtool 42 (36781) - http://www.bohemiancoding.com/sketch -->
    <title>32DA1F93-6DA9-4AE6-9C6E-3540BB867470</title>
    <desc>Created with sketchtool.</desc>
    <defs></defs>
    <g id="M3" stroke="none" stroke-width="1" fill="none" fill-rule="evenodd">
        <g id="My-Podcasts-Empty-V2---3-CC-Full" transform="translate(-1222.000000, -913.000000)">
            <g id="Credit-Card-Symbols" transform="translate(1054.000000, 883.000000)">
                <g id="mastercard" transform="translate(168.000000, 30.000000)">
                    <rect id="mastercard-bg" fill="#353A48" x="0" y="0" width="35" height="25" rx="3.31578947"></rect>
                    <g id="mastercard-logo" transform="translate(6.263158, 5.597015)">
                        <path d="M11.4210526,1.77599039 C10.2308742,0.747710954 8.68701349,0.126959854 7,0.126959854 C3.23574342,0.126959854 0.184210526,3.21753154 0.184210526,7.02994493 C0.184210526,10.8423583 3.23574342,13.93293 7,13.93293 C8.68701349,13.93293 10.2308742,13.3121789 11.4210526,12.2838995 C12.6112311,13.3121789 14.1550918,13.93293 15.8421053,13.93293 C19.6063618,13.93293 22.6578947,10.8423583 22.6578947,7.02994493 C22.6578947,3.21753154 19.6063618,0.126959854 15.8421053,0.126959854 C14.1550918,0.126959854 12.6112311,0.747710954 11.4210526,1.77599039 Z" id="Combined-Shape" fill="#FF5E00"></path>
                        <path d="M11.4210526,1.77599039 C10.2308742,0.747710954 8.68701349,0.126959854 7,0.126959854 C3.23574342,0.126959854 0.184210526,3.21753154 0.184210526,7.02994493 C0.184210526,10.8423583 3.23574342,13.93293 7,13.93293 C8.68701349,13.93293 10.2308742,13.3121789 11.4210526,12.2838995 C9.95556941,11.0177648 9.02631579,9.13376256 9.02631579,7.02994493 C9.02631579,4.9261273 9.95556941,3.0421251 11.4210526,1.77599039 Z" id="Combined-Shape" fill="#ED0006"></path>
                        <path d="M11.4210526,12.2838995 C12.6112311,13.3121789 14.1550918,13.93293 15.8421053,13.93293 C19.6063618,13.93293 22.6578947,10.8423583 22.6578947,7.02994493 C22.6578947,3.21753154 19.6063618,0.126959854 15.8421053,0.126959854 C14.1550918,0.126959854 12.6112311,0.747710954 11.4210526,1.77599039 C12.8865358,3.0421251 13.8157895,4.9261273 13.8157895,7.02994493 C13.8157895,9.13376256 12.8865358,11.0177648 11.4210526,12.2838995 Z" id="Combined-Shape" fill="#F9A000"></path>
                    </g>
                </g>
            </g>
        </g>
    </g>
</svg>