<?xml version="1.0" encoding="utf-8"?>
<!-- Generator: Adobe Illustrator 22.1.0, SVG Export Plug-In . SVG Version: 6.00 Build 0)  -->
<svg version="1.1" id="Layer_1" xmlns="http://www.w3.org/2000/svg" xmlns:xlink="http://www.w3.org/1999/xlink" x="0px" y="0px"
	 viewBox="0 0 137.5 137.5" style="enable-background:new 0 0 137.5 137.5;" xml:space="preserve">
<style type="text/css">
	.st0{fill:#FF6700;}
	.st1{fill:#E55C00;}
	.st2{fill:#F1F1F1;stroke:#F1F1F1;stroke-width:0.9534;stroke-miterlimit:10;}
	.st3{fill:none;stroke:#F1F1F1;stroke-width:3;stroke-miterlimit:10;}
	.st4{fill:none;stroke:#F1F1F1;stroke-width:3;stroke-linecap:round;stroke-miterlimit:10;}
	.st5{fill:#F1F1F1;}
</style>
<g>
	<circle class="st0" cx="68.8" cy="68.8" r="68.8"/>
	<path class="st1" d="M137,77.5c-4.3,33.9-33.2,60-68.2,60c-1.4,0-2.9,0-4.3-0.1l-31.9-31.9h21.7v-18l-1.1-0.7L37.4,71.4l20.7-18.8
		l17.6,5.8l21.1-21L137,77.5z"/>
	<g>
		<circle class="st2" cx="92.5" cy="41.6" r="5.5"/>
		<circle class="st2" cx="75.5" cy="58.6" r="5.5"/>
		<circle class="st2" cx="58.9" cy="52.7" r="5.5"/>
		<circle class="st2" cx="41.8" cy="67.2" r="5.5"/>
		<polyline class="st3" points="41.8,66.8 58.8,52.1 75.5,58.6 92.8,41 		"/>
		<line class="st4" x1="33.7" y1="104.5" x2="101" y2="104.5"/>
		<path class="st5" d="M47.6,103.6V87.9c0-1.2-1-2.3-2.3-2.3h-6.6c-1.2,0-2.3,1-2.3,2.3v15.7H47.6z"/>
		<path class="st5" d="M64.3,104V74.2c0-1.2-1-2.3-2.3-2.3h-6.6c-1.2,0-2.3,1-2.3,2.3V104H64.3z"/>
		<path class="st5" d="M81.4,103.5V79.8c0-1.2-1-2.3-2.3-2.3h-6.6c-1.2,0-2.3,1-2.3,2.3v23.6L81.4,103.5z"/>
		<path class="st5" d="M98,103.4V63.2c0-1.2-1-2.3-2.3-2.3h-6.6c-1.2,0-2.3,1-2.3,2.3v40.3L98,103.4z"/>
	</g>
</g>
</svg>
