<?xml version="1.0" encoding="utf-8"?>
<!-- Generator: Adobe Illustrator 22.1.0, SVG Export Plug-In . SVG Version: 6.00 Build 0)  -->
<svg version="1.1" id="Layer_1" xmlns="http://www.w3.org/2000/svg" xmlns:xlink="http://www.w3.org/1999/xlink" x="0px" y="0px"
	 viewBox="0 0 137.5 137.5" style="enable-background:new 0 0 137.5 137.5;" xml:space="preserve">
<style type="text/css">
	.st0{display:none;}
	.st1{display:inline;fill:#FF6700;}
	.st2{display:inline;fill:#E55C00;}
	.st3{display:inline;}
	.st4{fill:#F1F1F1;stroke:#F1F1F1;stroke-width:0.9534;stroke-miterlimit:10;}
	.st5{fill:none;stroke:#F1F1F1;stroke-width:3;stroke-miterlimit:10;}
	.st6{fill:none;stroke:#F1F1F1;stroke-width:3;stroke-linecap:round;stroke-miterlimit:10;}
	.st7{fill:#F1F1F1;}
	.st8{display:inline;fill:#FFB000;}
	.st9{display:inline;fill:#E89400;}
	.st10{display:inline;fill:#F1F1F1;stroke:#F1F1F1;stroke-width:2;stroke-miterlimit:10;}
	.st11{display:inline;fill:none;stroke:#F1F1F1;stroke-width:5;stroke-miterlimit:10;}
	.st12{display:inline;fill:#F4DC00;}
	.st13{display:inline;fill:#EAC800;}
	.st14{display:inline;fill:#6700AA;}
	.st15{display:inline;fill:#4A1587;}
	.st16{display:inline;fill:#B70094;}
	.st17{display:inline;fill:#990083;}
	.st18{fill:none;stroke:#A50043;stroke-miterlimit:10;}
	.st19{fill:#DC0055;}
	.st20{fill:#AF0050;}
</style>
<g id="Layer_1_1_" class="st0">
	<circle class="st1" cx="-655" cy="-128.6" r="68.8"/>
	<path class="st2" d="M-586.8-119.9c-4.3,33.9-33.2,60-68.2,60c-1.4,0-2.9,0-4.3-0.1l-31.9-31.9h21.7v-18l-1.1-0.7l-15.7-15.4
		l20.7-18.8l17.6,5.8l21.1-21L-586.8-119.9z"/>
	<g class="st3">
		<circle class="st4" cx="-631.3" cy="-155.8" r="5.5"/>
		<circle class="st4" cx="-648.3" cy="-138.8" r="5.5"/>
		<circle class="st4" cx="-664.9" cy="-144.7" r="5.5"/>
		<circle class="st4" cx="-682" cy="-130.2" r="5.5"/>
		<polyline class="st5" points="-682,-130.6 -664.9,-145.3 -648.3,-138.8 -631,-156.4 		"/>
		<line class="st6" x1="-690.1" y1="-92.9" x2="-622.8" y2="-92.9"/>
		<path class="st7" d="M-676.2-93.8v-15.7c0-1.2-1-2.3-2.3-2.3h-6.6c-1.2,0-2.3,1-2.3,2.3v15.7H-676.2z"/>
		<path class="st7" d="M-659.5-93.4v-29.8c0-1.2-1-2.3-2.3-2.3h-6.6c-1.2,0-2.3,1-2.3,2.3v29.7L-659.5-93.4z"/>
		<path class="st7" d="M-642.4-93.9v-23.7c0-1.2-1-2.3-2.3-2.3h-6.6c-1.2,0-2.3,1-2.3,2.3V-94L-642.4-93.9z"/>
		<path class="st7" d="M-625.7-94v-40.2c0-1.2-1-2.3-2.3-2.3h-6.6c-1.2,0-2.3,1-2.3,2.3v40.3L-625.7-94z"/>
	</g>
</g>
<g id="Layer_2_1_" class="st0">
	<circle class="st8" cx="-431" cy="-127.6" r="68.8"/>
	<path class="st9" d="M-407.5-63c23.7-8.6,41.2-29.9,44.6-55.6l-42-41.8l-18.9,14.2l-33,18.7l-7.6,7.8L-407.5-63z"/>
	<circle class="st10" cx="-413.8" cy="-151.5" r="11.6"/>
	<circle class="st10" cx="-455.2" cy="-128.3" r="11.6"/>
	<circle class="st10" cx="-413.7" cy="-104.8" r="11.6"/>
	<polyline class="st11" points="-413.8,-151.5 -455.7,-127.8 -413.1,-103.5 	"/>
</g>
<g id="Layer_3" class="st0">
	<circle class="st12" cx="-358" cy="-94" r="68.8"/>
	<path class="st13" d="M-340.3-27.6c26.5-7.1,46.7-29.6,50.4-57.3l-35.3-35.2l-23,1.3v42.7l-29.3,11.5L-340.3-27.6z"/>
	<g class="st3">
		<circle class="st7" cx="-363.7" cy="-75.9" r="17.7"/>
		<polygon class="st7" points="-345.9,-75.4 -345.9,-112.7 -325.1,-106.9 -325.1,-120.1 -354.1,-128.6 -354.1,-85.6 		"/>
	</g>
</g>
<g id="Layer_4" class="st0">
	<circle class="st14" cx="-167.1" cy="-84.5" r="68.8"/>
	<path class="st15" d="M-161.6-16c32.6-2.6,58.8-27.9,62.8-60.1l-33.9-33.9l-20.8-1L-195-69.5l-3,16.8L-161.6-16z"/>
	<g class="st3">
		<path class="st7" d="M-157-107.5l13.6,13.6l-34.3,34.3l-13.6-13.6L-157-107.5z M-133.2-110.8l-6-6c-2.3-2.3-6.1-2.3-8.5,0
			l-5.8,5.8l13.6,13.6l6.8-6.8C-131.4-106-131.4-109-133.2-110.8z M-198.5-54.1c-0.2,1.1,0.8,2.1,1.9,1.8l15.1-3.7L-195-69.5
			L-198.5-54.1z"/>
	</g>
</g>
<g id="Layer_5" class="st0">
	<circle class="st16" cx="-27.6" cy="-10.1" r="68.8"/>
	<path class="st17" d="M-14.5,57.4c25.4-4.9,45.8-23.8,52.9-48.2l-54.7-54.7V-7l-27.6,2.8L-48.7-9V8.7l5.2,9.5L-29,32.6l-9,1.3
		L-14.5,57.4z"/>
	<g class="st3">
		<g>
			<path class="st7" d="M-5.7-9.5c-0.8,0-1.5,0.6-1.5,1.5v8.7c0,11.4-9.1,20.5-20.5,20.5s-20.5-9.1-20.5-20.5V-8
				c0-0.8-0.6-1.5-1.5-1.5c-0.8,0-1.5,0.6-1.5,1.5v8.7c0,12.3,9.7,22.6,22,23.3v7.4h-7.4c-0.8,0-1.5,0.6-1.5,1.5s0.6,1.5,1.5,1.5
				H-19c0.8,0,1.5-0.6,1.5-1.5s-0.6-1.5-1.5-1.5h-7.4V24c12.1-0.8,22-11,22-23.3V-8C-4.2-8.7-5-9.5-5.7-9.5z"/>
			<path class="st7" d="M-27.7,16.9c8.9,0,16.1-7.2,16.1-16.1v-35.1c0-8.9-7.2-16.1-16.1-16.1s-16.1,7.2-16.1,16.1V0.8
				C-43.7,9.7-36.4,16.9-27.7,16.9z"/>
		</g>
	</g>
</g>
<g id="Layer_6">
	<path class="st18" d="M94.8,46.8"/>
	<path class="st18" d="M45.5,94.1"/>
	<g>
		<circle class="st19" cx="68.8" cy="68.8" r="68.8"/>
		<path class="st20" d="M135.3,86.2c-6.2,23.8-24.9,42.6-48.6,49L45.5,94.1c0,0,38.3-26.7,48.3-48.9L135.3,86.2z"/>
		<g>
			<g id="palette">
				<path class="st7" d="M45.7,45.3C32.1,58.8,32,80.5,45.5,94.1s35.2,13.6,48.8,0.1c2.2-2.2,2.2-6,0-8.1c-1.1-1.1-2.2-1.6-3.8-1.6
					c-1.4-0.3-2.7-0.5-3.8-1.6c-2.2-2.2-2.2-6,0-8.1l4.9-4.9c7.6-7.6,7.6-19.5,0.1-27.1C79.9,30.8,59.3,31.8,45.7,45.3z M55.1,84.6
					c-2.2,2.2-6,2.2-8.1,0c-2.2-2.2-2.2-6,0-8.1c2.2-2.2,6-2.2,8.1,0C57.2,78.7,57.2,82.5,55.1,84.6z M52.4,65.7
					c-2.2,2.2-6,2.2-8.1,0c-2.2-2.2-2.2-6,0-8.1c2.2-2.2,6-2.2,8.1,0C54.6,59.7,54.6,63.5,52.4,65.7z M66,52.1c-2.2,2.2-6,2.2-8.1,0
					c-2.2-2.2-2.2-6,0-8.1c2.2-2.2,6-2.2,8.1,0C68.2,46.2,68.2,50,66,52.1z M84.9,54.9c-2.2,2.2-6,2.2-8.1,0c-2.2-2.2-2.2-6,0-8.1
					c2.2-2.2,6-2.2,8.1,0C87.1,48.9,87.1,52.7,84.9,54.9z"/>
			</g>
		</g>
	</g>
</g>
</svg>
