<?xml version="1.0" encoding="utf-8"?>
<!-- Generator: Adobe Illustrator 22.1.0, SVG Export Plug-In . SVG Version: 6.00 Build 0)  -->
<svg version="1.1" xmlns="http://www.w3.org/2000/svg" xmlns:xlink="http://www.w3.org/1999/xlink" x="0px" y="0px"
	 viewBox="0 0 137.5 137.5" style="enable-background:new 0 0 137.5 137.5;" xml:space="preserve">
<style type="text/css">
	.st0{display:none;}
	.st1{display:inline;fill:#FF6700;}
	.st2{display:inline;fill:#E55C00;}
	.st3{display:inline;}
	.st4{fill:#F1F1F1;stroke:#F1F1F1;stroke-width:0.9534;stroke-miterlimit:10;}
	.st5{fill:none;stroke:#F1F1F1;stroke-width:3;stroke-miterlimit:10;}
	.st6{fill:none;stroke:#F1F1F1;stroke-width:3;stroke-linecap:round;stroke-miterlimit:10;}
	.st7{fill:#F1F1F1;}
	.st8{display:inline;fill:#FFB000;}
	.st9{display:inline;fill:#E89400;}
	.st10{display:inline;fill:#F1F1F1;stroke:#F1F1F1;stroke-width:2;stroke-miterlimit:10;}
	.st11{display:inline;fill:none;stroke:#F1F1F1;stroke-width:5;stroke-miterlimit:10;}
	.st12{display:inline;fill:#F4DC00;}
	.st13{display:inline;fill:#EAC800;}
	.st14{display:inline;fill:#6700AA;}
	.st15{display:inline;fill:#4A1587;}
	.st16{fill:#B70094;}
	.st17{fill:#990083;}
</style>
<g id="Layer_1" class="st0">
	<circle class="st1" cx="-558.7" cy="-49.8" r="68.8"/>
	<path class="st2" d="M-490.5-41c-4.3,33.9-33.2,60-68.2,60c-1.4,0-2.9,0-4.3-0.1L-594.9-13h21.7v-18l-1.1-0.7L-590-47.1l20.7-18.8
		l17.6,5.8l21.1-21L-490.5-41z"/>
	<g class="st3">
		<circle class="st4" cx="-534.9" cy="-76.9" r="5.5"/>
		<circle class="st4" cx="-552" cy="-59.9" r="5.5"/>
		<circle class="st4" cx="-568.6" cy="-65.8" r="5.5"/>
		<circle class="st4" cx="-585.7" cy="-51.3" r="5.5"/>
		<polyline class="st5" points="-585.7,-51.7 -568.6,-66.4 -552,-59.9 -534.7,-77.5 		"/>
		<line class="st6" x1="-593.8" y1="-14" x2="-526.5" y2="-14"/>
		<path class="st7" d="M-579.8-14.9v-15.7c0-1.2-1-2.3-2.3-2.3h-6.6c-1.2,0-2.3,1-2.3,2.3v15.7H-579.8z"/>
		<path class="st7" d="M-563.2-14.5v-29.8c0-1.2-1-2.3-2.3-2.3h-6.6c-1.2,0-2.3,1-2.3,2.3v29.7L-563.2-14.5z"/>
		<path class="st7" d="M-546-15v-23.7c0-1.2-1-2.3-2.3-2.3h-6.6c-1.2,0-2.3,1-2.3,2.3V-15L-546-15z"/>
		<path class="st7" d="M-529.4-15.1v-40.2c0-1.2-1-2.3-2.3-2.3h-6.6c-1.2,0-2.3,1-2.3,2.3V-15L-529.4-15.1z"/>
	</g>
</g>
<g id="Layer_2" class="st0">
	<circle class="st8" cx="-334.7" cy="-48.7" r="68.8"/>
	<path class="st9" d="M-311.2,15.9c23.7-8.6,41.2-29.9,44.6-55.6l-42-41.8l-18.9,14.2l-33,18.7l-7.6,7.8L-311.2,15.9z"/>
	<circle class="st10" cx="-317.5" cy="-72.6" r="11.6"/>
	<circle class="st10" cx="-358.9" cy="-49.4" r="11.6"/>
	<circle class="st10" cx="-317.4" cy="-25.9" r="11.6"/>
	<polyline class="st11" points="-317.5,-72.6 -359.4,-49 -316.8,-24.6 	"/>
</g>
<g id="Layer_3" class="st0">
	<circle class="st12" cx="-261.7" cy="-15.1" r="68.8"/>
	<path class="st13" d="M-243.9,51.3c26.5-7.1,46.7-29.6,50.4-57.3l-35.3-35.2l-23,1.3V2.7l-29.3,11.5L-243.9,51.3z"/>
	<g class="st3">
		<circle class="st7" cx="-267.3" cy="3" r="17.7"/>
		<polygon class="st7" points="-249.6,3.5 -249.6,-33.8 -228.8,-28 -228.8,-41.3 -257.8,-49.7 -257.8,-6.7 		"/>
	</g>
</g>
<g id="Layer_4" class="st0">
	<circle class="st14" cx="-70.8" cy="-5.6" r="68.8"/>
	<path class="st15" d="M-65.3,62.9C-32.7,60.3-6.4,35-2.5,2.8l-33.9-33.9l-20.8-1L-98.7,9.4l-3,16.8L-65.3,62.9z"/>
	<g class="st3">
		<path class="st7" d="M-60.7-28.6L-47.2-15l-34.3,34.3L-95,5.7L-60.7-28.6z M-36.9-31.9l-6-6c-2.3-2.3-6.1-2.3-8.5,0l-5.8,5.8
			l13.6,13.6l6.8-6.8C-35-27.1-35-30.1-36.9-31.9z M-102.1,24.8c-0.2,1.1,0.8,2.1,1.9,1.8l15.1-3.7L-98.7,9.4L-102.1,24.8z"/>
	</g>
</g>
<g id="Layer_5">
	<circle class="st16" cx="68.8" cy="68.8" r="68.8"/>
	<path class="st17" d="M81.9,136.2c25.4-4.9,45.8-23.8,52.9-48.2L80.1,33.3v38.5l-27.6,2.8l-4.8-4.8v17.7l5.2,9.5l14.4,14.4l-9,1.3
		L81.9,136.2z"/>
	<g>
		<g>
			<path class="st7" d="M90.6,69.4c-0.8,0-1.5,0.6-1.5,1.5v8.7c0,11.4-9.1,20.5-20.5,20.5S48.1,91,48.1,79.7V71
				c0-0.8-0.6-1.5-1.5-1.5c-0.8,0-1.5,0.6-1.5,1.5v8.7c0,12.3,9.7,22.6,22,23.3v7.4h-7.4c-0.8,0-1.5,0.6-1.5,1.5
				c0,0.9,0.6,1.5,1.5,1.5h17.6c0.8,0,1.5-0.6,1.5-1.5c0-0.9-0.6-1.5-1.5-1.5h-7.4V103c12.1-0.8,22-11,22-23.3V71
				C92.1,70.2,91.3,69.4,90.6,69.4z"/>
			<path class="st7" d="M68.6,95.8c8.9,0,16.1-7.2,16.1-16.1V44.6c0-8.9-7.2-16.1-16.1-16.1s-16.1,7.2-16.1,16.1v35.1
				C52.7,88.6,59.9,95.8,68.6,95.8z"/>
		</g>
	</g>
</g>
</svg>
