<svg width="12px" height="14px" viewBox="0 0 12 14" version="1.1" xmlns="http://www.w3.org/2000/svg" xmlns:xlink="http://www.w3.org/1999/xlink">
    <!-- Generator: Sketch 43.2 (39069) - http://www.bohemiancoding.com/sketch -->
    <desc>Created with Sketch.</desc>
    <defs></defs>
    <g id="M3" stroke="none" stroke-width="1" fill="none" fill-rule="evenodd">
        <g id="Recording-Studio-3---With-Content" transform="translate(-966.000000, -373.000000)">
            <g id="Group-5" transform="translate(271.000000, 180.000000)">
                <g id="Group-6" transform="translate(0.000000, 145.000000)">
                    <g id="Recording-3" transform="translate(0.000000, 37.000000)">
                        <g id="ic_delete_black_24px" transform="translate(692.000000, 9.000000)">
                            <g id="Group">
                                <path d="M4.5,14.25 C4.5,15.075 5.175,15.75 6,15.75 L12,15.75 C12.825,15.75 13.5,15.075 13.5,14.25 L13.5,5.25 L4.5,5.25 L4.5,14.25 L4.5,14.25 Z M14.25,3 L11.625,3 L10.875,2.25 L7.125,2.25 L6.375,3 L3.75,3 L3.75,4.5 L14.25,4.5 L14.25,3 L14.25,3 Z" id="Shape" fill-opacity="0.18" fill="#000000"></path>
                                <polygon id="Shape" points="0 0 18 0 18 18 0 18"></polygon>
                            </g>
                        </g>
                    </g>
                </g>
            </g>
        </g>
    </g>
</svg>
