<svg width="904" height="418" viewBox="0 0 904 418" fill="none" xmlns="http://www.w3.org/2000/svg">
<path d="M648.5 351.04C648.5 351.04 324.4 351.74 240.8 351.74C23.7001 351.74 22.8001 338.04 28.7001 261.54C34.6001 185.04 161.3 130.24 243.7 87.6396C395.8 9.03963 454.1 -8.46037 594.1 3.33963C723.6 14.2396 820.5 144.34 839 221.94C867.3 340.34 842.9 351.04 648.5 351.04Z" fill="#EBF3FF"/>
<path d="M881.8 280.74C862.3 285.34 836.5 300.14 829.5 317.84C829.5 317.84 829.9 306.54 813.9 304.54C797.9 302.54 784.6 330.04 784.6 330.04C784.6 330.04 776 289.74 752.5 298.24C729 306.74 715.5 327.74 715.5 327.74C715.5 327.74 711.3 286.24 684 291.44C656.7 296.64 646 349.64 646 349.64H852.3C880.8 349.64 903.9 326.54 903.9 298.04C903.8 286.54 893 278.04 881.8 280.74Z" fill="#CADFED"/>
<path d="M247.7 349.94C242.6 332.04 216.1 291.44 205.2 300.34C194.2 309.24 194.2 330.14 194.2 330.14C194.2 330.14 171.6 294.44 152.5 295.04C133.4 295.54 138.2 342.94 138.2 342.94C138.2 342.94 132.2 318.54 117.9 318.74C103.6 318.94 100.7 344.34 100.7 344.34C100.7 344.34 73.1997 300.54 30.3997 303.24C22.8997 303.74 16.8997 305.44 11.9997 307.84C-8.00032 318.04 -1.20032 348.44 21.3997 349.54L30.6997 349.94H247.7Z" fill="#CADFED"/>
<path d="M689.7 50.7396C718.9 19.0396 744 7.53958 764 5.73958C780.5 4.33958 793.5 9.63958 802.5 15.7396C822.4 29.3396 862.1 71.0396 851.9 118.74C841.7 166.44 828.5 221.04 744.4 206.74C697.2 198.84 596.9 151.44 689.7 50.7396Z" fill="#CADFED"/>
<path d="M764 5.7395L738.3 348.24" stroke="#A2C3EA" stroke-width="2.9205" stroke-miterlimit="10" stroke-linecap="round" stroke-linejoin="round"/>
<path d="M726.899 19.0396L758.399 77.0396" stroke="#A2C3EA" stroke-width="1.5016" stroke-miterlimit="10" stroke-linecap="round" stroke-linejoin="round"/>
<path d="M752.599 166.84L664.899 83.6396" stroke="#A2C3EA" stroke-width="1.5016" stroke-miterlimit="10" stroke-linecap="round" stroke-linejoin="round"/>
<path d="M698.199 41.9397L711.299 125.24" stroke="#A2C3EA" stroke-width="1.5016" stroke-miterlimit="10" stroke-linecap="round" stroke-linejoin="round"/>
<path d="M851.8 118.84L751.1 187.84" stroke="#A2C3EA" stroke-width="1.5016" stroke-miterlimit="10" stroke-linecap="round" stroke-linejoin="round"/>
<path d="M794.099 11.0396L760.699 48.0396" stroke="#A2C3EA" stroke-width="1.5016" stroke-miterlimit="10" stroke-linecap="round" stroke-linejoin="round"/>
<path d="M438.1 170.04C451 210.54 471.2 218.94 501.4 208.94C531.6 198.94 535.5 175.84 530.9 133.14C527.5 101.34 476.8 78.9397 452.3 94.6397C423.8 112.94 424.4 127.34 438.1 170.04Z" fill="#CADFED"/>
<path d="M478.8 89.9397L490.9 348.64" stroke="#A2C3EA" stroke-width="2.7702" stroke-miterlimit="10" stroke-linecap="round" stroke-linejoin="round"/>
<path d="M482.1 160.14L453.2 133.04L433.3 114.94" stroke="#A2C3EA" stroke-width="1.4243" stroke-miterlimit="10" stroke-linecap="round" stroke-linejoin="round"/>
<path d="M505.299 100.14L480.699 131.24" stroke="#A2C3EA" stroke-width="1.4243" stroke-miterlimit="10" stroke-linecap="round" stroke-linejoin="round"/>
<path d="M532 146.24L484.8 192.54" stroke="#A2C3EA" stroke-width="1.4243" stroke-miterlimit="10" stroke-linecap="round" stroke-linejoin="round"/>
<path d="M166.7 42.3397C264.3 94.5397 229.5 179.94 167.8 194.24C106.1 208.64 23.9998 205.14 33.5998 142.74C41.4998 91.9397 38.0998 50.3397 85.1998 31.3397C117.7 18.2397 145.8 31.1397 166.7 42.3397Z" fill="#CADFED"/>
<path d="M116.399 27.3396L130.799 349.54" stroke="#A2C3EA" stroke-width="3.3496" stroke-miterlimit="10" stroke-linecap="round" stroke-linejoin="round"/>
<path d="M153.2 36.7395L119.1 87.8395" stroke="#A2C3EA" stroke-width="1.7222" stroke-miterlimit="10" stroke-linecap="round" stroke-linejoin="round"/>
<path d="M121.099 131.94L45.3994 72.9397" stroke="#A2C3EA" stroke-width="1.7222" stroke-miterlimit="10" stroke-linecap="round" stroke-linejoin="round"/>
<path d="M225.599 111.04L123.199 179.84" stroke="#A2C3EA" stroke-width="1.7222" stroke-miterlimit="10" stroke-linecap="round" stroke-linejoin="round"/>
<path d="M208.5 74.7395L199 128.939" stroke="#A2C3EA" stroke-width="1.7222" stroke-miterlimit="10" stroke-linecap="round" stroke-linejoin="round"/>
<path d="M538.299 300.54C531.599 291.24 491.399 306.24 483.499 326.14C483.499 326.14 483.799 317.84 471.999 316.34C460.199 314.84 450.399 335.14 450.399 335.14C450.399 335.14 444.099 305.44 426.699 311.74C409.299 318.04 399.399 333.44 399.399 333.44C399.399 333.44 396.299 302.84 376.199 306.64C356.099 310.44 348.199 349.54 348.199 349.54H538.299V300.54Z" fill="#CADFED"/>
<path d="M264.3 109.04C257.8 106.24 257.4 97.1397 257.5 90.6397C257.7 84.1397 257.6 68.4397 259 61.8397C260.5 55.2397 261.7 47.7397 270.8 48.9397C274.9 49.4397 308.8 50.9397 316.1 49.8397C323.4 48.7397 321.1 58.0397 318.8 61.0397C316.6 64.1397 316.9 64.5397 313.6 66.9397C310.5 69.2397 279.8 73.9397 279.8 73.9397L264.3 109.04Z" fill="url(#paint0_radial)"/>
<path d="M201.899 214.34C198.799 184.74 194.499 152.74 202.699 141.34C210.999 130.04 219.899 128.04 227.599 127.14C235.299 126.24 259.499 125.14 269.399 126.04C279.399 126.94 335.599 131.64 337.999 136.64C340.399 141.64 318.399 304.14 318.399 304.14C318.399 304.14 213.399 293.14 213.099 291.54C212.799 289.94 231.699 219.24 231.699 219.24L201.899 214.34Z" fill="url(#paint1_linear)"/>
<path d="M313.7 66.9396C313.6 90.5396 310 116.44 304 119.24C298 122.04 295.5 120.14 293.9 123.34C292.3 126.54 290.8 143.34 290.8 143.34C290.8 143.34 285 145.84 274.6 142.34C264.2 138.84 259.8 128.14 259.8 128.14L263.5 99.2396C263.5 99.2396 259.7 101.94 256.5 98.2396C254.4 95.8396 252.9 87.2396 257.9 82.7396C262.9 78.2396 266.4 82.9396 268 84.9396C269.6 86.9396 271.5 86.9396 272.5 85.9396C273.5 84.9396 276.6 67.2396 280.7 65.7396C284.8 64.2396 297 67.0396 302.8 68.0396C308.6 69.0396 313.7 66.9396 313.7 66.9396Z" fill="#7854C6"/>
<path d="M674.799 239.74C677.599 254.24 678.399 258.54 679.799 265.24C681.199 271.94 707.899 340.34 710.999 346.44C714.099 352.64 719.499 357.04 731.199 360.34C743.199 363.74 751.399 363.64 749.899 368.04C748.999 370.74 720.299 366.34 703.699 369.54C681.299 373.74 678.999 369.64 681.399 368.04C683.899 366.44 689.199 365.14 692.299 364.24C695.399 363.34 696.099 362.24 694.699 358.94C692.899 354.74 669.699 311.24 662.299 297.94C654.899 284.64 645.399 242.44 645.399 242.44L674.799 239.74Z" fill="#D4A2F3"/>
<path d="M553.5 246.34C540.3 231.34 547.2 217.14 550.4 205.24C553.6 193.34 549 176.64 552.3 169.54C555.5 162.44 561.7 161.04 568.4 160.54C577.1 159.94 622.4 162.74 636.8 167.04C653 171.84 656.8 175.14 663.8 193.94C670.3 211.24 677.7 247.74 677.7 247.74L646.7 257.34L639.8 238.24C639.8 238.24 631.4 256.54 634.3 276.64C636.3 290.24 638.3 293.34 640.4 300.14C633.9 305.64 621 315.04 602.2 319.84C580.7 325.34 562.7 321.84 554.3 319.64C554.1 295.04 553.8 270.74 553.5 246.34Z" fill="url(#paint2_linear)"/>
<path d="M561.3 126.84C553.9 114.04 556.6 95.6396 562.7 85.7396C566.7 79.2396 576 74.7396 582.1 76.1396C591.6 78.4396 600.7 74.9396 611.8 84.5396C622.9 94.2396 623.8 100.64 626.4 115.64C629 130.64 630.5 139.04 640.6 153.74C654.1 173.34 645.7 204.84 629.6 219.94C620.1 228.84 598.4 237.34 597.6 219.64C595.7 180.54 608.5 168.94 608.8 157.04C609.1 147.14 592.5 168.44 578.6 156.44C570.1 149.34 561.3 126.84 561.3 126.84Z" fill="url(#paint3_radial)"/>
<path d="M564.499 99.9397C562.499 116.84 561.999 135.34 565.499 143.24C570.799 155.34 581.399 146.34 582.899 151.74C583.999 155.74 584.999 159.14 585.599 163.24C585.899 165.74 587.099 167.94 589.399 169.04C592.099 170.34 598.199 171.94 604.699 168.94C610.799 166.14 610.599 134.84 606.799 126.54C604.899 122.24 584.299 120.74 575.799 111.94C569.099 105.34 564.499 99.9397 564.499 99.9397Z" fill="#D4A2F3"/>
<path d="M204.299 288.74C200.199 305.04 157.999 313.24 157.999 313.24C157.999 313.24 156.099 316.34 163.799 326.24C171.499 336.14 205.099 359.94 236.099 362.14C272.899 364.74 314.199 375.84 351.399 354.24C413.399 318.14 410.599 307.24 414.299 298.64C415.399 296.24 204.299 288.74 204.299 288.74Z" fill="#6666A3"/>
<path d="M261.499 294.74C262.499 284.44 277.899 131.74 279.099 121.14C279.999 113.34 282.799 110.74 290.899 111.54C298.799 112.34 384.599 119.64 391.599 120.24C399.799 120.94 401.699 124.14 401.099 131.14C400.599 138.34 385.099 296.44 383.999 304.94C382.999 313.24 380.099 315.74 370.599 315.04C363.599 314.54 278.599 307.14 271.199 306.44C263.899 305.84 260.599 303.84 261.499 294.74Z" fill="#B4B4B4"/>
<path d="M270.3 288.14C271.2 278.64 285.4 137.94 286.5 128.14C287.3 120.94 289.9 118.54 297.1 119.24C304.2 119.94 380.4 126.44 386.6 126.94C393.9 127.54 395.5 130.54 395.1 136.94C394.6 143.54 380.4 289.24 379.4 297.14C378.4 304.84 375.9 307.14 367.5 306.44C361.3 305.94 285.7 299.44 279.1 298.84C272.4 298.34 269.5 296.44 270.3 288.14Z" fill="white"/>
<path d="M324 174.24C307.8 176.44 292.5 197.84 295.2 218.54C298 239.24 326.8 250.24 341.4 246.84C356.4 243.34 372.8 221.14 369 204.44C365.1 186.84 344.4 171.34 324 174.24Z" fill="#6FA7FC"/>
<path d="M327.7 196.24L324.3 222.84L345.6 212.24L327.7 196.24Z" fill="white"/>
<path d="M236.799 214.44L237.099 235.34C237.099 235.34 274.399 203.24 289.599 203.14C304.799 203.04 321.699 202.14 321.899 204.74C322.199 207.34 307.299 208.34 305.599 210.24C303.899 212.14 303.899 223.74 298.899 228.84C293.899 233.94 268.399 236.24 268.399 236.24C268.399 236.24 235.299 277.84 220.999 278.54C206.699 279.24 201.899 214.54 201.899 214.54L236.799 214.44Z" fill="#7854C6"/>
<path d="M395.6 166.14C385.8 167.84 374.9 169.04 375.1 171.74C375.3 174.34 391.3 174.84 394.9 174.64C394.9 174.64 374.5 175.74 373.8 179.14C373.1 182.54 395.1 182.84 395.1 182.84C395.1 182.84 375.7 184.44 379.4 187.84C383 191.24 394.5 190.04 394.5 190.04C394.5 190.04 384.1 195.84 385.3 198.04C386.8 200.74 400 195.34 402.4 194.04C406.2 192.04 408.1 174.84 403.5 168.14C401.6 165.44 395.6 166.14 395.6 166.14Z" fill="#7854C6"/>
<path d="M238.1 300.24C187.7 275.34 175.8 275.54 164.3 282.14C152.8 288.74 143.6 317.04 168.5 329.94C205.7 349.14 341.1 374.34 341.1 374.34L349.3 349.34C349.2 349.24 250.1 306.14 238.1 300.24Z" fill="#6666A3"/>
<path d="M373.6 348.54C426.8 330.34 426.9 320.24 430.4 307.44C433.8 294.64 417.6 277.64 391 286.24C351.1 299.04 262.3 362.44 262.3 362.44L274.2 387.54C274.2 387.54 360.9 352.84 373.6 348.54Z" fill="#6666A3"/>
<path d="M262.3 362.44L271.4 381.54C271.4 381.54 271.2 381.54 267.1 384.24C252.9 393.84 233.1 424.04 223.4 416.44C216.4 411.04 237 371.14 242.5 364.74C245.6 361.14 252.6 364.24 258 363.24C261.3 362.74 262.3 362.44 262.3 362.44Z" fill="#1E1B4E"/>
<path d="M341 374.34L347.6 354.24C347.6 354.24 347.8 354.34 352.6 355.24C369.4 358.34 404.9 350.94 406.7 363.14C408 371.84 367.1 385.34 358.7 386.24C354 386.74 349.3 379.74 344.7 376.74C341.8 374.74 341 374.34 341 374.34Z" fill="#1E1B4E"/>
<path d="M195.8 335.84C248.4 358.44 318.2 369.44 318.2 369.44" stroke="#575482" stroke-miterlimit="10" stroke-linecap="round" stroke-linejoin="round"/>
<path d="M207.3 286.24C234.3 297.14 336.5 343.34 349 347.84" stroke="#575482" stroke-miterlimit="10" stroke-linecap="round" stroke-linejoin="round"/>
<path d="M336.499 313.64L308.899 331.24" stroke="#575482" stroke-miterlimit="10" stroke-linecap="round" stroke-linejoin="round"/>
<path d="M680.199 306.24C663.599 302.34 639.899 298.34 639.899 298.34C614.799 310.04 579.799 312.24 570.299 310.64C565.699 309.84 559.099 307.94 553.999 302.84H486.399L508.699 313.04L584.399 361.04L680.199 306.24Z" fill="#6043B9"/>
<path d="M611.499 368.14L604.399 386.04C604.399 386.04 627.499 397.94 638.599 402.04C647.599 405.34 666.299 404.34 668.199 396.44C670.799 386.04 660.199 377.84 648.999 374.44C634.699 370.04 611.499 368.14 611.499 368.14Z" fill="#1E1B4E"/>
<path d="M582.299 347.44C547.999 326.24 521.599 310.24 506.899 305.44C489.899 299.94 470.599 302.24 467.499 313.54C463.499 328.24 476.499 346.14 490.899 353.34C513.099 364.44 563.499 377.74 581.699 381.74C599.899 385.74 604.599 386.44 604.599 386.44L613.399 364.74C613.299 364.74 590.199 352.34 582.299 347.44Z" fill="#6043B9"/>
<path d="M546.3 233.04C542.7 265.54 539.1 278.44 539.1 278.44C539.1 278.44 490.9 272.24 482.3 280.44C475.5 286.84 471.2 300.14 472.2 308.54C473.2 317.04 474.8 322.84 476.8 321.94C478.8 321.04 478.4 303.94 478.4 303.94C478.4 303.94 479.4 323.94 480.7 324.74C482 325.64 483.3 326.04 483.7 322.74C484.1 319.54 485.1 305.64 485.1 305.64C485.1 305.64 486.7 325.24 489.5 327.04C492.3 328.74 493.3 324.34 493 321.14C492.8 319.84 490.9 304.34 490.9 304.34C490.9 304.34 496.7 321.24 497.8 322.44C499.3 324.24 501.6 323.64 501.3 318.94C501.5 317.34 497.2 304.94 497.7 302.84C498.2 300.84 505.6 306.84 508.8 307.74C512 308.64 513.3 305.04 510.8 302.64C508.3 300.24 502.4 295.04 502.4 295.04C502.4 295.04 533.5 302.64 541.4 302.44C549.4 302.24 554.2 298.64 554.2 298.64L553.5 246.44C552.2 244.84 550.4 242.84 549.1 240.24C547.8 237.84 546.8 235.04 546.3 233.04Z" fill="#D4A2F3"/>
<path d="M545.5 363.24C612.4 332.14 684 297.14 703 304.14C719.6 310.24 723.5 321.44 720.3 331.14C715.2 346.14 693.5 359.74 664.9 363.64C636.6 367.44 566.1 380.44 553.9 383.94L545.5 363.24Z" fill="#6043B9"/>
<path d="M546.5 362.24C532.4 366.14 511.3 370.14 506.3 373.04C499.7 376.84 490.6 388.04 493.5 392.44C496.4 396.84 505.6 400.84 519.5 398.44C533.5 396.04 554.9 384.24 553.8 383.84L546.5 362.24Z" fill="#1E1B4E"/>
<path d="M651.7 316.74C619.8 329.84 595.2 341.84 587.3 345.94C579.3 350.04 547.1 362.04 547.1 362.04" stroke="#4927B0" stroke-width="1.0482" stroke-miterlimit="10"/>
<path d="M528.899 318.34C542.699 325.44 574.099 345.84 580.599 348.54" stroke="#4927B0" stroke-width="1.0482" stroke-miterlimit="10"/>
<path d="M610.2 372.44C601.2 374.64 572.6 379.24 572.6 379.24" stroke="#4927B0" stroke-width="1.0482" stroke-miterlimit="10"/>
<path d="M558.299 177.84C554.499 194.24 552.699 200.34 550.899 204.44" stroke="#3962B5" stroke-width="1.132" stroke-miterlimit="10" stroke-linecap="round" stroke-linejoin="round"/>
<path d="M639.8 238.14C635 226.54 633 223.34 633 223.34" stroke="#3962B5" stroke-width="1.132" stroke-miterlimit="10" stroke-linecap="round" stroke-linejoin="round"/>
<path d="M564.5 99.9398C572 111.24 580.8 117.74 595.9 121.54C611 125.34 613.4 127.04 614.9 139.44C616.3 151.84 607.5 166.44 606.6 186.04C605.7 205.64 608.9 211.84 617.8 210.54C626.7 209.24 645.7 190.44 647.2 164.64C648.6 140.84 623.3 113.84 623.3 113.84C618.6 107.84 609 77.8397 588.1 77.1397C577.7 76.7397 565 84.0397 564.7 91.1397" stroke="#68B1A3" stroke-width="1.132" stroke-miterlimit="10" stroke-linecap="round" stroke-linejoin="round"/>
<path d="M559.899 96.3396C552.399 110.84 557.399 142.64 563.699 151.34C570.099 160.04 580.099 158.74 580.099 158.74" stroke="#68B1A3" stroke-width="1.132" stroke-miterlimit="10" stroke-linecap="round" stroke-linejoin="round"/>
<path d="M268.799 85.2396C272.399 83.6396 270.299 63.5396 274.599 60.3396C278.899 57.1396 309.099 80.3396 320.999 58.8396C331.399 40.0396 309.399 45.3396 281.899 50.2396C270.399 52.3396 260.199 51.2396 260.599 64.3396C260.999 77.4396 261.499 78.4396 261.499 78.4396" stroke="#68B1A3" stroke-width="1.132" stroke-miterlimit="10" stroke-linecap="round" stroke-linejoin="round"/>
<path d="M236.8 214.44C237.4 203.64 237.8 181.34 237.8 181.34" stroke="#668ECC" stroke-width="1.132" stroke-miterlimit="10" stroke-linecap="round" stroke-linejoin="round"/>
<defs>
<radialGradient id="paint0_radial" cx="0" cy="0" r="1" gradientUnits="userSpaceOnUse" gradientTransform="translate(288.059 79.0972) rotate(5.1733) scale(31.2998)">
<stop stop-color="#56BEB6"/>
<stop offset="0.9481" stop-color="#A3DCB2"/>
</radialGradient>
<linearGradient id="paint1_linear" x1="438.057" y1="255.115" x2="244.243" y2="205.584" gradientUnits="userSpaceOnUse">
<stop offset="0.1883" stop-color="#5C8CD7"/>
<stop offset="1" stop-color="#84BAFF"/>
</linearGradient>
<linearGradient id="paint2_linear" x1="619.663" y1="155.285" x2="603.05" y2="324.044" gradientUnits="userSpaceOnUse">
<stop offset="0.00179811" stop-color="#5D76FF"/>
<stop offset="1" stop-color="#8B95D7"/>
</linearGradient>
<radialGradient id="paint3_radial" cx="0" cy="0" r="1" gradientUnits="userSpaceOnUse" gradientTransform="translate(602.035 153.007) scale(63.2118)">
<stop stop-color="#56BEB6"/>
<stop offset="0.9481" stop-color="#A3DCB2"/>
</radialGradient>
</defs>
</svg>
