<svg xmlns="http://www.w3.org/2000/svg" width="18" height="18" fill="none" viewBox="0 0 18 18">
    <path fill="#444" d="M11.014.034a.355.355 0 0 0-.157.056c-.121.077-.596.29-1.182.506-.585.217-1.305.464-2.013.709-.709.245-1.412.49-1.969.697-.278.105-.515.197-.709.282-.194.084-.325.132-.461.247-.183.155-.375.404-.63.743-.255.339-.544.75-.821 1.18-.277.431-.545.878-.743 1.272-.198.394-.349.703-.349 1.046 0 .144.027.179.057.293.03.114.071.259.123.427.106.338.248.78.428 1.26.335.893.77 1.926 1.237 2.734a3.843 3.843 0 0 0-.945 2.554A3.973 3.973 0 0 0 6.84 18a3.973 3.973 0 0 0 3.96-3.96 3.956 3.956 0 0 0-1.102-2.756c.302-.137.76-.301 1.294-.53.752-.32 1.65-.795 2.452-1.653.821-.882 1.2-2.153 1.598-3.307.398-1.155.821-2.177 1.473-2.622a.361.361 0 0 0 .113-.46c-.506-.971-1.609-1.596-2.711-2.026-1.103-.43-2.207-.652-2.869-.652h-.034zm.09.73c.508.01 1.558.198 2.554.586.92.359 1.724.904 2.149 1.507-.713.667-1.086 1.675-1.44 2.7-.403 1.168-.796 2.346-1.452 3.05-.711.761-1.5 1.183-2.204 1.484-.7.298-1.307.442-1.744.776-.005.003-.007.009-.012.012-.382.284-.843.73-1.36 1.113-.524.386-1.088.675-1.587.675-.561 0-1.21-.509-1.26-1.035-.035-.395.118-.763.394-1.125.275-.361.673-.7 1.091-.978.835-.557 1.71-.878 1.71-.878a.36.36 0 0 0 .157-.124s.365-.502.788-1.046c.212-.271.443-.554.641-.787.198-.234.39-.426.45-.473a.36.36 0 0 0-.315-.63s-.464.121-1.035.146c-.57.026-1.206-.073-1.507-.348a.36.36 0 0 0-.563.1s-.713 1.26-1.665 1.463a.36.36 0 0 0-.214.574s.296.367.36 1.181a.356.356 0 0 0 .09.214s.068.073.147.18c.06.083.105.155.135.214-.297.235-.613.451-.844.754a2.877 2.877 0 0 0-.315.573c-.353-.68-.721-1.42-.99-2.137a22.254 22.254 0 0 1-.416-1.226 8.368 8.368 0 0 1-.113-.394c-.015-.06-.018-.115-.022-.135.008-.06.087-.357.258-.698.182-.358.442-.787.71-1.203.266-.417.545-.826.787-1.148.242-.322.467-.576.517-.619-.02.017.107-.07.281-.146.175-.076.415-.157.687-.259a89.892 89.892 0 0 1 1.946-.697c.709-.245 1.427-.488 2.025-.709.53-.197.903-.35 1.181-.506zM7.01 6.098c.52.286 1.114.384 1.643.36.093-.004.083-.015.168-.022-.164.198-.331.4-.495.607-.397.51-.679.909-.73.98a9.947 9.947 0 0 0-1.632.843c-.038-.058-.065-.14-.101-.191-.072-.097-.103-.131-.135-.17-.057-.44-.15-.8-.259-1.034a3.246 3.246 0 0 0 1.541-1.373zM9.09 11.7a3.248 3.248 0 0 1-2.25 5.58 3.248 3.248 0 0 1-3.24-3.24c0-.7.213-1.337.585-1.856.294.721 1.04 1.203 1.823 1.203.76 0 1.439-.385 2.014-.81.427-.315.776-.63 1.068-.877z"/>
</svg>
