<svg width="25" height="25" viewBox="0 0 25 25" fill="none" xmlns="http://www.w3.org/2000/svg">
<path fill-rule="evenodd" clip-rule="evenodd" d="M12.7824 0C6.03476 0 0.564747 5.47002 0.564747 12.2176C0.564747 18.9652 6.03476 24.4353 12.7824 24.4353C19.53 24.4353 25 18.9652 25 12.2176C25 5.47002 19.53 0 12.7824 0ZM14.0557 12.7543V19.4013H11.3054V12.7545H9.93143V10.4639H11.3054V9.08867C11.3054 7.22 12.0813 6.10881 14.2856 6.10881H16.1207V8.39968H14.9736C14.1156 8.39968 14.0588 8.71979 14.0588 9.31722L14.0557 10.4637H16.1337L15.8905 12.7543H14.0557Z" fill="#222B36"/>
<path d="M0.699599 23.1405L0.564747 24.4353H10.7461L10.5438 23.1405L10.0718 22.2342L9.465 21.5221L8.38619 20.81C8.04905 20.7021 7.34782 20.4604 7.23994 20.3568C7.13206 20.2532 7.10971 20.0547 6.99733 19.9684V19.6447L7.9142 18.6089L8.38619 17.2495V15.89C8.38619 15.7864 8.07153 14.8973 7.9142 14.4658L7.23994 13.6889L6.16112 13.2358H5.01488L4.07091 13.6889L3.39665 14.4658L2.92466 15.5663V16.4726V17.4437C3.03704 17.7673 3.28877 18.4536 3.39665 18.6089C3.50453 18.7643 3.8012 19.0621 3.93606 19.1916L4.19118 19.6447V20.1626L3.59893 20.6158C3.10447 20.81 1.9807 21.3408 1.44129 21.9105C0.901878 22.4802 0.722075 22.9679 0.699599 23.1405Z" fill="#222B36" stroke="white"/>
</svg>
