<svg xmlns="http://www.w3.org/2000/svg" width="25" height="25" fill="none" viewBox="0 0 25 25">
    <path fill="#fff" fill-rule="evenodd" d="M12.782 0C6.035 0 .565 5.47.565 12.218c0 6.747 5.47 12.217 12.217 12.217C19.53 24.435 25 18.965 25 12.218 25 5.47 19.53 0 12.782 0zm1.274 12.754v6.647h-2.75v-6.646H9.931v-2.291h1.373V9.089c0-1.869.776-2.98 2.98-2.98h1.836v2.29h-1.147c-.858 0-.915.32-.915.918l-.003 1.147h2.078l-.243 2.29h-1.835z" clip-rule="evenodd"/>
    <path fill="#fff" stroke="#222B36" d="M.7 23.14l-.135 1.295h10.181l-.202-1.295-.472-.906-.607-.712-1.079-.712c-.337-.108-1.038-.35-1.146-.453-.108-.104-.13-.302-.243-.389v-.323l.917-1.036.472-1.36v-1.36c0-.103-.314-.992-.472-1.423l-.674-.777-1.079-.453H5.015l-.944.453-.674.777-.472 1.1V17.444c.112.323.364 1.01.472 1.165.108.155.404.453.54.582l.254.454v.518l-.592.453c-.494.194-1.618.725-2.158 1.294-.539.57-.719 1.058-.741 1.23z"/>
</svg>
