<?xml version="1.0" encoding="utf-8"?>
<!-- Generator: Adobe Illustrator 23.0.1, SVG Export Plug-In . SVG Version: 6.00 Build 0)  -->
<svg version="1.1" id="Layer_1" xmlns="http://www.w3.org/2000/svg" xmlns:xlink="http://www.w3.org/1999/xlink" x="0px" y="0px"
	 viewBox="0 0 560.5 480" style="enable-background:new 0 0 560.5 480;" xml:space="preserve">
<style type="text/css">
	.st0{fill:#FFFFFF;}
	.st1{display:none;fill:#FFFFFF;}
</style>
<path class="st0" d="M512.5,0h-352c-26.5,0-48,21.5-48,48v128.5c3.3-0.5,6.7-0.7,10.1-0.7c49,0,88.8,47.2,88.8,105.2
	c0,32-12.1,61.7-32.4,81.4c2.4,1.2,4.9,2.3,7.3,3.5c14.9,7,35.2,16.5,51.6,33.8c12.6,13.3,21.2,29.5,25.7,48.3h93.7V270.9h-60.9
	v-67.6h60.8v-49.9c0-57.9,35.4-89.4,87-89.4c24.8,0,46,1.9,52.2,2.7v60.4h-35.8c-28.1,0-33.5,13.3-33.5,32.9v43.2h69.3l-8.7,67.6
	h-60.6V448h85.3c26.5,0,48-21.5,48-48V48C560.5,21.5,539,0,512.5,0z"/>
<path class="st1" d="M16.2,428.8c-2.5-1.2-5-2.3-7.3-3.5c20.3-19.7,32.4-49.5,32.4-81.4c0-58-39.8-105.2-88.8-105.2
	c-3.4,0-6.8,0.2-10.1,0.7v223.5c0,26.5,21.5,48,48,48H93.5c-4.5-18.8-13.1-35-25.7-48.3C51.4,445.3,31,435.8,16.2,428.8z"/>
<g>
	<g>
		<path class="st0" d="M123.5,481L123.5,481l-1.7,0H0c0-89.1,78.2-89.1,95.6-112.3l2-10.6C73.2,345.7,56,315.9,56,281
			c0-45.9,29.9-83.2,66.7-83.2s66.7,37.2,66.7,83.2c0,34.6-16.9,64.2-41,76.7l2.3,12.1c19,22.2,94.7,23.6,94.7,111.2L123.5,481
			L123.5,481z"/>
	</g>
</g>
</svg>
