<svg xmlns="http://www.w3.org/2000/svg" width="404" height="341" fill="none" viewBox="0 0 404 341">
    <g clip-path="url(#a)">
        <path fill="#ECF2FF" d="M317.639 334.558c45.078 0 80.667-23.403 85.602-62.913 3.511-28.046-1.519-57.039-53.335-91.527-17.178-11.37-37.202-23.498-52.671-46.143-12.148-17.718-17.083-39.131-22.967-59.123-12.622-42.826-23.346-58.46-79.148-65.66-30.749-3.98-53.336 14.875-69.469 40.836-15.279 24.54-22.967 46.806-45.364 82.147C54 173.769 40.523 173.39 18.506 203.615c-20.689 28.33-27.142 86.6 10.25 110.003 21.163 13.36 39.384 20.94 288.883 20.94z"/>
        <path fill="#D7A4AE" d="M339.75 254.779s-1.518-1.611-3.037-1.8c-1.518-.19-2.752-.19-2.752.379 0 .473 2.468.568 2.847 1.137-2.467.473-4.46-.948-5.219-.19-.76.853 1.423 4.548 8.826 3.411"/>
        <path fill="#6C8AD2" d="M239.439 267.665c5.979-.663 11.483 1.232 15.659 4.548 0 0 .094 0 .094-.094v-35.342h35.779c.095 0 .095.095.095.095-3.132 3.79-4.84 8.717-4.745 14.023.379 10.801 9.015 19.708 19.834 20.371 12.337.758 22.587-9.001 22.587-21.129 0-5.022-1.803-9.664-4.745-13.265 0 0 0-.095.095-.095h35.683s.095 0 .095.095v91.148c0 7.201-5.884 12.981-13.002 12.981h-91.581s-.095 0-.095-.095v-35.625c0-.095-.094-.095-.094-.095-13.951 11.275-34.735 1.042-34.545-16.676.095-10.612 8.257-19.708 18.886-20.845z"/>
        <path fill="#B0C4F9" d="M207.362 132.079v35.91c14.425-11.844 36.537-.379 34.544 18.571-.949 9.095-7.782 16.77-16.798 18.57-6.738 1.327-13.096-.568-17.746-4.358v35.91h-36.253c11.578-13.55 2.183-34.11-15.09-34.963-18.695-.852-29.135 20.94-17.177 34.963h-36.253v-91.717c0-7.106 5.789-12.981 13.002-12.981h91.771v.095z"/>
        <path fill="#5C50A0" d="M106.955 268.045s-15.184 1.042-23.82-3.032c-8.636-4.074-15.374-12.981-16.039-21.413-.664-8.433 8.636-9.949 12.527-1.706s5.41 20.561 27.332 23.119v3.032z"/>
        <path fill="#D7A4AE" d="M114.452 264.539c-.759-.853-2.752.569-5.219.19.379-.569 2.847-.664 2.847-1.137 0-.474-1.234-.569-2.752-.379-1.519.189-3.037 1.8-3.037 1.8l-.665 2.937c7.498 1.137 9.586-2.558 8.826-3.411z"/>
        <path fill="#54538F" d="M102.685 236.209v.379h36.253c-11.579-13.549-2.183-34.11 15.089-34.963 12.148-.568 22.207 9.096 22.207 21.129 0 5.306-1.898 10.044-5.125 13.739h36.253v35.531c-13.001-10.707-32.741-2.464-34.544 14.022-2.088 19.14 20.024 30.699 34.544 18.761v35.909h-91.771c-7.117 0-13.001-5.779-13.001-12.98l.095-91.527z"/>
        <path fill="url(#b)" d="M77.44 234.408s-3.51-5.78 0-9.57c5.6-6.064 16.988 1.232 11.389 4.454-3.701 2.084-11.388 5.116-11.388 5.116z"/>
        <path fill="#6F55C1" d="M88.829 228.25s-.95 14.307-8.826 10.423c-4.27-2.653-1.803-5.969-1.803-5.969-2.658-1.137-.19-5.78 2.372-2.748l1.898-3.601c0 .095 2.088 1.801 6.359 1.895z"/>
        <path fill="#6F55C1" d="M78.2 232.703l-4.46 4.832 5.22 4.738 4.65-7.012-5.41-2.558z"/>
        <path fill="#D7A4AE" d="M49.634 273.729s-2.942 5.021 5.125 24.16c3.416 10.044 9.585 39.795 9.585 39.795l3.417-.663s3.606-36.668-3.322-61.682l-14.805-1.61z"/>
        <path fill="url(#c)" d="M74.688 236.493c-3.037-.853-6.548.284-9.016 2.179-5.03 3.695-15.184 13.17-22.871 32.593-7.118 18.192 16.513 15.823 28.66-4.737 12.148-20.56 8.636-24.919 6.074-27.951-.854-.853-1.708-1.8-2.847-2.084z"/>
        <path fill="#E9B8BF" d="M42.8 271.266s-4.175 4.074-1.328 24.634c.665 10.612-.949 40.932-.949 40.932h3.417s11.957-32.215 11.673-58.176l-12.812-7.39z"/>
        <path fill="#6F55C1" d="M106.955 273.918s-15.184 1.042-23.82-3.032c-8.636-4.074-15.374-12.981-16.039-21.413-.664-8.433 8.636-9.949 12.527-1.706s5.41 20.561 27.332 23.119v3.032z"/>
        <path fill="#D7A4AE" d="M67.665 336.832s.19 1.421 3.986 2.274c1.518.284 1.803 1.8 1.803 1.8h-9.11s-1.14-1.042.19-3.505l3.131-.569z"/>
        <path fill="#6F55C1" d="M44.035 336.359s-.475 1.989 2.183 2.463c1.898.474 1.613 2.085 1.613 2.085h-4.745l-4.176-2.559s-.474-1.516 1.993-2.842l3.132.853zM114.832 270.508c-.759-.853-2.752.568-5.219.189.379-.568 2.847-.663 2.847-1.137 0-.473-1.234-.568-2.752-.379-1.519.19-3.037 1.801-3.037 1.801l-.665 2.937c7.498 1.042 9.586-2.653 8.826-3.411z"/>
        <path fill="#5C50A0" d="M53.335 294.479s8.161 33.067 9.585 43.205h6.074s2.942-46.711-4.556-62.344c-20.309 9.948-11.103 19.139-11.103 19.139z"/>
        <path fill="#54538F" d="M44.51 267.098c-5.315 5.306-5.41 19.139-4.082 30.035 1.329 10.896-1.138 37.994-1.138 37.994s.474 0 5.03 1.706c4.745-8.528 8.161-20.845 9.49-31.173 3.036-23.876 10.629-30.319 10.629-30.319l-19.93-8.243z"/>
        <path fill="url(#d)" d="M70.702 261.506l12.907-7.201s-1.993-15.444-8.92-17.718c-6.929-2.368-13.572 13.928-3.987 24.919z"/>
        <path fill="#5D4669" d="M68.614 338.062l-.38.853-4.27-.189c-.474 1.61.285 2.274.285 2.274h9.11c-.38-2.274-2.562-1.516-4.745-2.938zM39.954 336.074l3.606 2.653.95-.568c.284.284.854.663 1.613.758 1.898.473 1.613 2.084 1.613 2.084h-4.745l-4.176-2.558c0-.095-.284-1.137 1.14-2.369z"/>
        <path fill="#B193DB" d="M259.179 104.508s5.884 18.665 19.265 26.719c3.986 2.463 3.986 12.886-5.125 9.854-6.928-2.274-16.418-25.677-16.038-36.573h1.898z"/>
        <path fill="#D7A4AE" d="M254.149 99.203c1.044 0 1.424 2.274 3.417 3.601.094-.664-1.519-2.369-1.139-2.653.379-.38 1.233.473 2.088 1.61.854 1.137.854 3.127.854 3.127l-1.519 2.369c-5.789-4.169-4.745-8.054-3.701-8.054zM144.252 80.916s12.242 11.18 9.775 19.234c-2.468 8.054-6.833 26.625-6.833 26.625l3.131 1.042s15.849-22.835 14.141-35.815c-1.708-13.075-12.907-29.088-12.907-29.088s-13.571 6.632-7.307 18.002z"/>
        <path fill="#5C50A0" d="M150.42 127.532s-.474 1.99 2.183 2.464c1.898.474 1.613 2.084 1.613 2.084h-4.745l-4.176-2.558s-.474-1.516 1.993-2.842l3.132.852zM149.281 32.499c4.366-4.264 9.585 1.137 12.812 9.475 3.132 8.337 12.812 12.317 21.828 6.158l1.233 1.99s-4.935 6.443-15.374 6.538c-13.856.19-25.813-18.95-20.499-24.161z"/>
        <path fill="#3E377F" d="M153.837 60.924s14.235 27.287 11.578 40.363l-11.483 27.477-7.782-1.99s6.738-21.224 6.738-29.372l-10.25-19.518 11.199-16.96z"/>
        <path fill="#D7A4AE" d="M191.703 45.669c-.949-.569-2.562 1.232-5.03 1.421.285-.663 2.657-1.326 2.468-1.8-.095-.474-1.329-.19-2.753.379-1.423.569-2.467 2.463-2.467 2.463l.095 3.032c7.497-.758 8.636-4.832 7.687-5.495z"/>
        <path fill="#6C8AD2" d="M303.403 93.138c-7.023 14.971-28.281 16.392-37.202 2.085l-11.578 33.92-33.975-11.56c14.33-8.906 12.907-30.13-2.088-37.141-17.462-8.148-35.588 9.001-28.945 26.53l-33.975-11.56 29.609-86.695c2.278-6.727 9.68-10.422 16.418-8.053l86.836 29.561-11.578 33.92c17.462-6.443 34.734 11.56 26.478 28.993z"/>
        <path fill="url(#e)" d="M167.502 21.887s2.562.19 2.942-3.506c.38-3.316-3.416-8.243-10.06-4.738-1.233-2.747-9.015-2.747-10.439 3.222-1.898 7.864 7.497 11.654 7.497 11.654l10.06-6.632z"/>
        <path fill="#6F55C1" d="M168.357 19.329s-.949 14.307-8.826 10.422c-4.271-2.653-1.803-5.97-1.803-5.97-2.657-1.136-.19-5.779 2.372-2.747l1.899-3.6c.094 0 2.182 1.705 6.358 1.895z"/>
        <path fill="#6F55C1" d="M157.823 23.783l-3.607 5.97 4.366 3.6 4.555-7.106-5.314-2.464z"/>
        <path fill="#F4F8FC" d="M149.186 73.526s15.47-35.152 9.301-41.69c-6.264-6.537-14.425 3.411-18.316 17.908l-3.607 12.79 12.622 10.992z"/>
        <path fill="#6F55C1" d="M148.902 63.008c2.372 19.234-7.592 52.301-13.476 65.187l-3.132.568s3.511-32.214 3.132-51.259c-.285-15.538 2.467-19.518 2.467-19.518l11.009 5.022z"/>
        <path fill="#6F55C1" d="M135.521 127.912s.19 1.421 3.986 2.274c1.518.284 1.803 1.8 1.803 1.8h-9.111s-.854-1.61.19-3.505l3.132-.569zM190.09 54.48c-.76-.852-2.753.569-5.22.19.38-.569 2.847-.663 2.847-1.137s-1.234-.569-2.752-.379c-1.519.19-3.037 1.8-3.037 1.8l-.664 2.937c7.402 1.137 9.585-2.558 8.826-3.41z"/>
        <path fill="#4C3F96" d="M154.216 60.923l-15.754-5.116s-3.511 3.79-5.029 19.044c-1.519 15.255-2.658 53.249-2.658 53.249l7.023-.284 16.418-66.893z"/>
        <path fill="#F4F8FC" d="M152.224 31.172c4.175-2.463 7.402 1.232 9.11 7.2l-10.06 6.16c-2.182-5.875-2.087-11.56.95-13.36z"/>
        <path fill="#6F55C1" d="M161.335 38.467c.474 1.516.759 3.221.949 5.116 1.044 8.812 9.395 15.065 19.644 11.37l.76 2.369c-5.789 4.358-24.106 7.106-31.413-12.791l10.06-6.064z"/>
        <path fill="#5D4669" d="M152.793 130.09l-.19.568h-2.942l-2.752-1.705c.569-1.232-.38-1.801-.475-1.801-1.708 1.232-1.328 2.369-1.328 2.369l4.175 2.558h4.746c.095 0 .379-1.516-1.234-1.989zM138.937 130.09l-.189.569h-5.315c-.285-.948-.949-1.327-1.328-1.516-.76 1.895.094 2.937.094 2.937h9.111c-.38-1.611-1.708-1.8-2.373-1.99z"/>
        <path fill="#B193DB" d="M270.092 160.6h9.87s7.498 5.4.854 28.235c-5.884 20.181 4.366 43.395 4.366 43.395l-2.942 1.61s-21.068-30.035-12.148-73.24z"/>
        <path fill="#C5A0EF" d="M270.946 117.584s-4.84 13.454 3.891 13.075c5.03-.663 4.081-4.737 4.081-4.737 2.942 0 2.468-5.211-1.139-3.411l-.284-4.074s-2.563.758-6.549-.853z"/>
        <path fill="#C5A0EF" d="M278.918 126.49l1.993 9.38-5.979-1.042-1.328-8.243 5.314-.095z"/>
        <path fill="#F4F8FC" d="M279.108 168.843s7.593-30.604 0-35.53c-7.592-4.927-13.191 6.632-13.76 21.602l-.475 13.265 14.235.663z"/>
        <path fill="#C5A0EF" d="M252.345 105.93s6.264 19.613 20.31 27.287c1.518.853 2.752 2.274 3.511 3.885 1.803 4.358-2.467 8.433-5.979 6.632-6.453-3.411-20.119-26.908-19.834-37.804h1.992zM265.157 160.6h12.527s4.176 6.916-1.898 30.13c-7.307 27.95-6.358 43.11-6.358 43.11h-2.942s-7.213-47.09-1.329-73.24z"/>
        <path fill="#C5A0EF" d="M266.391 232.703s-.19 1.421-3.986 2.274c-1.518.284-1.803 1.8-1.803 1.8h9.111s1.044-1.326-.38-3.79l-2.942-.284z"/>
        <path fill="#B193DB" d="M281.291 232.23s.474 1.989-2.183 2.463c-1.898.474-1.613 2.085-1.613 2.085h4.745l4.175-2.559s.475-1.516-1.992-2.842l-3.132.853z"/>
        <path fill="#C5A0EF" d="M247.221 100.434c1.044 0 1.423 2.274 3.416 3.6.095-.663-1.518-2.369-1.138-2.653.379-.379 1.233.474 2.087 1.611.854 1.137.854 3.127.854 3.127l-1.518 2.368c-5.789-4.169-4.745-8.053-3.701-8.053z"/>
        <path fill="url(#f)" d="M280.911 160.6s5.03 6.822 2.563 21.318c-2.468 14.497-4.366 20.181-4.366 20.181H262.88s-2.183-27.856 2.372-41.499h15.659z"/>
        <path fill="url(#g)" d="M275.882 115.877c-2.563-.568-5.695.379-6.644 3.032-1.233 3.411 7.593 2.843 7.593 2.843s-2.088 5.59 1.233 9.285c3.322 3.695-1.803 7.959 1.044 13.17s11.578 4.169 11.768-3.6c.19-7.77-3.986-11.465-7.307-15.728-2.278-3.032-3.037-7.486-7.213-8.812-.095-.095-.285-.095-.474-.19z"/>
        <path fill="#23214E" d="M279.013 234.787l.189.568h2.942l2.753-1.705c-.57-1.232.379-1.8.474-1.8 1.708 1.231 1.329 2.368 1.329 2.368l-4.176 2.559h-4.745c-.19 0-.475-1.516 1.234-1.99zM262.405 234.978c.19 0 .38-.095.57-.095l.189.569h5.315c.285-.948.949-1.327 1.329-1.516.759 1.894-.095 2.937-.095 2.937h-9.111c0-.095.285-1.611 1.803-1.895z"/>
        <path stroke="#80AEA1" stroke-linecap="round" stroke-linejoin="round" stroke-miterlimit="10" stroke-width=".4" d="M169.211 18.193c.57-3.506-3.036-8.433-7.022-6.822-4.84 2.085-3.132 5.117-1.804 4.643 1.329-.474-4.365-4.738-7.592-.758-3.037 3.884-1.044 8.243 2.563 9.285M271.042 118.436c1.708-3.127 9.774-1.611 8.825 3.884-.854 5.496-2.372 1.137-1.423.758.949-.473 6.833 3.032 8.731 12.033 1.898 9.001-1.044 9.001-4.745 6.917M89.588 227.872c1.803-.664 4.176-3.411-.474-4.359-4.65-.947-8.542 1.327-11.389 1.516-2.847.19-3.037 3.506-.854 6.727"/>
    </g>
    <defs>
        <radialGradient id="b" cx="0" cy="0" r="1" gradientTransform="matrix(30.4114 0 0 30.362 71.162 220.432)" gradientUnits="userSpaceOnUse">
            <stop offset="0" stop-color="#92BCB4"/>
            <stop offset=".948" stop-color="#B9DAB1"/>
        </radialGradient>
        <linearGradient id="c" x1="41.441" x2="79.984" y1="259.892" y2="259.892" gradientUnits="userSpaceOnUse">
            <stop offset=".002" stop-color="#6C8AD2"/>
            <stop offset="1" stop-color="#526EBB"/>
        </linearGradient>
        <linearGradient id="d" x1="65.932" x2="83.586" y1="248.888" y2="248.888" gradientUnits="userSpaceOnUse">
            <stop offset=".002" stop-color="#6C8AD2"/>
            <stop offset="1" stop-color="#526EBB"/>
        </linearGradient>
        <radialGradient id="e" cx="0" cy="0" r="1" gradientTransform="matrix(35.0191 0 0 34.9624 170.703 25.36)" gradientUnits="userSpaceOnUse">
            <stop offset="0" stop-color="#92BCB4"/>
            <stop offset=".948" stop-color="#B9DAB1"/>
        </radialGradient>
        <linearGradient id="f" x1="295.954" x2="259.885" y1="150.149" y2="197.623" gradientUnits="userSpaceOnUse">
            <stop offset=".002" stop-color="#C5A0EF"/>
            <stop offset="1" stop-color="#8C93D3"/>
        </linearGradient>
        <radialGradient id="g" cx="0" cy="0" r="1" gradientTransform="matrix(39.6242 0 0 39.5599 283.859 121.058)" gradientUnits="userSpaceOnUse">
            <stop offset="0" stop-color="#92BCB4"/>
            <stop offset=".948" stop-color="#B9DAB1"/>
        </radialGradient>
        <clipPath id="a">
            <path fill="#fff" d="M0 0h404v341H0z"/>
        </clipPath>
    </defs>
</svg>
