<svg xmlns="http://www.w3.org/2000/svg" width="428" height="377" fill="none" viewBox="0 0 428 377">
    <path fill="#ECF2FF" d="M380.726 149.769C358.984 64.269 283.855 2.551 195.665.076 149.043-1.237 99.99 14.228 64.271 68.336c-63.855 96.709 3.918 163.566 51.171 195.322 22.827 15.38 16.128 47.246 33.841 68.306 31.918 37.877 148.023 67.579 221.144-6.134 53.004-53.452 24.783-119.114 10.299-176.061z"/>
    <path fill="#B0C4F9" d="M417.914 346.46c0 16.855-79.275 30.54-177.017 30.54-97.741 0-167.73-44.186-167.73-61.029 0-16.842 69.969 0 167.73 0 97.762 0 177.017 13.64 177.017 30.489z"/>
    <g opacity=".7">
        <path fill="#B0C4F9" d="M412.052 91.84c-6.42 12.463-26.771 27.148-39.235 20.728-12.463-6.42-12.346-31.515-5.893-43.978a25.382 25.382 0 1 1 45.128 23.25z" opacity=".7"/>
        <path fill="#6963FA" d="M373.872 115.859a4.208 4.208 0 0 0-4.347-2.242l2.241-4.347 4.348 2.242-2.242 4.347z" opacity=".7"/>
        <path stroke="#323242" stroke-miterlimit="10" stroke-width="1.61" d="M370.699 111.358a5.374 5.374 0 0 0 4.367 2.229" opacity=".7"/>
        <path fill="#fff" d="M408.541 78.001c1.624-3.152.81-6.805-1.819-8.16-2.629-1.354-6.076.103-7.7 3.255-1.624 3.152-.81 6.805 1.819 8.16 2.629 1.354 6.076-.103 7.7-3.255z" opacity=".4"/>
        <path stroke="#323242" stroke-miterlimit="10" stroke-width="1.61" d="M372.701 112.723l-18.935 47.656" opacity=".7"/>
    </g>
    <path fill="#D37AB8" d="M416.05 168.294c-14.055 14.185-47.987 25.419-62.172 11.364-14.185-14.055-3.249-48.084 10.819-62.269a36.154 36.154 0 1 1 51.334 50.905h.019z"/>
    <path fill="#D37AB8" d="M353.903 184.577a5.999 5.999 0 0 0-4.951-4.906l4.906-4.951 4.951 4.905-4.906 4.952z"/>
    <path stroke="#323242" stroke-miterlimit="10" stroke-width=".55" d="M351.539 177.106a7.656 7.656 0 0 0 4.984 4.893M352.935 180.85l-46.609 47.026"/>
    <path fill="#fff" d="M417.203 147.972c3.557-3.589 4.017-8.9 1.028-11.864-2.99-2.964-8.297-2.457-11.854 1.131-3.558 3.589-4.018 8.9-1.028 11.864 2.989 2.964 8.296 2.457 11.854-1.131z" opacity=".4"/>
    <path fill="#6963FA" d="M372.117 122.349c-4.633 19.423-27.772 46.669-47.221 42.049-19.448-4.621-27.778-39.391-23.145-58.813a36.155 36.155 0 0 1 65.97-10.549 36.153 36.153 0 0 1 4.37 27.326l.026-.013z"/>
    <path fill="#6963FA" d="M327.495 168.578a5.977 5.977 0 0 0-6.77-1.585l1.611-6.777 6.784 1.579-1.625 6.783z"/>
    <path stroke="#323242" stroke-miterlimit="10" stroke-width=".55" d="M321.583 163.434a7.66 7.66 0 0 0 6.797 1.612"/>
    <path fill="#fff" d="M362.495 104.371c1.172-4.915-1.198-9.691-5.293-10.668-4.094-.976-8.364 2.217-9.536 7.132-1.171 4.915 1.198 9.691 5.293 10.668 4.095.976 8.364-2.217 9.536-7.132z" opacity=".4"/>
    <path stroke="#323242" stroke-miterlimit="10" stroke-width=".55" d="M324.812 165.882l-15.361 64.407"/>
    <g opacity=".8">
        <path fill="#B0C4F9" d="M155.36 284.264c-10.098 9.825-34.173 17.317-43.998 7.226-9.825-10.091-1.676-33.965 8.447-43.79a25.507 25.507 0 0 1 41.812 8.657 25.508 25.508 0 0 1-6.235 27.907h-.026z" opacity=".8"/>
        <path fill="#B0C4F9" d="M111.31 294.966a4.23 4.23 0 0 0-3.425-3.529l3.522-3.424 3.431 3.522-3.528 3.431z" opacity=".8"/>
        <path stroke="#323242" stroke-miterlimit="10" stroke-width=".55" d="M109.731 289.665a5.393 5.393 0 0 0 3.45 3.516" opacity=".8"/>
        <path fill="#fff" d="M156.432 269.922c2.554-2.485 2.945-6.226.872-8.356-2.072-2.129-5.822-1.841-8.376.644-2.554 2.485-2.945 6.227-.872 8.356 2.072 2.13 5.822 1.841 8.376-.644z" opacity=".4"/>
    </g>
    <path fill="url(#a)" d="M270.814 83.926c9.695 0 15.855 3.724 19.786 18.487l6.622 23.256a2.564 2.564 0 0 1-1.916 3.196 2.56 2.56 0 0 1-1.372-.077l-2.482-.858a2.605 2.605 0 0 0-.839-.136l-33.99.065-1.644-23.893c-.384-10.397 6.147-20.007 15.835-20.007v-.033z"/>
    <path fill="#ECB7B7" d="M246.272 195.448l-5.322 11.183s-4.341 15.036.572 16.641c4.912 1.605 5.881-15.432 5.881-15.432l4.067-11.268-5.198-1.124z"/>
    <path fill="#6F55C1" d="M246.272 195.448l-5.322 11.183s-4.341 15.036.572 16.641c4.912 1.605 5.881-15.432 5.881-15.432l4.067-11.268-5.198-1.124z"/>
    <path fill="#585A85" d="M247.278 177.932l-6.731 23.568 10.663 5.608v-28.051l-3.932-1.125z"/>
    <path fill="#ECB7B7" d="M265.512 115.368s-.558 8.974-1.682 8.974c-1.125 0-3.366 10.663-3.366 10.663l9.539 6.173 11.787-10.663-3.366-8.447s-1.683-3.366-1.124-6.732c.559-3.366-11.788.032-11.788.032z"/>
    <path fill="#5C50A0" d="M265.512 115.368s-.558 8.974-1.682 8.974c-1.125 0-3.366 10.663-3.366 10.663l9.539 6.173 11.787-10.663-3.366-8.447s-1.683-3.366-1.124-6.732c.559-3.366-11.788.032-11.788.032z"/>
    <path fill="#6F55C1" d="M300.854 204.585l1.118 12.346s3.931 15.153 8.98 14.029c5.049-1.124-2.807-16.245-2.807-16.245l-2.242-11.78-5.049 1.65zM275.388 325.356s5.849 20.521 3.587 24.452c-2.261 3.931 1.131 5.712 1.131 5.712l13.464-3.334v-6.173s-3.249-21.365-3.249-22.489c0-1.124-14.933 1.832-14.933 1.832z"/>
    <path fill="#323242" d="M249.241 233.204s3.931 40.398 10.104 53.283c6.173 12.885 15.862 48.988 18.662 49.553 2.801.565 10.949-1.624 13.756-3.899 2.807-2.274-9.974-59.131-9.974-59.709 0-.578-5.049-50.496-5.049-50.496l-6.738-11.228-20.761 22.496z"/>
    <path fill="url(#b)" d="M249.241 233.203s3.931 40.398 10.104 53.283c6.173 12.886 15.862 48.988 18.662 49.554 2.801.565 12.457-2.268 15.257-4.517 2.801-2.248-11.475-58.481-11.475-59.066 0-.585-5.049-50.495-5.049-50.495l-6.738-11.229-20.761 22.47z"/>
    <path fill="#6F55C1" d="M187.524 302.218s-12.171 12.866-18.344 11.183c-6.173-1.683-.734 8.447-.734 8.447l11.222 6.173 3.366-2.807s20.52-22.775 23.139-25.556c3.483-3.691-18.649 2.56-18.649 2.56z"/>
    <path fill="url(#c)" d="M245.876 199.528l2.248 11.787-42.087 63.966s-25.251 25.251-23.003 28.058c2.248 2.807 8.486 12.47 11.852 10.228 3.366-2.242 89.146-79.808 88.587-91.03-.559-11.222-19.078-32.548-19.078-32.548l-18.519 8.447v1.092z"/>
    <path fill="#6F55C1" d="M269.925 100.579c7.434.169 13.548-.507 13.548 6.933 0 7.44-8.005 13.893-15.439 13.893-7.434 0-9.318-8.675-9.318-16.115 0-7.44 1.202-4.932 11.209-4.711z"/>
    <path fill="#F4F8FC" d="M272.81 127.707s-9.539.566-12.346-1.117c-2.808-1.683-8.994 23.002-8.994 23.002l-3.898 32.549s.318.89-.241 3.138c-.533 2.105-.832 2.976-2.268 9.383-1.215 5.452-2.54 7.674 1.391 8.24 3.931.565 24.692-7.856 24.692-7.856l9.539-49.944 2.807-20.195-10.682 2.8z"/>
    <path fill="#54538F" d="M264.512 123.151s-5.166-1.053-6.849.072c-1.683 1.124-7.856 9.539-7.856 11.78 0 2.242-2.235 26.934-2.235 29.176 0 2.242-1.683 14.029-1.683 15.153 0 1.124 1.442 5.946 1.442 5.946l2.34-8.538s.136-6.407 4.061-19.871c3.925-13.464 10.78-33.718 10.78-33.718zM270.002 131.638s7.499-11.788 7.96-10.663c.461 1.124 8.876 2.807 8.876 2.807s13.418 10.702 12.879 18.317c-.325 4.614-7.83 34.985-7.83 34.985s-7.278 17.395-1.683 29.741-1.124 16.836-1.124 16.836-4.49 2.242-3.366 4.484-12.905 10.663-14.588 4.49c-1.683-6.173-16.18-39.475-11.742-65.252 2.405-13.99 10.618-35.745 10.618-35.745z"/>
    <path fill="#54538F" d="M298.06 137.247a26.475 26.475 0 0 1 5.849 12.56c.467 2.768 1.078 8.064 1.078 8.064.182 3.762.28 6.446.65 7.349.182 3.405 0 8.63 0 11.437 0 2.807 1.196 9.383 1.761 13.307.565 3.925 6.608 18.032.435 18.598-6.173.565-6.121 4.223-7.147-1.3-1.488-8.038-4.14-13.412-5.615-19.123-1.104-4.276-4.288-14.062-3.171-16.895 1.118-2.833-2.794-.89-2.794-.89l8.954-33.107z"/>
    <path fill="#6F55C1" d="M285.34 108.474c.311-1.669-.143-3.154-1.014-3.316-.872-.162-1.83 1.059-2.141 2.727-.311 1.669.143 3.153 1.014 3.316.872.162 1.83-1.059 2.141-2.727z"/>
    <path fill="#23214E" d="M293.706 345.037s1.41 12.053-.279 12.391c-1.69.338-39.306 1.111-40.379-.078-1.299-1.41-.649-2.839 1.19-3.398 1.449-.435 12.93-3.515 17.856-5.783 4.925-2.268 7.869-3.132 8.577-3.132h13.035zM184.983 321.828s-6.498 10.26-8.006 9.461c-1.507-.799-31.268-23.854-31.352-25.453-.104-1.897 1.299-2.599 3.067-1.89 1.397.565 12.261 5.393 17.544 6.725 5.283 1.332 8.09 2.554 8.655 2.976.163.136 10.092 8.181 10.092 8.181z"/>
    <path stroke="#80AEA1" stroke-linecap="round" stroke-linejoin="round" stroke-width=".95" d="M260.092 121.289c-4.743-4.9-12.164-14.984-4.743-23.289 7.421-8.304 16.284-3.19 12.274-2.3-4.009.89-3.97-4.549-1.156-7.635 2.813-3.087 17.648-.15 20.468 13.646"/>
    <path fill="#B0C4F9" d="M203.437 45.79H8.61A8.61 8.61 0 0 0 0 54.398v119.51a8.61 8.61 0 0 0 8.61 8.61h194.827a8.61 8.61 0 0 0 8.61-8.61V54.399a8.61 8.61 0 0 0-8.61-8.61z"/>
    <path fill="#6C8AD2" d="M93.946 78.622c-16.895 4.302-30.846 28.922-25.79 50.729 5.055 21.807 36.648 30.196 51.697 24.829 15.517-5.543 30.488-31.223 24.764-48.624-6.011-18.279-29.429-32.334-50.671-26.934z"/>
    <path fill="#fff" d="M100.861 101.653l-.832 28.942 21.352-13.86-20.52-15.082z"/>
    <defs>
        <radialGradient id="a" cx="0" cy="0" r="1" gradientTransform="translate(259.456 79.26) scale(123.064)" gradientUnits="userSpaceOnUse">
            <stop stop-color="#92BCB4"/>
            <stop offset=".95" stop-color="#B9DAB1"/>
        </radialGradient>
        <linearGradient id="b" x1="358.348" x2="251.431" y1="311.835" y2="263.126" gradientUnits="userSpaceOnUse">
            <stop stop-color="#C5A0EF"/>
            <stop offset="1" stop-color="#8C93D3"/>
        </linearGradient>
        <linearGradient id="c" x1="30297.4" x2="45228.4" y1="41364.7" y2="54372.5" gradientUnits="userSpaceOnUse">
            <stop stop-color="#C5A0EF"/>
            <stop offset="1" stop-color="#8C93D3"/>
        </linearGradient>
    </defs>
</svg>
