<svg xmlns="http://www.w3.org/2000/svg" width="509" height="373" fill="none" viewBox="0 0 509 373">
    <path fill="#ECF2FF" d="M266.487 366.378C50.199 357.863-.958 304.762.013 224.909.773 164.731 59.957.709 192.222.019c198.673-1.036 342.555 40.56 312.9 203.43-26.36 144.634-110.341 167.992-238.635 162.929z"/>
    <path fill="#B0C4F9" d="M469.152 128.098h-54.968v5.12h54.968v-5.12zM494.128 137.555h-79.944v5.12h79.944v-5.12zM469.152 160.389h-54.968v5.12h54.968v-5.12zM469.152 198.27h-54.968v5.12h54.968v-5.12zM494.128 169.846h-79.944v5.12h79.944v-5.12zM494.128 179.303h-79.944v5.12h79.944v-5.12zM494.128 188.812h-79.944v5.121h79.944v-5.121zM442.922 221.105h-28.738v13.377h28.738v-13.377zM386.961 242.474H181.092c-5.016 0-9.092-4.076-9.092-9.092v-126.29c0-5.016 4.076-9.092 9.092-9.092h205.869c5.016 0 9.091 4.076 9.091 9.092v126.29c0 5.016-4.075 9.092-9.091 9.092z"/>
    <path fill="#6C8AD2" d="M267.254 130.239c-19.803 4.65-35.897 32.552-29.627 57.58 6.271 25.028 40.652 37.151 61.291 29.156 17.87-6.949 35.426-35.217 28.424-55.177-7.367-21.005-35.165-37.412-60.088-31.559z"/>
    <path fill="#fff" d="M296.096 174.339a.937.937 0 0 0-.94.941v5.486c0 7.054-5.748 12.802-12.802 12.802-7.053 0-12.801-5.748-12.801-12.802v-5.538a.937.937 0 0 0-.941-.941.937.937 0 0 0-.94.941v5.486c0 7.785 6.113 14.16 13.742 14.63v4.651h-4.598a.937.937 0 0 0-.941.94c0 .523.418.941.941.941h10.973c.522 0 .94-.418.94-.941a.936.936 0 0 0-.94-.94h-4.599v-4.651c7.681-.47 13.742-6.845 13.742-14.63v-5.486c.105-.471-.313-.889-.836-.889z"/>
    <path fill="#fff" d="M282.354 190.797c5.539 0 10.084-4.545 10.084-10.084v-21.998c0-5.538-4.545-10.084-10.084-10.084s-10.084 4.546-10.084 10.084v21.998c0 5.591 4.545 10.084 10.084 10.084z"/>
    <path fill="#6C8AD2" d="M313.68 364.244c0 10.659-95.829 7.628-157.589 7.628-61.761 0-153.827-9.718-153.827-20.43 0-2.665 45.145-4.128 50.788-6.479 16.459-6.74 54.341-11.495 98.911-11.809h4.128c61.76.053 157.589 20.43 157.589 31.09z"/>
    <path fill="#000" d="M151.963 333.207c-18.34 29.888-57.424 39.241-87.311 20.9a62.97 62.97 0 0 1-11.6-9.143c16.459-6.689 54.341-11.496 98.911-11.757z" opacity=".1"/>
    <path fill="#333160" d="M102.585 353.063c34.225 0 61.97-28.073 61.97-62.702s-27.745-62.701-61.97-62.701c-34.224 0-61.97 28.072-61.97 62.701 0 34.629 27.745 62.702 61.97 62.702z"/>
    <path fill="#C5A0EF" d="M204.945 175.305s12.279-24.924 18.549-17.138c6.271 7.785-11.495 21.788-11.495 21.788l-7.054-4.65z"/>
    <path fill="url(#a)" d="M163.824 151.111l5.225 1.934s1.359 7.576 1.306 9.718c-.052 1.881-.052 5.225 1.411 9.092 1.463 3.867 4.65 12.592 5.121 14.056.47 1.463 21.005-9.353 29.626-14.422 0 0 4.337 5.8 7.263 7.263 0 0-28.581 23.879-32.971 26.753-4.389 2.873-10.188 1.672-14.055-1.725-3.867-3.396-20.326-31.403-20.326-31.403l17.4-21.266z"/>
    <path fill="#63636F" d="M173.856 320.875s.209 5.016.104 6.793c-.052 1.097-5.747 13.48 2.456 15.884 8.204 2.404 12.854 2.299 14.996 2.404 5.33.261 35.374 2.873 36.263-2.404.313-1.724-18.654-8.778-18.654-8.778s-13.272-7.629-15.675-12.958c-2.404-5.33-19.49-.941-19.49-.941zM79.7 332.422s-11.6 19.803-8.727 22.259c2.874 2.456 31.142 11.234 35.322 11.6 10.711 1.828 9.092-2.561 4.703-4.964-4.39-2.404-13.429-13.899-13.429-17.295v-8.726l-17.87-2.874z"/>
    <path fill="#4C3F96" d="M68.57 202.84s-10.137 12.592 5.8 32.866l26.595 33.858s-10.92 21.998-13.69 35.218c-2.664 12.801-5.852 15.623-6.844 21.423-.993 5.799-4.39 7.576-.993 11.965 3.396 4.389 16.25 5.695 17.452 4.807 1.41-.993 3.292-8.099 4.964-15.309.47-1.881 3.866-10.346 6.322-16.094 1.358-3.135 17.87-33.44 17.87-33.44s6.322-13.951-.47-23.148c-6.793-9.196-11.234-22.206-11.234-22.206s19.959 24.14 33.963 29.94c0 0 3.344.992 4.337 3.396 1.358 3.239 3.239 7.472 4.075 10.137 1.254 3.814 8.987 26.595 12.331 33.858 3.344 7.263 1.934 11.6 5.8 14.003 3.867 2.404 19.908 1.411 19.908-1.045 0-2.455-1.045-9.614-2.508-13.01-1.463-3.396-10.973-39.763-12.07-49.325-.784-6.793-.47-15.937-7.733-19.803-7.263-3.867-43.996-35.322-45.929-35.322-1.933 0-57.946-2.769-57.946-2.769z"/>
    <path fill="#C5A0EF" d="M165.653 90.135c10.45 0 18.497 4.964 17.87 15.414-.68 11.704-11.652 25.551-20.274 26.909-10.346 1.62-16.511-12.906-16.511-23.356 0-10.45 8.464-18.967 18.915-18.967z"/>
    <path fill="#C5A0EF" d="M150.343 110.826s-5.852 10.346-13.063 11.704c-7.211 1.359 17.556 19.177 17.556 19.177s2.195-14.735 7.629-15.624c5.33-.888-12.122-15.257-12.122-15.257z"/>
    <path fill="url(#b)" d="M169.153 154.037c0 6.27-18.863 24.192-18.863 24.192l-17.87 14.996s-.47 5.33-2.403 5.8c-1.933.47-4.337.47-2.404 3.396 1.934 2.927 6.793 9.197 2.404 10.137-1.306.209-2.613.314-3.971.366-1.15.052-2.508.104-4.076.209-3.553.104-8.046.209-12.906.157-1.358 0-2.769 0-4.232-.053-18.288-.365-39.45-2.455-37.725-9.405 2.926-11.599.992-15.466 7.263-21.736 6.27-6.27 16.459-28.059 16.459-28.059s20.378-31.925 36.941-34.799l3.814-.47c5.173.104 6.898.47 8.779 3.396 3.396 5.173 5.747 12.383 8.882 14.891 4.86 3.867 5.957-.522 5.957-.522s13.951 11.182 13.951 17.504z"/>
    <path fill="#C5A0EF" d="M126.151 227.504s21.736 16.72 10.92 25.707c-7.367 6.062-19.124-22.781-19.124-22.781l8.204-2.926z"/>
    <path fill="url(#c)" d="M154.732 103.772c.732-.105 1.672-.627 1.777-1.359 2.56-3.03 3.814-3.187 5.381-4.023 1.464-.21 2.718-.627 4.128-.21 2.038.576 2.299 1.203 3.971 2.509.889.679 1.986 2.56 3.083 2.874 1.202 1.097 3.501 1.881 4.18 2.09 1.568.522 5.957 1.985 7.524 1.62 1.516-.314 3.919-5.226 4.128-6.793.575-3.5-.784-8.987-6.583-10.346-4.233-.679-4.807-2.821-7.368-3.657-2.978-.889-5.382-2.195-8.464-2.508-4.233-.523-6.427-.105-10.66.418-4.18.522-7.158 2.194-9.039 7.106-2.038 1.724-1.515 3.448-1.724 4.337-.471 2.09-1.881 3.866-2.665 5.852-1.202 2.978-1.045 6.27.366 9.144 1.097 2.246 2.821 4.232 2.403 6.74l3.71-2.56c1.045-.575 1.411-1.254 1.045-2.404l-.993-3.501c-.313-2.246.105-3.448.523-4.127 3.239-3.972 4.075-1.045 5.277-1.202z"/>
    <path fill="#000" d="M117.424 194.166l4.546 18.915c-4.598.157-8.36.47-14.787.313-1.62-4.859-5.486-10.136-6.688-14.891-4.337-17.4 2.926-43.995 6.793-56.588 3.866-12.592 13.533-15.936 13.533-15.936s4.859 1.463 11.129 5.799c6.27 4.337-14.526 62.388-14.526 62.388z" opacity=".1"/>
    <path fill="#000" d="M121.292 193.173l4.754 19.699c-1.149.052-2.508.104-4.075.209-3.553.105-8.047.209-12.906.157-1.724-5.173-3.449-10.659-4.703-15.728-4.337-17.399 2.926-43.995 6.793-56.588 3.866-12.592 12.331 1.202 12.331 1.202s-3.396-8.203 2.926-3.866c6.323 4.336-5.12 54.915-5.12 54.915z" opacity=".1"/>
    <path fill="url(#d)" d="M122.754 125.037s-9.666 3.396-13.533 15.937c-3.866 12.54-11.13 39.188-6.792 56.588 4.337 17.399 17.138 37.464 17.138 37.464s6.427-6.375 9.823-4.912l-10.032-36.889s20.796-57.999 14.526-62.388c-6.323-4.389-11.13-5.8-11.13-5.8z"/>
    <path stroke="#80AEA1" stroke-linecap="round" stroke-linejoin="round" stroke-miterlimit="10" stroke-width="1.118" d="M165.182 95.988c8.831 8.255 15.884 14.734 21.684 9.614 5.8-5.121 9.353-14.63-3.396-15.78-12.749-1.15-5.121 8.36-5.33 1.881-.209-6.48-8.569-8.57-15.936-9.875-6.688-1.202-18.131 4.232-15.571 15.936"/>
    <defs>
        <linearGradient id="a" x1="146.435" x2="213.762" y1="179.155" y2="179.155" gradientUnits="userSpaceOnUse">
            <stop offset=".002" stop-color="#6C8AD2"/>
            <stop offset="1" stop-color="#526EBB"/>
        </linearGradient>
        <linearGradient id="b" x1="67.038" x2="169.16" y1="166.026" y2="166.026" gradientUnits="userSpaceOnUse">
            <stop offset=".002" stop-color="#6C8AD2"/>
            <stop offset="1" stop-color="#526EBB"/>
        </linearGradient>
        <radialGradient id="c" cx="0" cy="0" r="1" gradientTransform="translate(137.902 87.553) scale(98.6016)" gradientUnits="userSpaceOnUse">
            <stop offset="0" stop-color="#92BCB4"/>
            <stop offset=".948" stop-color="#B9DAB1"/>
        </radialGradient>
        <linearGradient id="d" x1="101.088" x2="135.047" y1="180.016" y2="180.016" gradientUnits="userSpaceOnUse">
            <stop offset=".002" stop-color="#6C8AD2"/>
            <stop offset="1" stop-color="#526EBB"/>
        </linearGradient>
    </defs>
</svg>
