<svg xmlns="http://www.w3.org/2000/svg" width="557" height="384" fill="none" viewBox="0 0 557 384">
    <g clip-path="url(#a)">
        <path fill="#ECF2FF" d="M272.507 380.407c-98.647 5.805-216.289-1.813-245.694-118.576-25.14-99.855-40.56-165.343-9.48-215.605C53.54-12.322 127.813-9.71 198.912 23.254c69.253 32.09 55.236 54.75 191.009 37.367 102.89-13.143 148.936 26.048 144.455 99.369-4.104 67.786 18.79 81.339 22.547 147.668 3.758 66.329-136.766 64.041-284.417 72.749z"/>
        <path fill="#6F55C1" d="M324.049 358.459c-1.231-2.806-2.397-6.022-1.166-8.827a7.457 7.457 0 0 1 3.888-3.647 18.672 18.672 0 0 1 5.248-1.295 73.6 73.6 0 0 1 17.094-.237c.411 3.237-.464 6.614-1.22 9.776-.68 2.924-1.08 3.356-4.082 3.507-1.955.107-19.297 1.758-19.762.723z"/>
        <path fill="#474553" d="M376.056 339.555c46.126 0 83.518-10.45 83.518-23.34s-37.392-23.34-83.518-23.34c-46.125 0-83.517 10.45-83.517 23.34s37.392 23.34 83.517 23.34z"/>
        <path fill="#3B3B60" d="M376.056 339.555c46.126 0 83.518-10.45 83.518-23.34s-37.392-23.34-83.518-23.34c-46.125 0-83.517 10.45-83.517 23.34s37.392 23.34 83.517 23.34z"/>
        <path fill="#5C50A0" d="M391.034 192.987a25.909 25.909 0 0 1-13.401 12.161 33.932 33.932 0 0 1-10.605 2.029 30.373 30.373 0 0 1-11.749-1.435 26.84 26.84 0 0 1-12.267-9.82 59.772 59.772 0 0 1-7.117-14.211c-.982-2.579-1.911-5.33-1.457-8.06 3.013-.691 6.306-1.694 7.861-4.316 1.318-2.288.95-5.029.195-7.64a33.855 33.855 0 0 0-.724-2.158c-.583-1.694-2.603-4.91-1.199-6.356.897-.917 4.644-1.381 5.929-1.974 3.974-1.835 7.645-4.478 12.019-5.396 3.769-.755 7.678 0 11.447.734.499.076.98.248 1.414.507.504.411.879.958 1.08 1.576 1.08 2.622 1.706 5.503 2.57 8.233a16.944 16.944 0 0 0 4.223 7.553 21.58 21.58 0 0 0 5.939 3.539l5.172 2.374a6.56 6.56 0 0 1 2.452 1.576 6.156 6.156 0 0 1 1.166 3.172 29.653 29.653 0 0 1-2.948 17.912z"/>
        <path fill="#000" d="M342.504 161.652a33.86 33.86 0 0 0-.723-2.158c-.583-1.694-2.603-4.91-1.199-6.356.896-.917 4.644-1.381 5.929-1.974 3.974-1.835 7.645-4.478 12.019-5.396 3.768-.755 7.678 0 11.446.734.5.076.981.249 1.415.507.504.411.879.958 1.08 1.576 1.08 2.622 1.685 5.503 2.548 8.233" opacity=".1"/>
        <path fill="#6F55C1" d="M355.614 110.213a26.879 26.879 0 0 1 18.991 7.855 26.841 26.841 0 0 1 7.877 18.97c0 14.826-8.866 36.612-24.319 36.331-14.838-.259-29.416-21.505-29.416-36.331a26.841 26.841 0 0 1 7.877-18.97 26.876 26.876 0 0 1 18.99-7.855z"/>
        <path fill="url(#b)" d="M437.469 224.181l-2.214-13.358c-1.08-6.712-2.257-13.542-5.399-19.585-2.052-3.96-4.222-5.676-8.639-8.33a27.427 27.427 0 0 0-3.078-1.489 11.26 11.26 0 0 1-3.466-2.298c-2.549-2.633-5.497-3.885-8.909-5.223-3.013-1.165-6.674-2.212-9.417-3.928-2.743-1.715-6.76-2.525-9.805-1.424-.486 5.222-5.399 10.564-7.635 15.322-8.239 9.226-14.654 9.021-22.083 6.615-1.458-.68-7.948-3.647-9.233-4.608-5.205-3.917-5.227-6.42-8.38-10.067a9.277 9.277 0 0 0-1.587-3.162c-1.534-.766-3.002.194-4.32 1.327-2.365 2.094-4.73 2.698-8.013 3.939-.799.712-2.159 1.37-3.11 2.05-.615.561-1.598 1.079-1.987 1.77-1.371 1.931-2.375 1.683-4.416 2.665-1.415.442-2.311.712-4.082 1.424-.54.583-3.51 1.317-4.093 1.856a17.094 17.094 0 0 1-5.334 1.651c-2.085-.086-3.974 1.943-5.173 3.615-1.199 1.673 2.764 1.273 2.16 3.237 6.382 14.2 12.224 28.422 18.606 42.633.304.533.464 1.135.464 1.748a4.212 4.212 0 0 1-.799 1.748c-3.121 5.029-3.024 11.341-2.678 17.265.346 5.924.767 12.139-1.879 17.438-.713 1.445-1.652 2.784-2.332 4.229-1.599 3.238-2.16 13.823-1.242 17.362h132.047c-2.516-6.916-1.555-20.793-1.08-28.141.367-5.126-.583-10.262-.993-15.398-.81-10.467-.173-20.416-1.901-30.883z"/>
        <path fill="#474553" d="M444.229 294.579a12.634 12.634 0 0 1 6.166-.194c6.716.917 13.52 1.856 19.74 4.543a19.248 19.248 0 0 1 7.678 5.395 26.766 26.766 0 0 1 3.747 7.553l2.235 6.118a29.368 29.368 0 0 1 1.955 7.197c.702 7.349-4.32 14.276-10.648 18.085-6.328 3.809-13.768 5.18-21.025 6.604a641.905 641.905 0 0 0-21.76 4.64 87.08 87.08 0 0 1-10.237 2.007c-7.732.874-15.82-.41-23.163 2.158-2.927 1.014-5.788 2.536-8.823 3.237-2.01.438-4.043.762-6.09.971l-13.909 1.597c-2.825.378-5.67.594-8.52.648-6.08 0-12.052-1.435-17.948-2.87a4.5 4.5 0 0 1-1.749-.702 4.536 4.536 0 0 1-1.274-3.237 599.69 599.69 0 0 1-1.566-15.679c-.141-1.694-.249-3.528.68-4.963 1.166-1.748 3.445-2.299 5.529-2.633a144.297 144.297 0 0 1 26.673-1.856c3.391-3.388 8.995-3.41 13.434-5.244a41.049 41.049 0 0 0 4.74-2.579 62.057 62.057 0 0 1 25.993-8.136 24.793 24.793 0 0 0 5.324-.755c3.434-1.079 6.576-3.971 10.107-3.238.432-1.208.735-2.827 1.75-3.658.507-.431 1.08-.712 1.587-1.165a4.783 4.783 0 0 0 .907-3.917 11.6 11.6 0 0 1-.108-4.133 5.634 5.634 0 0 1 .616-1.478 7.86 7.86 0 0 1 7.959-4.316z"/>
        <path fill="#4B4B7F" d="M444.229 294.579a12.634 12.634 0 0 1 6.166-.194c6.716.917 13.52 1.856 19.74 4.543a19.248 19.248 0 0 1 7.678 5.395 26.766 26.766 0 0 1 3.747 7.553l2.235 6.118a29.368 29.368 0 0 1 1.955 7.197c.702 7.349-4.32 14.276-10.648 18.085-6.328 3.809-13.768 5.18-21.025 6.604a641.905 641.905 0 0 0-21.76 4.64 87.08 87.08 0 0 1-10.237 2.007c-7.732.874-15.82-.41-23.163 2.158-2.927 1.014-5.788 2.536-8.823 3.237-2.01.438-4.043.762-6.09.971l-13.909 1.597c-2.825.378-5.67.594-8.52.648-6.08 0-12.052-1.435-17.948-2.87a4.5 4.5 0 0 1-1.749-.702 4.536 4.536 0 0 1-1.274-3.237 599.69 599.69 0 0 1-1.566-15.679c-.141-1.694-.249-3.528.68-4.963 1.166-1.748 3.445-2.299 5.529-2.633a144.297 144.297 0 0 1 26.673-1.856c3.391-3.388 8.995-3.41 13.434-5.244a41.049 41.049 0 0 0 4.74-2.579 62.057 62.057 0 0 1 25.993-8.136 24.793 24.793 0 0 0 5.324-.755c3.434-1.079 6.576-3.971 10.107-3.238.432-1.208.735-2.827 1.75-3.658.507-.431 1.08-.712 1.587-1.165a4.783 4.783 0 0 0 .907-3.917 11.6 11.6 0 0 1-.108-4.133 5.634 5.634 0 0 1 .616-1.478 7.86 7.86 0 0 1 7.959-4.316z"/>
        <path fill="#23214E" d="M329.427 362.062c-3.617 4.187-6.803 5.676-12.462 5.546a187.737 187.737 0 0 1-10.431-.539 56.718 56.718 0 0 0-7.149-.335c-7.203.281-14.157 3.572-21.349 3a15.238 15.238 0 0 1-3.132-.583 9.203 9.203 0 0 1-4.244-2.578 11.655 11.655 0 0 1-2.408-5.665 26.686 26.686 0 0 1 12.516-27.203 9.171 9.171 0 0 1 3.996-1.414 9.392 9.392 0 0 1 4.049.885h.086a30.56 30.56 0 0 1 10.011 6.679c.431.497.946.913 1.523 1.231a5.189 5.189 0 0 0 1.803.334l7.678.486c1.301.039 2.593.22 3.855.539a30.588 30.588 0 0 1 4.05 1.748c4.135 1.845 8.714 2.331 13.174 3.043.43.02.84.183 1.166.464.18.224.306.486.367.766a14.873 14.873 0 0 1-3.099 13.596z"/>
        <path fill="#6F55C1" d="M437.544 347.721c4.32-.118 9.114-.334 12.268 2.558 3.002 2.73 3.401 7.24 3.595 11.297l.227 4.705a9.425 9.425 0 0 1-.442 4.251c-1.026 2.331-3.856 3.464-6.426 3.324-2.57-.14-4.946-1.263-7.3-2.277a102.219 102.219 0 0 0-19.848-6.248c.216-3.258.576-6.495 1.08-9.711.356-2.234.421-5.978 1.911-7.834 1.491-1.856 3.65-.895 5.799-.539 3.022.461 6.083.62 9.136.474z"/>
        <path fill="#54538F" d="M324.114 300.406c0 .583-.918 0-.993-.626-.648-4.715-4.396-8.632-8.769-10.499-4.374-1.867-9.341-1.985-14.038-1.543-7.16.68-15.119 3.421-17.797 10.1-.626 1.565-.907 3.237-1.663 4.759-.756 1.521-2.214 2.956-3.121 4.553a13.775 13.775 0 0 0-1.08 9.28c1.523 8.352 7.236 15.484 14.158 20.426 6.922 4.942 14.999 7.899 23.066 10.564a400.172 400.172 0 0 0 65.419 15.603 63.785 63.785 0 0 1 10.669 2.158c3.088 1.079 5.972 2.579 8.984 3.798 7.009 2.806 14.546 3.809 22.019 4.802 1.274.162 2.732.281 3.672-.583 1.22-1.079.81-3.086.464-4.704a25.31 25.31 0 0 1 2.98-17.945c1.242-2.093 2.873-4.251 2.635-6.679-.28-2.838-3.11-4.845-5.917-5.309-2.808-.464-5.68.227-8.51.594a4.723 4.723 0 0 1-2.915-.292 5.528 5.528 0 0 1-1.08-1.003 12.8 12.8 0 0 0-14.913-2.083c-1.08.583-2.635-.723-3.715-1.208l-12.354-5.46c-14.103-6.377-28.282-12.787-43.195-16.833a8.925 8.925 0 0 1-3.326-1.382c-.745-.582-1.274-1.37-1.955-2.017-1.49-1.414-3.563-1.975-5.399-2.968-1.836-.993-3.747-3.496-3.326-5.503z"/>
        <path fill="#23214E" d="M513.449 376.673c-1.965 3.636-5.767 5.902-9.859 6.841a20.415 20.415 0 0 1-3.121.443c-5.162.313-10.27-1.079-15.248-2.525l-6.771-1.91a21.096 21.096 0 0 0-3.563-.799 24.215 24.215 0 0 0-4.925.173 87.306 87.306 0 0 1-23.941-1.079 4.098 4.098 0 0 1-1.857-.658 9.052 9.052 0 0 1-1.285-1.576c-1.847-2.212-3.823-3.507-1.641-6.42 1.252-1.694 3.585-2.547 4.557-4.489.972-1.942.356-4.705-.227-6.712-.788-2.762-3.38-3.96-4.32-6.474a4.579 4.579 0 0 1 2.225-5.19 9.256 9.256 0 0 1 5.961-.863c2.03.269 4.017.841 6.047.992 5.993.486 12.127-2.6 17.872-.863 1.274.389 2.473.993 3.747 1.338 2.505.562 5.123.335 7.495-.647.842-.313 1.673-.702 2.483-1.079a20.054 20.054 0 0 1 5-1.802c5.605-.971 10.799 2.913 15.043 6.701a21.408 21.408 0 0 1 3.833 4.143 20.911 20.911 0 0 1 2.333 6.032c1.555 5.384 2.894 11.47.162 16.423z"/>
        <path fill="#6F55C1" d="M322.149 249.971c-.702 11.6-5.032 18.991-8.272 30.138-.799 2.784-2.235 5.654-6.015 11.869-3.78 6.011-7.754 7.899-12.883 10.629a18.283 18.283 0 0 1-6.036 2.158 11.578 11.578 0 0 1-11.631-6.172c-1.328-2.719-1.522-5.838-2.332-8.762-.907-3.366-.378-3.313-1.48-6.625-2.03-6.086-1.231-19.66.173-25.897 1.328-5.396.464-6.917 3.24-11.751.41-.723.831-1.435 1.252-2.158a49.383 49.383 0 0 1 4.05-5.838c3.499-4.219 8.002-7.456 12.462-10.661.342-.276.74-.475 1.166-.582h.076c.5-.02.996.096 1.436.334a113.802 113.802 0 0 1 17.731 9.604c2.009 1.327 5.173 2.827 6.231 5.103 1.059 2.277.983 6.14.832 8.611z"/>
        <path fill="url(#c)" d="M298.964 196.644a6.157 6.157 0 0 0-1.296 2.072 97.861 97.861 0 0 0-8.261 33.623 3.29 3.29 0 0 1-.389 1.629 6.25 6.25 0 0 1-.853.928 3.238 3.238 0 0 0 .389 4.543l.162.13c.961-1.824 3.24-2.407 5.313-2.569 9.827-.777 19.438 3.788 29.254 3.443-.691-2.396-1.685-4.705-2.257-7.133-2.506-10.79 3.747-22.509-.087-32.889a8.449 8.449 0 0 0-4.06-5.029 10.374 10.374 0 0 0-2.592-.69c-2.494-.453-7.44-2.374-9.848-1.597-.896.28-1.242 1.079-1.976 1.618-1.059.713-2.549.972-3.499 1.921z"/>
        <path fill="#000" d="M302.992 293.133a17.195 17.195 0 0 1-14.6 8.47 11.556 11.556 0 0 1-4.676-.852c-3.725-1.651-5.842-5.719-6.62-9.711-.777-3.993-.539-8.136-1.079-12.183-.443-3.237-1.393-6.345-1.879-9.56-1.21-7.964 1.166-15.819 2.85-23.739.411-.723.821-1.435 1.253-2.158a47.277 47.277 0 0 1 4.05-5.838c3.498-4.219 8.002-7.467 12.461-10.661h-4.675a.81.81 0 0 1 1.079.173c.08.111.129.241.141.377.464 4.09 6.231 8.169 7.483 12.14.778 2.438 1.717 4.834 2.344 7.316a58.783 58.783 0 0 1 1.08 6.42c.827 6.043 1.655 12.074 2.483 18.095 1.091 7.37 1.998 15.312-1.695 21.711z" opacity=".1"/>
        <path fill="#6F55C1" d="M295.26 216.509l5.637-17.664a30.39 30.39 0 0 0 1.792-8.103 10.393 10.393 0 0 0-2.58-7.672c-1.577-1.608-3.758-2.439-5.627-3.691-4.675-3.14-7.31-7.175-9.719-12.247-2.408-5.071-4.751-9.592-8.822-12.776-1.22-.431-3.661-1.37-4.201-.194-.648.68-.486 3.237-.356 3.755a26.535 26.535 0 0 0 3.131 7.877c2.398 5.126 4.504 6.626 4.676 9.517-.81 5.396-5.669 9.593-6.252 15.032-.259 2.395.356 4.791.356 7.197a19.96 19.96 0 0 0 .087 4.478 29.583 29.583 0 0 0 1.231 3.312c.52 1.752.789 3.569.799 5.396l1.242 22.973c.658 12.419-4.18 20.631-5.011 36.914.356 4.316.151 5.988.594 9.215.583 4.046.486 7.553 1.987 12.042 1.296 3.874 4.093 8.416 7.797 10.057 1.48.613 3.073.907 4.675.863a17.287 17.287 0 0 0 14.59-8.492c3.682-6.421 2.786-14.352 1.781-21.667l-2.473-18.096a59.063 59.063 0 0 0-1.079-6.42c-.616-2.482-1.555-4.878-2.333-7.316-2.57-7.974-4.449-16.359-1.922-24.29z"/>
        <path fill="#413F56" d="M445.276 217.881H324.352a4.653 4.653 0 0 0-4.655 4.651v73.569a4.653 4.653 0 0 0 4.655 4.651h120.924a4.653 4.653 0 0 0 4.654-4.651v-73.569a4.652 4.652 0 0 0-4.654-4.651z"/>
        <path fill="#6C8AD2" d="M445.276 217.881H324.352a4.653 4.653 0 0 0-4.655 4.651v73.569a4.653 4.653 0 0 0 4.655 4.651h120.924a4.653 4.653 0 0 0 4.654-4.651v-73.569a4.652 4.652 0 0 0-4.654-4.651z"/>
        <path fill="#fff" d="M384.522 265.521a6.509 6.509 0 0 0 6.512-6.507 6.509 6.509 0 0 0-6.512-6.506 6.509 6.509 0 0 0-6.511 6.506 6.509 6.509 0 0 0 6.511 6.507z"/>
        <path fill="url(#d)" d="M335.842 157.767c2.581 9.712-7.775-1.791-11.339-13.348-5.054-16.369 3.24-30.127 8.639-35.252 8.942-8.568 16.997-10.672 27.926-9.118 17.969 2.547 37.633 32.08 32.007 49.938-5.626 17.859-16.014 11.87-16.198 10.909-.183-.96 4.32-19.929-1.134-26.555-1.63-1.974-15.496-.863-20.733-6.819-5.238-5.957-15.248 7.262-17.667 11.2-3.121 5.082-1.501 19.045-1.501 19.045z"/>
        <path stroke="#80AEA1" stroke-linecap="round" stroke-linejoin="round" stroke-width=".86" d="M385.354 139.196c-1.587-7.942-30.83-8.093-35.474-20.394-4.643-12.302 1.966-14.082 2.506-9.453.539 4.629-2.765 3.507-11.782 11.589-17.591 15.787-6.155 33.882-6.155 33.882"/>
        <path fill="#D37AB8" d="M67.557 94.588h166.636c3.174 0 5.755 4.09 5.755 9.139v48.795c0 5.05-2.581 9.15-5.755 9.15H67.557c-3.175 0-5.756-4.1-5.756-9.15v-48.795c0-5.05 2.581-9.14 5.756-9.14z"/>
        <path fill="#fff" d="M94.446 141.43a12.451 12.451 0 0 1-4.935-5.007 15.952 15.952 0 0 1 0-14.567 12.549 12.549 0 0 1 4.935-4.996 15.566 15.566 0 0 1 14.503 0 12.747 12.747 0 0 1 4.957 4.996 15.86 15.86 0 0 1 0 14.567 12.611 12.611 0 0 1-4.946 5.007 15.6 15.6 0 0 1-14.514 0zm12.657-2.935a10.07 10.07 0 0 0 3.725-3.885 11.863 11.863 0 0 0 0-10.963 9.843 9.843 0 0 0-3.715-3.874 11.024 11.024 0 0 0-10.798 0 9.914 9.914 0 0 0-3.715 3.863 11.983 11.983 0 0 0 0 10.963 10.02 10.02 0 0 0 3.736 3.885 10.879 10.879 0 0 0 10.799 0l-.032.011zM121.929 142.368a1.78 1.78 0 0 1-.518-1.316v-23.804a1.73 1.73 0 0 1 .5-1.301 1.745 1.745 0 0 1 1.292-.523c.271.003.538.07.778.195.243.112.46.274.637.474l15.334 20.384v-19.229a1.732 1.732 0 0 1 .529-1.316 1.827 1.827 0 0 1 1.296-.508 1.776 1.776 0 0 1 1.297.522 1.757 1.757 0 0 1 .507 1.302v23.804a1.8 1.8 0 0 1-.519 1.316 1.745 1.745 0 0 1-1.285.507 2.155 2.155 0 0 1-.788-.162 1.259 1.259 0 0 1-.616-.474l-15.334-20.383v19.196c.009.481-.174.947-.507 1.295a1.757 1.757 0 0 1-1.329.528 1.73 1.73 0 0 1-1.274-.507zM181.635 141.086a1.787 1.787 0 0 1-.539 1.275 1.799 1.799 0 0 1-1.286.516 1.794 1.794 0 0 1-1.004-.302 1.697 1.697 0 0 1-.68-.82l-1.976-4.921h-12.624l-2.009 4.921a1.926 1.926 0 0 1-.702.82 1.73 1.73 0 0 1-.982.302 1.66 1.66 0 0 1-1.285-.55 1.777 1.777 0 0 1-.519-1.274 2.26 2.26 0 0 1 .184-.809l9.881-23.588a1.786 1.786 0 0 1 1.728-1.23 1.7 1.7 0 0 1 1.717 1.23l9.881 23.62c.124.253.197.528.215.81zm-16.878-7.284h10.183l-5.032-12.506-5.151 12.506zM186.182 142.347a1.755 1.755 0 0 1-.53-1.295v-23.804a1.732 1.732 0 0 1 .53-1.316 1.93 1.93 0 0 1 2.613 0 1.744 1.744 0 0 1 .507 1.316v23.804a1.777 1.777 0 0 1-.507 1.295 1.88 1.88 0 0 1-2.613 0zM214.528 141.226a1.614 1.614 0 0 1-.475 1.176 1.894 1.894 0 0 1-1.525.454 1.9 1.9 0 0 1-1.336-.864l-6.059-9.711h-5.129v8.761a1.782 1.782 0 0 1-.518 1.295 1.723 1.723 0 0 1-1.318.529 1.8 1.8 0 0 1-1.692-1.122 1.814 1.814 0 0 1-.133-.702v-23.793a1.732 1.732 0 0 1 .529-1.316 1.805 1.805 0 0 1 1.296-.507h6.339a9.723 9.723 0 0 1 4.654 1.079 7.874 7.874 0 0 1 3.24 3.054 8.879 8.879 0 0 1 1.145 4.499 7.853 7.853 0 0 1-4.719 7.349l5.399 8.632c.209.36.314.771.302 1.187zm-10.021-12.301a5.78 5.78 0 0 0 3.942-1.36 4.425 4.425 0 0 0 1.544-3.496 5.04 5.04 0 0 0-1.544-3.798 5.512 5.512 0 0 0-3.942-1.479h-4.503v10.133h4.503z"/>
    </g>
    <defs>
        <linearGradient id="b" x1="362.461" x2="370.407" y1="163.679" y2="238.588" gradientUnits="userSpaceOnUse">
            <stop stop-color="#96BAF7"/>
            <stop offset=".95" stop-color="#B7A9F6"/>
        </linearGradient>
        <linearGradient id="c" x1="10007.4" x2="11123.9" y1="7477.38" y2="11339.4" gradientUnits="userSpaceOnUse">
            <stop stop-color="#96BAF7"/>
            <stop offset=".95" stop-color="#B7A9F6"/>
        </linearGradient>
        <radialGradient id="d" cx="0" cy="0" r="1" gradientTransform="matrix(103.355 0 0 103.275 381.737 101.225)" gradientUnits="userSpaceOnUse">
            <stop stop-color="#92BCB4"/>
            <stop offset=".95" stop-color="#B9DAB1"/>
        </radialGradient>
        <clipPath id="a">
            <path fill="#fff" d="M0 0h557v384H0z"/>
        </clipPath>
    </defs>
</svg>
