<svg xmlns="http://www.w3.org/2000/svg" width="622" height="576" fill="none" viewBox="0 0 622 576">
    <path fill="#ECF2FF" d="M129.021 475.706C-20.306 417.06-4.189 306.867 6.517 211.746 17.224 116.626 129.421-5.783 205.54.212c76.119 5.994 176.663 95.18 302.878 117.606 114.735 20.382 123.79 114.257 107.14 231.963-16.65 117.706-220.129 174.675-327.169 158.03-107.04-16.645-126.069-19.03-159.368-32.105z"/>
    <path fill="#B0C4F9" d="M94.65 301.651c-6.663 6.734-7.07 17.058-7.07 17.058s10.32-.586 16.956-7.327c6.636-6.74 7.076-17.058 7.076-17.058s-10.34.606-16.963 7.327zM302.773 526.945c78.891 0 145.376-9.212 184.285 4.096 38.909 13.308-5.117 40.943-61.428 38.898-56.312-2.045-60.409 5.115-95.214-6.141s-76.786-36.853-27.643-36.853zM115.676 128.094c2.352 9.159 10.98 14.854 10.98 14.854s4.817-9.146 2.465-18.304c-2.352-9.158-10.98-14.846-10.98-14.846s-4.844 9.111-2.465 18.296zM511.116 160.485c-6.662 6.734-7.075 17.058-7.075 17.058s10.326-.587 16.962-7.327c6.636-6.741 7.069-17.065 7.069-17.065s-10.32.633-16.956 7.334zM308.05 254.854c-.773 9.418 5.51 17.624 5.51 17.624s7.575-7.067 8.321-16.499c.747-9.431-5.51-17.61-5.51-17.61s-7.548 7.06-8.321 16.485zM526.62 386.941c-.773 9.418 5.51 17.624 5.51 17.624s7.548-7.067 8.321-16.485c.773-9.418-5.51-17.624-5.51-17.624s-7.548 7.067-8.321 16.485z"/>
    <path fill="#E1748D" d="M413.73 218.607h-19.321v20.315h19.321v-20.315z"/>
    <path fill="#6F55C1" d="M372.503 453.798c-4.531 9.225-5.79 14.487-10.454 18.377-4.663 3.89-11.213 14.32-11.213 14.32-.113 13.874-3.777 18.091-3.777 18.091l-3.778.999h-9.327s-1.666-4.663-1.999-7.434c-.113-.925.546-2.477 1.466-4.142a52.052 52.052 0 0 0 6.096-19.736l.433-4.096c-.786-25.424 9.327-33.676 13.571-36.027a4.18 4.18 0 0 0 2.112-3.224l.753-7.267 25.091 1.232s-.533 2.212.42 7.327c.193 1.059.453 2.238.8 3.55 1.998 7.633-10.087 17.451-10.194 18.03zM413.477 435.615a65.464 65.464 0 0 1-3.551 10.857 27.7 27.7 0 0 0-2.132 9.884v.34a86.192 86.192 0 0 1-6.176 29.347c-3.684 9.218-8.568 21.214-10.034 23.738-2.438 4.216-.999 11.323-.999 11.323l-14.125-.999.247-23.758c-1.473-16.965 3.951-32.637 6.889-39.718a26.224 26.224 0 0 0 1.999-8.918l.666-15.759.206-4.663s24.972-3.55 27.077 2.112c.58 1.505.44 3.75-.067 6.214z"/>
    <path fill="#000" d="M381.897 432.199l-26.29-1.293.753-7.266 25.117 1.232s-.553 2.205.42 7.327zM413.478 435.616l-27.223-3.656.206-4.663s24.971-3.55 27.077 2.112c.586 1.498.446 3.743-.06 6.207z" opacity=".1"/>
    <path fill="url(#a)" d="M427.782 387.007l-10.88 47.737-32.2-4.33v-16.431l-2.785 16.884-38.643-1.891 1.999-36.967a138.012 138.012 0 0 0 4.331-22.533c.753-8.352 4.71-28.953 6.622-38.631.667-3.191 1.04-5.202 1.04-5.202s66.185 13.761 70.516 18.756c.739.853 1.226 2.664 1.525 5.069 1.453 11.669-1.525 37.539-1.525 37.539z"/>
    <path fill="#000" d="M387.027 384.53s12.126 35.248-.972 44.56c-6.037 4.282-1.333-15.107-1.333-15.107l2.305-29.453z" opacity=".1"/>
    <path fill="#23214E" d="M376.574 511.461s-7.329 1.112-5.996 18.869c1.332 17.757 3.997 19.316 5.996 21.094 3.478 3.131 15.657 3.444 14.991-3.11-.667-6.554-1.333-21.088-.447-23.312.886-2.225 2.419-8.08-.939-9.525l-.726 3.423s-6.263 1.546-11.327-1.778a19.27 19.27 0 0 0-.873-3.417c-.419-1.039-1.339-1.578-.679-2.244z"/>
    <path fill="#6F55C1" d="M510.697 293.54s-1.679.939-4.144 2.111c-3.805 1.812-9.474 4.196-13.672 4.549-6.915.587-9.081 1.253-16.989-4.409-6.07-4.343-16.23-10.397-20.654-12.981l-1.925-1.139-.194-.114v-.08l3.671-10.084 12.992-6.907 3.225 2.764 9.601 8.226s1.499 2.411 3.917 2.245c2.419-.167 15.324.912 15.324.912l2.439.4 5.136.853 1.273 13.654z"/>
    <path fill="#000" d="M510.697 293.538s-1.679.939-4.144 2.111c-2.605-1.332-5.843-3.83-4.597-7.939 1.125-3.697 1.432-6.581 2.358-8.659l5.137.852 1.246 13.635z" opacity=".1"/>
    <path fill="#6F55C1" d="M508.951 275.556s14.491-4.163 13.412 13.321c-1.08 17.485-12.246 7.913-12.246 7.913s-9.494-2.497-7.495-9.078c1.998-6.581 1.419-10.571 6.329-12.156zM358.712 218.94l-15.098 6.341-.233.1-.166-.08-.94-.473c-3.904-1.945-17.322-8.599-25.764-12.548-8.887-3.85-8.661-11.323-8.661-11.323l-1.246-46.851-2.558-8.772s-1.806-29.733 12.659-37.186c14.464-7.454 5.11 43.067 5.11 43.067l1.119 10.497a111.876 111.876 0 0 0 3.964 19.829 31.383 31.383 0 0 1 1.173 6.534c.446 7.1 3.777 6.627 3.777 6.627a46.442 46.442 0 0 1 15.018 5.102 37.228 37.228 0 0 1 4.97 3.144l6.876 15.992zM412.458 242.251l-12.885-1.332s-.86-7.327.813-12.829c.233-.752 1.059-3.124 1.199-3.896.386-2.178 4.31-.913 3.331-2.371-3.771-5.549 22.433-13.322 22.433-13.322a62.87 62.87 0 0 0-.28 9.245c.072 2.147.295 4.286.666 6.401.793 4.31 2.372 8.366 5.383 10.444 8.209 5.662-20.66 7.66-20.66 7.66z"/>
    <path fill="#000" d="M412.458 242.252l-12.885-1.333s3.797-5.648 5.47-11.143c1.485 2.112 1.998 2.065 4.084 2.485 0 0 13.005 1.925 18.601-8.113.793 4.309 2.372 8.366 5.384 10.444 8.215 5.661-20.654 7.66-20.654 7.66zM455.265 282.81c-.019.396-.001.792.053 1.185l-1.999-2.324-.166-.194 3.671-10.084 12.991-6.907 3.225 2.764c-4.617 1.765-17.569 7.38-17.775 15.56zM358.711 218.94l-15.097 6.341h-.4l-1.166.08s.087-.194.227-.553c1.259-3.058 7.102-17.984 4.577-25.018a37.228 37.228 0 0 1 4.97 3.144l6.889 16.006z" opacity=".1"/>
    <path fill="url(#b)" d="M409.127 232.928s13.145 1.945 18.701-8.266c0 0 10.947 4.37 16.703 8.279 4.624 3.144 29.442 33.07 29.442 33.07s-20.654 6.661-19.321 17.318l-10.56-7.433s-4.098-4.117-8.315 9.431c0 0-5.11 7.766-4.444 32.411.666 24.644-1.553 30.419-1.553 30.419s-62.334-5.482-70.949-11.956c-3.797-2.851-4.264-5.155-4.264-5.155s-.2-17.771 3.032-33.51c3.058-14.913 2.805-44.113 2.805-44.113s-2.572-16.279-18.122-23.978c0 0 8.381-22.287 4.61-29.614 0 0 9.328.766 20.188 2.292 5.529 1.438 9.753 1.172 14.177 3.33 2.406 1.179 4.624 2.664 5.883 4.436 3.771 5.328 9.994 2.891 9.994 2.891a100.414 100.414 0 0 0 5.797 14.207c.259.486.519.966.786 1.425a21.65 21.65 0 0 0 1.186 1.878c1.599 2.265 2.052 2.205 4.224 2.638z"/>
    <path fill="#000" d="M427.069 217.729a24.004 24.004 0 0 1-2.359 2.831 23.284 23.284 0 0 1-19.061 6.9c.386-2.178.286-4.196-.707-5.655-3.771-5.548 22.433-13.321 22.433-13.321a62.873 62.873 0 0 0-.306 9.245z" opacity=".1"/>
    <path fill="#6F55C1" d="M431.333 203.62a23.309 23.309 0 0 1-6.83 16.484 23.323 23.323 0 0 1-16.489 6.828c-12.879 0-17.729-17.917-17.729-30.792s4.85-15.832 17.729-15.832a23.228 23.228 0 0 1 23.319 23.132v.18z"/>
    <path fill="#000" d="M386.694 272.506s18.322 25.144 28.982 27.695c10.66 2.551-24.984-19.543-28.982-27.695zM406.129 275.123s10.213 11.536 17.542 12.975l-17.542-12.975zM370.151 304.193s18.655 18.317 29.315 19.429l-29.315-19.429z" opacity=".1"/>
    <path fill="url(#c)" d="M393.963 173.768c2.085-1.592 3.404-3.264 5.749-4.436 2.346-1.172 5.644-1.832 7.995-2.831 2.352-.999 5.73-.186 8.162.666 5.217 1.792 5.71 3.85 11.326 7.327.906.213 2.379 1.838 3.292 1.998 4.47 2.777 5.883 3.45 7.721 6.527 1.839 3.078 3.418 5.942 3.372 9.498a16.288 16.288 0 0 1-.846 5.815c-1.586 4.35-2.479 7.96-5.164 11.723-2.538 3.603-7.995 6.208-7.995 10.617l-5.45-2.977a7.108 7.108 0 0 1-2.492-2.165c-.846-1.412-.599-3.184-.533-4.829.14-3.484-.819-7.254-3.537-9.432-4.424-3.536-11.507-1.578-15.991-5.048a15.515 15.515 0 0 1-2.831-3.151l-4.211-5.641c-.913-1.226-1.999 4.189-2.378 2.697-7.143-3.896 1.465-14.553 3.811-16.358z"/>
    <path fill="#23214E" d="M333.001 494.769s-6.49 1.332-5.157 19.123c1.332 17.79 4.537 21.107 6.662 22.746 2.898 2.251 15.004 1.791 14.338-4.763-.666-6.554-1.333-21.087-.446-23.312.886-2.225 4.404-8.199 1.046-9.644l-2.712 3.543s-4.124 2.744-11.326-1.778c-.014 0-3.958-4.363-2.405-5.915z"/>
    <path fill="#C5A0EF" d="M270.327 227.819s-2.998-28.415 8.661-21.421c11.659 6.994 3.631 19.422 3.631 19.422l-2.738 8.772-9.554-6.773zM288.981 137.013l6.663-6.54s12.772-36.747 25.431-27.309c12.659 9.438-16.044 33.303-16.044 33.303l-7.608 8.879-8.442-8.333z"/>
    <path fill="#DD5472" d="M191.482 282.334l-.333 7.547s6.11 10.657 8.662 11.436c2.551.779 2.331-22.54 2.331-22.54l-10.66 3.557z"/>
    <path fill="url(#d)" d="M191.482 282.334l-.333 7.547s6.11 10.657 8.662 11.436c2.551.779 2.331-22.54 2.331-22.54l-10.66 3.557z"/>
    <path fill="#C5A0EF" d="M201.696 274.051l.446 27.808h30.974l-2.332-16.199-29.088-11.609z"/>
    <path fill="#585984" d="M208.918 343.493l1.446 8.878 18.102 40.19s8.215 12.656 1.552 23.312c-6.662 10.657-13.544 27.309-14.657 37.406-1.113 10.098-9.881 19.982-9.881 19.982l19.102 8.106s1.332-15.879 6.662-23.312c5.33-7.433 22.426-40.183 22.426-40.183s5.444-4.889 4.224-19.429c-1.219-14.54-1.112-24.758-1.112-24.758l-1.886-23.199-45.978-6.993z"/>
    <path fill="#2B2B51" d="M208.918 343.493l1.446 8.878 18.102 40.19s8.215 12.656 1.552 23.312c-6.662 10.657-13.544 27.309-14.657 37.406-1.113 10.098-9.881 19.982-9.881 19.982l19.102 8.106s1.332-15.879 6.662-23.312c5.33-7.433 22.426-40.183 22.426-40.183s5.444-4.889 4.224-19.429c-1.219-14.54-1.112-24.758-1.112-24.758l-1.886-23.199-45.978-6.993z"/>
    <path fill="#23214E" d="M207.139 472.042s-20.434 6.215-13.658 16.432c6.776 10.217 28.762 29.64 37.644 28.974 8.881-.666 5.33-7.22 5.33-7.22l-7.442-7.327s-1.333-15.539-.773-20.088c.559-4.55-6.33-6.661-7.223-3.997-.892 2.664-13.878-6.774-13.878-6.774z"/>
    <path fill="#333160" d="M220.018 290.047l-16.197 1.792a5.802 5.802 0 0 0-5.17 5.921c.173 6.474-.393 13.068-1.566 17.317-1.272 4.21-4.49 23.865 13.272 37.3l24.098 7.66-38.642 2.777 1.226 21.427 5.996-3.33 73.288 3.33s20.767-2.111 6.662-24.644c-14.104-22.533-44.079-44.626-44.079-44.626l-.333-17.544-2.225-5.102-16.33-2.278z"/>
    <path fill="#000" d="M240.119 359.698a20.812 20.812 0 0 1 16.656 0h-16.656z" opacity=".1"/>
    <path fill="#23214E" d="M197.705 362.696s-23.872-3.437-23.985 1.113c-.113 4.549 3.331 48.842 14.771 45.845 11.44-2.998 6.549-17.651 6.549-17.651l8.555-8.213s.886-4.549-4.777-4.109l-1.113-16.985z"/>
    <path fill="#DD5472" d="M237.234 238.474l9.434 10.77s4.111 5.109 8.994-2.664c4.884-7.773 13.992-21.647 13.992-21.647s10.107 8.879 12.772 7.107c2.665-1.772-24.538 36.973-24.538 36.973s-8.662 12.762-21.547-2.331l-3.771-1.779 4.664-26.429z"/>
    <path fill="url(#e)" d="M237.234 238.474l9.434 10.77s4.111 5.109 8.994-2.664c4.884-7.773 13.992-21.647 13.992-21.647s10.107 8.879 12.772 7.107c2.665-1.772-24.538 36.973-24.538 36.973s-8.662 12.762-21.547-2.331l-3.771-1.779 4.664-26.429z"/>
    <path fill="#C5A0EF" d="M208.372 155.403c10.853 0 19.601 15.586 19.601 26.436 0 10.851-8.775 12.862-19.601 12.862a19.657 19.657 0 0 1-13.898-5.755 19.647 19.647 0 0 1 13.898-33.543z"/>
    <path fill="#000" d="M208.365 185.637s-16.889 7.993-14.891 21.98c1.999 13.988 2.332 31.638 2.332 31.638s7.669 11.323-2.498 32.97c0 0-5.817 10.118-1.486 18.11 0 0 4.124-11.782 16.543-2.457 12.419 9.324 32.413 13.654 32.413 13.654s-10.327-45.292-3.997-51.62c0 0 10.993-16.318.999-26.642-9.994-10.324-4.997-19.982-4.997-19.982l32.093-17.205s6.77.107 15.877-14.1a243.628 243.628 0 0 1 19.435-25.976s-6.889-10.324-13.325-11.104c0 0-2.559 2.665-4.331 9.885-.946 3.829-7.375 10.23-13.192 15.392-4.13 3.664-8.115 7.467-12.092 11.323-2.945 2.831-9.501 6.881-23.799 9.172-23.532 3.75-25.084 4.962-25.084 4.962z" opacity=".1"/>
    <path fill="url(#f)" d="M208.365 184.305s-16.89 7.993-14.891 21.98c1.999 13.987 2.332 31.638 2.332 31.638s7.669 11.323-2.498 32.97c0 0-6.496 10.99-2.166 18.983 0 0 4.804-12.655 17.223-3.33 12.419 9.324 32.413 13.654 32.413 13.654s-10.327-45.292-3.997-51.62c0 0 9.993-12.808 2.718-26.489-6.736-12.689-6.716-20.135-6.716-20.135l32.093-17.205s6.769.107 15.877-14.1a243.606 243.606 0 0 1 19.435-25.977s-6.889-10.323-13.325-11.103c0 0-2.559 2.664-4.331 9.885-.946 3.829-7.375 10.23-13.192 15.392-4.131 3.664-8.115 7.467-12.092 11.323-2.945 2.831-9.501 6.881-23.799 9.172-23.532 3.75-25.084 4.962-25.084 4.962z"/>
    <path fill="#000" d="M222.909 268.008s13.099 19.316 13.432 22.646c.007 0-1.992-20.761-13.432-22.646zM205.7 202.955s9.134 10.99 22.333 1.778a28.353 28.353 0 0 1-11.35 1.412 28.351 28.351 0 0 1-10.983-3.19z" opacity=".1"/>
    <path fill="url(#g)" d="M213.002 155.843c-.24-.999-2.292-3.25-2.991-3.996-1.24-3.464 1.692-7.2-8.808-12.842-6.11-2.285-14.178.5-18.942 8.233-1.612 2.171-2.572 4.755-3.964 7.08-2.572 4.303-6.549 7.62-10.827 10.244-2.578 1.578-5.33 2.944-7.728 4.736-8.841 6.507-12.925 18.536-10.7 29.306.979 4.716 3.051 9.365 2.492 14.154-.433 3.717-2.412 7.047-4.418 10.204-2.005 3.157-4.144 6.354-4.943 9.991-.8 3.637.04 7.946 3.058 10.151 1.113.812 2.452 1.332 3.404 2.304.63.758 1.156 1.596 1.566 2.491a24.496 24.496 0 0 0 15.211 11.99c2.865.752 6.709.479 7.755-2.292.118-.49.299-.962.539-1.405.947-1.332 3.032-.586 4.498.18a27.954 27.954 0 0 0 10.746 3.084 9.033 9.033 0 0 0 4.404-.527 8.263 8.263 0 0 0 2.965-2.564c3.505-4.562 4.511-10.524 5.11-16.245.393-3.723.666-7.513-.046-11.19-1.133-5.901-4.724-11.416-4.191-17.397.566-6.395 5.756-11.623 6.549-17.984a13.739 13.739 0 0 0-2.338-9.452 13.38 13.38 0 0 1-1.779-2.784 2.745 2.745 0 0 1 .533-3.057 4.434 4.434 0 0 1 1.385-.666c4.284-1.645 6.57-5.935 6.876-10.324.12-1.665 0-3.197.46-4.822.733-2.511 4.504-3.923 4.124-6.601z"/>
    <path fill="#B0C4F9" d="M190.136 575.057c38.658 0 69.997-5.296 69.997-11.829 0-6.534-31.339-11.83-69.997-11.83s-69.996 5.296-69.996 11.83c0 6.533 31.338 11.829 69.996 11.829z"/>
    <path stroke="#80AEA1" stroke-linecap="round" stroke-linejoin="round" stroke-width="1.5" d="M415.676 199.586c-10.993-7.733-11.4-4.663-21.58-14.041-10.18-9.378-6.509-14.247 1.426-15.26 7.935-1.012 20.154-.412 27.076 7.121 6.923 7.533-6.722 14.04-3.464 7.526 3.258-6.514 8.348-7.12 10.6-2.218 2.252 4.902 0 7.733 0 7.733M213.002 155.843c3.711-8.293-7.096-21.747-14.657-14.407-7.562 7.34-2.852 21.807-29.982 27.921-27.13 6.115-40.295 20.468-26.963 32.637 12.912 11.796 16.783 17.398 10.86 30.319-3.898 8.479 7.782 17.198 20.301 21.208"/>
    <path fill="#6F55C1" d="M508.951 275.554s14.491-4.163 13.412 13.321C521.283 306.36 509.877 299 509.877 299s-9.254-4.709-7.255-11.29c1.998-6.581 1.419-10.571 6.329-12.156z"/>
    <path fill="#B0C4F9" d="M247.401 64.733c-2.845 9.012 1.465 18.41 1.465 18.41s8.928-5.215 11.773-14.234c2.845-9.018-1.466-18.403-1.466-18.403s-8.947 5.202-11.772 14.227z"/>
    <defs>
        <linearGradient id="a" x1="395.748" x2="377.936" y1="315.759" y2="458.277" gradientUnits="userSpaceOnUse">
            <stop offset=".19" stop-color="#6C8AD2"/>
            <stop offset="1" stop-color="#94B8FC"/>
        </linearGradient>
        <linearGradient id="b" x1="396.828" x2="421.612" y1="153.926" y2="359.828" gradientUnits="userSpaceOnUse">
            <stop stop-color="#96BAF7"/>
            <stop offset=".95" stop-color="#B7A9F6"/>
        </linearGradient>
        <radialGradient id="c" cx="0" cy="0" r="1" gradientTransform="matrix(85.1603 0 0 85.1359 387.88 165.276)" gradientUnits="userSpaceOnUse">
            <stop stop-color="#92BCB4"/>
            <stop offset=".95" stop-color="#B9DAB1"/>
        </radialGradient>
        <linearGradient id="d" x1="191.149" x2="202.142" y1="290.054" y2="290.054" gradientUnits="userSpaceOnUse">
            <stop stop-color="#6C8AD2"/>
            <stop offset="1" stop-color="#526EBB"/>
        </linearGradient>
        <linearGradient id="e" x1="17699.8" x2="21457.8" y1="18755.7" y2="18755.7" gradientUnits="userSpaceOnUse">
            <stop stop-color="#6C8AD2"/>
            <stop offset="1" stop-color="#526EBB"/>
        </linearGradient>
        <linearGradient id="f" x1="31653.2" x2="49991.9" y1="54837.7" y2="54837.7" gradientUnits="userSpaceOnUse">
            <stop stop-color="#6C8AD2"/>
            <stop offset="1" stop-color="#526EBB"/>
        </linearGradient>
        <radialGradient id="g" cx="0" cy="0" r="1" gradientTransform="matrix(28440.8 0 0 48780.3 13621 25126.3)" gradientUnits="userSpaceOnUse">
            <stop stop-color="#92BCB4"/>
            <stop offset=".95" stop-color="#B9DAB1"/>
        </radialGradient>
    </defs>
</svg>
