<svg xmlns="http://www.w3.org/2000/svg" width="592" height="462" fill="none" viewBox="0 0 592 462">
    <g clip-path="url(#a)">
        <path fill="#ECF2FF" d="M18.314 70.208c30.348-107.31 117.558-80.122 259.479 4.5 141.921 84.621 132.631-9.078 193.632-19.658 61-10.58 157.187 109.083 106.164 224.651-53.961 122.233-106.752 132.813-213.514 102.255-94.954-27.179-137.808 1.135-215.303 3.889-82.29 2.923-134.33-8.325-143.936-99.558-9.18-87.129-5.618-148.555 13.478-216.079z"/>
        <path fill="#B0C4F9" d="M233.092 462c32.314 0 58.509-3.417 58.509-7.632s-26.195-7.632-58.509-7.632-58.509 3.417-58.509 7.632S200.778 462 233.092 462z"/>
        <path fill="url(#b)" d="M479.258 321.666V64.565H90.71v242.337a77.07 77.07 0 0 0 17.154 13.497 112.447 112.447 0 0 0 9.396 4.988h357.36l4.638-3.721z"/>
        <path fill="#fff" d="M478.502 321.754V71.922H91.559v235.52c.241 0 .525 3.574.525 11.663 0 .657 0 4.846 3.184 6.307h378.607l4.627-3.658z"/>
        <path fill="#B0C4F9" d="M478.502 65.295H91.564v13.213h386.938V65.295z"/>
        <path fill="#fff" d="M101.731 75.317c1.883 0 3.41-1.53 3.41-3.416a3.413 3.413 0 0 0-3.41-3.417 3.413 3.413 0 0 0-3.41 3.417 3.413 3.413 0 0 0 3.41 3.416zM110.912 75.317c1.883 0 3.41-1.53 3.41-3.416a3.413 3.413 0 0 0-3.41-3.417 3.413 3.413 0 0 0-3.41 3.417 3.413 3.413 0 0 0 3.41 3.416zM120.093 75.317a3.412 3.412 0 0 0 3.409-3.416 3.412 3.412 0 0 0-3.409-3.417 3.413 3.413 0 0 0-3.41 3.417 3.413 3.413 0 0 0 3.41 3.416z"/>
        <path fill="#6963FA" d="M300.918 107.547h-82.101v51.687h82.101v-51.687z"/>
        <path fill="#5A5871" d="M187.242 107.547h-82.101v51.687h82.101v-51.687zM414.595 107.547h-82.101v51.687h82.101v-51.687zM187.242 181.441h-82.101v51.688h82.101v-51.688zM300.918 181.441h-82.101v51.688h82.101v-51.688zM414.595 181.441h-82.101v51.688h82.101v-51.688zM187.242 255.33h-82.101v51.687h82.101V255.33zM300.918 255.33h-82.101v51.687h82.101V255.33zM414.595 255.33h-82.101v51.687h82.101V255.33z" opacity=".2"/>
        <path fill="url(#c)" d="M215.256 272.785h.944c-.11.205-.215.415-.32.626-.063.126-.126.247-.184.373-.346.72-.666 1.456-.928 2.176.105-.778.236-1.624.383-2.528.037-.205.073-.442.105-.647zm-2.55 13.702a.18.18 0 0 0 0-.073l-.079-.247a8.968 8.968 0 0 1-.162-.526c.325-.094.656-.205.991-.331h.058v.174c0 .247-.058.494-.089.735a.303.303 0 0 1 0 .095 5.328 5.328 0 0 1-.068.578c-.048.379-.095.747-.137 1.099a40.198 40.198 0 0 0-.304-.978 2.48 2.48 0 0 1-.22-.526h.01z"/>
        <path fill="#C5A0EF" d="M280.8 152.822l-5.666 2.008-2.056-3.417a911.608 911.608 0 0 0-5.367-8.835c-2.844-4.594.876-11.595.876-11.595s1.049-10.664 3.42-12.829c2.372-2.166.635 11.563.635 11.563 9.815 3.679 6.526 15.899 6.526 15.899l.934 4.079.698 3.127z"/>
        <path fill="#000" d="M280.799 152.822l-5.665 2.007-2.057-3.416v-.3s3.247-2.233 7.035-1.392l.687 3.101z" opacity=".1"/>
        <path fill="#6C8AD2" d="M271.651 175.845l2.838-2.407-1.422-21.666s7.345-5.035 12.78 2.844c0 0-.221 4.814 0 6.128.22 1.314-1.527 2.628 0 3.937 1.526 1.309 0 5.692 0 5.692s1.726 3.065 2.817 3.937c1.091.873 2.187 8.1 0 9.629-2.188 1.53-6.295 5.035-6.295 6.565 0 1.529-5.247 5.256-5.247 5.256l-4.606-6.102-.865-13.813z"/>
        <path fill="#C5A0EF" d="M210.272 307.358c-10.587-4.499-8.236-15.489-6.243-21.024.402-1.12.869-2.215 1.401-3.28l5.938-3.611s1.212 3.096 2.508 7.248c3.006 9.661 6.458 24.95-3.604 20.667zM224.698 405.304c-.718 1.403-1.117 5.224-1.447 6.759a32.345 32.345 0 0 0-.682 7.532c.042 1.75.188 2.896.188 2.896l-11.793 8.126s.069-.952.184-2.35c.304-3.721.939-10.627 1.537-11.521.414-.62.703-3.112.887-5.424.183-2.313.257-4.342.257-4.342s14.064-7.663 10.869-1.676zM252.675 413.465s0 2.26-.084 4.888-.241 5.729-.571 7.175c-.305 1.324-.326 3.758-.268 6.002.079 2.628.268 4.993.268 4.993s-12.04-11.405-10.812-12.309c.33-.242.655-1.214.954-2.507.367-1.577.698-3.679.945-5.466.293-2.129.477-3.843.477-3.843l9.091 1.067z"/>
        <path fill="url(#d)" d="M277.327 301.693c-4.806 10.512-6.773 22.98-6.773 22.98l-1.747 10.511s-.142 4.09-1.018 5.84-1.605 5.103-1.605 5.103.21 10.123 0 11.816c-.331 2.67-.719 10.086-.719 10.086l-3.672 19.647-8.289 28.019c-5.896 4.82-10.555-.562-10.555-.562l.735-18.921s1.778-27.647 1.4-31.305c-.173-1.713.567-8.089.567-8.089s1.532-3.942.441-5.471c-1.092-1.53.215-4.815.215-4.815s-.436-13.35.876-16.414c1.311-3.064 0-22.018 0-22.018l-.525-5.902-.304-3.269-.026-.321s-.2 1.309-.525 3.338c-.965 6.175-3.022 18.974-3.835 21.607a27.744 27.744 0 0 1-2.224 5.471s1.133 6.565 0 8.315c-1.133 1.751-.173 3.722-.173 3.722a29.725 29.725 0 0 1-1.013 6.948c-.215.799-1.175 3.995-1.175 3.995s-.472 4.672-1.343 6.832c-.871 2.161-1.93 5.84-1.93 5.84l-2.917 14.222s-1.574 9.708-2.88 14.575c-2.303 8.515-4.323 18.328-4.323 18.328s-8.21-.053-10.802-2.024c-2.591-1.971.814-21.444.814-21.444s1.967-33.701 1.526-34.574c-.44-.872 0-7.442 1.532-8.751 1.532-1.309 0-3.942 0-3.942s-.435-5.256 0-6.565c.435-1.309-.068-5.692-.068-5.692s-1.464-10.722-1.679-16.851c-.215-6.128-1.311-19.909-1.311-19.909s1.143-8.525 1.316-12.583c.063-1.493.73-3.359 1.574-5.114a46.892 46.892 0 0 1 3.253-5.719s51.752-15.326 53.924-13.802c.577.405 1.416 3.154 2.245 7.133 2.293 11.116 4.548 31.982 1.013 39.729z"/>
        <path fill="#906169" d="M245.441 167.923c8.324 0 15.072-6.76 15.072-15.1s-6.748-15.1-15.072-15.1c-8.323 0-15.071 6.76-15.071 15.1s6.748 15.1 15.071 15.1z"/>
        <path fill="#6C8AD2" d="M234.954 176.936s-13.959 2.208-17.243 4.394c-3.284 2.187-9.832 6.307-9.832 15.3s-1.526 18.165-2.402 20.788c-.876 2.622 13.76 23.83 13.76 23.83l-5.246 32.172s20.984-.657 27.972 0c6.988.657 31.44-10.943 31.44-10.943s14.416-7.658 17.474-7.884c3.059-.226-6.117-16.851-6.117-16.851s-14.201-26.91-11.798-31.288c2.403-4.379 4.165-10.723 4.165-10.723l-2.623-22.316s-3.929-1.314-7.208 1.093c-3.279 2.407-14.437 1.114-14.437 1.114l-17.905 1.314z"/>
        <path fill="#000" d="M211.258 215.888l-5.477 1.53-1.516 20.593s1.967 5.471 0 7.221c-1.967 1.751-2.403 39.173-2.403 39.173s6.338 4.594 13.761 1.093c0 0-1.092-4.157 2.187-19.258 3.279-15.1 3.274-22.758 3.274-22.758s0-18.822 1.532-21.886c1.531-3.064 0-10.722 0-10.722s-3.059-4.157-2.844-5.687c.215-1.529-8.514 10.701-8.514 10.701z" opacity=".1"/>
        <path fill="#000" d="M213.876 286.709a13.894 13.894 0 0 1-9.847-.357c.402-1.121.87-2.216 1.401-3.28l5.939-3.611s1.232 3.096 2.507 7.248z" opacity=".1"/>
        <path fill="#6C8AD2" d="M210.928 215.889l-5.462 1.529-1.526 20.593s1.967 5.472 0 7.222-2.403 39.173-2.403 39.173 6.343 4.588 13.76 1.051c0 0-1.091-4.158 2.183-19.258 3.273-15.1 3.279-22.758 3.279-22.758s0-18.822 1.526-21.886c1.527-3.064 0-10.722 0-10.722s-3.058-4.158-2.838-5.687c.22-1.53-8.519 10.743-8.519 10.743z"/>
        <path fill="#000" d="M266.845 219.174s-2.838 24.508-11.142 29.107c0-.005 18.565-5.256 11.142-29.107zM225.128 221.359s10.262 5.03 7.869 8.531c-2.392 3.5-7.869-8.531-7.869-8.531zM225.128 231.426s6.553 6.785 5.246 9.192c-1.306 2.408-5.246-9.192-5.246-9.192zM277.982 175.188s2.571 4.372 2.818 7.221c.246 2.849-2.818-7.221-2.818-7.221zM277.982 169.279s1.291-1.098 4.585 0c3.295 1.099-4.585 0-4.585 0zM265.371 297.184a30.261 30.261 0 0 1-15.974-2.05l-2.754 7.085-.305-3.269c.452-2.743 1.328-5.681 3.059-6.423 0-.021 6.085 4.82 15.974 4.657zM222.778 422.497l-11.793 8.126s.069-.951.184-2.35c2.623-6.464 6.017-9.897 6.017-9.897 2.66-.693 4.339-.052 5.383 1.204.063 1.766.209 2.917.209 2.917z" opacity=".1"/>
        <path fill="#23214E" d="M223.927 429.796a29.492 29.492 0 0 0-2.46 12.088 18.76 18.76 0 0 1-2.497 9.729 8.42 8.42 0 0 1-.829 1.188s-8.194-.068-11.064-2.449a2.871 2.871 0 0 1-.771-.946c-1.642-3.28 3.195-15.837 3.195-15.837 2.539-9.681 7.696-14.853 7.696-14.853 9.186-2.381 6.73 11.08 6.73 11.08z"/>
        <path fill="#000" d="M218.97 451.588a8.41 8.41 0 0 1-.829 1.187s-8.194-.068-11.064-2.449c1.411-4.678 9.968-24.135 12.066-21.728 1.988 2.26-.682 18.438-.173 22.99zM252.02 436.524s-12.04-11.405-10.812-12.309c.33-.242.655-1.215.954-2.508 2.314-.404 6.296.563 9.59 9.824.058 2.612.268 4.993.268 4.993z" opacity=".1"/>
        <path fill="#23214E" d="M253.819 449.243c-.092.042-.189.07-.288.084-1.417.247-6.636.105-9.559 0a2.072 2.072 0 0 1-1.998-2.065c0-.789 0-1.751-.063-2.775-.137-3.238-.525-7.091-1.684-7.958-2.051-1.577-3.672-6.927 0-13.702 0 0 7.04-5.388 12.118 10.806 0 0 .493 4.62 2.702 6.26 2.208 1.64-.241 8.882-1.228 9.35z"/>
        <path fill="#000" d="M253.52 449.327c-1.416.247-6.636.105-9.558 0a2.069 2.069 0 0 1-1.999-2.066c0-.788 0-1.75-.063-2.775.887-3.921-1.049-8.525.593-9.461.011.011 8.189.016 11.027 14.302z" opacity=".1"/>
        <path fill="url(#e)" d="M245.221 128.103c-4.758.357-7.224-.767-11.3 1.724-1.049.636-4.239 4.01-4.674 5.151-.378.988-.221 2.102-.205 3.153.142 9.051-9.931 15.9-9.616 24.951.126 3.584 1.925 6.927 2.256 10.511.367 3.99-1.081 7.758-3.085 11.301a2.69 2.69 0 0 0 1.791 3.993c.561.111 1.143.04 1.661-.204l.089-.047c.36-.171.753-.26 1.151-.26a2.678 2.678 0 0 1 2.076.996c.249.311.427.673.519 1.062a72.92 72.92 0 0 1 .981 29.922 2.674 2.674 0 0 0 2.623 3.122h1.574c.382-.025.766.009 1.138.1.184.048.36.12.525.215.322.184.612.418.86.694 3.552 3.548 6.18 8.41 6.295 13.319a2.666 2.666 0 0 0 2.323 2.613c.422.054.851.004 1.25-.143l6.258-2.339c2.461-.925 4.958-1.866 7.098-3.39 2.141-1.524 3.935-3.737 4.386-6.333.247-1.378.21-2.996 1.049-3.99.211-.223.464-.402.745-.525a8.012 8.012 0 0 1 1.7-.594c2.822-.999 4.071-4.268 4.648-7.211.713-3.614.939-7.307.671-10.98-.456-6.15-2.271-12.394-.776-18.396.845-3.369 2.723-6.507 2.875-9.986.246-5.735-4.229-10.675-4.895-16.378-.467-3.974.965-7.989.499-11.968-.525-4.157-2.188-6.149-5.703-10.254-2.57-1.992-3.672-4.205-4.915-4.925-2.849-1.661-4.675-1.025-7.261-3.075-2.586-2.05-6.893-2.822-8.84-.158l4.229-1.671z"/>
        <g fill="#000" opacity=".1">
            <path d="M229.032 135.945a6.215 6.215 0 0 0-.032.61c.016-.2.027-.426.032-.61zM267.16 156.986c.189-2.786.808-5.582.578-8.357-.189 2.786-.793 5.582-.578 8.357z" opacity=".1"/>
        </g>
        <path fill="#000" d="M209.647 239.629s3.904-1.64 4.774 0c.871 1.64-4.774 0-4.774 0zM211.027 242.442s3.903-1.64 4.779 0c.877 1.64-4.779 0-4.779 0z" opacity=".1"/>
        <path stroke="#80AEA1" stroke-linecap="round" stroke-linejoin="round" stroke-width="1.5" d="M246.564 229.591c13.592-2.433 16.473-13.05 13.115-23.341-3.478-10.644-19.641-13.14-34.923-39.273-7.832-13.397-.246-31.709 9.186-37.149 9.432-5.44 20.029.194 23.172 6.78"/>
        <path stroke="#80AEA1" stroke-linecap="round" stroke-linejoin="round" stroke-width="1.5" d="M233.297 163.986c15.292 22.659 38.532 36.508 31.959 50.573a45.653 45.653 0 0 0-3.326 10.665"/>
    </g>
    <defs>
        <linearGradient id="b" x1="284.981" x2="284.981" y1="325.392" y2="64.57" gradientUnits="userSpaceOnUse">
            <stop stop-color="#7F7F7F" stop-opacity=".25"/>
            <stop offset=".54" stop-color="#7F7F7F" stop-opacity=".12"/>
            <stop offset="1" stop-color="#7F7F7F" stop-opacity=".1"/>
        </linearGradient>
        <linearGradient id="c" x1="1895.01" x2="1895.01" y1="-24822" y2="-24382.1" gradientUnits="userSpaceOnUse">
            <stop stop-color="#7F7F7F" stop-opacity=".25"/>
            <stop offset=".54" stop-color="#7F7F7F" stop-opacity=".12"/>
            <stop offset="1" stop-color="#7F7F7F" stop-opacity=".1"/>
        </linearGradient>
        <linearGradient id="d" x1="254.071" x2="240.538" y1="179.303" y2="381.265" gradientUnits="userSpaceOnUse">
            <stop stop-color="#C5A0EF"/>
            <stop offset="1" stop-color="#8C93D3"/>
        </linearGradient>
        <radialGradient id="e" cx="0" cy="0" r="1" gradientTransform="matrix(210.948 0 0 211.348 234.236 115.068)" gradientUnits="userSpaceOnUse">
            <stop stop-color="#92BCB4"/>
            <stop offset=".95" stop-color="#B9DAB1"/>
        </radialGradient>
        <clipPath id="a">
            <path fill="#fff" d="M0 0h592v462H0z"/>
        </clipPath>
    </defs>
</svg>
