<svg xmlns="http://www.w3.org/2000/svg" width="470" height="566" fill="none" viewBox="0 0 470 566">
    <path fill="#ECF2FF" d="M386.283 551.333C122.871 558.358 6.46 460.619 23.409 340.16 40.358 219.701 205.853 82.931 273.244 74.355 382.736 60.418 447.431 153 457.385 229.663c9.955 76.664 33.874 318.868-71.102 321.67z"/>
    <path fill="#8E6169" d="M394.582 348.026l12.333-4.112 4.698 7.636-2.937 3.971a13.247 13.247 0 0 1-12.92-1.622c-6.46-4.699-1.174-5.873-1.174-5.873z"/>
    <path fill="url(#a)" d="M371.877 243.76c-11.029 0-20.167 11.583-20.167 22.614v20.558h4.698l.746-2.027.587 2.027h28.63l.746-2.027.587 2.027h3.953v-20.558c-.012-11.019-8.751-22.614-19.78-22.614z"/>
    <path fill="#C5A0EF" d="M399.127 305.006l-4.023-.67-3.805 2.461 7.388 36.94 12.879 9.815c7.752-11.994-12.439-48.546-12.439-48.546z"/>
    <path fill="#8E6169" d="M364.207 276.124s-3.136 17.034-5.819 17.462c-2.684.429 11.193 5.387 11.193 5.387l11.194-.893-1.345-3.583s-3.583-8.958 0-17.469c3.582-8.511-15.223-.904-15.223-.904z"/>
    <path fill="#B193DB" d="M364.207 276.124s-3.136 17.034-5.819 17.462c-2.684.429 11.193 5.387 11.193 5.387l11.194-.893-1.345-3.583s-3.583-8.958 0-17.469c3.582-8.511-15.223-.904-15.223-.904z"/>
    <path fill="#C5A0EF" d="M346.495 345.536l.446-38.961-9.255-7.6s-13.913 50.625.781 55.084c.656.479 1.349.905 2.073 1.274l6.237-9.697-.282-.1zM337.786 475.409l-8.222 48.164 11.81-.687s11.646-39.859 11.2-43.888c-.447-4.03-14.788-3.589-14.788-3.589zM392.89 477.652l-4.211 47.578 12.268.341s8.956-49.71 7.635-51.954c-1.321-2.244-15.692 4.035-15.692 4.035z"/>
    <path fill="url(#b)" d="M348.985 375.098s-17.031 102.556-12.991 104.347c4.041 1.792 37.586 8.059 39.853 4.922 2.267-3.136 6.719-65.38 6.719-65.38s5.373 64.487 10.747 63.589c5.374-.899 34.027.446 35.824-7.166 1.797-7.613-21.489-101.211-21.489-101.211l-5.825-4.029h-17.466l-35.372 4.928z"/>
    <path fill="#23214E" d="M328.501 523.145l-2.972 13.915s-11.041 12.922-2.085 12.922a99.684 99.684 0 0 0 10.924-.628 6.659 6.659 0 0 0 5.873-5.939l1.139-11.13s.899-7.166 0-9.398c-.012-.006-11.611.893-12.879.258zM387.018 525.113c0 2.69-1.339 18.796-1.339 18.796s-.453 8.059 8.503 6.714c8.956-1.345 6.719-5.821 6.719-5.821v-8.934s.446-9.398 0-10.297l-13.883-.458z"/>
    <path fill="#C5A0EF" d="M371.707 266.216c14.03.47 13.319-4.905 13.319 2.52 0 7.424-5.138 19.424-13.865 18.796-7.394-.541-12.997-11.372-12.997-18.796 0-7.425 2.514-2.884 13.543-2.52z"/>
    <path fill="#F4F8FC" d="M356.596 292.242s16.567-3.13 24.179 1.345c7.611 4.476 8.509 8.512 11.193 8.512 2.684 0 5.82-1.792 7.635 3.583l-5.82 7.635-2.238 17.034 8.058 37.169s7.165 3.137 4.481 4.036c-2.684.898-38.508 12.986-40.752 5.82-2.243-7.165-10.741-38.514-10.295-39.859.447-1.345-4.927-26.432-4.927-26.432l-11.64-11.195s4.475-4.035 9.849-1.791c5.374 2.243 10.277-5.857 10.277-5.857z"/>
    <path fill="#333160" d="M360.554 290.357s-7.54 2.785-10.23 4.112c-2.69 1.328-11.417 2.015-11.417 3.354s7.67-1.175 7.529 11.624c-.141 12.799-5.961 97.428-1.486 98.321 4.475.893.453-4.476 9.855 0 9.402 4.476 13.877.452 14.776-.893.898-1.345 3.136-51.055 0-67.624-3.136-16.57-9.027-48.894-9.027-48.894zM378.267 291.637a.585.585 0 0 1 .499-.628.588.588 0 0 1 .364.082c2.678 1.686 9.873 6.25 10.571 6.978.588.587 4.111 1.827 6.273 2.555a2.831 2.831 0 0 1 1.949 2.549c.096 1.136.04 2.28-.164 3.401-.446 1.762-2.238 8.065-2.238 8.065s6.267 42.99 17.466 63.143c11.199 20.152 10.295 28.194 6.713 28.664-3.583.469-10.748-25.081-20.15-30.009-9.402-4.928-18.358-36.271-17.912-42.99.435-5.997-2.696-35.548-3.371-41.81z"/>
    <path fill="#C5A0EF" d="M363.526 350.91c-3.3-.823-17.031-6.409-18.84-7.014l-4.164 11.425c6.648 3.401 17.032 4.282 17.032 4.282s14.453 3.136 16.696-2.684c2.243-5.821-7.136-5.081-10.724-6.009z"/>
    <path fill="#B0C4F9" d="M153.168 307.138c84.593 0 153.169-68.587 153.169-153.193C306.337 69.339 237.761.752 153.168.752 68.576.752 0 69.339 0 153.945c0 84.606 68.576 153.193 153.168 153.193z"/>
    <path fill="#C5A0EF" d="M402.046 346.21l.446.446-24.589-4.258s-14.817-3.354-18.4 5.157c-3.582 8.511 18.582 4.699 18.582 4.699s27.766 7.636 33.14 1.762c.13-.152.245-.317.34-.493l-9.519-7.313z"/>
    <path fill="#ECF2FF" d="M245.442 164.383L174.175 91.53l-9.578 20.611-43.265-44.235-56.538 121.628 86.442 40.194.364-.781 52.485 24.405 41.357-88.969z" opacity=".87"/>
    <path fill="#333160" d="M259.501 169.604v-.34h-.029c-1.321-8.435-47.705-15.207-102.075-15.207-54.37 0-100.748 6.772-102.075 15.207v.417a102.128 102.128 0 0 0 29.906 72.21 102.093 102.093 0 0 0 144.397 0 102.13 102.13 0 0 0 29.906-72.21v-.077h-.03z"/>
    <path fill="#fff" d="M157.397 185.211c56.391 0 102.104-6.974 102.104-15.577s-45.713-15.577-102.104-15.577-102.105 6.974-102.105 15.577 45.714 15.577 102.105 15.577z" opacity=".1"/>
    <path fill="#6C8AD2" d="M188.858 167.073c9.977 0 18.064-8.089 18.064-18.068 0-9.978-8.087-18.067-18.064-18.067s-18.065 8.089-18.065 18.067c0 9.979 8.088 18.068 18.065 18.068z"/>
    <path stroke="#413F56" stroke-miterlimit="10" stroke-width="2" d="M188.693 181.68l.147-32.776"/>
    <path fill="#413F56" d="M188.84 153.54a4.634 4.634 0 0 0 4.633-4.634 4.634 4.634 0 1 0-4.633 4.634zM188.752 169.106s-.588-14.244-14.177-12.652l14.177 12.652z"/>
    <path fill="#6C8AD2" d="M240.133 117.51c9.977 0 18.065-8.089 18.065-18.067 0-9.979-8.088-18.068-18.065-18.068-9.977 0-18.065 8.09-18.065 18.068 0 9.978 8.088 18.067 18.065 18.067z"/>
    <path stroke="#413F56" stroke-miterlimit="10" stroke-width="2" d="M239.111 166.146l1.039-66.72"/>
    <path fill="#413F56" d="M240.151 104.06a4.634 4.634 0 0 0 4.633-4.635 4.634 4.634 0 1 0-9.267 0 4.634 4.634 0 0 0 4.634 4.635zM239.857 118.298s-.441-14.249-14.036-12.804l14.036 12.804z"/>
    <path stroke="#413F56" stroke-miterlimit="10" stroke-width="2" d="M239.129 164.87s3.406-27.337-13.784-28.929"/>
    <path fill="#413F56" d="M225.345 140.577a4.634 4.634 0 1 0 0-9.269 4.634 4.634 0 0 0 0 9.269z"/>
    <path fill="#6C8AD2" d="M79.694 76.518c9.977 0 18.065-8.09 18.065-18.068 0-9.978-8.088-18.067-18.065-18.067-9.977 0-18.065 8.089-18.065 18.067 0 9.979 8.088 18.068 18.065 18.068z"/>
    <path stroke="#413F56" stroke-miterlimit="10" stroke-width="2" d="M79.706 167.83V58.514"/>
    <path fill="#413F56" d="M79.705 63.095a4.634 4.634 0 1 0 0-9.268 4.634 4.634 0 0 0 0 9.268zM65.476 142.187a4.634 4.634 0 1 0-.001-9.269 4.634 4.634 0 0 0 0 9.269zM79.705 82.14s-.657-14.244-14.23-12.588l14.23 12.587zM79.705 122.503s-.657-14.238-14.23-12.582l14.23 12.582z"/>
    <path stroke="#413F56" stroke-miterlimit="10" stroke-width="2" d="M79.705 166.555s2.984-27.677-14.23-29.004"/>
    <path fill="#413F56" d="M94.224 98.714a4.634 4.634 0 1 0-.001-9.268 4.634 4.634 0 0 0 0 9.268z"/>
    <path stroke="#413F56" stroke-miterlimit="10" stroke-width="2" d="M79.993 121.587s-2.983-26.203 14.23-27.525"/>
    <path fill="#413F56" d="M196.286 118.456a6.493 6.493 0 0 1-6.001-4.011 6.498 6.498 0 0 1 8.487-8.488 6.501 6.501 0 0 1 4.01 6.002 6.498 6.498 0 0 1-6.496 6.497zm0-12.406a5.91 5.91 0 1 0 2.218 11.372 5.914 5.914 0 0 0 3.655-5.463 5.912 5.912 0 0 0-5.873-5.909zM159.124 73.275a3.84 3.84 0 0 0 3.84-3.842 3.84 3.84 0 1 0-3.84 3.842z"/>
    <path fill="#6C8AD2" d="M155.171 135.137v32.517l-17.553 9.891-35.601-2.719v-33.628l17.677-6.061h35.477z"/>
    <path fill="#000" d="M155.171 135.324v32.329l-17.554 9.892h-.37v-36.224l17.924-5.997z" opacity=".1"/>
    <path fill="#fff" d="M155.171 135.137v.293l-17.923 5.892h-35.231v-.124l17.677-6.061h35.477z" opacity=".1"/>
    <path fill="#000" d="M128.714 139.419c4.729 0 8.563-.794 8.563-1.774s-3.834-1.774-8.563-1.774c-4.729 0-8.562.794-8.562 1.774s3.833 1.774 8.562 1.774z" opacity=".1"/>
    <path fill="#D37AB8" d="M128.714 137.692l-3.811-3.436c-13.508-12.429-22.464-20.494-22.464-30.544a14.29 14.29 0 0 1 14.036-14.543h.411a15.549 15.549 0 0 1 11.828 5.55 15.552 15.552 0 0 1 11.822-5.55 14.287 14.287 0 0 1 14.453 14.126v.417c0 10.044-8.932 18.109-22.463 30.544l-3.812 3.436z"/>
    <path fill="#B0C4F9" d="M332.213 205.275c8.54 0 15.463-6.924 15.463-15.466 0-8.541-6.923-15.465-15.463-15.465s-15.463 6.924-15.463 15.465c0 8.542 6.923 15.466 15.463 15.466zM356.285 225.881a6.79 6.79 0 1 0-.002-13.58 6.79 6.79 0 0 0 .002 13.58z"/>
    <path fill="#333160" d="M437.23 285.975l-1.14 3.765a2.278 2.278 0 0 1-2.825 1.557l-9.637-2.937a2.28 2.28 0 0 1-1.339-1.124 2.292 2.292 0 0 1-.152-1.742l1.139-3.76 13.954 4.241z"/>
    <path fill="#B0C4F9" d="M422.155 226.286c4.005-13.233 17.712-20.799 30.615-16.893 12.902 3.906 20.126 17.798 16.126 31.031a25.348 25.348 0 0 1-7.476 11.701c-9.878 9.204-14.212 18.109-14.212 18.109l-11.746-3.56-11.745-3.553s1.327-9.815-1.797-22.955a25.331 25.331 0 0 1 .235-13.88z"/>
    <path fill="#6C8AD2" d="M447.507 270.317l-4.827 15.982a1.24 1.24 0 0 1-1.522.858l-21.729-6.579a1.23 1.23 0 0 1-.781-1.556l4.78-15.983 24.079 7.278z"/>
    <path fill="#606060" d="M423.928 221.928c2.349 13.691 8.304 35.565 23.309 48.247v.058l-11.746-3.559-11.745-3.554s1.327-9.815-1.797-22.954a25.513 25.513 0 0 1 2.032-18.238h-.053zM464.48 241.241c3.523-11.553-2.808-23.683-14.095-27.089a21.093 21.093 0 0 0-18.64 3.271 21.208 21.208 0 0 1 20.86-5.139c11.27 3.407 17.571 15.536 14.095 27.089a22.124 22.124 0 0 1-8.087 11.478 22.233 22.233 0 0 0 5.867-9.61z" opacity=".21"/>
    <path fill="#333160" d="M439.996 268.055l12.104-29.821-4.963 2.173-1.75-6.631-5.127 4.352-2.907-4.388-6.448 31.56-1.21-.364 7.041-34.432 3.8 5.733 5.562-4.729 1.885 7.137 6.448-2.819-13.231 32.593-1.204-.364z"/>
    <path fill="#414BAA" d="M442.41 265.44l-1.21 2.99-1.175-.37 1.492-3.671c.27.346.576.705.893 1.051zM433.559 252.307l-2.654 12.993-1.21-.364 2.936-14.456c.317.611.617 1.222.928 1.827z"/>
    <path fill="#333160" d="M422.237 267.027l-.892 2.952 24.059 7.278.892-2.951-24.059-7.279zM421.291 272.223l-.894 2.961 24.13 7.29.894-2.96-24.13-7.291z"/>
    <path fill="#5572A0" d="M431.181 276.594l-10.865-3.289 1.01-3.348 6.707 2.026a45.45 45.45 0 0 0 3.148 4.611zM422.219 267.004l1.174-3.965.382.112a54.96 54.96 0 0 0 2.144 4.981l-3.7-1.128zM441.129 287.156l-21.729-6.579a1.23 1.23 0 0 1-.712-.617 1.228 1.228 0 0 1-.069-.94l.834-2.76 15.709 4.752a36.758 36.758 0 0 0 7.382 5.574 1.206 1.206 0 0 1-1.415.57z"/>
    <path fill="#232344" d="M428.033 271.983l-6.707-2.027.893-2.936 3.723 1.127a52.46 52.46 0 0 0 2.091 3.836zM435.133 281.011l-15.71-4.752.893-2.937 10.865 3.29a42.04 42.04 0 0 0 3.952 4.399zM422.583 284.043c1.903 3.495 6.859 5.874 8.515 6.602l-7.47-2.244a2.28 2.28 0 0 1-1.339-1.124 2.292 2.292 0 0 1-.152-1.742l.446-1.492z"/>
    <path fill="#333160" d="M453.012 199.21l-.626-.176a.643.643 0 0 0-.794.446l-1.791 6.366a.646.646 0 0 0 .446.795l.626.176a.646.646 0 0 0 .795-.446l1.79-6.366a.644.644 0 0 0-.446-.795zM440.384 196.776l-.702.214a.604.604 0 0 0-.402.755l1.956 6.422c.097.32.435.5.754.403l.703-.214a.606.606 0 0 0 .402-.755l-1.956-6.423a.604.604 0 0 0-.755-.402zM463.27 210.024l.414.457a.663.663 0 0 0 .937.046l4.885-4.432a.663.663 0 0 0 .046-.937l-.414-.457a.664.664 0 0 0-.938-.046l-4.885 4.432a.664.664 0 0 0-.045.937z"/>
    <path stroke="#80AEA1" stroke-linecap="round" stroke-linejoin="round" stroke-width=".86" d="M376.863 251.396c6.137 3.754 8.334 8.147 8.774 16.629a290.215 290.215 0 0 0 1.234 15.53M361.764 259.832c-7.493 5.874-6.131 19.43-4.974 23.119"/>
    <defs>
        <radialGradient id="a" cx="0" cy="0" r="1" gradientTransform="matrix(42.7833 0 0 42.7902 369.892 284.553)" gradientUnits="userSpaceOnUse">
            <stop stop-color="#92BCB4"/>
            <stop offset=".95" stop-color="#B9DAB1"/>
        </radialGradient>
        <linearGradient id="b" x1="456.927" x2="313.972" y1="538.059" y2="351.332" gradientUnits="userSpaceOnUse">
            <stop offset=".19" stop-color="#6C8AD2"/>
            <stop offset="1" stop-color="#94B8FC"/>
        </linearGradient>
    </defs>
</svg>
