<svg width="24" height="24" viewBox="0 0 24 24" fill="none" xmlns="http://www.w3.org/2000/svg">
<path fill-rule="evenodd" clip-rule="evenodd" d="M12 0C5.37258 0 0 5.37258 0 12C0 18.6274 5.37258 24 12 24C18.6274 24 24 18.6274 24 12C24 5.37258 18.6274 0 12 0ZM5.7609 9.93895H8.48036V18.1098H5.7609V9.93895ZM8.65917 7.41135C8.64151 6.6102 8.06861 6 7.1383 6C6.20799 6 5.59978 6.6102 5.59978 7.41135C5.59978 8.1959 6.19001 8.82367 7.103 8.82367H7.12038C8.06861 8.82367 8.65917 8.1959 8.65917 7.41135ZM15.1568 9.74704C16.9463 9.74704 18.2879 10.9151 18.2879 13.4248L18.2878 18.1098H15.5684V13.7384C15.5684 12.6403 15.1749 11.8911 14.1905 11.8911C13.4392 11.8911 12.9917 12.3962 12.7951 12.8841C12.7232 13.0589 12.7056 13.3025 12.7056 13.5467V18.11H9.98577C9.98577 18.11 10.0216 10.7058 9.98577 9.93913H12.7056V11.0965C13.0665 10.5401 13.7129 9.74704 15.1568 9.74704Z" fill="#212934"/>
</svg>
