<svg xmlns="http://www.w3.org/2000/svg" viewBox="0 0 43.66 43.66"><defs><style>.cls-1{fill:#f2f4f9;}</style></defs><title>logo_messy_v1</title><g id="Layer_2" data-name="Layer 2"><path class="cls-1" d="M8.75,27.52l11.18-15a2.79,2.79,0,0,1,5,1.73l-.29,11.91,6.71-6.95a2.89,2.89,0,0,1,5,2v7.19a.42.42,0,0,0,.42.42h5.74A21.83,21.83,0,1,0,0,21.83a21.9,21.9,0,0,0,1.15,7h5A3.25,3.25,0,0,0,8.75,27.52Z"/><path class="cls-1" d="M32.91,28.41V22.59l-7.48,7.74a2.48,2.48,0,0,1-4.26-1.8l.3-12.32-10,13.37a6.69,6.69,0,0,1-5.36,2.69H2.66a21.84,21.84,0,0,0,38.35,0H36.77A3.86,3.86,0,0,1,32.91,28.41Z"/></g></svg>