<svg xmlns="http://www.w3.org/2000/svg" xmlns:xlink="http://www.w3.org/1999/xlink" version="1.1" id="Layer_1" x="0px" y="0px" viewBox="0 0 140 140" style="enable-background:new 0 0 140 140;" xml:space="preserve">
<style type="text/css">
	.st0{fill:#A0A0A0;}
	.st1{fill:#F1F1F1;}
	.st2{fill:none;}
	.st3{font-family:'Lato-Black';}
	.st4{font-size:12px;}
</style>







<g>
	<g>
		<path class="st1" d="M85.3,61.1c-0.6,0-1,0.4-1,1v6c0,7.7-6.3,14-14,14s-14-6.3-14-14v-6c0-0.6-0.4-1-1-1c-0.6,0-1,0.4-1,1v6    c0,8.5,6.6,15.4,15,15.9v5.1h-5c-0.6,0-1,0.4-1,1s0.4,1,1,1h12c0.6,0,1-0.4,1-1s-0.4-1-1-1h-5v-5.1c8.4-0.5,15-7.5,15-15.9v-6    C86.3,61.6,85.9,61.1,85.3,61.1z"/>
		<path class="st1" d="M70.3,79.1c6.1,0,11-4.9,11-11v-24c0-6.1-4.9-11-11-11c-6.1,0-11,4.9-11,11v24C59.3,74.2,64.3,79.1,70.3,79.1    z M61.3,44.1c0-5,4-9,9-9c5,0,9,4,9,9v24c0,5-4,9-9,9s-9-4-9-9V44.1z"/>
	</g>
</g>
</svg>