<svg xmlns="http://www.w3.org/2000/svg" width="202" height="605" fill="none" viewBox="0 0 202 605">
    <path fill="url(#a)" d="M69.144 48.957C57.042 34.855 56.542 20.852 59.342 10.65 62.142.449 89.147 3.95 100.15 4.25c11.001.4 24.503 9.501 28.704 26.804 5.101 21.003 12.102 41.106 56.209 60.81 17.402 7.8 17.002 46.607-27.304 52.607-18.903 2.601-26.004-26.204-33.506-31.304-7.401-5.101-18.603.4-26.104-9.002-7.5-9.401-4-29.504-4.7-37.006-.8-7.4-.4 52.309-8.202 51.709-11.501-.901-18.002 1-23.903-2.201-5.901-3.2-9.502-11.902-2.8-21.703 6.7-9.802 20.402-18.603 19.602-30.305-.7-11.802-9.001-15.702-9.001-15.702z"/>
    <path fill="#D4A2F3" d="M65.243 23.453c-1.7 21.303-3.4 47.707-.7 53.908 2.7 6.201 9 10.402 16.102 8.902 5.1-1.1 4.1 24.303 4.1 32.205 0 7.901 26.705-3.801 32.906-7.502 0 0-15.103-1.7-16.503-16.802-1-11.002 5.101-31.505 2.101-41.207-3.001-9.701-14.003-7.1-26.404-13.702-9.602-5.2-11.602-15.802-11.602-15.802zM51.594 169.476s-11.402 33.205-13.702 43.406c-2.3 10.202.3 12.102 3 17.103 2.6 4.901 25.904 37.406 25.904 37.406s-3.5 13.502-2.5 19.703c1 6.201 2.2 14.702 2.2 14.702L83.2 259.49s-2.3-6.201-4.6-9.202c-2.301-3-17.404-28.904-17.404-28.904l12.802-29.905-22.403-22.003z"/>
    <path fill="url(#b)" d="M48.64 178.977c-.4 13.402 14.303 24.604 14.303 24.604l4.6 51.008 79.713-.4c-.6-2.401-1.2-4.801-1.8-7.301-5.501-25.304-3.501-48.908 1.2-68.811 4.801 8.201 9.601 16.303 14.402 24.504l29.305-15.703s-25.104-57.309-26.905-61.209c-4-8.601-11.001-18.003-22.203-18.803-11.502-.7-34.405 6.101-47.007 6.601-11.802.5-29.005-6.401-36.206 2.2-8.601 10.302-16.703 53.709-16.703 53.709l7.302 9.601z"/>
    <path stroke="#68B1A3" stroke-linecap="round" stroke-linejoin="round" stroke-miterlimit="10" stroke-width="1.132" d="M64.343 21.253c2.6 10.101 6 16.302 23.504 22.503 17.502 6.201 26.004 16.203 28.104 31.805 2.7 19.503 15.102 27.604 26.204 30.705 17.903 4.901 43.507 5.001 48.307-10.902 4.801-15.902-26.404-14.702-43.306-29.705-16.903-15.002-19.103-36.405-33.405-48.807C99.448 4.45 70.344-7.852 61.142 8.25c-11.501 19.903-2.7 31.204-2.7 31.204M64.043 88.163c-5.901 7.001-23.204 18.703-9.802 30.805"/>
    <path stroke="#4F7DC6" stroke-linecap="round" stroke-linejoin="round" stroke-miterlimit="10" stroke-width="1.132" d="M48.64 178.977c.4-5.701 3-12.802 4.401-16.003 1.4-3.2 3.7-11.701 4.2-14.202M146.556 178.177s-7.301-14.502-9.202-18.103M76.744 116.567c9.302 6.601 25.504-.1 36.806-4.7 11.302-4.701 21.103-4.201 21.103-4.201"/>
    <path fill="#2856B7" d="M147.155 254.189c17.303 29.004 23.504 68.01 17.403 105.416-6.101 37.406-12.702 73.412-13.202 83.213-.5 9.802 6.701 51.508 4 78.212-2.7 26.704-10.701 53.309-10.701 53.309h-22.904s-4.6-108.417-7.301-129.721c-2.7-21.303-14.702-75.711-14.702-75.711s-5.901 18.303-13.402 42.506c-6.501 18.803-14.002 31.905-13.802 39.906.3 11.102 1 31.105.6 43.307-.6 20.903-1.5 41.807-7.201 79.713-1.1 7.501-15.103 0-22.604 0 0 0-9.301-108.117-8.701-126.32.7-18.203 10.601-78.412 15.702-117.618 5.401-41.407 17.303-75.812 17.303-75.812l79.512-.4z"/>
    <path fill="#2E2E3F" d="M99.748 368.907s-8.302-50.608-13.602-54.209c-5.401-3.6-5.701 56.809-11.702 94.515-6.001 37.606-1.7 37.806-1.7 37.806 4.3-10.402 8.6-21.403 12.701-32.905 5.501-15.703 10.302-30.805 14.303-45.207z" opacity=".55"/>
    <path fill="#D4A2F3" d="M190.263 186.878s11.101 25.104 11.001 30.605c-.2 9.101-6.301 14.502-14.202 16.702-2.9.801-76.312 2.501-88.714 5.301-8.701 1.901-11.902 4.801-17.102 4.001-5.201-.7-5.901-2.6-5.901-2.6s-2-.201-3.7-1.801c-1.501-1.4-2.201-2.7-2.201-2.7s-.9-.1-2.6-2.401c-.9-1.2-.8-2.4-.8-2.4s-10.102-3.6-10.002-7.901c.1-1.8 9.401 2 14.502 1.3 3.1-.4 14.302-3.1 14.302-3.1s-8.601-6.801-6.3-8.602c2.7-2.2 8.1 3.101 13.001 4.901 2.7 1 7.301 2.4 9.602 3 4.1 1.101 50.207-10.401 63.61-12.301l-3.901-6.401 29.405-15.603zM43.24 574.339l.3 10.201h21.503l.8-10.201H43.239zM121.852 574.339l-.401 10.201h21.304l2-10.201h-22.903z"/>
    <path fill="#1E1B4E" d="M64.843 584.54s2.2 19.103-.4 19.603c-2.7.5-61.81 1.7-63.51-.1-2-2.2-.7-4.901 3.1-6.301 4.1-1.4 10.502-3.601 19.203-6.501 11.102-3.601 17.003-5.201 20.403-6.701h21.204zM142.755 584.54s2.201 19.103-.4 19.603c-2.7.5-61.81 1.7-63.51-.1-2-2.2-.7-4.901 3.1-6.301 4.101-1.4 10.502-3.601 19.204-6.501 11.101-3.601 17.002-5.201 20.403-6.701h21.203z"/>
    <defs>
        <radialGradient id="a" cx="0" cy="0" r="1" gradientTransform="translate(195.353 25.346) scale(143.205)" gradientUnits="userSpaceOnUse">
            <stop stop-color="#56BEB6"/>
            <stop offset=".948" stop-color="#A3DCB2"/>
        </radialGradient>
        <linearGradient id="b" x1="115.851" x2="115.851" y1="268.845" y2="128.867" gradientUnits="userSpaceOnUse">
            <stop offset=".002" stop-color="#5D76FF"/>
            <stop offset="1" stop-color="#8B95D7"/>
        </linearGradient>
    </defs>
</svg>
