<svg width="24" height="24" viewBox="0 0 24 24" fill="none" xmlns="http://www.w3.org/2000/svg">
<path fill-rule="evenodd" clip-rule="evenodd" d="M12 0C5.37258 0 0 5.37258 0 12C0 18.6274 5.37258 24 12 24C18.6274 24 24 18.6274 24 12C24 5.37258 18.6274 0 12 0ZM11.6658 10.169L11.6406 9.7538C11.5651 8.6776 12.2282 7.69461 13.2774 7.31328C13.6635 7.1777 14.3182 7.16075 14.7463 7.27938C14.9142 7.33023 15.2331 7.49971 15.4598 7.65224L15.8711 7.93188L16.3243 7.78783C16.5761 7.71156 16.9119 7.58445 17.063 7.49971C17.2057 7.42344 17.3316 7.38107 17.3316 7.40649C17.3316 7.55055 17.021 8.04205 16.7608 8.31322C16.4083 8.69455 16.509 8.72844 17.2224 8.47422C17.6505 8.33016 17.6589 8.33016 17.575 8.49117C17.5246 8.57591 17.2644 8.8725 16.9874 9.14367C16.5174 9.60974 16.4922 9.66058 16.4922 10.0504C16.4922 10.652 16.2068 11.9062 15.9214 12.5926C15.3926 13.8806 14.2595 15.2111 13.1263 15.8805C11.5315 16.8211 9.40786 17.0584 7.61999 16.5076C7.02404 16.3212 6 15.8466 6 15.7619C6 15.7365 6.31057 15.7026 6.68829 15.6941C7.4773 15.6771 8.26631 15.4568 8.93781 15.067L9.39108 14.7958L8.87066 14.6179C8.13201 14.3637 7.46891 13.779 7.30103 13.2281C7.25067 13.0502 7.26746 13.0417 7.73751 13.0417L8.22434 13.0332L7.81305 12.8383C7.32621 12.5926 6.88134 12.1774 6.66311 11.7537C6.50362 11.4486 6.30218 10.6775 6.36093 10.6181C6.37772 10.5927 6.55399 10.6436 6.75544 10.7114C7.33461 10.9232 7.41015 10.8724 7.0744 10.5165C6.44487 9.87243 6.25181 8.91487 6.55399 8.00815L6.69668 7.6014L7.25067 8.15221C8.38383 9.26231 9.71843 9.92328 11.2461 10.1182L11.6658 10.169Z" fill="#222B36"/>
</svg>
