<svg width="24" height="24" viewBox="0 0 24 24" fill="none" xmlns="http://www.w3.org/2000/svg">
<path fill-rule="evenodd" clip-rule="evenodd" d="M12 0C5.37258 0 0 5.37258 0 12C0 18.6274 5.37258 24 12 24C18.6274 24 24 18.6274 24 12C24 5.37258 18.6274 0 12 0ZM17.0012 7.87457C17.552 8.0257 17.9857 8.47101 18.1329 9.03651C18.4004 10.0614 18.4004 12.1999 18.4004 12.1999C18.4004 12.1999 18.4004 14.3383 18.1329 15.3633C17.9857 15.9288 17.552 16.3741 17.0012 16.5253C16.0031 16.7999 12.0004 16.7999 12.0004 16.7999C12.0004 16.7999 7.9977 16.7999 6.99952 16.5253C6.44875 16.3741 6.01501 15.9288 5.86781 15.3633C5.60039 14.3383 5.60039 12.1999 5.60039 12.1999C5.60039 12.1999 5.60039 10.0614 5.86781 9.03651C6.01501 8.47101 6.44875 8.0257 6.99952 7.87457C7.9977 7.5999 12.0004 7.5999 12.0004 7.5999C12.0004 7.5999 16.0031 7.5999 17.0012 7.87457Z" fill="#444444"/>
<path d="M10.8008 14.3999V10.3999L14.0008 12.4L10.8008 14.3999Z" fill="#444444"/>
</svg>
