<?xml version="1.0" encoding="utf-8"?>
<!-- Generator: Adobe Illustrator 22.1.0, SVG Export Plug-In . SVG Version: 6.00 Build 0)  -->
<svg version="1.1" id="Layer_1" xmlns="http://www.w3.org/2000/svg" xmlns:xlink="http://www.w3.org/1999/xlink" x="0px" y="0px"
	 viewBox="0 0 103.4 102.8" style="enable-background:new 0 0 103.4 102.8;" xml:space="preserve">
<style type="text/css">
	.st0{fill:none;stroke:#5FAAC4;stroke-width:10.6887;stroke-miterlimit:10;}
	.st1{fill:#5FAAC4;}
	.st2{fill:none;stroke:#5FAAC4;stroke-width:9.6199;stroke-linecap:round;stroke-linejoin:round;stroke-miterlimit:10;}
</style>
<circle class="st0" cx="52" cy="51.4" r="45.9"/>
<g>
	<path class="st1" d="M52.3,63.8h-4.6c-0.5,0-0.9-0.1-1.2-0.4c-0.3-0.2-0.6-0.5-0.7-0.9l-1.5-4.4h-9.7l-1.5,4.4
		c-0.1,0.3-0.4,0.6-0.7,0.9c-0.3,0.3-0.7,0.4-1.2,0.4h-4.6l9.9-25.5h6.1L52.3,63.8z M42.9,54.1l-2.4-7c-0.2-0.4-0.4-1-0.6-1.6
		c-0.2-0.6-0.4-1.3-0.6-1.9c-0.2,0.7-0.4,1.4-0.6,2c-0.2,0.6-0.4,1.1-0.6,1.6l-2.3,6.9H42.9z"/>
	<path class="st1" d="M77.4,51.1c0,1.8-0.3,3.5-1,5.1c-0.6,1.6-1.5,2.9-2.7,4c-1.2,1.1-2.5,2-4.2,2.7c-1.6,0.6-3.4,1-5.4,1h-9.9
		V38.3h9.9c2,0,3.8,0.3,5.4,1c1.6,0.6,3,1.5,4.2,2.7c1.2,1.1,2,2.5,2.7,4C77.1,47.5,77.4,49.2,77.4,51.1z M71.4,51.1
		c0-1.3-0.2-2.4-0.5-3.4c-0.3-1-0.8-1.9-1.4-2.6c-0.6-0.7-1.4-1.2-2.2-1.6c-0.9-0.4-1.9-0.6-3-0.6h-4v16.4h4c1.1,0,2.1-0.2,3-0.6
		c0.9-0.4,1.6-0.9,2.2-1.6c0.6-0.7,1.1-1.6,1.4-2.6C71.2,53.5,71.4,52.3,71.4,51.1z"/>
</g>
<line class="st2" x1="65.6" y1="26.2" x2="74.6" y2="11.5"/>
<line class="st2" x1="29.2" y1="89.9" x2="39.5" y2="73.3"/>
</svg>
