<?xml version="1.0" encoding="utf-8"?>
<!-- Generator: Adobe Illustrator 22.1.0, SVG Export Plug-In . SVG Version: 6.00 Build 0)  -->
<svg version="1.1" id="Layer_1" xmlns="http://www.w3.org/2000/svg" xmlns:xlink="http://www.w3.org/1999/xlink" x="0px" y="0px"
	 viewBox="0 0 193.5 113.3" style="enable-background:new 0 0 193.5 113.3;" xml:space="preserve">
<style type="text/css">
	.st0{fill:none;stroke:#7884C1;stroke-width:5.2284;stroke-miterlimit:10;}
	.st1{fill:#7884C1;}
	.st2{fill:none;stroke:#7884C1;stroke-width:4.7055;stroke-linecap:round;stroke-linejoin:round;stroke-miterlimit:10;}
	.st3{fill:#7884C1;stroke:#7884C1;stroke-width:2.0914;stroke-miterlimit:10;}
	.st4{fill:#7884C1;stroke:#7884C1;stroke-width:3;stroke-miterlimit:10;}
	.st5{fill:#7884C1;stroke:#7884C1;stroke-width:5.2284;stroke-miterlimit:10;}
</style>
<circle class="st0" cx="167.7" cy="26.1" r="22.4"/>
<g>
	<path class="st1" d="M167.8,32.7h-2.2c-0.3,0-0.5-0.1-0.6-0.2c-0.2-0.1-0.3-0.3-0.4-0.4l-0.7-2.2h-4.7l-0.7,2.2
		c-0.1,0.2-0.2,0.3-0.3,0.4c-0.2,0.1-0.4,0.2-0.6,0.2h-2.3l4.8-12.5h3L167.8,32.7z M163.2,28l-1.2-3.4c-0.1-0.2-0.2-0.5-0.3-0.8
		c-0.1-0.3-0.2-0.6-0.3-1c-0.1,0.3-0.2,0.7-0.3,1c-0.1,0.3-0.2,0.6-0.3,0.8l-1.1,3.4H163.2z"/>
	<path class="st1" d="M180.1,26.5c0,0.9-0.2,1.7-0.5,2.5c-0.3,0.8-0.7,1.4-1.3,2c-0.6,0.6-1.2,1-2,1.3c-0.8,0.3-1.7,0.5-2.6,0.5
		h-4.8V20.3h4.8c1,0,1.9,0.2,2.6,0.5c0.8,0.3,1.5,0.7,2,1.3c0.6,0.6,1,1.2,1.3,2C180,24.8,180.1,25.6,180.1,26.5z M177.2,26.5
		c0-0.6-0.1-1.2-0.2-1.7c-0.2-0.5-0.4-0.9-0.7-1.3c-0.3-0.3-0.7-0.6-1.1-0.8c-0.4-0.2-0.9-0.3-1.5-0.3h-1.9v8h1.9
		c0.6,0,1-0.1,1.5-0.3c0.4-0.2,0.8-0.5,1.1-0.8c0.3-0.3,0.5-0.8,0.7-1.3C177.1,27.7,177.2,27.1,177.2,26.5z"/>
</g>
<line class="st2" x1="174.3" y1="13.8" x2="178.9" y2="6.2"/>
<line class="st2" x1="156.5" y1="44.9" x2="161.6" y2="36.8"/>
<path class="st3" d="M138.4,111.9H3.6c-1.3,0-2.3-1-2.3-2.3v0c0-1.3,1-2.3,2.3-2.3h134.8c1.3,0,2.3,1,2.3,2.3v0
	C140.7,110.8,139.7,111.9,138.4,111.9z"/>
<path class="st4" d="M12.9,109.9V77.5c0-1.5,1.2-2.7,2.7-2.7h13.1c1.5,0,2.7,1.2,2.7,2.7v31.7"/>
<path class="st4" d="M45.5,108.9V54.5c0-1.5,1.2-2.7,2.7-2.7h13.1c1.5,0,2.7,1.2,2.7,2.7v54.5"/>
<path class="st4" d="M78.1,108.9V65.9c0-1.5,1.2-2.7,2.7-2.7h13.1c1.5,0,2.7,1.2,2.7,2.7v43.4"/>
<path class="st4" d="M110.5,108.9V38.2c0-1.5,1.2-2.7,2.7-2.7h13.1c1.5,0,2.7,1.2,2.7,2.7v70.7"/>
<path class="st5" d="M22.1,56.3L22.1,56.3c-2.5,0-4.5-2-4.5-4.5v0c0-2.5,2-4.5,4.5-4.5h0c2.5,0,4.5,2,4.5,4.5v0
	C26.6,54.3,24.6,56.3,22.1,56.3z"/>
<path class="st5" d="M54.7,32.5L54.7,32.5c-2.5,0-4.5-2-4.5-4.5v0c0-2.5,2-4.5,4.5-4.5h0c2.5,0,4.5,2,4.5,4.5v0
	C59.2,30.5,57.2,32.5,54.7,32.5z"/>
<path class="st5" d="M87.3,44.5L87.3,44.5c-2.5,0-4.5-2-4.5-4.5v0c0-2.5,2-4.5,4.5-4.5h0c2.5,0,4.5,2,4.5,4.5v0
	C91.8,42.5,89.8,44.5,87.3,44.5z"/>
<path class="st5" d="M120.1,14.2L120.1,14.2c-2.5,0-4.5-2-4.5-4.5v0c0-2.5,2-4.5,4.5-4.5h0c2.5,0,4.5,2,4.5,4.5v0
	C124.6,12.2,122.6,14.2,120.1,14.2z"/>
<polyline class="st0" points="22.1,51.8 54.7,28 87.3,40 120.1,9.7 "/>
</svg>
