<?xml version="1.0" encoding="utf-8"?>
<!-- Generator: Adobe Illustrator 22.1.0, SVG Export Plug-In . SVG Version: 6.00 Build 0)  -->
<svg version="1.1" id="Layer_1" xmlns="http://www.w3.org/2000/svg" xmlns:xlink="http://www.w3.org/1999/xlink" x="0px" y="0px"
	 viewBox="0 0 141.8 110.6" style="enable-background:new 0 0 141.8 110.6;" xml:space="preserve">
<style type="text/css">
	.st0{fill:#5D97C6;stroke:#5D97C6;stroke-width:2.0914;stroke-miterlimit:10;}
	.st1{fill:#5D97C6;stroke:#5D97C6;stroke-width:3;stroke-miterlimit:10;}
	.st2{fill:#5D97C6;stroke:#5D97C6;stroke-width:5.2284;stroke-miterlimit:10;}
	.st3{fill:none;stroke:#5D97C6;stroke-width:5.2284;stroke-miterlimit:10;}
</style>
<path class="st0" d="M138.3,109.5H3.5c-1.3,0-2.3-1-2.3-2.3v0c0-1.3,1-2.3,2.3-2.3h134.8c1.3,0,2.3,1,2.3,2.3v0
	C140.6,108.5,139.6,109.5,138.3,109.5z"/>
<path class="st1" d="M12.8,107.5V75.1c0-1.5,1.2-2.7,2.7-2.7h13.1c1.5,0,2.7,1.2,2.7,2.7v31.7"/>
<path class="st1" d="M45.4,106.5V52.1c0-1.5,1.2-2.7,2.7-2.7h13.1c1.5,0,2.7,1.2,2.7,2.7v54.5"/>
<path class="st1" d="M78,106.5V63.5c0-1.5,1.2-2.7,2.7-2.7h13.1c1.5,0,2.7,1.2,2.7,2.7v43.4"/>
<path class="st1" d="M110.4,106.5V35.8c0-1.5,1.2-2.7,2.7-2.7h13.1c1.5,0,2.7,1.2,2.7,2.7v70.7"/>
<path class="st2" d="M22,53.9L22,53.9c-2.5,0-4.5-2-4.5-4.5v0c0-2.5,2-4.5,4.5-4.5h0c2.5,0,4.5,2,4.5,4.5v0
	C26.5,51.9,24.5,53.9,22,53.9z"/>
<path class="st2" d="M54.6,30.1L54.6,30.1c-2.5,0-4.5-2-4.5-4.5v0c0-2.5,2-4.5,4.5-4.5h0c2.5,0,4.5,2,4.5,4.5v0
	C59.1,28.1,57.1,30.1,54.6,30.1z"/>
<path class="st2" d="M87.2,42.1L87.2,42.1c-2.5,0-4.5-2-4.5-4.5v0c0-2.5,2-4.5,4.5-4.5h0c2.5,0,4.5,2,4.5,4.5v0
	C91.7,40.1,89.7,42.1,87.2,42.1z"/>
<path class="st2" d="M120.1,11.8L120.1,11.8c-2.5,0-4.5-2-4.5-4.5v0c0-2.5,2-4.5,4.5-4.5h0c2.5,0,4.5,2,4.5,4.5v0
	C124.5,9.8,122.5,11.8,120.1,11.8z"/>
<polyline class="st3" points="22,49.4 54.6,25.6 87.2,37.7 120.1,7.3 "/>
</svg>
