<?xml version="1.0" encoding="utf-8"?>
<!-- Generator: Adobe Illustrator 22.1.0, SVG Export Plug-In . SVG Version: 6.00 Build 0)  -->
<svg version="1.1" id="Layer_1" xmlns="http://www.w3.org/2000/svg" xmlns:xlink="http://www.w3.org/1999/xlink" x="0px" y="0px"
	 viewBox="0 0 102.1 102" style="enable-background:new 0 0 102.1 102;" xml:space="preserve">
<style type="text/css">
	.st0{fill:#D687CE;stroke:#D687CE;stroke-width:1.5;stroke-miterlimit:10;}
	.st1{fill:#FFFFFF;stroke:#FFFFFF;stroke-width:2.2544;stroke-linecap:round;stroke-linejoin:round;stroke-miterlimit:10;}
	.st2{fill:#D687CE;}
</style>
<g>
	<path class="st0" d="M92.6,0.9H9.2c-4.6,0-8.3,3.7-8.3,8.3v83.4c0,4.6,3.7,8.3,8.3,8.3h83.4c4.6,0,8.3-3.7,8.3-8.3V9.2
		C101,4.6,97.3,0.9,92.6,0.9z M92.6,97.6H9.2c-2.8,0-5-2.2-5-5V17.5h93.4v75.1C97.7,95.4,95.4,97.6,92.6,97.6z"/>
	<path class="st1" d="M9.6,8.1h2.8v2.8H9.6V8.1z"/>
	<path class="st1" d="M17.4,8.1h2.8v2.8h-2.8V8.1z"/>
	<path class="st1" d="M25.3,8.1h2.8v2.8h-2.8V8.1z"/>
	<g>
		<g>
			<path class="st2" d="M57,37.2c-3.5,0-6.9,0.9-9.9,2.7c-2.7,1.6-4.9,3.8-6.6,6.4h-7.4c-3,0-5.5,2.5-5.5,5.5v9.9
				c0,3,2.5,5.5,5.5,5.5h7.4c1.7,2.6,3.9,4.8,6.6,6.4c3,1.8,6.4,2.7,9.9,2.7c0.8,0,1.4-0.6,1.4-1.4V38.6
				C58.4,37.8,57.8,37.2,57,37.2z"/>
			<path class="st2" d="M63.9,45.8c-0.6-0.4-1.5-0.3-2,0.4c-0.4,0.6-0.3,1.5,0.4,2c2.8,2,4.5,5.2,4.5,8.6c0,3.4-1.7,6.6-4.5,8.6
				c-0.6,0.4-0.8,1.3-0.4,2c0.3,0.4,0.7,0.6,1.2,0.6c0.3,0,0.6-0.1,0.8-0.2c3.6-2.5,5.7-6.6,5.7-10.9S67.5,48.3,63.9,45.8z"/>
			<path class="st2" d="M69.4,40c-0.6-0.4-1.5-0.3-2,0.4c-0.4,0.6-0.3,1.5,0.4,2c4.7,3.3,7.5,8.7,7.5,14.4S72.5,67.8,67.8,71
				c-0.6,0.4-0.8,1.3-0.4,2c0.3,0.4,0.7,0.6,1.2,0.6c0.3,0,0.6-0.1,0.8-0.2c5.5-3.8,8.7-10.1,8.7-16.7S74.8,43.8,69.4,40z"/>
		</g>
	</g>
</g>
</svg>
