<?xml version="1.0" encoding="utf-8"?>
<!-- Generator: Adobe Illustrator 22.1.0, SVG Export Plug-In . SVG Version: 6.00 Build 0)  -->
<svg version="1.1" id="Layer_1" xmlns="http://www.w3.org/2000/svg" xmlns:xlink="http://www.w3.org/1999/xlink" x="0px" y="0px"
	 viewBox="0 0 179.4 117.1" style="enable-background:new 0 0 179.4 117.1;" xml:space="preserve">
<style type="text/css">
	.st0{fill:#EAB97F;}
	.st1{fill:#EAB97F;stroke:#EAB97F;stroke-width:0.3489;stroke-miterlimit:10;}
	.st2{fill:none;stroke:#EAB97F;stroke-width:3.2;stroke-linecap:round;stroke-linejoin:round;}
	.st3{fill:none;stroke:#EAB97F;stroke-width:3.2;stroke-linecap:round;stroke-linejoin:round;stroke-dasharray:6.951209e-02,5.561;}
</style>
<g>
	<path class="st0" d="M0.1,92.8L0,39.7c0-2.6,2.7-4.4,5.1-3.4l48.3,20.7c1.3,0.6,2.2,1.9,2.2,3.3l0.1,53.1c0,2.6-2.7,4.4-5.1,3.4
		L2.3,96.2C1,95.6,0.1,94.3,0.1,92.8z M110.9,42.2L66.3,61.6l0.1,49.1L111,91.4L110.9,42.2 M112.7,35.8c1.9,0,3.6,1.5,3.6,3.6
		l0.1,53.1c0,1.5-0.9,2.8-2.2,3.3L66,116.8c-0.5,0.2-1,0.3-1.4,0.3c-1.9,0-3.6-1.5-3.6-3.6l-0.1-53.1c0-1.5,0.9-2.8,2.2-3.3
		l48.2-20.9C111.7,35.9,112.2,35.8,112.7,35.8L112.7,35.8z M57.9,5.9L11.6,26.6L58,47l46.3-20.7L57.9,5.9 M57.9,0.3
		c0.5,0,1,0.1,1.5,0.3L110.2,23c2.9,1.3,2.9,5.4,0,6.6L59.5,52.3c-0.5,0.2-1,0.3-1.5,0.3c-0.5,0-1-0.1-1.5-0.3L5.7,29.9
		c-2.9-1.3-2.9-5.4,0-6.6L56.4,0.6C56.9,0.4,57.4,0.3,57.9,0.3L57.9,0.3z"/>
</g>
<g>
	<g>
		<g>
			<path class="st1" d="M179,51c0-0.1,0-0.1,0-0.2c0,0,0,0,0-0.1c0,0,0-0.1,0-0.1c0,0,0,0,0-0.1c0-0.1,0-0.1-0.1-0.1c0,0,0,0,0,0
				c0,0-0.1-0.1-0.1-0.1c0,0,0,0,0,0c0,0-0.1-0.1-0.1-0.1c0,0,0,0,0,0c0,0-0.1,0-0.1-0.1c0,0,0,0,0,0l0,0l-23.6-9.6
				c-0.3-0.1-0.7-0.1-1,0.2c-0.3,0.2-0.4,0.6-0.2,1l3.1,9.3l-3.1,9.3c-0.1,0.3,0,0.7,0.2,1c0.2,0.2,0.4,0.3,0.6,0.3
				c0.1,0,0.2,0,0.3-0.1l23.6-9.6c0,0,0,0,0,0s0,0,0,0c0,0,0.1,0,0.1-0.1c0,0,0,0,0,0c0,0,0.1-0.1,0.1-0.1c0,0,0,0,0,0
				c0,0,0.1-0.1,0.1-0.1l0,0c0,0,0.1-0.1,0.1-0.1c0,0,0,0,0-0.1c0,0,0-0.1,0-0.1c0,0,0,0,0-0.1C178.9,51.1,179,51,179,51L179,51
				L179,51L179,51z M155.9,43l17.4,7.1h-15L155.9,43z M158.3,51.9h15l-17.4,7.1L158.3,51.9z"/>
		</g>
	</g>
	<g>
		<g>
			<line class="st2" x1="150.5" y1="51" x2="150.4" y2="51"/>
			<path class="st3" d="M144.9,51H139c-5.4,0-9.8,4.4-9.8,9.8s4.4,9.8,9.8,9.8l6.5,0l22.7,0c5.4,0,9.8,4.4,9.8,9.8s-4.4,9.8-9.8,9.8
				h-10.9h-19.3h-5.9"/>
			<line class="st2" x1="129.3" y1="90" x2="129.3" y2="90"/>
		</g>
	</g>
</g>
</svg>
