<?xml version="1.0" encoding="utf-8"?>
<!-- Generator: Adobe Illustrator 22.1.0, SVG Export Plug-In . SVG Version: 6.00 Build 0)  -->
<svg version="1.1" id="Layer_1" xmlns="http://www.w3.org/2000/svg" xmlns:xlink="http://www.w3.org/1999/xlink" x="0px" y="0px"
	 viewBox="0 0 174.9 116.8" style="enable-background:new 0 0 174.9 116.8;" xml:space="preserve">
<style type="text/css">
	.st0{fill:#91E2A2;}
</style>
<g>
	<path class="st0" d="M0.1,92.6L0,39.5c0-2.6,2.7-4.4,5.1-3.4l48.3,20.7c1.3,0.6,2.2,1.9,2.2,3.3l0.1,53.1c0,2.6-2.7,4.4-5.1,3.4
		L2.3,95.9C1,95.3,0.1,94,0.1,92.6z M110.9,42L66.3,61.3l0.1,49.1L111,91.1L110.9,42 M112.7,35.5c1.9,0,3.6,1.5,3.6,3.6l0.1,53.1
		c0,1.5-0.9,2.8-2.2,3.3L66,116.5c-0.5,0.2-1,0.3-1.4,0.3c-1.9,0-3.6-1.5-3.6-3.6l-0.1-53.1c0-1.5,0.9-2.8,2.2-3.3l48.2-20.9
		C111.7,35.6,112.2,35.5,112.7,35.5L112.7,35.5z M57.9,5.6L11.6,26.3L58,46.7l46.3-20.7L57.9,5.6 M57.9,0c0.5,0,1,0.1,1.5,0.3
		l50.9,22.4c2.9,1.3,2.9,5.4,0,6.6L59.5,52c-0.5,0.2-1,0.3-1.5,0.3c-0.5,0-1-0.1-1.5-0.3L5.7,29.6c-2.9-1.3-2.9-5.4,0-6.6L56.4,0.3
		C56.9,0.1,57.4,0,57.9,0L57.9,0z"/>
</g>
<path class="st0" d="M127.2,66.2c0,12.8,10.7,23.2,23.9,23.2s23.9-10.4,23.9-23.2S164.2,43,151,43S127.2,53.4,127.2,66.2z
	 M170.6,66.2c0,10.5-8.8,19-19.5,19s-19.5-8.5-19.5-19c0-10.5,8.8-19,19.5-19S170.6,55.7,170.6,66.2z"/>
<path class="st0" d="M148.4,53.5V56c-2.5,0.9-4.3,3.2-4.3,6c0,3.5,2.9,6.3,6.5,6.3c1.2,0,2.2,0.9,2.2,2.1s-1,2.1-2.2,2.1
	c-0.9,0-1.9-0.6-2.8-1.6c-0.8-0.9-2.1-1-3.1-0.3c-0.9,0.7-1,2.1-0.3,3c1.2,1.3,2.5,2.3,4,2.7v2.5c0,1.2,1,2.1,2.2,2.1
	c1.2,0,2.2-0.9,2.2-2.1v-2.5c2.5-0.9,4.3-3.2,4.3-6c0-3.5-2.9-6.3-6.5-6.3c-1.2,0-2.2-0.9-2.2-2.1s1-2.1,2.2-2.1
	c0.8,0,1.6,0.4,2.3,1.1c0.9,0.8,2.2,0.8,3.1,0c0.8-0.8,0.8-2.2,0-3c-1.1-1-2.2-1.6-3.2-1.9v-2.5c0-1.2-1-2.1-2.2-2.1
	C149.4,51.4,148.4,52.4,148.4,53.5z"/>
</svg>
