<?xml version="1.0" encoding="utf-8"?>
<!-- Generator: Adobe Illustrator 22.1.0, SVG Export Plug-In . SVG Version: 6.00 Build 0)  -->
<svg version="1.1" id="Layer_1" xmlns="http://www.w3.org/2000/svg" xmlns:xlink="http://www.w3.org/1999/xlink" x="0px" y="0px"
	 viewBox="0 0 111 111.2" style="enable-background:new 0 0 111 111.2;" xml:space="preserve">
<style type="text/css">
	.st0{fill:#9B75C6;}
	.st1{fill:#9771B5;}
</style>
<g>
	<path class="st0" d="M84.1,5.2c6.8,0,12.3,5.5,12.3,12.3V84c0,6.8-5.5,12.3-12.3,12.3H17.6c-6.8,0-12.3-5.5-12.3-12.3V17.5
		c0-6.8,5.5-12.3,12.3-12.3H84.1 M84.1,0.4H17.6C8.2,0.4,0.5,8.1,0.5,17.5V84c0,9.4,7.7,17.1,17.1,17.1h66.5
		c9.4,0,17.1-7.7,17.1-17.1V17.5C101.2,8.1,93.6,0.4,84.1,0.4L84.1,0.4z"/>
</g>
<g>
	<g>
		<path class="st0" d="M33.5,76.1c-4.8,0-8.7-3.5-8.7-7.9s3.9-7.9,8.7-7.9c2.5,0,4.7,0.9,6.4,2.5V33.8c0-0.6,0.4-1.1,1-1.1l26-3.4
			c0.1,0,0.1,0,0.1,0c0.3,0,0.6,0.1,0.8,0.3c0.3,0.2,0.4,0.5,0.4,0.9v29.5l0,0.1c-0.1,4.2-4,7.7-8.7,7.7c-4.8,0-8.7-3.5-8.7-7.9
			s3.9-7.9,8.7-7.9c2.5,0,4.7,0.9,6.4,2.5V40.3l-23.7,3.1v24.1c0,0.1,0,0.1,0,0.2c0,0.1,0,0.3,0,0.5C42.2,72.5,38.3,76.1,33.5,76.1z
			"/>
	</g>
	<g>
		<path class="st0" d="M67,29.6c0.2,0,0.4,0.1,0.6,0.2c0.2,0.2,0.3,0.4,0.3,0.6v5.1V39v20.9c0,0,0,0,0,0c-0.1,4.1-3.8,7.4-8.4,7.4
			c-4.6,0-8.4-3.4-8.4-7.6s3.8-7.6,8.4-7.6c2.7,0,5.2,1.2,6.7,3V39.9l-24.3,3.2v24.3c0,0.1,0,0.1,0,0.2c0,0.2,0,0.4,0,0.6
			c0,4.2-3.8,7.6-8.4,7.6c-4.6,0-8.4-3.4-8.4-7.6s3.8-7.6,8.4-7.6c2.7,0,5.2,1.2,6.7,3V42.4v-3.5v-5.1c0-0.4,0.3-0.8,0.7-0.8l26-3.4
			C67,29.6,67,29.6,67,29.6 M67,28.9c-0.1,0-0.1,0-0.2,0l-26,3.4c-0.7,0.1-1.3,0.7-1.3,1.5v5.1v3.5v19.8c-1.7-1.4-3.8-2.1-6.1-2.1
			c-5,0-9,3.7-9,8.2s4.1,8.2,9,8.2s9-3.7,9-8.2c0-0.2,0-0.4,0-0.5c0-0.1,0-0.1,0-0.2V43.7l23.1-3v13.1c-1.7-1.4-3.8-2.1-6.1-2.1
			c-5,0-9,3.7-9,8.2s4.1,8.2,9,8.2c4.9,0,8.9-3.6,9-8l0,0l0-0.1V39v-3.5v-5.1c0-0.4-0.2-0.8-0.5-1.1C67.7,29,67.4,28.9,67,28.9
			L67,28.9z"/>
	</g>
</g>
<path class="st1" d="M105.9,84.1v-69c0,0,5,6.1,5,14.2v54.6c0,0,1,10.5-7.4,19.2s-19.9,8.1-19.9,8.1H30.8c0,0-9.8,0-15.8-5.1
	c-6.1-5.1,0,0,0,0h70c0,0,8.2,0,13.7-5.5C104.2,95.1,105.4,91.3,105.9,84.1z"/>
</svg>
