<svg width="26" height="26" viewBox="0 0 26 26" fill="none" xmlns="http://www.w3.org/2000/svg">
<path d="M14.4067 14.4634C14.0291 14.065 13.3659 13.8096 12.583 13.8096C11.8 13.8096 11.1368 14.065 10.7592 14.4634C10.5622 14.6713 10.458 14.8844 10.4252 15.188C10.3616 15.7759 10.3973 16.2821 10.4662 17.0914C10.5318 17.8626 10.6564 18.891 10.819 19.9384C10.9347 20.6838 11.0287 21.0861 11.1143 21.3742C11.2531 21.8411 11.7718 22.2494 12.583 22.2494C13.3941 22.2494 13.9128 21.841 14.0516 21.3742C14.1372 21.0861 14.2312 20.6838 14.3469 19.9384C14.5095 18.891 14.6341 17.8626 14.6997 17.0914C14.7686 16.282 14.8043 15.7758 14.7407 15.188C14.7079 14.8845 14.6037 14.6713 14.4067 14.4634ZM10.5256 10.9161C10.5256 12.0534 11.4476 12.9754 12.5849 12.9754C13.7223 12.9754 14.6443 12.0534 14.6443 10.9161C14.6443 9.7787 13.7223 8.8567 12.5849 8.8567C11.4476 8.8567 10.5256 9.7787 10.5256 10.9161ZM12.5594 2.7891C7.74312 2.8028 3.79662 6.7101 3.73702 11.5261C3.68862 15.4274 6.17902 18.7646 9.65652 19.9878C9.74092 20.0175 9.82662 19.9474 9.81332 19.8589C9.76772 19.556 9.72472 19.2516 9.68522 18.9523C9.67122 18.8465 9.60382 18.7553 9.50612 18.7126C6.75752 17.5118 4.83822 14.7552 4.86902 11.5621C4.90942 7.3717 8.33122 3.9555 12.5216 3.9216C16.8055 3.887 20.3016 7.3618 20.3016 11.6378C20.3016 14.7989 18.3907 17.5217 15.6635 18.7129C15.5658 18.7556 15.4988 18.8471 15.4849 18.9528C15.4454 19.252 15.4024 19.5563 15.3569 19.8589C15.3435 19.9474 15.4292 20.0175 15.5136 19.9879C18.9579 18.7764 21.4338 15.4911 21.4338 11.6379C21.4336 6.75 17.4503 2.7751 12.5594 2.7891ZM12.3995 6.8486C15.1298 6.7429 17.3846 8.9333 17.3846 11.6405C17.3846 13.0173 16.8013 14.2603 15.869 15.1357C15.7899 15.2099 15.7474 15.3153 15.7535 15.4236C15.7721 15.7529 15.7653 16.0729 15.7434 16.4343C15.7375 16.5306 15.8455 16.5921 15.9252 16.5378C17.4886 15.4694 18.5169 13.6729 18.5169 11.6405C18.5169 8.2941 15.7295 5.5864 12.3546 5.7172C9.21822 5.8388 6.70192 8.4247 6.66172 11.5633C6.63532 13.6275 7.66992 15.4562 9.25342 16.538C9.33292 16.5923 9.44062 16.5307 9.43472 16.4345C9.41272 16.0729 9.40602 15.7529 9.42452 15.4236C9.43062 15.3154 9.38822 15.21 9.30932 15.1359C8.34792 14.2333 7.75752 12.9398 7.79512 11.5118C7.86132 8.9988 9.88742 6.9459 12.3995 6.8486Z" fill="#49494B"/>
</svg>
