<svg xmlns="http://www.w3.org/2000/svg" width="605" height="765" fill="none" viewBox="0 0 605 765">
    <path fill="url(#a)" d="M604.401 723.45c0-148.5-2.5-268-2.5-366.3 0-144-147.7-193.5-238-94.7-66 72.3-208.1 7.4-302.8 61.2C-10.1 364.15.6 451.15.6 536.75v181l603.8 5.7z"/>
    <path fill="#EBF3FF" d="M155.9 148.45H49.4c4.3-15.2 26.8-49.8 36.2-42.2 9.4 7.6 9.4 25.4 9.4 25.4s19.2-30.4 35.5-29.9 12.2 40.8 12.2 40.8 5.1-20.8 17.3-20.6c12.2.2 16 11.8 16 11.8 2.6 9.5-5.4 14.7-20.1 14.7z"/>
    <path fill="url(#b)" d="M252.4 187.05c-16.3-13.6-16.8-35.4-7.7-48.7 9.1-13.3 34.1-25.3 45.3-11.2 11.2 14.1 14.1 31 27.4 29.2 13.3-1.8 23.8-13.4 32.3-6.7 9.2 7.3 14.1 20.7 22.7 18.6 8.6-2.1 31.8-18 39.4-12.2 7.6 5.8 8.5 34.2-7.2 53.4-17.3 21.1-42.9 17-52 10.2-9.1-6.8-12.4-20.2-20-18.1-7.6 2.1-26.5 11.3-36.4 7.2-9.9-4.2-12.9-19.5-13.7-27.9-.8-8.4-26.9 8.8-30.1 6.2z"/>
    <path fill="url(#c)" d="M0 764.751l.1-185.7c0-57.4 83-99.6 141.7-33.6l3.1-16c59.9-138.8 145.8-6.9 158.9-26.4 14-20.8 26.8-1.6 26.8-26.8 0-63.6 120-71.2 120 14.8 0 133.5 154.2-54.6 154.2 159.2 0 51 .2 114.2.2 114.2l-605 .3z"/>
    <path fill="url(#d)" d="M370.001 601.15c14.2 3.3 32.9 14.1 38 27 0 0-.3-8.2 11.3-9.7 11.6-1.5 21.3 18.5 21.3 18.5s11.9-29.6 29-23.4c17.1 6.2 21.3 21.7 21.3 21.7s2.7-26.3 22.9-26.4c25.6-.1 26.9 41.5 26.9 41.5l-.4 49-148.7-48.2c-48.8 0-37.5-16.8-37.5-37.5-.1-8.3 7.8-14.5 15.9-12.5z"/>
    <path fill="#DAE4EA" d="M536.3 533.751c-6.8 29.6-38 49.2-64.1 40-26.1-9.2-34.6-28.2-30.6-67.4 2.9-29.2 52-51.8 73.2-37.4 24.6 16.8 33.3 25.7 21.5 64.8z"/>
    <path stroke="#fff" stroke-linecap="round" stroke-linejoin="round" stroke-miterlimit="10" stroke-width="2.5" d="M489.299 483.55l-8.1 165M486.801 537.15l22-18.5 15.2-13.8M469.1 493.65l18.8 23.7M448.801 528.65l35.9 35.4"/>
    <path fill="#DAE4EA" d="M237.501 533.25c9.3 37.7 31.2 46.2 57.8 38.3 26.6-7.8 31.1-28.8 29.1-68.1-1.5-29.3-44.3-52-66.3-38.7-25.4 15.6-30.4 28.8-20.6 68.5z"/>
    <path stroke="#fff" stroke-linecap="round" stroke-linejoin="round" stroke-miterlimit="10" stroke-width="2.5" d="M282.802 480.65l-.2 165.1M282.601 534.25l-21-21.7-14.4-14.6M302.502 489.55l-19.9 22.7M321.1 525.55l-37.7 33.5"/>
    <path fill="url(#e)" d="M193.099 600.45c14.2 3.3 32.9 14.1 38 27 0 0-.3-8.2 11.3-9.7 11.6-1.5 21.3 18.5 21.3 18.5s12-31.2 29.1-25c17.1 6.2 20.9 15.4 20.9 15.4s2.9-18.3 23.1-18.4c25.6-.1 46.2 42.3 46.2 42.3h-168.3c-20.7 0-37.5-16.8-37.5-37.5 0-8.4 7.8-14.6 15.9-12.6z"/>
    <path fill="#DAE4EA" d="M73.5 545.15c9.3 37.7 31.2 46.2 57.8 38.3 26.6-7.8 31.1-28.8 29.1-68.1-1.5-29.3-44.3-52-66.3-38.7-25.5 15.5-30.4 28.8-20.6 68.5z"/>
    <path stroke="#fff" stroke-linecap="round" stroke-linejoin="round" stroke-miterlimit="10" stroke-width="2.5" d="M118.7 492.45l-.1 165.2M118.6 546.05l-21-21.7-14.5-14.6M138.5 501.35l-19.9 22.7M157.1 537.35l-37.7 33.6"/>
    <path fill="#6666A3" d="M246.3 336.95c-60.5-4.2-92-8.2-101.3.8-8.2 8-12.4 14.6-2.9 47.7 4.7 16.3 33.4 107.5 33.4 107.5l25.3-3.7-16.3-101.1s67.8 4.9 79.5 9.5c11.7 4.6 100.3 198.2 107.6 221.1h26.5s-24.4-87-36.8-118.7c-6.1-15.5-27.1-132.1-33.6-152.3l-81.4-10.8z"/>
    <path fill="url(#f)" d="M237.699 209.25c8-4.6 16.2-6.4 30.1-5.2 13.9 1.2 46 4.4 55.4 7.4 9.4 3 14.1 9.5 13.2 26.8-.9 17.2-18 42.7-7.2 110.9 1.1 6.7-17.8 9.2-33.6 9.2-27.6 0-45.6-17.6-49.3-21.4l-1.9-39.9c-.4-9.4-3.2-18.4-7.6-26.7-2.2-4.2-3-9.6-2-16.3 0 0-40.2 19-57.9 7.8-17.7-11.2 1.7-74 42.1-110.1l10 18.2s-20 24.4-26.7 59c0 0 14.5-7.6 35.4-19.7z"/>
    <path fill="#242435" d="M254.6 329.65l75.9 17.6 10 58.3c.6 2.4 1.2 4.5.9 6.2-.7 4.3-8.5 4.8-18.3-4.7-4.1-4-6-5.5-9.6-9-4.8-4.6-8.9 1.2-23.1-15.9-2.8-3.4-.7-5.5-3.5-8.2-29.4-28.3-34.9-35.1-32.3-44.3z" opacity=".25"/>
    <path fill="#D4A2F3" d="M245.301 158.45s1.8 31.7 6.3 35.8c4.5 4.1 9.5.2 13 .6 3.5.4 3.7 8 4.7 16.8.7 6.5 14 7.4 19.5 4.7s8.2-5 7.4-9.2c-.7-3.7-4.2-28.6-4.2-28.6s3.1 0 5.6-3.3c3.5-4.6 1.3-19.8-6.7-16.7-10.2 4-24.9 8-38.9-4.1 0 0-3 2.9-6.7 4z"/>
    <path fill="#242435" d="M238.699 159.75c.2 1.8.6 4.5.9 5.8 0 0 4.7-1.2 10.2-2.4 7.7-1.7 13.2-3.9 13.6-11.2.4-7.2-24.7 7.8-24.7 7.8z" opacity=".25"/>
    <path fill="#D4A2F3" d="M219 151.75c5.2-4.3 11.9-5.9 19.6-4.9 7.7 1 18.6 2 23.2 2.3 4.7.4.2 7-9.5 8.5-9.7 1.4-16.6 8.1-23.3 12.3l-10-18.2z"/>
    <path stroke="#68B1A3" stroke-linecap="round" stroke-linejoin="round" stroke-miterlimit="10" stroke-width="1.296" d="M421.599 183.25c-8.6 30.5-35.9 31.5-69.3-17.9-7.4-10.9-21.3 8.2-35.5 4.2-14.2-4-9.2-20.8-27.6-20.6-20 .3-56.8-6.5-39.1-22.4"/>
    <path fill="#4C7DE0" d="M336.5 407.95c-4.9-4.5-76.7-72.3-81.7-77-3.6-3.5-3.9-6-.3-9.8 3.5-3.7 40.9-44.6 43.9-48 3.6-3.9 5.9-3.6 9.3-.6 3.5 3.1 78.1 73 82 76.9 3.8 3.8 4 6.2-.1 10.8-3 3.4-40.1 43.8-43.4 47.3-3.2 3.5-5.4 4.4-9.7.4z"/>
    <path fill="url(#g)" d="M323.3 211.45c16.6 1.6 57.8 73.2 59.8 87.6 2.1 14.4-56 76.2-56 76.2l-18.6-16.9s42.1-54.7 44.1-61.7c0 0-39.7-40.8-41.2-53.9-1.5-13.1 11.9-31.3 11.9-31.3z"/>
    <path fill="#D4A2F3" d="M308.6 358.35c-4.4 3.9-14.3 9.2-16.6 7.1-.7-.7-2-1.9-2-1.9-1.1-.6-3.3 1.4-2.4 4 1.1 3.3 8 12.3 13.5 15.8s20.9-2.2 26.1-8l-18.6-17z"/>
    <path stroke="#668ECC" stroke-linecap="round" stroke-linejoin="round" stroke-miterlimit="10" stroke-width=".863" d="M234.801 253.75c.7-4.7 4.8-11.3 4.8-11.3M328.9 270.55c-3.6-3.8-8.8-8.5-8.8-8.5"/>
    <path fill="#D4A2F3" d="M175.6 492.95l2.1 9 25.5-3-2.4-9.7-25.2 3.7zM371.699 618.75l3.3 10h25.7l-2.5-10h-26.5z"/>
    <path fill="#363660" d="M400.699 628.75s3.3 19.1.6 19.7c-2.6.6-64.3 2.1-66.2.1-2-2.2-1.5-4.8 1.8-5.8 2.4-.8 14.8-5.2 24.5-8.9 8.1-3.1 11-4.5 13.5-5.1.3-.2 25.8 0 25.8 0zM203.199 498.95s5.5 18.5 3 19.5c-2.5.9-63.6 9.7-65.7 7.9-2.3-2-2-4.6 1.1-6 2.3-1.1 14.1-6.9 23.3-11.7 7.7-4 10.4-5.7 12.8-6.6.2-.4 25.5-3.1 25.5-3.1z"/>
    <path fill="#242435" d="M184.6 388.15s-1-2.4.2-3.2c2-1.4 73.1-.7 76.9 4.5 4.2 5.8 8.7 15.8 8.7 15.8s-3.6-5.6-5.5-7.2c-5.2-4.2-80.3-9.9-80.3-9.9z" opacity=".25"/>
    <path fill="url(#h)" d="M59.6 764.35l481 .2v-89.7c0-13.5-11-24.5-24.5-24.5h-175c-37.2 0-94.9-71.5-123.4-97.2-24.8-22.4-49.3-29.9-81.1-25.5-44.5 6.1-76.7 52.3-76.8 97.3l-.2 139.4z"/>
    <path fill="#EBF3FF" d="M574.201.45c-17.2 4-40.1 17.1-46.2 32.8 0 0 .4-10-13.8-11.8-14.1-1.8-25.9 22.5-25.9 22.5s-6.4-30.2-28.4-28.1c-20.5 1.9-32.7 26.1-32.7 26.1s-3.7-36.7-27.8-32.1c-24.1 4.6-33.6 51.4-33.6 51.4h182.2c25.2 0 45.6-20.4 45.6-45.6 0-10.1-9.5-17.6-19.4-15.2z"/>
    <defs>
        <linearGradient id="a" x1="302.236" x2="302.236" y1="30.352" y2="544.714" gradientUnits="userSpaceOnUse">
            <stop offset=".433" stop-color="#EBF3FF"/>
            <stop offset=".948" stop-color="#fff"/>
        </linearGradient>
        <radialGradient id="b" cx="0" cy="0" r="1" gradientTransform="matrix(18.4613 -112.59354 240.86671 39.49351 298.676 246.132)" gradientUnits="userSpaceOnUse">
            <stop offset="0" stop-color="#99CDCD"/>
            <stop offset=".948" stop-color="#ACDCB2"/>
        </radialGradient>
        <linearGradient id="c" x1="285.882" x2="304.374" y1="356.808" y2="743.088" gradientUnits="userSpaceOnUse">
            <stop offset=".433" stop-color="#EBF3FF"/>
            <stop offset=".948" stop-color="#fff"/>
        </linearGradient>
        <linearGradient id="d" x1="444.459" x2="448.486" y1="493.948" y2="749.66" gradientUnits="userSpaceOnUse">
            <stop offset=".391" stop-color="#DAE4EA"/>
            <stop offset=".948" stop-color="#fff"/>
        </linearGradient>
        <linearGradient id="e" x1="280.963" x2="279.687" y1="575.743" y2="664.119" gradientUnits="userSpaceOnUse">
            <stop offset=".221" stop-color="#DAE4EA"/>
            <stop offset=".948" stop-color="#fff"/>
        </linearGradient>
        <linearGradient id="f" x1="370.781" x2="202.111" y1="-6.704" y2="407.305" gradientUnits="userSpaceOnUse">
            <stop offset=".188" stop-color="#5C8CD7"/>
            <stop offset="1" stop-color="#84BAFF"/>
        </linearGradient>
        <linearGradient id="g" x1="397.874" x2="317.098" y1="73.453" y2="385.682" gradientUnits="userSpaceOnUse">
            <stop offset=".188" stop-color="#5C8CD7"/>
            <stop offset="1" stop-color="#84BAFF"/>
        </linearGradient>
        <linearGradient id="h" x1="297.914" x2="300.623" y1="489.953" y2="774.342" gradientUnits="userSpaceOnUse">
            <stop stop-color="#DBE6F6"/>
            <stop stop-color="#5C8CD7"/>
            <stop offset="0" stop-color="#608FD8"/>
            <stop offset="0" stop-color="#6D98DB"/>
            <stop offset="0" stop-color="#82A7E0"/>
            <stop offset="0" stop-color="#9FBBE7"/>
            <stop offset=".001" stop-color="#C5D6F1"/>
            <stop offset="1" stop-color="#fff"/>
            <stop offset="1" stop-color="#fff"/>
        </linearGradient>
    </defs>
</svg>
