<svg width="22" height="22" viewBox="0 0 22 22" fill="none" xmlns="http://www.w3.org/2000/svg">
<path d="M9.625 7V10.3337V11.6663V15H12.375V11.6663V10.3337V7H9.625Z" fill="#B9BBBE"/>
<path d="M1.375 11.625C2.13439 11.625 2.75 11.0094 2.75 10.25C2.75 9.49061 2.13439 8.875 1.375 8.875C0.615608 8.875 0 9.49061 0 10.25C0 11.0094 0.615608 11.625 1.375 11.625Z" fill="#656568"/>
<path d="M1.375 13.125C2.13439 13.125 2.75 12.5094 2.75 11.75C2.75 10.9906 2.13439 10.375 1.375 10.375C0.615608 10.375 0 10.9906 0 11.75C0 12.5094 0.615608 13.125 1.375 13.125Z" fill="#656568"/>
<path d="M2.75 10.25H0V11.75H2.75V10.25Z" fill="#656568"/>
<path d="M20.625 13.125C21.3844 13.125 22 12.5094 22 11.75C22 10.9906 21.3844 10.375 20.625 10.375C19.8656 10.375 19.25 10.9906 19.25 11.75C19.25 12.5094 19.8656 13.125 20.625 13.125Z" fill="#656568"/>
<path d="M20.625 11.625C21.3844 11.625 22 11.0094 22 10.25C22 9.49061 21.3844 8.875 20.625 8.875C19.8656 8.875 19.25 9.49061 19.25 10.25C19.25 11.0094 19.8656 11.625 20.625 11.625Z" fill="#656568"/>
<path d="M19.25 11.75H22V10.25H19.25V11.75Z" fill="#656568"/>
<path d="M6.125 16.125C6.88439 16.125 7.5 15.5094 7.5 14.75C7.5 13.9906 6.88439 13.375 6.125 13.375C5.36561 13.375 4.75 13.9906 4.75 14.75C4.75 15.5094 5.36561 16.125 6.125 16.125Z" fill="#797A7C"/>
<path d="M6.125 17.625C6.88439 17.625 7.5 17.0094 7.5 16.25C7.5 15.4906 6.88439 14.875 6.125 14.875C5.36561 14.875 4.75 15.4906 4.75 16.25C4.75 17.0094 5.36561 17.625 6.125 17.625Z" fill="#797A7C"/>
<path d="M7.5 14.75H4.75V16.25H7.5V14.75Z" fill="#797A7C"/>
<path d="M6.125 7.125C6.88439 7.125 7.5 6.50939 7.5 5.75C7.5 4.99061 6.88439 4.375 6.125 4.375C5.36561 4.375 4.75 4.99061 4.75 5.75C4.75 6.50939 5.36561 7.125 6.125 7.125Z" fill="#797A7C"/>
<path d="M6.125 12C6.88439 12 7.5 11.3844 7.5 10.625C7.5 9.86561 6.88439 9.25 6.125 9.25C5.36561 9.25 4.75 9.86561 4.75 10.625C4.75 11.3844 5.36561 12 6.125 12Z" fill="#797A7C"/>
<path d="M7.5 5.75H4.75V10.6562H7.5V5.75Z" fill="#797A7C"/>
<path d="M15.875 8.625C16.6344 8.625 17.25 8.00939 17.25 7.25C17.25 6.49061 16.6344 5.875 15.875 5.875C15.1156 5.875 14.5 6.49061 14.5 7.25C14.5 8.00939 15.1156 8.625 15.875 8.625Z" fill="#797A7C"/>
<path d="M15.875 7.125C16.6344 7.125 17.25 6.50939 17.25 5.75C17.25 4.99061 16.6344 4.375 15.875 4.375C15.1156 4.375 14.5 4.99061 14.5 5.75C14.5 6.50939 15.1156 7.125 15.875 7.125Z" fill="#797A7C"/>
<path d="M14.5 7.25H17.25V5.75H14.5V7.25Z" fill="#797A7C"/>
<path d="M11 4.25C11.7594 4.25 12.375 3.63439 12.375 2.875C12.375 2.11561 11.7594 1.5 11 1.5C10.2406 1.5 9.625 2.11561 9.625 2.875C9.625 3.63439 10.2406 4.25 11 4.25Z" fill="#B9BBBE"/>
<path d="M11 2.75C11.7594 2.75 12.375 2.13439 12.375 1.375C12.375 0.615608 11.7594 0 11 0C10.2406 0 9.625 0.615608 9.625 1.375C9.625 2.13439 10.2406 2.75 11 2.75Z" fill="#B9BBBE"/>
<path d="M9.625 2.875L12.375 2.875V1.375L9.625 1.375V2.875Z" fill="#B9BBBE"/>
<path d="M11 22C11.7594 22 12.375 21.3844 12.375 20.625C12.375 19.8656 11.7594 19.25 11 19.25C10.2406 19.25 9.625 19.8656 9.625 20.625C9.625 21.3844 10.2406 22 11 22Z" fill="#B9BBBE"/>
<path d="M11 20.5C11.7594 20.5 12.375 19.8844 12.375 19.125C12.375 18.3656 11.7594 17.75 11 17.75C10.2406 17.75 9.625 18.3656 9.625 19.125C9.625 19.8844 10.2406 20.5 11 20.5Z" fill="#B9BBBE"/>
<path d="M9.625 20.625H12.375V19.125H9.625V20.625Z" fill="#B9BBBE"/>
<path d="M15.875 17.625C16.6344 17.625 17.25 17.0094 17.25 16.25C17.25 15.4906 16.6344 14.875 15.875 14.875C15.1156 14.875 14.5 15.4906 14.5 16.25C14.5 17.0094 15.1156 17.625 15.875 17.625Z" fill="#797A7C"/>
<path d="M15.875 12.75C16.6344 12.75 17.25 12.1344 17.25 11.375C17.25 10.6156 16.6344 10 15.875 10C15.1156 10 14.5 10.6156 14.5 11.375C14.5 12.1344 15.1156 12.75 15.875 12.75Z" fill="#797A7C"/>
<path d="M14.5 16.25H17.25V11.375H14.5V16.25Z" fill="#797A7C"/>
<path d="M11 8.375C11.7594 8.375 12.375 7.75939 12.375 7C12.375 6.24061 11.7594 5.625 11 5.625C10.2406 5.625 9.625 6.24061 9.625 7C9.625 7.75939 10.2406 8.375 11 8.375Z" fill="#B9BBBE"/>
<path d="M11 16.375C11.7594 16.375 12.375 15.7594 12.375 15C12.375 14.2406 11.7594 13.625 11 13.625C10.2406 13.625 9.625 14.2406 9.625 15C9.625 15.7594 10.2406 16.375 11 16.375Z" fill="#B9BBBE"/>
</svg>
