<svg width="1252" height="676" viewBox="0 0 1252 676" fill="none" xmlns="http://www.w3.org/2000/svg">
<path d="M527.401 607.784C336.482 617.059 108.8 604.888 51.8903 418.336C3.23581 258.799 -26.609 154.171 33.5404 73.868C103.617 -19.675 247.365 -15.503 384.969 37.1645C518.999 88.4356 491.871 124.639 754.643 96.8659C953.776 75.8678 1042.89 138.483 1034.22 255.627C1026.28 363.927 1070.58 385.58 1077.86 491.553C1085.13 597.526 813.162 593.871 527.401 607.784Z" fill="#ECF2FF"/>
<g clip-path="url(#clip0)">
<path d="M866.816 633.762C864.78 629.123 862.852 623.806 864.887 619.166C866.214 616.433 868.503 614.286 871.315 613.135C874.089 612.005 877.012 611.284 879.993 610.994C889.368 609.766 898.854 609.634 908.259 610.601C908.938 615.954 907.491 621.539 906.241 626.768C905.116 631.603 904.456 632.317 899.492 632.567C896.26 632.745 867.584 635.475 866.816 633.762Z" fill="#6F55C1"/>
<path d="M952.809 602.502C1029.08 602.502 1090.91 585.222 1090.91 563.906C1090.91 542.59 1029.08 525.311 952.809 525.311C876.541 525.311 814.713 542.59 814.713 563.906C814.713 585.222 876.541 602.502 952.809 602.502Z" fill="#474553"/>
<path d="M952.809 602.502C1029.08 602.502 1090.91 585.222 1090.91 563.906C1090.91 542.59 1029.08 525.311 952.809 525.311C876.541 525.311 814.713 542.59 814.713 563.906C814.713 585.222 876.541 602.502 952.809 602.502Z" fill="#3B3B60"/>
<path d="M977.574 360.132C972.847 369.279 964.981 376.418 955.416 380.242C949.788 382.289 943.868 383.422 937.881 383.596C931.312 384.087 924.711 383.281 918.454 381.223C910.223 377.954 903.159 372.299 898.17 364.986C893.219 357.71 889.262 349.807 886.403 341.485C884.778 337.221 883.243 332.671 883.993 328.156C888.974 327.014 894.42 325.355 896.991 321.019C899.17 317.236 898.563 312.704 897.313 308.386C896.956 307.154 896.527 305.941 896.117 304.817C895.152 302.015 891.813 296.698 894.135 294.307C895.617 292.79 901.813 292.023 903.937 291.042C910.508 288.008 916.579 283.637 923.811 282.12C930.042 280.871 936.506 282.12 942.738 283.333C943.565 283.459 944.359 283.744 945.077 284.172C945.91 284.851 946.53 285.756 946.863 286.777C948.648 291.113 949.684 295.877 951.112 300.392C952.318 305.089 954.724 309.393 958.094 312.882C961.032 315.348 964.348 317.324 967.915 318.735L976.467 322.661C977.997 323.214 979.382 324.104 980.521 325.266C981.641 326.8 982.309 328.617 982.449 330.512C983.96 340.652 982.256 351.01 977.574 360.132V360.132Z" fill="#5C50A0"/>
<path opacity="0.1" d="M897.331 308.313C896.974 307.082 896.546 305.869 896.135 304.745C895.171 301.943 891.832 296.626 894.153 294.235C895.635 292.718 901.831 291.951 903.956 290.969C910.527 287.936 916.598 283.564 923.829 282.048C930.061 280.799 936.525 282.048 942.756 283.261C943.583 283.387 944.377 283.671 945.095 284.1C945.928 284.779 946.548 285.683 946.881 286.705C948.667 291.041 949.667 295.805 951.095 300.319" fill="black"/>
<path d="M919.008 223.254C930.784 223.254 942.079 227.926 950.409 236.244C958.739 244.562 963.424 255.845 963.433 267.613C963.433 292.13 948.774 328.156 923.222 327.692C898.688 327.264 874.583 292.13 874.583 267.613C874.592 255.845 879.277 244.562 887.607 236.244C895.938 227.926 907.232 223.254 919.008 223.254Z" fill="#6F55C1"/>
<path d="M1054.35 411.716L1050.69 389.626C1048.91 378.527 1046.96 367.232 1041.77 357.24C1038.37 350.691 1034.78 347.854 1027.48 343.464C1025.84 342.538 1024.14 341.716 1022.39 341.002C1020.26 340.102 1018.32 338.813 1016.66 337.201C1012.45 332.847 1007.57 330.778 1001.93 328.565C996.948 326.638 990.894 324.907 986.359 322.07C981.824 319.233 975.181 317.894 970.146 319.714C969.343 328.351 961.218 337.183 957.522 345.052C943.898 360.309 933.292 359.97 921.007 355.99C918.597 354.866 907.865 349.959 905.74 348.371C897.134 341.894 897.098 337.754 891.884 331.723C891.353 329.828 890.462 328.053 889.259 326.495C886.724 325.228 884.296 326.816 882.117 328.69C878.207 332.151 874.296 333.151 868.868 335.203C867.547 336.38 865.297 337.469 863.726 338.593C862.708 339.521 861.083 340.377 860.44 341.519C858.173 344.713 856.512 344.303 853.137 345.927C850.798 346.658 849.316 347.104 846.388 348.282C845.495 349.246 840.585 350.459 839.621 351.351C836.85 352.738 833.87 353.661 830.8 354.081C827.354 353.938 824.229 357.293 822.247 360.059C820.265 362.825 826.818 362.164 825.818 365.412C836.371 388.894 846.031 412.412 856.583 435.912C857.086 436.792 857.351 437.789 857.351 438.803C857.139 439.855 856.687 440.844 856.03 441.693C850.87 450.008 851.03 460.447 851.602 470.243C852.173 480.039 852.869 490.317 848.495 499.078C847.316 501.469 845.763 503.682 844.638 506.073C841.995 511.426 841.067 528.931 842.585 534.783H1060.92C1056.76 523.346 1058.35 500.399 1059.14 488.247C1059.75 479.771 1058.17 471.278 1057.5 462.784C1056.16 445.476 1057.21 429.024 1054.35 411.716Z" fill="url(#paint0_linear)"/>
<path d="M1065.53 528.129C1068.85 527.181 1072.35 527.071 1075.73 527.807C1086.83 529.324 1098.08 530.876 1108.37 535.32C1113.27 537.201 1117.63 540.266 1121.06 544.241C1123.78 548.051 1125.87 552.267 1127.26 556.732L1130.96 566.849C1132.53 570.663 1133.62 574.663 1134.19 578.751C1135.35 590.902 1127.05 602.358 1116.58 608.657C1106.12 614.955 1093.82 617.222 1081.82 619.577C1069.82 621.932 1057.73 624.484 1045.84 627.25C1040.27 628.693 1034.61 629.802 1028.91 630.569C1016.13 632.014 1002.75 629.891 990.609 634.137C985.771 635.815 981.039 638.331 976.021 639.49C972.697 640.214 969.335 640.75 965.951 641.096L942.952 643.737C938.281 644.362 933.577 644.719 928.864 644.808C918.811 644.808 908.937 642.435 899.188 640.061C898.152 639.884 897.167 639.488 896.295 638.902C895.609 638.191 895.07 637.353 894.709 636.435C894.347 635.516 894.17 634.535 894.188 633.548C893.212 624.912 892.349 616.27 891.599 607.622C891.367 604.82 891.189 601.787 892.724 599.414C894.653 596.523 898.42 595.613 901.866 595.06C916.441 592.674 931.205 591.646 945.97 591.991C951.577 586.388 960.844 586.352 968.183 583.319C970.886 582.071 973.505 580.646 976.021 579.054C989.173 571.442 1003.85 566.847 1019 565.6C1021.97 565.505 1024.92 565.086 1027.8 564.351C1033.48 562.567 1038.68 557.785 1044.52 558.998C1045.23 556.999 1045.73 554.323 1047.41 552.949C1048.25 552.235 1049.19 551.771 1050.03 551.022C1050.74 550.116 1051.24 549.067 1051.5 547.948C1051.76 546.83 1051.77 545.668 1051.53 544.545C1051.06 542.296 1051 539.981 1051.35 537.711C1051.58 536.851 1051.92 536.028 1052.37 535.266C1053.56 532.866 1055.46 530.891 1057.82 529.614C1060.18 528.336 1062.87 527.817 1065.53 528.129V528.129Z" fill="#474553"/>
<path d="M1065.53 528.129C1068.85 527.181 1072.35 527.071 1075.73 527.807C1086.83 529.324 1098.08 530.876 1108.37 535.32C1113.27 537.201 1117.63 540.266 1121.06 544.241C1123.78 548.051 1125.87 552.267 1127.26 556.732L1130.96 566.849C1132.53 570.663 1133.62 574.663 1134.19 578.751C1135.35 590.902 1127.05 602.358 1116.58 608.657C1106.12 614.955 1093.82 617.222 1081.82 619.577C1069.82 621.932 1057.73 624.484 1045.84 627.25C1040.27 628.693 1034.61 629.802 1028.91 630.569C1016.13 632.014 1002.75 629.891 990.609 634.137C985.771 635.815 981.039 638.331 976.021 639.49C972.697 640.214 969.335 640.75 965.951 641.096L942.952 643.737C938.281 644.362 933.577 644.719 928.864 644.808C918.811 644.808 908.937 642.435 899.188 640.061C898.152 639.884 897.167 639.488 896.295 638.902C895.609 638.191 895.07 637.353 894.709 636.435C894.347 635.516 894.17 634.535 894.188 633.548C893.212 624.912 892.349 616.27 891.599 607.622C891.367 604.82 891.189 601.787 892.724 599.414C894.653 596.523 898.42 595.613 901.866 595.06C916.441 592.674 931.205 591.646 945.97 591.991C951.577 586.388 960.844 586.352 968.183 583.319C970.886 582.071 973.505 580.646 976.021 579.054C989.173 571.442 1003.85 566.847 1019 565.6C1021.97 565.505 1024.92 565.086 1027.8 564.351C1033.48 562.567 1038.68 557.785 1044.52 558.998C1045.23 556.999 1045.73 554.323 1047.41 552.949C1048.25 552.235 1049.19 551.771 1050.03 551.022C1050.74 550.116 1051.24 549.067 1051.5 547.948C1051.76 546.83 1051.77 545.668 1051.53 544.545C1051.06 542.296 1051 539.981 1051.35 537.711C1051.58 536.851 1051.92 536.028 1052.37 535.266C1053.56 532.866 1055.46 530.891 1057.82 529.614C1060.18 528.336 1062.87 527.817 1065.53 528.129V528.129Z" fill="#4B4B7F"/>
<path d="M875.707 639.723C869.726 646.646 864.458 649.109 855.102 648.895C849.352 648.752 843.603 648.466 837.853 648.003C833.929 647.569 829.981 647.384 826.033 647.449C814.123 647.913 802.624 653.356 790.732 652.41C788.977 652.27 787.241 651.947 785.554 651.446C782.868 650.695 780.44 649.219 778.536 647.182C776.393 644.472 775.018 641.237 774.555 637.814C773.109 629.108 774.309 620.168 777.997 612.15C781.686 604.131 787.696 597.402 795.249 592.83C797.239 591.546 799.501 590.745 801.856 590.493C804.169 590.475 806.457 590.975 808.552 591.956H808.695C814.891 594.504 820.517 598.259 825.247 603.001C825.959 603.822 826.812 604.511 827.765 605.035C828.718 605.395 829.728 605.583 830.747 605.588L843.442 606.391C845.593 606.457 847.73 606.756 849.817 607.283C852.115 608.084 854.353 609.051 856.512 610.174C863.351 613.225 870.922 614.028 878.296 615.206C879.007 615.239 879.686 615.509 880.225 615.973C880.522 616.343 880.73 616.777 880.832 617.24C881.879 621.121 881.959 625.199 881.066 629.118C880.173 633.037 878.333 636.678 875.707 639.723V639.723Z" fill="#23214E"/>
<path d="M1054.48 616.008C1061.62 615.811 1069.55 615.455 1074.76 620.237C1079.73 624.751 1080.39 632.21 1080.71 638.919L1081.08 646.699C1081.38 649.067 1081.13 651.473 1080.35 653.729C1078.66 657.583 1073.98 659.457 1069.73 659.225C1065.48 658.993 1061.55 657.137 1057.66 655.46C1047.1 650.908 1036.1 647.447 1024.84 645.129C1025.2 639.74 1025.79 634.387 1026.62 629.069C1027.21 625.376 1027.32 619.184 1029.78 616.115C1032.25 613.046 1035.82 614.634 1039.37 615.223C1044.37 615.986 1049.43 616.249 1054.48 616.008V616.008Z" fill="#6F55C1"/>
<path d="M866.923 537.764C866.923 538.728 865.405 537.764 865.28 536.729C864.209 528.932 858.013 522.454 850.781 519.367C843.55 516.281 835.336 516.084 827.569 516.816C815.73 517.94 802.571 522.472 798.142 533.517C797.107 536.105 796.642 538.871 795.393 541.386C794.143 543.902 791.732 546.276 790.232 548.916C787.867 553.668 787.236 559.095 788.447 564.262C790.964 578.073 800.41 589.867 811.856 598.04C823.301 606.212 836.657 611.101 849.995 615.509C885.263 627.129 921.448 635.76 958.166 641.311C964.137 641.994 970.039 643.188 975.807 644.879C980.914 646.664 985.681 649.144 990.663 651.16C1002.25 655.8 1014.71 657.459 1027.07 659.101C1029.18 659.368 1031.59 659.565 1033.14 658.137C1035.16 656.353 1034.48 653.034 1033.91 650.357C1031.82 640.197 1033.57 629.623 1038.84 620.683C1040.89 617.222 1043.59 613.653 1043.19 609.638C1042.73 604.945 1038.05 601.626 1033.41 600.859C1028.77 600.092 1024.02 601.234 1019.34 601.841C1017.72 602.195 1016.03 602.027 1014.52 601.359C1013.85 600.887 1013.25 600.329 1012.73 599.699C1009.51 596.594 1005.39 594.588 1000.96 593.969C996.533 593.35 992.021 594.151 988.074 596.256C986.288 597.219 983.717 595.06 981.932 594.257L961.505 585.228C938.185 574.683 914.74 564.084 890.082 557.392C888.112 557.012 886.241 556.235 884.582 555.108C883.35 554.145 882.475 552.842 881.35 551.771C878.886 549.434 875.458 548.506 872.422 546.864C869.387 545.223 866.226 541.083 866.923 537.764Z" fill="#54538F"/>
<path d="M1179.99 663.883C1176.74 669.897 1170.45 673.644 1163.68 675.196C1161.99 675.574 1160.26 675.818 1158.52 675.928C1149.99 676.445 1141.54 674.144 1133.31 671.753L1122.12 668.594C1120.19 667.984 1118.22 667.542 1116.22 667.274C1113.51 667.092 1110.78 667.188 1108.08 667.559C1094.87 668.787 1081.55 668.187 1068.5 665.775C1067.4 665.668 1066.34 665.294 1065.42 664.686C1064.62 663.901 1063.91 663.027 1063.3 662.081C1060.25 658.423 1056.98 656.282 1060.59 651.464C1062.66 648.663 1066.51 647.253 1068.12 644.041C1069.73 640.83 1068.71 636.262 1067.75 632.943C1066.44 628.375 1062.16 626.394 1060.6 622.237C1060.17 620.601 1060.29 618.866 1060.96 617.311C1061.63 615.755 1062.8 614.467 1064.28 613.654C1067.32 612.093 1070.79 611.59 1074.14 612.226C1077.5 612.672 1080.78 613.618 1084.14 613.868C1094.05 614.671 1104.19 609.568 1113.69 612.44C1115.8 613.083 1117.78 614.082 1119.88 614.653C1124.03 615.581 1128.36 615.207 1132.28 613.582C1133.67 613.065 1135.04 612.423 1136.38 611.798C1138.99 610.443 1141.77 609.441 1144.65 608.818C1153.92 607.212 1162.51 613.636 1169.52 619.899C1171.93 621.894 1174.06 624.198 1175.86 626.751C1177.66 629.856 1178.96 633.221 1179.72 636.726C1182.29 645.629 1184.5 655.693 1179.99 663.883Z" fill="#23214E"/>
<path d="M863.673 454.363C862.512 473.545 855.352 485.767 849.996 504.2C848.674 508.804 846.299 513.55 840.05 523.828C833.8 533.767 827.23 536.889 818.748 541.404C815.657 543.172 812.278 544.38 808.767 544.973C804.903 545.426 800.993 544.692 797.558 542.868C794.122 541.045 791.324 538.219 789.536 534.766C787.34 530.269 787.018 525.113 785.679 520.277C784.179 514.71 785.054 514.799 783.233 509.321C779.876 499.257 781.197 476.81 783.519 466.496C785.715 457.575 784.286 455.059 788.875 447.065C789.554 445.869 790.25 444.692 790.947 443.496C792.944 440.122 795.181 436.895 797.643 433.843C803.428 426.866 810.874 421.513 818.248 416.213C818.814 415.757 819.472 415.428 820.176 415.25H820.301C821.128 415.217 821.949 415.409 822.676 415.803C832.9 420.219 842.712 425.533 851.995 431.684C855.317 433.878 860.548 436.359 862.298 440.124C864.048 443.889 863.923 450.277 863.673 454.363Z" fill="#6F55C1"/>
<path d="M825.336 366.181C824.4 367.168 823.672 368.333 823.193 369.607C815.371 387.182 810.746 406.01 809.534 425.207C809.555 426.146 809.333 427.074 808.891 427.902C808.473 428.459 808.001 428.973 807.48 429.436C806.574 430.52 806.133 431.918 806.254 433.325C806.374 434.732 807.046 436.034 808.123 436.948L808.391 437.163C809.98 434.147 813.748 433.183 817.176 432.916C833.425 431.631 849.316 439.179 865.547 438.608C864.405 434.647 862.762 430.828 861.816 426.813C857.673 408.97 868.011 389.591 861.673 372.426C860.626 368.875 858.211 365.884 854.959 364.111C853.586 363.546 852.146 363.162 850.674 362.969C846.549 362.219 838.371 359.043 834.389 360.328C832.907 360.792 832.336 362.112 831.121 363.004C829.372 364.182 826.907 364.61 825.336 366.181Z" fill="url(#paint1_linear)"/>
<path opacity="0.1" d="M831.996 525.737C829.516 529.948 825.992 533.45 821.763 535.903C817.535 538.357 812.745 539.68 807.855 539.744C805.208 539.815 802.575 539.335 800.124 538.334C793.963 535.604 790.464 528.877 789.178 522.275C787.893 515.673 788.285 508.821 787.393 502.13C786.66 496.777 785.089 491.638 784.286 486.32C782.286 473.152 786.214 460.162 789 447.064C789.678 445.869 790.357 444.691 791.071 443.496C793.057 440.115 795.296 436.888 797.767 433.842C803.552 426.866 810.998 421.495 818.372 416.213H810.641C810.92 416.029 811.259 415.956 811.589 416.009C811.92 416.062 812.218 416.236 812.426 416.498C812.558 416.682 812.638 416.898 812.658 417.123C813.426 423.886 822.961 430.63 825.032 437.197C826.318 441.23 827.872 445.191 828.907 449.295C829.698 452.798 830.295 456.343 830.693 459.912C832.062 469.904 833.431 479.879 834.8 489.836C836.603 502.023 838.103 515.156 831.996 525.737Z" fill="black"/>
<path d="M819.212 399.03L828.532 369.82C830.128 365.509 831.125 361 831.496 356.419C831.67 354.127 831.381 351.823 830.648 349.644C829.915 347.465 828.752 345.455 827.229 343.732C824.622 341.074 821.015 339.7 817.926 337.63C810.194 332.437 805.838 325.764 801.856 317.377C797.874 308.991 793.999 301.515 787.268 296.251C785.25 295.537 781.215 293.985 780.322 295.929C779.25 297.054 779.518 301.283 779.733 302.139C780.749 306.73 782.497 311.128 784.911 315.165C788.875 323.641 792.357 326.121 792.642 330.903C791.303 339.825 783.268 346.766 782.304 355.759C781.875 359.72 782.893 363.682 782.893 367.661C782.663 370.127 782.711 372.611 783.036 375.066C783.605 376.931 784.285 378.76 785.071 380.544C785.931 383.44 786.376 386.444 786.393 389.466L788.446 427.455C789.535 447.993 781.536 461.572 780.161 488.498C780.75 495.635 780.411 498.401 781.143 503.736C782.107 510.427 781.947 516.226 784.429 523.649C786.571 530.055 791.196 537.567 797.32 540.28C799.768 541.294 802.403 541.781 805.052 541.707C809.939 541.624 814.723 540.289 818.947 537.831C823.17 535.372 826.692 531.872 829.175 527.664C835.264 517.047 833.782 503.932 832.121 491.834L828.032 461.911C827.633 458.342 827.036 454.797 826.247 451.294C825.229 447.19 823.676 443.228 822.39 439.196C818.14 426.009 815.033 412.145 819.212 399.03Z" fill="#6F55C1"/>
<path d="M1067.26 401.297H867.315C863.065 401.297 859.619 404.74 859.619 408.987V530.645C859.619 534.892 863.065 538.336 867.315 538.336H1067.26C1071.51 538.336 1074.96 534.892 1074.96 530.645V408.987C1074.96 404.74 1071.51 401.297 1067.26 401.297Z" fill="#413F56"/>
<path d="M1067.26 401.297H867.315C863.065 401.297 859.619 404.74 859.619 408.987V530.645C859.619 534.892 863.065 538.336 867.315 538.336H1067.26C1071.51 538.336 1074.96 534.892 1074.96 530.645V408.987C1074.96 404.74 1071.51 401.297 1067.26 401.297Z" fill="#6C8AD2"/>
<path d="M966.808 480.076C972.755 480.076 977.575 475.259 977.575 469.316C977.575 463.374 972.755 458.557 966.808 458.557C960.862 458.557 956.041 463.374 956.041 469.316C956.041 475.259 960.862 480.076 966.808 480.076Z" fill="white"/>
<path d="M886.314 301.89C890.582 317.949 873.458 298.928 867.566 279.818C859.209 252.749 872.922 229.998 881.85 221.523C896.635 207.355 909.955 203.875 928.025 206.445C957.737 210.656 990.253 259.494 980.95 289.025C971.647 318.556 954.47 308.653 954.166 307.065C953.863 305.477 961.308 274.108 952.291 263.152C949.595 259.886 926.668 261.724 918.008 251.875C909.348 242.025 892.796 263.883 888.796 270.396C883.636 278.801 886.314 301.89 886.314 301.89Z" fill="url(#paint2_radial)"/>
<path d="M968.183 271.18C965.558 258.047 917.204 257.797 909.526 237.456C901.848 217.114 912.776 214.17 913.669 221.825C914.562 229.48 909.098 227.624 894.188 240.989C865.101 267.094 884.01 297.018 884.01 297.018" stroke="#80AEA1" stroke-width="0.86" stroke-linecap="round" stroke-linejoin="round"/>
</g>
<defs>
<linearGradient id="paint0_linear" x1="930.328" y1="311.667" x2="943.47" y2="435.539" gradientUnits="userSpaceOnUse">
<stop stop-color="#96BAF7"/>
<stop offset="0.95" stop-color="#B7A9F6"/>
</linearGradient>
<linearGradient id="paint1_linear" x1="16878.3" y1="12405.9" x2="18724.7" y2="18792.3" gradientUnits="userSpaceOnUse">
<stop stop-color="#ABAFF6"/>
<stop offset="0.95" stop-color="#B7A9F6"/>
</linearGradient>
<radialGradient id="paint2_radial" cx="0" cy="0" r="1" gradientUnits="userSpaceOnUse" gradientTransform="translate(962.201 208.39) scale(170.898 170.781)">
<stop stop-color="#92BCB4"/>
<stop offset="0.95" stop-color="#B9DAB1"/>
</radialGradient>
<clipPath id="clip0">
<rect width="921" height="635" fill="white" transform="translate(331 41)"/>
</clipPath>
</defs>
</svg>
