<svg xmlns="http://www.w3.org/2000/svg" width="323" height="255" fill="none" viewBox="0 0 323 255">
    <path fill="#EBF3FF" d="M92.066 174.13c194.622 44.294 205.483 42.548 226.098-4.703 7.924-18.235 9.232-115.304-20.724-144.012-29.957-28.708-121.811-37.563-186.363 1.618-64.552 39.181-71.672 63.943-81.203 96.175-8.148 27.553 40.868 46.055 62.192 50.922z"/>
    <path fill="#9B9B9B" d="M171.641 153.155c.065 1.894.065 3.662 4.316 6.314 3.479 2.21 36.979 22.541 41.811 24.309 4.509 1.641 5.734.126 6.764-1.705 1.095-1.831 9.148-26.455 9.277-29.044.193-2.589-.258-3.915-.902-4.104-.644-.19-44.645-23.677-44.645-23.677l-16.621 27.907z"/>
    <path fill="#B4B4B4" d="M217.64 181.757c-.708-.316-41.552-22.793-44.194-25.571-2.641-2.778-1.481-4.041-.773-5.493.709-1.452 11.403-25.761 12.563-26.708 1.224-.947 2.383-.379 3.994.379 1.095.505 39.684 21.656 41.295 22.73 1.675 1.073 2.963 1.768 2.899 3.031 0 .883-8.826 28.98-10.243 30.685-1.289 1.578-3.35 2.02-5.541.947z"/>
    <path fill="#fff" d="M176.536 153.218c.322-.442 11.789-25.887 11.789-25.887l39.621 21.72-10.566 27.908-40.844-23.741z"/>
    <path fill="#5C8CD7" d="M193.481 149.746c-.387 4.041 4.123 9.913 9.534 11.491 5.412 1.578 9.986-3.915 9.986-7.703 0-3.915-4.639-10.102-9.148-10.986-4.703-1.01-9.857 2.147-10.372 7.198z"/>
    <path fill="#fff" d="M199.344 151.135l6.571 3.662-1.418-6.125-5.153 2.463z"/>
    <path fill="#7854C6" d="M255.808 150.545c-25.253-16.572-34.208-19.098-37.107-17.188-2.899 1.91-12.434 11.089-11.081 12.136 1.353 1.047 7.151-6.161 9.084-4.928 1.932 1.232 2.512 5.421 7.473 6.653 4.96 1.232 6.7.616 8.375 1.848 4.187 3.019 17.265 12.136 19.391 10.966 2.126-1.171 3.865-9.487 3.865-9.487z"/>
    <g clip-path="url(#a)">
        <path fill="#D4A2F3" d="M55.468 148.148c-.58 18.795.386 24.073-1.74 28.322-2.125 4.248-7.859 15.512-7.859 15.512l9.084 5.149s10.565-10.491 12.111-16.284c1.546-5.858 4.123-28.579 3.35-28.322-.837.258-14.946-4.377-14.946-4.377zM120.02 148.148c.838 8.883 4.188 20.919 4.961 22.271.773 1.416 13.786-10.105 18.038-20.404 1.353-3.283.193-14.483 1.224-15.384 2.642-2.446 2.964 6.437 3.994 4.957 3.415-4.828 5.09-11.007 5.863-11.136 2.577-.45 1.868 1.802 1.224 4.313-.515 2.059 3.028-2.704 3.93-1.674.837.901 3.736 3.412 3.414 6.63-.322 3.025-4.703 11.457-8.826 15.641-2.126 2.124-3.285 4.828-5.54 8.11-2.255 3.219-16.686 22.593-19.713 24.588-2.642 1.738-4.768 4.442-9.986.258-5.154-4.184-13.722-30.188-11.918-32.441 1.804-2.189 13.335-5.729 13.335-5.729zM42.712 193.72c-4.445 8.882-6.313 16.864-15.397 18.087-7.602 1.03-16.685 3.283-9.792 5.6 14.882 4.892 17.008.129 20.937 1.158 5.992 1.61 8.504 2.961 9.793 1.996 2.577-1.931-3.093-3.025-4.832-4.699-1.74-1.674 8.955-15.705 8.955-15.705l-9.664-6.437z"/>
        <path fill="#6043B9" d="M53.987 195.844c9.47-1.416 14.43-5.793 14.43-5.793s44.645-4.506 45.354-3.991c3.479 2.575 15.461-3.347 15.461-3.347l-31.438 33.986-43.807-20.855z"/>
        <path fill="#1E1B4E" d="M84.91 224.165l5.733 8.497s-10.63 8.818-15.912 12.165c-4.316 2.768-14.109 4.377-15.977.451-2.512-5.085 2.062-10.557 7.409-13.582 6.893-3.926 18.747-7.531 18.747-7.531z"/>
        <path fill="#6043B9" d="M97.665 210.069c15.397-14.869 27.251-26.197 34.337-30.381 8.182-4.828 20.809-4.377 23.192-.708 4.381 6.758-2.77 18.344-9.405 23.687-10.244 8.239-34.853 20.919-43.808 25.038-8.955 4.12-11.338 5.021-11.338 5.021l-7.022-10.234c-.065.064 10.5-9.012 14.044-12.423z"/>
        <path fill="#6043B9" d="M116.09 223.972c-34.144-19.245-70.543-40.744-80.915-37.847-9.02 2.51-11.596 8.303-10.243 13.517 2.061 8.174 12.949 16.284 27.96 19.503 14.816 3.154 51.537 13.002 57.915 15.383l5.283-10.556z"/>
        <path fill="url(#b)" d="M54.952 150.208c-.193-11.972-.193-16.928.065-21.82.322-6.823 8.246-11.779 14.366-11.264 2.126.193 19.713 2.832 19.713 2.832s15.011 1.545 18.618 1.673c6.572.258 10.244 5.407 10.824 10.363.644 5.214 2.254 19.439 2.254 19.439l-9.921 4.506s-1.288 6.823.322 16.091c1.611 9.269 4.252 14.805 4.252 14.805s-8.31 9.14-25.447 8.56c-10.565-.386-22.226-3.668-22.226-3.668l-.966-38.749-11.854-2.768z"/>
        <path fill="url(#c)" d="M107.779 79.276c3.092 10.75 10.501 19.89 8.633 27.034-1.869 7.145-13.723 10.749-22.484 12.745-7.602 1.738-32.276-4.764-33.693-11.715-1.417-6.952 6.507-14.933 12.305-27.87 6.12-13.582 31.631-12.874 35.239-.194z"/>
        <path fill="#D4A2F3" d="M84.394 92.793c-1.804-4.57-8.182-1.416-7.795 3.154.386 4.57 4.316 6.758 6.12 5.278l.515 22.335 13.851 4.828s-.257-11.2.58-13.26c.773-2.059 7.215-1.416 9.406-5.921 1.675-3.541-1.095-18.924-2.255-26.52 0 0-4.703 7.853-10.308 9.656-5.605 1.802-10.114.45-10.114.45z"/>
        <path fill="#1E1B4E" d="M116.09 223.972c7.28 2.639 17.845 5.15 20.293 6.823 3.35 2.253 7.667 8.625 5.992 10.749-1.675 2.189-6.765 3.927-14.044 2.06-7.28-1.867-18.168-9.011-17.523-9.14.644-.129 5.282-10.492 5.282-10.492z"/>
        <path stroke="#4927B0" stroke-miterlimit="10" stroke-width=".864" d="M61.782 194.943c16.363 8.239 28.861 15.641 32.855 18.151 4.059 2.511 18.876 9.269 18.876 9.269M122.081 188.957c-6.313 5.213-22.999 21.756-26.027 23.88"/>
        <path stroke="#68B1A3" stroke-miterlimit="10" stroke-width=".864" d="M105.782 78.182c-1.095 4.12-2.577 12.68-11.21 15.64-6.635 2.254-10.694-1.415-10.694-1.415s-1.224-2.446-3.157-1.931c-1.932.515-3.994 3.154-3.414 7.016.58 3.476 3.8 4.634 5.54 3.797l.194 17.122"/>
        <path stroke="#68B1A3" stroke-miterlimit="10" stroke-width=".864" d="M104.687 82.559c.837 5.6 9.599 21.627 6.507 27.613-2.384 4.57-12.885 2.961-13.272 4.506-.386 1.544-.45 3.733-.45 3.733"/>
        <path stroke="#4927B0" stroke-miterlimit="10" stroke-width=".864" d="M87.293 227.77c4.703 1.545 8.89 2.253 8.89 2.253"/>
        <path stroke="#3962B5" stroke-miterlimit="10" stroke-width=".864" d="M108.488 136.949c2.642 2.703 8.053 9.848 2.384 19.052 0 0-.838 7.467 0 13.517.902 6.308 2.19 10.685 2.19 10.685M80.915 125.169l17.716 6.823-.644-10.685"/>
        <path stroke="#68B1A3" stroke-miterlimit="10" stroke-width=".864" d="M105.782 77.731c-5.218 9.848-16.557 8.947-26.736 10.814-29.892 5.471-19.133 14.675-6.442 21.691"/>
        <path fill="#545293" d="M258.593 220.184c-33.629-11.006-64.036-19.245-70.35-18.022-7.924 1.545-15.783 12.036-10.307 20.661 7.408 11.78 83.041 33.6 98.567 31.926 15.461-1.673 26.606-10.105 30.987-15.383 4.381-5.278 4.703-25.49 2.963-29.802-1.739-4.441-51.86 10.62-51.86 10.62z"/>
        <path fill="#545293" d="M243.648 218.961c16.878-21.756 29.054-29.415 35.69-30.638 6.635-1.223 29.377 32.441 21.195 38.749-8.117 6.308-56.885-8.111-56.885-8.111z"/>
        <path stroke="#3B3A4F" stroke-miterlimit="10" stroke-width=".864" d="M246.739 216.773c8.762 2.51 12.305 3.926 27.444 6.565 20.229 3.541 28.669 3.026 35.626-.965"/>
        <path fill="#1E1B4E" d="M229.409 243.035c-13.399-2.06-21.066-2.897-27.444-.644-6.377 2.253-4.316 6.823 0 9.655 4.317 2.832 11.725 2.703 18.941 3.926 7.215 1.223 16.17 3.025 18.231 1.288 2.384-1.996 4.896-7.853 2.384-9.72-2.448-1.866-12.112-4.505-12.112-4.505z"/>
        <path stroke="#3962B5" stroke-miterlimit="10" stroke-width=".864" d="M66.807 152.976c-.322-4.506-.58-14.74-.58-14.74"/>
        <path fill="url(#d)" d="M248.93 91.966c-3.221-3.025-5.669-3.926-5.411-8.368.257-4.44 1.997-9.526 7.924-9.204 6.12.386 14.044 6.372 13.915 6.18-3.414-9.012 19.778.257 21.131 4.827 1.353 4.57.257 14.74-1.869 19.696-2.126 5.02-5.411 7.466-4.574 15.062.258 2.124-11.08 1.738-13.979-1.996-2.899-3.797-6.056-14.418-6.056-14.418L248.93 91.966z"/>
        <path fill="#7854C6" d="M248.865 90.486c-.644 12.422-3.994 29.48 1.675 31.153 5.412 1.545 7.409.193 9.728 2.575.966.965 3.801 9.977 3.801 9.977l18.489-8.883-2.448-5.085s-.902-.193-3.092-.772c-2.19-.644-2.126-3.283-4.574-2.704-2.448.58-6.7.58-8.568-6.501 0 0 1.417.258 2.319-1.158.966-1.416 2.577-8.754.322-9.977-2.963-1.545-4.445 3.604-5.089 3.669-.645.064.579-5.858 0-7.982-.58-2.124-2.964.193-7.602-1.545-3.737-1.416-4.961-2.767-4.961-2.767zM237.205 172.811l-.644 18.022s-30.794-7.08-34.595-9.011c-3.866-1.995-9.342-10.749-10.888-10.427-1.482.321.451 2.96 1.417 5.02.967 2.06 2.32 5.857.773 5.664-1.224-.128-13.142-4.827-13.142-4.827s1.16 5.278 6.829 9.333c6.378 4.634 10.888 6.501 19.971 9.848 17.652 6.501 32.663 16.092 40.651 15.899 5.991-.129 9.212-4.377 9.792-7.596.58-3.218 1.16-29.801 1.16-29.801l-8.504-3.605-12.82 1.481z"/>
        <path fill="url(#e)" d="M235.916 178.282c.838-24.653-1.675-38.813 7.795-44.22 10.372-5.922 34.595-11.2 42.197-11.65 17.201-.902 19.971 27.42 20.809 39.392 1.095 15.126 4.767 52.201 4.767 52.201s-1.739 4.956-18.167 8.304c-16.428 3.347-36.463-4.699-36.463-4.699l-1.096-37.655-19.842-1.673z"/>
        <path stroke="#68B1A3" stroke-miterlimit="10" stroke-width=".864" d="M281.721 109.023c10.243-7.788 7.988-19.374 3.801-25.103-1.997-2.703-15.333-6.758-17.459-6.694-2.126.129-3.028 1.159-2.834 3.412 0 0 0 1.995 1.224 4.956 1.417 3.411 3.865 4.377 5.411 1.995 1.482-2.253-3.028-5.085-9.47-8.882-5.669-3.347-8.053-11.844-16.363-8.304-5.412 2.317-4.896 15.513 0 18.731 4.703 3.025 13.013 1.802 14.946 3.926 1.932 2.124.58 7.402.58 7.402"/>
        <path stroke="#9D82E8" stroke-miterlimit="10" stroke-width=".864" d="M255.759 160.002c-.129 6.243 0 19.953 0 19.953M258.915 161.868l-2.899 5.471"/>
    </g>
    <path fill="#AAC6FC" d="M88.054 33.76c4.234 0 7.667-3.282 7.667-7.331s-3.433-7.331-7.667-7.331-7.666 3.282-7.666 7.33c0 4.05 3.432 7.332 7.666 7.332zM163.172 24.396c7.045 0 12.756-5.461 12.756-12.198S170.217 0 163.172 0s-12.756 5.461-12.756 12.198 5.711 12.198 12.756 12.198zM140.432 54.952c2.81 0 5.089-2.179 5.089-4.867s-2.279-4.867-5.089-4.867c-2.811 0-5.09 2.18-5.09 4.867 0 2.688 2.279 4.867 5.09 4.867z"/>
    <defs>
        <linearGradient id="b" x1="89.489" x2="86.52" y1="201.271" y2="107.89" gradientUnits="userSpaceOnUse">
            <stop offset=".002" stop-color="#5C8CD7"/>
            <stop offset="1" stop-color="#416FC0"/>
        </linearGradient>
        <radialGradient id="c" cx="0" cy="0" r="1" gradientTransform="matrix(61.6861 0 0 61.6323 77.069 60.659)" gradientUnits="userSpaceOnUse">
            <stop offset="0" stop-color="#7FBEB6"/>
            <stop offset=".948" stop-color="#ACDCB2"/>
        </radialGradient>
        <radialGradient id="d" cx="0" cy="0" r="1" gradientTransform="matrix(100.622 0 0 100.534 313.427 126.359)" gradientUnits="userSpaceOnUse">
            <stop offset="0" stop-color="#B1BE8B"/>
            <stop offset=".948" stop-color="#7FD6C2"/>
        </radialGradient>
        <linearGradient id="e" x1="276.286" x2="270.373" y1="270.578" y2="98.043" gradientUnits="userSpaceOnUse">
            <stop offset=".002" stop-color="#86BCFA"/>
            <stop offset=".948" stop-color="#BFACFA"/>
        </linearGradient>
        <clipPath id="a">
            <path fill="#fff" d="M0 0h315.841v238.78H0z" transform="translate(0 15.489) scale(1.00089)"/>
        </clipPath>
    </defs>
</svg>
