<?xml version="1.0" encoding="utf-8"?>
<!-- Generator: Adobe Illustrator 23.0.1, SVG Export Plug-In . SVG Version: 6.00 Build 0)  -->
<svg version="1.1" id="Layer_1" xmlns="http://www.w3.org/2000/svg" xmlns:xlink="http://www.w3.org/1999/xlink" x="0px" y="0px"
	 viewBox="0 0 137.5 137.5" style="enable-background:new 0 0 137.5 137.5;" xml:space="preserve">
<style type="text/css">
	.st0{fill:url(#SVGID_1_);}
	.st1{fill:none;stroke:#A50043;stroke-miterlimit:10;}
	.st2{opacity:0.15;fill:#AF0050;}
	.st3{fill:#F1F1F1;}
</style>
<linearGradient id="SVGID_1_" gradientUnits="userSpaceOnUse" x1="0" y1="68.75" x2="137.5" y2="68.75">
	<stop  offset="0" style="stop-color:#DC6355"/>
	<stop  offset="1" style="stop-color:#B75994"/>
</linearGradient>
<circle class="st0" cx="68.75" cy="68.75" r="68.75"/>
<path class="st1" d="M137.58,89.55"/>
<path class="st1" d="M93.84,45.81"/>
<path class="st2" d="M135.09,86.84c-6.39,23.42-24.86,41.86-48.3,48.21L47.62,95.88l19.13-2.38l13-5.25L92,61.5l0.67-13l1.38-2.83
	L135.09,86.84z"/>
<path class="st1" d="M94.33,142.89"/>
<path class="st1" d="M44.52,93.08"/>
<circle class="st2" cx="61.92" cy="48.07" r="5.69"/>
<circle class="st2" cx="80.89" cy="50.83" r="5.69"/>
<circle class="st2" cx="48.34" cy="61.59" r="5.69"/>
<circle class="st2" cx="51" cy="80.57" r="5.69"/>
<g>
	<g id="palette_5_">
		<path class="st3" d="M45.67,45.32c-13.59,13.52-13.64,35.2-0.13,48.79s35.2,13.64,48.79,0.13c2.17-2.16,2.18-5.96,0.02-8.13
			c-1.08-1.09-2.16-1.63-3.79-1.64c-1.35-0.27-2.71-0.55-3.79-1.64c-2.16-2.17-2.15-5.97,0.02-8.13l4.89-4.87
			c7.61-7.57,7.64-19.5,0.07-27.11C79.86,30.77,59.26,31.8,45.67,45.32z M55.05,84.65c-2.17,2.16-5.97,2.15-8.13-0.02
			c-2.16-2.17-2.15-5.97,0.02-8.13c2.17-2.16,5.97-2.15,8.13,0.02C57.24,78.69,57.23,82.48,55.05,84.65z M52.39,65.67
			c-2.17,2.16-5.97,2.15-8.13-0.02c-2.16-2.17-2.15-5.97,0.02-8.13c2.17-2.16,5.97-2.15,8.13,0.02
			C54.58,59.71,54.57,63.5,52.39,65.67z M65.98,52.15c-2.17,2.16-5.97,2.15-8.13-0.02c-2.16-2.17-2.15-5.97,0.02-8.13
			c2.17-2.16,5.97-2.15,8.13,0.02C68.16,46.19,68.15,49.98,65.98,52.15z M84.95,54.91c-2.17,2.16-5.97,2.15-8.13-0.02
			c-2.16-2.17-2.15-5.97,0.02-8.13c2.17-2.16,5.97-2.15,8.13,0.02C87.13,48.95,87.12,52.74,84.95,54.91z"/>
	</g>
</g>
</svg>
