<?xml version="1.0" encoding="utf-8"?>
<!-- Generator: Adobe Illustrator 23.0.1, SVG Export Plug-In . SVG Version: 6.00 Build 0)  -->
<svg version="1.1" id="Layer_1" xmlns="http://www.w3.org/2000/svg" xmlns:xlink="http://www.w3.org/1999/xlink" x="0px" y="0px"
	 viewBox="0 0 137.5 137.5" style="enable-background:new 0 0 137.5 137.5;" xml:space="preserve">
<style type="text/css">
	.st0{fill:url(#SVGID_1_);}
	.st1{opacity:0.15;fill:#500089;}
	.st2{fill:#F1F1F1;}
</style>
<linearGradient id="SVGID_1_" gradientUnits="userSpaceOnUse" x1="0" y1="68.75" x2="137.5" y2="68.75">
	<stop  offset="0" style="stop-color:#A463A6"/>
	<stop  offset="1" style="stop-color:#5B59D4"/>
</linearGradient>
<circle class="st0" cx="68.75" cy="68.75" r="68.75"/>
<path class="st1" d="M74.22,137.29c32.62-2.57,58.83-27.9,62.77-60.11l-33.92-33.92l-20.75-1L40.8,83.78l-3.05,16.77L74.22,137.29z"
	/>
<g>
	<path class="st2" d="M78.79,45.78l13.56,13.56L58.02,93.67L44.47,80.11L78.79,45.78z M102.64,42.51l-6.05-6.05
		c-2.34-2.34-6.13-2.34-8.48,0l-5.79,5.79l13.56,13.56l6.76-6.76C104.45,47.25,104.45,44.33,102.64,42.51z M37.37,99.17
		c-0.25,1.11,0.76,2.11,1.87,1.84l15.11-3.66L40.8,83.78L37.37,99.17z"/>
</g>
</svg>
