<?xml version="1.0" encoding="utf-8"?>
<!-- Generator: Adobe Illustrator 23.0.1, SVG Export Plug-In . SVG Version: 6.00 Build 0)  -->
<svg version="1.1" id="Layer_1" xmlns="http://www.w3.org/2000/svg" xmlns:xlink="http://www.w3.org/1999/xlink" x="0px" y="0px"
	 viewBox="0 0 137.5 137.5" style="enable-background:new 0 0 137.5 137.5;" xml:space="preserve">
<style type="text/css">
	.st0{fill:url(#SVGID_1_);}
	.st1{opacity:0.15;fill:#497F5F;}
	.st2{fill:#FFFFFF;}
	.st3{fill:#56BA56;}
</style>
<linearGradient id="SVGID_1_" gradientUnits="userSpaceOnUse" x1="0" y1="68.75" x2="137.5" y2="68.75">
	<stop  offset="0" style="stop-color:#C5E873"/>
	<stop  offset="1" style="stop-color:#48A633"/>
</linearGradient>
<circle class="st0" cx="68.75" cy="68.75" r="68.75"/>
<path class="st1" d="M85.62,135.42c26.52-6.69,46.91-28.78,51.09-56.21L91.69,34.23c0,0-8.36,2.48-7.86,13.23s2.63,25.5-4.25,31.88
	S48.74,98.39,48.74,98.39L85.62,135.42z"/>
<g>
	<g>
		<path class="st2" d="M100.39,57.07h-1.16c-1.67-4.47-4.51-8.51-8.32-11.78c0-0.01,0-0.01,0-0.03c-0.57-2.03-0.14-4.2,1.24-6.47
			c0.71-1.17,0.76-2.58,0.1-3.78c-0.64-1.18-1.86-1.93-3.17-1.93c-0.16,0-0.31,0.01-0.46,0.03c-5.3,0.67-8.47,3.14-10.29,5.43
			c-3.17-0.89-6.45-1.34-9.79-1.34c-8.61,0-16.7,3.01-22.81,8.47c-6.17,5.52-9.56,12.87-9.56,20.71c0,2.03,0.23,4.06,0.7,6.04
			c0,0.03,0.01,0.07,0.03,0.1c0,0,0.01,0.03,0.03,0.09c0.49,2,1.2,3.96,2.13,5.81c1.53,3.4,3.37,6.23,5.44,8.42
			c2.94,3.09,3.44,7.01,3.51,8.58v0.77c0,0.04,0,0.09,0,0.15c0,0.07,0,0.15,0.01,0.2c0.17,1.8,1.67,3.18,3.44,3.18h10.64
			c1.9,0,3.45-1.59,3.45-3.53v-0.73c1.66,0.13,3.33,0.16,5,0.07v0.67c0,1.94,1.56,3.53,3.45,3.53h10.64c1.9,0,3.45-1.59,3.45-3.53
			v-2.66c0.01-0.63,0.26-3.61,3.01-6.17c0.13-0.12,0.27-0.23,0.4-0.35c0.01-0.01,0.01-0.01,0.03-0.03c0.03-0.03,0.07-0.06,0.1-0.09
			c3.57-3.27,6.24-7.25,7.78-11.6h1c2.71,0,4.93-2.26,4.93-5.04v-8.12C105.32,59.33,103.11,57.07,100.39,57.07z M40.19,71.69
			 M51.41,95.3"/>
		<path class="st3" d="M70.87,64.94h-5.12c-1.83,0-3.33-1.52-3.33-3.4c0-1.88,1.49-3.4,3.33-3.4h9.06c1.26,0,2.29-1.06,2.29-2.34
			s-1.03-2.34-2.29-2.34h-4.18V50.3c0-1.29-1.03-2.34-2.29-2.34c-1.26,0-2.29,1.06-2.29,2.34v3.15h-0.27
			c-4.36,0-7.91,3.63-7.91,8.09s3.55,8.09,7.91,8.09h5.12c1.83,0,3.33,1.52,3.33,3.4s-1.49,3.4-3.33,3.4h-9.21
			c-1.26,0-2.29,1.06-2.29,2.34c0,1.29,1.03,2.34,2.29,2.34h4.36v3.2c0,1.29,1.03,2.34,2.29,2.34c1.26,0,2.29-1.06,2.29-2.34v-3.2
			h0.32c0.02,0,0.04,0,0.06,0c4.32-0.06,7.82-3.67,7.82-8.09C78.78,68.57,75.23,64.94,70.87,64.94z"/>
	</g>
</g>
</svg>
