<?xml version="1.0" encoding="utf-8"?>
<!-- Generator: Adobe Illustrator 23.0.1, SVG Export Plug-In . SVG Version: 6.00 Build 0)  -->
<svg version="1.1" id="Layer_1" xmlns="http://www.w3.org/2000/svg" xmlns:xlink="http://www.w3.org/1999/xlink" x="0px" y="0px"
	 viewBox="0 0 137.5 137.5" style="enable-background:new 0 0 137.5 137.5;" xml:space="preserve">
<style type="text/css">
	.st0{fill:url(#SVGID_1_);}
	.st1{opacity:0.15;fill:#448276;}
	.st2{fill:#FFFFFF;}
	.st3{fill:#35A892;}
</style>
<linearGradient id="SVGID_1_" gradientUnits="userSpaceOnUse" x1="0" y1="68.75" x2="137.5" y2="68.75">
	<stop  offset="0" style="stop-color:#7AE87C"/>
	<stop  offset="1" style="stop-color:#2AAFBD"/>
</linearGradient>
<circle class="st0" cx="68.75" cy="68.75" r="68.75"/>
<path class="st1" d="M99.89,37.05l-2.04,0.07L86.48,26.39l-8.36,14.97l17.74,17.82l36.19,36.45c2.79-6.56,4.59-13.63,5.21-21.05
	L99.89,37.05"/>
<path class="st1" d="M38.44,98.67l54.48-28.92l34.62,34.67c-10.7,17.59-29.07,30.01-50.47,32.59L38.44,98.67"/>
<g>
	<path class="st2" d="M60.16,101.02c-0.64,0-1.27-0.1-1.88-0.28c-1.66-0.49-3.05-1.63-3.86-3.15l-3.09-5.76
		c-0.27-0.51-0.25-1.13,0.05-1.63c0.31-0.49,0.85-0.79,1.43-0.77c0.58,0.02,1.11,0.34,1.38,0.86l3.09,5.76
		c0.41,0.76,1.1,1.33,1.93,1.57c0.83,0.25,1.72,0.16,2.48-0.25l11.46-6.18c1.58-0.85,2.17-2.82,1.32-4.4l-3.14-5.85
		c-0.28-0.51-0.27-1.14,0.04-1.64c0.31-0.5,0.86-0.79,1.44-0.77c0.58,0.02,1.11,0.35,1.39,0.87l3.14,5.86
		c1.69,3.16,0.51,7.1-2.64,8.81l-11.46,6.17C62.29,100.74,61.23,101.02,60.16,101.02z"/>
	<path class="st2" d="M46.5,96.72l-2.6,5.21c-0.17,0.34-0.49,0.57-0.87,0.64c-0.37,0.06-0.75-0.06-1.02-0.33l-7.7-7.69
		c-0.27-0.27-0.39-0.65-0.33-1.02c0.06-0.37,0.3-0.7,0.64-0.87l5.21-2.6L46.5,96.72z"/>
	<path class="st2" d="M92.65,71.62L46.5,96.72l-6.67-6.67l25.1-46.15c0.18-0.33,0.5-0.55,0.87-0.6c0.37-0.05,0.74,0.07,1,0.33
		l26.12,26.12c0.26,0.26,0.39,0.63,0.33,1C93.2,71.12,92.98,71.44,92.65,71.62z"/>
	<path class="st2" d="M92.66,71.62l-46.15,25.1l-3.33-3.33l37.25-36.14l12.49,12.49c0.27,0.26,0.39,0.63,0.34,1
		C93.21,71.12,92.98,71.44,92.66,71.62z"/>
	<g>
		<path class="st2" d="M89.28,49.26c-0.74,0-1.42-0.45-1.7-1.14c-0.28-0.69-0.13-1.48,0.4-2.01L97.09,37
			c0.45-0.51,1.15-0.73,1.82-0.56c0.66,0.16,1.18,0.68,1.35,1.34c0.17,0.66-0.05,1.36-0.56,1.82l-9.12,9.12
			C90.24,49.07,89.77,49.26,89.28,49.26z"/>
		<path class="st2" d="M78.85,41.45c-0.65,0-1.26-0.35-1.59-0.91c-0.33-0.56-0.34-1.26-0.02-1.83l6.51-11.73
			c0.49-0.89,1.62-1.21,2.51-0.71c0.89,0.5,1.21,1.62,0.71,2.51L80.47,40.5C80.14,41.09,79.52,41.45,78.85,41.45z"/>
		<path class="st2" d="M97.1,59.68c-0.84,0-1.57-0.57-1.78-1.38s0.15-1.67,0.89-2.07l11.72-6.5c0.89-0.49,2.01-0.17,2.51,0.71
			c0.49,0.89,0.17,2.01-0.71,2.51l-11.73,6.51C97.72,59.61,97.41,59.68,97.1,59.68z"/>
	</g>
	<path class="st2" d="M54.84,72.88c-0.19,0-0.39-0.05-0.56-0.14c-0.57-0.31-0.79-1.02-0.48-1.6l5.84-10.84
		c0.31-0.57,1.02-0.79,1.6-0.48c0.57,0.31,0.79,1.02,0.48,1.6l-5.84,10.84C55.68,72.64,55.28,72.88,54.84,72.88z"/>
	<path class="st2" d="M62.34,58.71c-0.41,0-0.79-0.21-1-0.56c-0.21-0.35-0.23-0.78-0.05-1.15l1.67-3.34c0.29-0.58,1-0.82,1.58-0.53
		c0.58,0.29,0.82,1,0.53,1.58l-1.67,3.34C63.2,58.46,62.79,58.71,62.34,58.71z"/>
	<path class="st2" d="M92.66,71.62l-2.94,1.59L63.34,46.83l1.59-2.94c0.18-0.33,0.5-0.55,0.87-0.6c0.37-0.05,0.74,0.08,1,0.34
		l26.11,26.11c0.27,0.26,0.39,0.63,0.34,1C93.21,71.12,92.98,71.44,92.66,71.62z"/>
</g>
<path class="st3" d="M86.05,26.18"/>
<path class="st3" d="M77.97,41.22"/>
<path class="st3" d="M97.23,37.26"/>
<path class="st3" d="M86.05,26.18"/>
<path class="st3" d="M35.98,94.21"/>
</svg>
