<?xml version="1.0" encoding="utf-8"?>
<!-- Generator: Adobe Illustrator 23.0.1, SVG Export Plug-In . SVG Version: 6.00 Build 0)  -->
<svg version="1.1" id="Layer_1" xmlns="http://www.w3.org/2000/svg" xmlns:xlink="http://www.w3.org/1999/xlink" x="0px" y="0px"
	 viewBox="0 0 137.5 137.5" style="enable-background:new 0 0 137.5 137.5;" xml:space="preserve">
<style type="text/css">
	.st0{fill:url(#SVGID_1_);}
	.st1{opacity:0.15;fill:#7F613C;}
	.st2{fill:#FFFFFF;}
</style>
<linearGradient id="SVGID_1_" gradientUnits="userSpaceOnUse" x1="0" y1="68.75" x2="137.5" y2="68.75">
	<stop  offset="0" style="stop-color:#FFD03F"/>
	<stop  offset="0.9637" style="stop-color:#E1843D"/>
	<stop  offset="1" style="stop-color:#E08E3D"/>
</linearGradient>
<circle class="st0" cx="68.75" cy="68.75" r="68.75"/>
<path class="st1" d="M136.07,82.75c-6.17,29.83-31.67,52.59-62.82,54.6c-1.49,0.1-2.99,0.15-4.5,0.15L34.46,98.36l8.36-5.88
	l3.1,3.12l1.8-0.18l0.12-7.37l-13.5-13.49l56.81-36.93L136.07,82.75z"/>
<g>
	<g>
		<rect x="60.64" y="76.7" class="st2" width="2.56" height="25.06"/>
		<rect x="74.3" y="76.7" class="st2" width="2.56" height="25.06"/>
		<path class="st2" d="M96.06,97.06h-6.83c-0.71,0-1.28-0.57-1.28-1.28V76.7h2.56V94.5h5.55L96.06,97.06L96.06,97.06z"/>
		<path class="st2" d="M48.27,97.06h-6.83V94.5h5.55V76.7h2.56v19.09C49.55,96.49,48.97,97.06,48.27,97.06z"/>
	</g>
	<g>
		<circle class="st2" cx="61.92" cy="104.32" r="5.12"/>
		<circle class="st2" cx="75.58" cy="104.32" r="5.12"/>
		<circle class="st2" cx="98.62" cy="95.78" r="5.12"/>
	</g>
	<path class="st2" d="M97.88,53.67c-0.11-12.58-10.35-22.74-22.95-22.74c-0.15,0-0.29,0-0.44,0L91.58,78.4h3.47
		c6.92,0,12.53-5.61,12.53-12.53C107.58,59.93,103.44,54.95,97.88,53.67z"/>
	<path class="st2" d="M94.04,53.67c-0.1-12.43-8.78-22.51-19.54-22.74c-8.47,0.16-15.82,4.91-19.67,11.86
		c-0.82-0.36-1.7-0.6-2.62-0.72c-0.41-0.05-0.83-0.08-1.26-0.08c-4.97,0-9.07,3.7-9.7,8.5c-6.46,1.28-11.34,6.98-11.34,13.82
		c0,7.79,6.31,14.09,14.09,14.09h3.26c0,0,44.31,0,44.31,0c6.01,0,10.88-5.61,10.88-12.53C102.46,59.93,98.86,54.95,94.04,53.67z"/>
	<circle class="st2" cx="38.88" cy="95.78" r="5.12"/>
</g>
</svg>
